<?xml version="1.0" encoding="utf-8"?>
<!-- Generator: Adobe Illustrator 23.0.2, SVG Export Plug-In . SVG Version: 6.00 Build 0)  -->
<svg version="1.1" id="Layer_1" xmlns="http://www.w3.org/2000/svg" xmlns:xlink="http://www.w3.org/1999/xlink" x="0px" y="0px"
	 viewBox="0 0 4000 4000" style="enable-background:new 0 0 4000 4000;" xml:space="preserve">
<style type="text/css">
	.st0{clip-path:url(#SVGID_4_);fill:url(#SVGID_5_);}
	.st1{clip-path:url(#SVGID_7_);fill:url(#SVGID_8_);}
	.st2{clip-path:url(#SVGID_10_);fill:url(#SVGID_11_);}
	.st3{clip-path:url(#SVGID_13_);fill:url(#SVGID_14_);}
	.st4{filter:url(#Adobe_OpacityMaskFilter);}
	.st5{fill:url(#SVGID_15_);}
	.st6{mask:url(#SVGID_1_);fill-rule:evenodd;clip-rule:evenodd;fill:#990038;}
	.st7{fill:none;stroke:#231916;stroke-width:0.5669;stroke-miterlimit:22.9256;}
	.st8{clip-path:url(#SVGID_17_);fill:url(#SVGID_18_);}
	.st9{clip-path:url(#SVGID_20_);fill:url(#SVGID_21_);}
	.st10{clip-path:url(#SVGID_23_);fill:url(#SVGID_24_);}
	.st11{clip-path:url(#SVGID_26_);fill:url(#SVGID_27_);}
	.st12{clip-path:url(#SVGID_29_);fill:url(#SVGID_30_);}
	.st13{clip-path:url(#SVGID_32_);fill:url(#SVGID_33_);}
	.st14{clip-path:url(#SVGID_35_);fill:url(#SVGID_36_);}
	.st15{clip-path:url(#SVGID_38_);fill:url(#SVGID_39_);}
	.st16{clip-path:url(#SVGID_41_);fill:url(#SVGID_42_);}
	.st17{clip-path:url(#SVGID_44_);fill:url(#SVGID_45_);}
	.st18{filter:url(#Adobe_OpacityMaskFilter_1_);}
	.st19{fill:url(#SVGID_46_);}
	.st20{mask:url(#SVGID_2_);fill-rule:evenodd;clip-rule:evenodd;fill:#102770;}
	.st21{fill:#231916;}
</style>
<g>
	<g>
		<g>
			<defs>
				<path id="SVGID_3_" d="M1540.6,2678.3c385.7-89.4,592.9-278.7,677-538.6c-118.3,16.2-171.8,42.8-223.6,52.3
					C1896.7,2430.1,1699.5,2590.5,1540.6,2678.3"/>
			</defs>
			<clipPath id="SVGID_4_">
				<use xlink:href="#SVGID_3_"  style="overflow:visible;"/>
			</clipPath>
			
				<linearGradient id="SVGID_5_" gradientUnits="userSpaceOnUse" x1="1982.7252" y1="1669.2355" x2="1307.2006" y2="1159.8842" gradientTransform="matrix(1 0 0 -1 0 4000)">
				<stop  offset="0" style="stop-color:#00478F"/>
				<stop  offset="1" style="stop-color:#29C4FF"/>
			</linearGradient>
			<rect x="1540.6" y="2139.6" class="st0" width="677" height="538.6"/>
		</g>
	</g>
	<g>
		<g>
			<defs>
				<path id="SVGID_6_" d="M1699.2,2837.8c352-181.3,506.4-415.6,524.2-688.2c-110.7,44.7-156.1,83.6-204,105.6
					C1983.6,2509.9,1831.8,2713.8,1699.2,2837.8"/>
			</defs>
			<clipPath id="SVGID_7_">
				<use xlink:href="#SVGID_6_"  style="overflow:visible;"/>
			</clipPath>
			
				<linearGradient id="SVGID_8_" gradientUnits="userSpaceOnUse" x1="2089.5774" y1="1677.5784" x2="1531.0992" y2="932.1227" gradientTransform="matrix(1 0 0 -1 0 4000)">
				<stop  offset="0" style="stop-color:#00478F"/>
				<stop  offset="1" style="stop-color:#29C4FF"/>
			</linearGradient>
			<rect x="1699.2" y="2149.6" class="st1" width="524.2" height="688.2"/>
		</g>
	</g>
	<g>
		<g>
			<defs>
				<path id="SVGID_9_" d="M1931.9,2902c243.1-224.7,315.2-448,268.6-671.7c-79.2,60.8-107.1,102.3-140.8,130.6
					C2087.9,2574.2,2011.1,2772.5,1931.9,2902"/>
			</defs>
			<clipPath id="SVGID_10_">
				<use xlink:href="#SVGID_9_"  style="overflow:visible;"/>
			</clipPath>
			
				<linearGradient id="SVGID_11_" gradientUnits="userSpaceOnUse" x1="2153.2004" y1="1681.814" x2="1988.5431" y2="1040.1431" gradientTransform="matrix(1 0 0 -1 0 4000)">
				<stop  offset="0" style="stop-color:#00478F"/>
				<stop  offset="1" style="stop-color:#29C4FF"/>
			</linearGradient>
			<rect x="1931.9" y="2230.4" class="st2" width="315.2" height="671.7"/>
		</g>
	</g>
	<g>
		<g>
			<defs>
				<path id="SVGID_12_" d="M1072,1526.3c133.7-622.8,962.7,167.1,1084.1,401.2c0,0,269.1,533.3-69.8,952
					c224.7-463-147-662.2-477.1-779.9c-368.4-131.4-312.6-403.9-442.1-469.3c-64.1-32.4-132.1,0-168.6,65.5
					C988.8,1638.5,994,1594.3,1072,1526.3"/>
			</defs>
			<clipPath id="SVGID_13_">
				<use xlink:href="#SVGID_12_"  style="overflow:visible;"/>
			</clipPath>
			
				<linearGradient id="SVGID_14_" gradientUnits="userSpaceOnUse" x1="1627.641" y1="2977.198" x2="1727.3243" y2="1885.6826" gradientTransform="matrix(1 0 0 -1 0 4000)">
				<stop  offset="0" style="stop-color:#FFCE4B"/>
				<stop  offset="1" style="stop-color:#D3226F"/>
			</linearGradient>
			<rect x="988.8" y="903.6" class="st3" width="1436.4" height="1976"/>
		</g>
	</g>
	<defs>
		<filter id="Adobe_OpacityMaskFilter" filterUnits="userSpaceOnUse" x="998.5" y="1522.9" width="1184.9" height="1291.9">
			<feColorMatrix  type="matrix" values="1 0 0 0 0  0 1 0 0 0  0 0 1 0 0  0 0 0 1 0"/>
		</filter>
	</defs>
	<mask maskUnits="userSpaceOnUse" x="998.5" y="1522.9" width="1184.9" height="1291.9" id="SVGID_1_">
		<g class="st4">
			
				<linearGradient id="SVGID_15_" gradientUnits="userSpaceOnUse" x1="-417.2802" y1="1247.9199" x2="-1339.3324" y2="2449.0928" gradientTransform="matrix(1 0 0 -1 2282.2234 3773.7681)">
				<stop  offset="0" style="stop-color:#FFFFFF"/>
				<stop  offset="1" style="stop-color:#000000"/>
			</linearGradient>
			<rect x="998.5" y="1522.9" class="st5" width="1184.9" height="1291.9"/>
		</g>
	</mask>
	<path class="st6" d="M2114.5,2814.8c160.9-417.1-191.1-603.1-505.3-715.2c-368.4-131.4-312.6-403.9-442.1-469.3
		c-64.1-32.4-132.1,0-168.6,65.5c0,0,131-423.7,666.6,55.4C1665,1751.2,2408.6,2084.3,2114.5,2814.8"/>
	<path class="st7" d="M1226.8,1690.6c364.1,354.3,660-997.4,1674.3-857.1c-977,97.7-931.9,1222.8-1448.9,1186.6"/>
	<g>
		<g>
			<defs>
				<path id="SVGID_16_" d="M1781.5,2153.9c79.9-197.4,60.7-347.1-27.7-464.4c-29.5,57.1-52.4,105.7-64.2,131.5
					C1742.5,1956.4,1778.5,2093.5,1781.5,2153.9"/>
			</defs>
			<clipPath id="SVGID_17_">
				<use xlink:href="#SVGID_16_"  style="overflow:visible;"/>
			</clipPath>
			
				<linearGradient id="SVGID_18_" gradientUnits="userSpaceOnUse" x1="1770.3478" y1="2126.865" x2="1812.8315" y2="1730.1404" gradientTransform="matrix(1 0 0 -1 0 4000)">
				<stop  offset="0" style="stop-color:#00478F"/>
				<stop  offset="1" style="stop-color:#51F4E9"/>
			</linearGradient>
			<rect x="1689.7" y="1689.5" class="st8" width="171.8" height="464.4"/>
		</g>
	</g>
	<g>
		<g>
			<defs>
				<path id="SVGID_19_" d="M1933.6,2183.5c81.3-288.1,31.4-494.3-110.2-644.7c-32.4,84.3-56.9,155.8-69.4,193.6
					C1848.6,1913.5,1920,2099.6,1933.6,2183.5"/>
			</defs>
			<clipPath id="SVGID_20_">
				<use xlink:href="#SVGID_19_"  style="overflow:visible;"/>
			</clipPath>
			
				<linearGradient id="SVGID_21_" gradientUnits="userSpaceOnUse" x1="1870.5522" y1="2237.2583" x2="1959.385" y2="1603.7687" gradientTransform="matrix(1 0 0 -1 0 4000)">
				<stop  offset="0" style="stop-color:#00478F"/>
				<stop  offset="1" style="stop-color:#29C4FF"/>
			</linearGradient>
			<rect x="1753.9" y="1538.8" class="st9" width="260.9" height="644.7"/>
		</g>
	</g>
	<g>
		<g>
			<defs>
				<path id="SVGID_22_" d="M2153.5,2176.2c43.2-328.3-44.2-546-223.1-688.1c-22.1,97.4-46.7,162.2-54.4,205.5
					C2008.4,1876.7,2125.3,2086.5,2153.5,2176.2"/>
			</defs>
			<clipPath id="SVGID_23_">
				<use xlink:href="#SVGID_22_"  style="overflow:visible;"/>
			</clipPath>
			
				<linearGradient id="SVGID_24_" gradientUnits="userSpaceOnUse" x1="1888.6461" y1="2461.7878" x2="2206.5129" y2="1829.0238" gradientTransform="matrix(1 0 0 -1 0 4000)">
				<stop  offset="0" style="stop-color:#003780"/>
				<stop  offset="1" style="stop-color:#B222D3"/>
			</linearGradient>
			<rect x="1875.9" y="1488" class="st10" width="320.7" height="688.1"/>
		</g>
	</g>
	<g>
		<g>
			<defs>
				<path id="SVGID_25_" d="M2325.2,2166.2c59.2-373.4-72.2-593.9-322.9-722c-19.4,35.7-37.4,70.2-53.7,102.3
					C2124.8,1752.9,2292.5,2051.7,2325.2,2166.2"/>
			</defs>
			<clipPath id="SVGID_26_">
				<use xlink:href="#SVGID_25_"  style="overflow:visible;"/>
			</clipPath>
			
				<linearGradient id="SVGID_27_" gradientUnits="userSpaceOnUse" x1="2180.7981" y1="2185.2437" x2="2581.6448" y2="1917.5923" gradientTransform="matrix(1 0 0 -1 0 4000)">
				<stop  offset="0" style="stop-color:#4E046D"/>
				<stop  offset="1" style="stop-color:#FF8BC7"/>
			</linearGradient>
			<rect x="1948.6" y="1444.2" class="st11" width="435.8" height="722"/>
		</g>
	</g>
	<g>
		<g>
			<defs>
				<path id="SVGID_28_" d="M2656.2,2049.8c-71.6-430-308.4-603.7-644.9-629c-14.4,26.1-28.2,51.8-41.1,76.5
					C2239.5,1632.7,2575.1,1931.3,2656.2,2049.8"/>
			</defs>
			<clipPath id="SVGID_29_">
				<use xlink:href="#SVGID_28_"  style="overflow:visible;"/>
			</clipPath>
			
				<linearGradient id="SVGID_30_" gradientUnits="userSpaceOnUse" x1="2010.2382" y1="2536.6753" x2="2823.4866" y2="1806.6843" gradientTransform="matrix(1 0 0 -1 0 4000)">
				<stop  offset="0" style="stop-color:#4E046D"/>
				<stop  offset="1" style="stop-color:#FF8BC7"/>
			</linearGradient>
			<rect x="1970.2" y="1420.7" class="st12" width="686" height="629"/>
		</g>
	</g>
	<g>
		<g>
			<defs>
				<path id="SVGID_31_" d="M2950,1843c-219.7-441-529.1-564.4-896.1-497.1c-22.1,37.4-43.2,75.3-62.8,111.6
					C2341.4,1518.9,2818.4,1737.9,2950,1843"/>
			</defs>
			<clipPath id="SVGID_32_">
				<use xlink:href="#SVGID_31_"  style="overflow:visible;"/>
			</clipPath>
			
				<linearGradient id="SVGID_33_" gradientUnits="userSpaceOnUse" x1="2384.9133" y1="2482.8152" x2="2996.2332" y2="2171.4209" gradientTransform="matrix(1 0 0 -1 0 4000)">
				<stop  offset="0" style="stop-color:#B91C58"/>
				<stop  offset="1" style="stop-color:#F95C97"/>
			</linearGradient>
			<rect x="1991.2" y="1278.6" class="st13" width="958.8" height="564.4"/>
		</g>
	</g>
	<g>
		<g>
			<defs>
				<path id="SVGID_34_" d="M3088.1,1592.6c-287.9-404.3-615.4-476-970.4-348.4c-25,37.4-49.5,77.2-72.7,117.2
					C2401.4,1357.7,2936.6,1506.5,3088.1,1592.6"/>
			</defs>
			<clipPath id="SVGID_35_">
				<use xlink:href="#SVGID_34_"  style="overflow:visible;"/>
			</clipPath>
			
				<linearGradient id="SVGID_36_" gradientUnits="userSpaceOnUse" x1="2224.3782" y1="2709.2524" x2="3226.1851" y2="2522.3594" gradientTransform="matrix(1 0 0 -1 0 4000)">
				<stop  offset="0" style="stop-color:#B91C58"/>
				<stop  offset="1" style="stop-color:#FF8BC7"/>
			</linearGradient>
			<rect x="2044.9" y="1116.6" class="st14" width="1043.2" height="476"/>
		</g>
	</g>
	<g>
		<g>
			<defs>
				<path id="SVGID_37_" d="M3029.6,1308.5c-291.1-295.6-570.9-309-846.9-153.8c-26.2,32.6-52.5,69.9-78.2,109.5
					C2391.6,1201.4,2887.8,1255.5,3029.6,1308.5"/>
			</defs>
			<clipPath id="SVGID_38_">
				<use xlink:href="#SVGID_37_"  style="overflow:visible;"/>
			</clipPath>
			
				<linearGradient id="SVGID_39_" gradientUnits="userSpaceOnUse" x1="2980.2805" y1="2773.5403" x2="2293.4785" y2="2893.8994" gradientTransform="matrix(1 0 0 -1 0 4000)">
				<stop  offset="0" style="stop-color:#FFCE4B"/>
				<stop  offset="1" style="stop-color:#D3226F"/>
			</linearGradient>
			<rect x="2104.4" y="999.5" class="st15" width="925.1" height="309"/>
		</g>
	</g>
	<g>
		<g>
			<defs>
				<path id="SVGID_40_" d="M1910.3,1636c191-324.2,410.8-744.4,990.9-802.4c-591.5-81.8-938.7,343.7-1197.5,642.4
					c-185.1,213.6-325,362.3-476.8,214.7c50.3,84,75,222.7,225.4,329.5C1662.3,2034.8,1779.6,1857.9,1910.3,1636"/>
			</defs>
			<clipPath id="SVGID_41_">
				<use xlink:href="#SVGID_40_"  style="overflow:visible;"/>
			</clipPath>
			
				<linearGradient id="SVGID_42_" gradientUnits="userSpaceOnUse" x1="1782.8683" y1="1889.7452" x2="2204.0269" y2="2963.8303" gradientTransform="matrix(1 0 0 -1 0 4000)">
				<stop  offset="0" style="stop-color:#00478F"/>
				<stop  offset="1" style="stop-color:#C11FDA"/>
			</linearGradient>
			<rect x="1226.8" y="751.7" class="st16" width="1674.3" height="1283.1"/>
		</g>
	</g>
	<g>
		<g>
			<defs>
				<path id="SVGID_43_" d="M3090.6,1062.8c-309-219.3-579-116.3-579-116.3c-148.5,78-261.8,187.3-355.2,306.4
					C2288.6,1086.2,2928.1,1032.9,3090.6,1062.8"/>
			</defs>
			<clipPath id="SVGID_44_">
				<use xlink:href="#SVGID_43_"  style="overflow:visible;"/>
			</clipPath>
			
				<linearGradient id="SVGID_45_" gradientUnits="userSpaceOnUse" x1="2993.4546" y1="2915.2246" x2="2034.6646" y2="3009.9092" gradientTransform="matrix(1 0 0 -1 0 4000)">
				<stop  offset="0" style="stop-color:#FFCE4B"/>
				<stop  offset="1" style="stop-color:#D3226F"/>
			</linearGradient>
			<rect x="2156.3" y="843.5" class="st17" width="934.2" height="409.4"/>
		</g>
	</g>
	<defs>
		<filter id="Adobe_OpacityMaskFilter_1_" filterUnits="userSpaceOnUse" x="1297.8" y="833.5" width="1603.4" height="1187.5">
			<feColorMatrix  type="matrix" values="1 0 0 0 0  0 1 0 0 0  0 0 1 0 0  0 0 0 1 0"/>
		</filter>
	</defs>
	<mask maskUnits="userSpaceOnUse" x="1297.8" y="833.5" width="1603.4" height="1187.5" id="SVGID_2_">
		<g class="st18">
			
				<linearGradient id="SVGID_46_" gradientUnits="userSpaceOnUse" x1="-1234.2347" y1="1420.634" x2="355.6948" y2="2387.562" gradientTransform="matrix(1 0 0 -1 2422.353 3402.1157)">
				<stop  offset="0" style="stop-color:#FFFFFF"/>
				<stop  offset="1" style="stop-color:#000000"/>
			</linearGradient>
			<rect x="1297.8" y="833.5" class="st19" width="1603.4" height="1187.5"/>
		</g>
	</mask>
	<path class="st20" d="M1823.3,1538.8c-331.4,510.6-525.6,299.9-525.6,299.9c31.5,60.9,75.8,125.5,154.5,181.4
		c210,14.7,327.3-162.3,458-384.1c191-324.2,410.8-744.4,990.9-802.4C2225.9,825.5,1823.3,1538.8,1823.3,1538.8"/>
	<path class="st21" d="M2900.3,3293.1h16.2v-214h-20.1l-80.9,124.7l-81.8-124.7c-7.9,0-11.6,0-19.5,0v214h16.5V3103l82.4,125.3h5.5
		l81.8-125.3L2900.3,3293.1L2900.3,3293.1z M2652.8,3079.2v132.8c0,91.6-131.2,91.9-131.2,0v-132.8h-16.2v132.8
		c0,112,163.6,111.7,163.6,0v-132.8H2652.8z M2464.2,3112.7c-21.1-31.4-47.6-36.3-78.1-36.3c-35.1,0-82.1,14-81.2,59.2
		c0,39.4,40,47.3,79,54.9c35.1,6.7,70.5,13.7,70.2,45.8c0,37.8-41.8,45.2-68.1,45.2c-26.2,0-59.8-12.8-72.9-38.8l-14.7,7.3
		c16.5,32.7,54.3,46.4,87.6,46.4c35.7,0,84.2-11.6,84.5-59.8c0-46.1-42.7-53.4-83.9-61.3c-36-6.7-65.3-13.1-65.3-40.3
		c0-34.2,39.7-43.3,64.7-43.3c24.1,0.3,49.1,4,64.7,29L2464.2,3112.7z M2206.3,3219.3c92.8,0,92.8-140.1,0-140.1
		c-31.1,0-62.6,0-93.7,0v214h16.5v-73.9L2206.3,3219.3L2206.3,3219.3z M2206.3,3094.4c71.1,0,71.1,109.9,0,109.9H2129v-109.9H2206.3
		z M2065.6,3293.1v-214h-16.2v214H2065.6z M1904.7,3293.1h40.3v-213.3h-46.1l-66.8,91.7l-66.8-91.7h-46.4v213.3h40.3V3138l68.1,92.9
		h7.9l69.6-92.6L1904.7,3293.1L1904.7,3293.1z M1687.4,3253.4h-119.9v-48.2h115.7v-37.5h-115.7v-49.4h119.9v-39.1h-159.9
		c0,71.3,0,142.8,0,214h159.9L1687.4,3253.4L1687.4,3253.4z M1424,3116.7c25.3,0,36.6,17.1,36.6,34.3c0,17.2-11,34.3-36.6,34.3
		h-61.3v-68.7H1424z M1511.6,3290.4l-64.7-72.9c40.6-8.2,54-37.8,54-67.3c0-37.1-26.6-70.7-76.9-71c-33.9,0.3-67.8,0-101.6,0v214
		h40.3v-71.4h38.8l62.3,71.4h47.9L1511.6,3290.4L1511.6,3290.4z M1182.9,3111.8c50.4,0,70.5,40.3,69.9,76.3
		c-0.6,35.1-19.5,72.9-69.9,72.9c-50.4,0-69.3-37.5-70.2-72.6C1111.8,3152.4,1132.5,3111.8,1182.9,3111.8z M1182.9,3075.2
		c-73.9,0-109.9,56.5-109.9,112.6c0,56.2,34.8,110.2,109.9,110.2s109-55.2,109.6-110.5C1293.1,3131.7,1256.5,3075.2,1182.9,3075.2z
		 M910.3,3079.2v214h150.2v-37.2H950.6v-176.7L910.3,3079.2L910.3,3079.2z"/>
</g>
</svg>
