<?xml version="1.0" encoding="utf-8"?>
<!-- Generator: Adobe Illustrator 23.0.2, SVG Export Plug-In . SVG Version: 6.00 Build 0)  -->
<svg version="1.1" id="katman_1" xmlns="http://www.w3.org/2000/svg" xmlns:xlink="http://www.w3.org/1999/xlink" x="0px" y="0px"
	 viewBox="0 0 500 500" style="enable-background:new 0 0 500 500;" xml:space="preserve">
<style type="text/css">
	.st0{fill:#EBEBEB;}
	.st1{fill:#E6E6E6;}
	.st2{fill:#F0F0F0;}
	.st3{fill:#F5F5F5;}
	.st4{fill:#FFFFFF;}
	.st5{fill:#FAFAFA;}
	.st6{fill:#E0E0E0;}
	.st7{fill:#FFB573;}
	.st8{fill:#263238;}
	.st9{fill:#339999;}
	.st10{opacity:0.2;enable-background:new    ;}
	.st11{fill:#ED893E;}
	.st12{fill:none;}
</style>
<g id="freepik--background-complete--inject-15">
	<rect x="-32.2" y="400.6" class="st0" width="564.4" height="0.3"/>
	<rect x="27" y="411.3" class="st0" width="37.4" height="0.3"/>
	<rect x="131.8" y="408.3" class="st0" width="38.9" height="0.3"/>
	<rect x="53.7" y="416.8" class="st0" width="62.6" height="0.3"/>
	<rect x="425.7" y="417.8" class="st0" width="48.8" height="0.3"/>
	<rect x="385.9" y="410.8" class="st0" width="25.9" height="0.3"/>
	<rect x="188.6" y="415.3" class="st0" width="105.7" height="0.3"/>
	<path class="st0" d="M235.3,350.2h-218c-3.6,0-6.4-2.9-6.4-6.4V37.4c0-3.5,2.9-6.4,6.4-6.4h218c3.6,0,6.4,2.9,6.4,6.4c0,0,0,0,0,0
		v306.3C241.8,347.3,238.9,350.2,235.3,350.2z M17.4,31.2c-3.4,0-6.2,2.8-6.2,6.2v306.4c0,3.4,2.8,6.2,6.2,6.2h218
		c3.4,0,6.2-2.8,6.2-6.2V37.4c0-3.4-2.8-6.2-6.2-6.2H17.4z"/>
	<path class="st0" d="M479.5,350.2h-218c-3.6,0-6.4-2.9-6.4-6.4V37.4c0-3.5,2.9-6.4,6.4-6.4h218c3.5,0,6.4,2.9,6.4,6.4v306.4
		C485.9,347.3,483.1,350.2,479.5,350.2z M261.5,31.2c-3.4,0-6.2,2.8-6.2,6.2v306.4c0,3.4,2.8,6.2,6.2,6.2h218c3.4,0,6.2-2.8,6.2-6.2
		V37.4c0-3.4-2.8-6.2-6.2-6.2H261.5z"/>
	<rect x="117.1" y="258.9" class="st1" width="17.2" height="66.5"/>
	<polygon class="st2" points="70.6,325.5 127.5,325.5 136.1,247.6 79.2,247.6 	"/>
	<polygon class="st3" points="64.4,325.5 123.2,325.5 131.8,247.6 73,247.6 	"/>
	<polygon class="st4" points="119,319.3 126.2,253.7 77.3,253.7 70,319.3 	"/>
	<path class="st3" d="M108.9,303.4l0.3-2.7c1.8-16.5-8.5-31.1-21.8-31.1l0,0l-0.3,2.7C85.3,288.8,95.6,303.4,108.9,303.4z"/>
	<rect x="89.4" y="73.2" class="st1" width="337.6" height="122.4"/>
	<rect x="83.3" y="73.2" class="st2" width="340.9" height="122.4"/>
	<rect x="89.4" y="195.7" class="st1" width="337.6" height="11.4"/>
	<rect x="73" y="195.7" class="st2" width="340.9" height="11.4"/>
	<rect x="91.8" y="81.8" class="st5" width="323.7" height="105.2"/>
	<polygon class="st4" points="380.9,187.1 338.8,81.8 301.9,81.8 344,187.1 	"/>
	<polygon class="st4" points="198.6,187.1 156.5,81.8 119.6,81.8 161.6,187.1 	"/>
	<polygon class="st4" points="336,187.1 294,81.8 279.6,81.8 321.6,187.1 	"/>
	<rect x="91.8" y="81.8" class="st1" width="1.1" height="105.2"/>
	<rect x="32.6" y="325.5" class="st1" width="50.6" height="75.1"/>
	<polygon class="st2" points="37.7,400.6 32.6,400.6 32.6,386.1 43,386.1 	"/>
	<rect x="174.4" y="325.5" class="st1" width="50.6" height="75.1"/>
	<rect x="32.6" y="325.5" class="st2" width="146.3" height="66.2"/>
	<polygon class="st2" points="173.8,400.6 178.9,400.6 178.9,386.1 168.4,386.1 	"/>
	<rect x="36.5" y="329.6" class="st1" width="138.4" height="26.7"/>
	<path class="st2" d="M96.5,347.1h18.5c8,0,15.7-3.3,21.2-9.1H75.3C80.8,343.8,88.5,347.1,96.5,347.1z"/>
	<rect x="36.5" y="360.6" class="st1" width="138.4" height="26.7"/>
	<path class="st2" d="M96.5,378.1h18.5c8,0,15.7-3.3,21.2-9.1H75.3C80.8,374.8,88.5,378.1,96.5,378.1z"/>
	<path class="st2" d="M357.1,294.2c-0.1-0.5-0.5-0.9-1-0.8h-40.6c-0.5,0-0.9,0.4-1,0.8L300,400.6h2.2l14.2-105.1h38.9l14.2,105.1
		h2.2L357.1,294.2z"/>
	<path class="st2" d="M435.9,294.2c-0.1-0.5-0.5-0.9-1-0.8h-40.6c-0.5,0-0.9,0.3-1,0.8l-14.4,106.4h2.2L395,295.4h38.9l14.2,105.1
		h2.2L435.9,294.2z"/>
	<path class="st6" d="M437,285.2H309.2c-6.1,0-11.1,2.9-11.1,6.6v0.2c0,1.3,1.8,2.4,4,2.4H444c2.3,0,4-1.1,4-2.4v-0.2
		C448.1,288.1,443.1,285.2,437,285.2z"/>
	<polygon class="st1" points="444.8,232.5 360.3,232.5 348.1,282.4 432.6,282.4 	"/>
	<polygon class="st1" points="432.6,282.4 432.2,285.2 347.7,285.2 348,282.4 	"/>
	<polygon class="st2" points="442.2,232.5 357.7,232.5 345.4,282.4 430,282.4 	"/>
	<polygon class="st4" points="428.2,280.1 439.3,234.8 359.5,234.8 348.4,280.1 	"/>
	<polygon class="st2" points="408,282.4 407.6,285.2 314.5,285.2 314.9,282.4 	"/>
	<path class="st1" d="M169.6,322.4h1.3c0-2.7,0-9.5,0.1-25.2c0.2-28.4,0.7-30.1,0.7-30.1l-3.1,13.1
		C166.6,294.7,169.2,309.3,169.6,322.4z"/>
	<path class="st1" d="M167,278.2c-4.5-5.3-14.1-6.9-23.9-8.2c-3.8-0.5,10.2,8.3,16.9,14.5c5.3,4.9,8.7,6.2,10.2,11
		C171,289.5,170.9,282.8,167,278.2z"/>
	<path class="st1" d="M173,287.8c4.5-5.3,14.1-6.9,23.9-8.2c3.8-0.5-10.2,8.3-16.9,14.5c-5.3,4.9-8.7,6.2-10.2,11
		C169,299.1,169.1,292.4,173,287.8z"/>
	<path class="st1" d="M171,265.8c3.4-6.4,11.8-12.4,21.3-14.7c3.7-0.9-8.6,11.8-13.3,20c-3.6,6.3-8.5,13.8-9.2,19.2
		C168.6,279.7,167.7,272.2,171,265.8z"/>
	<path class="st2" d="M170.6,325.5L170.6,325.5c-4,0-7.3-2-7.5-4.6l-0.7-4.4h16.4l-0.7,4.4C178,323.5,174.7,325.5,170.6,325.5z"/>
	<polygon class="st2" points="179.9,318.2 161.4,318.2 160.8,313.3 180.4,313.3 	"/>
</g>
<g id="freepik--Shadow--inject-15">
	<ellipse id="freepik--path--inject-15" class="st3" cx="250" cy="438.8" rx="218.9" ry="12.8"/>
</g>
<g id="freepik--Character--inject-15">
	<polygon class="st7" points="319.2,420.4 310.6,418.3 313.2,397.9 321.7,400 	"/>
	<polygon class="st7" points="393.9,429.8 385.1,429.8 378.2,409.3 387.1,409.3 	"/>
	<path class="st8" d="M383.9,428.7h10.8c0.4,0,0.7,0.2,0.8,0.6l1.7,7.9c0.1,0.7-0.3,1.4-1,1.5c-0.1,0-0.2,0-0.3,0
		c-3.5-0.1-6-0.3-10.4-0.3c-2.7,0-10.8,0.3-14.5,0.3s-4.2-3.7-2.7-4c6.8-1.5,11.9-3.5,14.1-5.5C382.9,429,383.4,428.7,383.9,428.7z"
		/>
	<path class="st8" d="M311,417.4l9.4,2.3c0.3,0.1,0.6,0.4,0.6,0.8l-0.2,8c0,0.7-0.6,1.3-1.3,1.3c-0.1,0-0.2,0-0.3,0
		c-3.4-0.9-8.2-2.3-12.4-3.3c-5-1.2-9.3-2-15.1-3.4c-3.5-0.9-3.6-4.7-2.1-4.6c7.1,0.2,12.6,1.4,19.3-0.8
		C309.5,417.3,310.2,417.2,311,417.4z"/>
	<path class="st7" d="M353.7,164.1c-0.6,1.8-1.2,3.4-1.9,5.1s-1.3,3.3-2,4.9c-1.4,3.2-3,6.4-4.7,9.5c-1.7,3.2-3.7,6.2-5.8,9.2
		c-2.2,3.1-4.7,6-7.5,8.6c-0.8,0.7-1.5,1.3-2.4,2c-0.5,0.3-0.8,0.6-1.3,0.9c-0.5,0.4-1.1,0.7-1.6,1c-2.3,1.2-5,1.9-7.6,1.8
		c-2.4-0.1-4.8-0.6-7.1-1.6c-1.9-0.9-3.7-2-5.4-3.3c-2.9-2.4-5.6-5.1-7.8-8.1c-1.1-1.4-2.1-3-3-4.5c-1-1.5-1.8-3.1-2.6-4.7l5.6-3.5
		c1,1.1,2.1,2.4,3.2,3.5c1.1,1.2,2.3,2.3,3.4,3.4c2.2,2.1,4.6,3.9,7.1,5.5c2.4,1.4,4.8,2.1,6.3,1.9c0.7-0.1,1.4-0.4,2-0.8
		c0.2-0.1,0.3-0.2,0.5-0.4c0.1-0.1,0.5-0.4,0.7-0.6c0.5-0.4,1-0.9,1.5-1.4c3.8-4,7.1-9.5,10-15.1c1.5-2.8,2.8-5.8,4.1-8.7
		c0.6-1.5,1.3-3,1.9-4.5c0.6-1.5,1.2-3,1.7-4.4L353.7,164.1z"/>
	<path class="st9" d="M357.3,159.8c1.9,8.2-16.2,29.3-16.2,29.3l-16.2-11.9c3.6-6.8,7.9-13.3,12.9-19.2
		C345.2,149.7,355.2,150.8,357.3,159.8z"/>
	<path class="st10" d="M339.2,173.6c-1.7,3.5-3.3,7.1-4.5,10.7l6.5,4.7c0,0,10.7-12.5,14.8-22C351,162.9,343.4,165.3,339.2,173.6z"
		/>
	<path class="st7" d="M299.6,182.6l-4.1-5.5l-7,8.2c0,0,4.2,4.2,9.5,2.6L299.6,182.6z"/>
	<polygon class="st7" points="286.2,174 283.9,183.5 288.4,185.3 295.4,177.1 	"/>
	<polygon class="st10" points="313.2,397.9 311.8,408.4 320.4,410.5 321.7,400 	"/>
	<polygon class="st10" points="387.1,409.3 378.2,409.3 381.8,419.9 390.6,419.9 	"/>
	<path class="st9" d="M396.9,158.6c-3.2,9.4-5.7,18.9-7.5,28.6c-1.3,6.8-2.3,13.3-2.9,19.2c-1.6,13.8-2,24.4-2.6,28l-46.8-6.3
		c-3.2-50.6,10.7-75.6,10.7-75.6c3.8-0.5,7.6-0.7,11.3-0.7c0.8,0,1.6,0,2.4,0.1c6.7,0.5,13.3,1.4,19.9,2.7c1.3,0.2,2.5,0.5,3.7,0.8
		C391.4,156.7,396.9,158.6,396.9,158.6z"/>
	<path class="st10" d="M362.2,165c-8.6-1.1-12.4,1.4-13.1,4.5c-2.8,12.3,6.8,23.8,6.8,23.8s14-8.5,16.7-20.8
		C373.3,169.4,370.8,166.1,362.2,165z"/>
	<path class="st4" d="M356.8,189c-2.3-3.6-6.4-11.3-4.7-19.2c0.3-1.4,3.6-2.5,9.4-1.8s8.4,2.6,8.1,4
		C367.8,180,360.6,186.2,356.8,189z"/>
	<path class="st10" d="M389.4,187.2c-1.3,6.8-2.3,13.3-2.9,19.2l-6.3-14.7L389.4,187.2z"/>
	<path class="st7" d="M382.5,131.8c-2.1,6.2-5,17.8-1,22.7c-4.5,3.6-10.4,5.1-16.2,4.1c-5.5-0.9-5.2-4.8-3.7-6.7
		c7.4-0.7,7.9-6.1,7.3-11.2L382.5,131.8z"/>
	<path class="st10" d="M376.9,135.4l-8.1,5.2c0.2,1.2,0.2,2.4,0.1,3.6c2.8,0,6.9-2.5,7.6-5.3C376.9,137.7,377,136.5,376.9,135.4z"/>
	<path class="st8" d="M366.3,106.7c-6.8-0.6-9.2,15.9-4.9,19.1C365.6,129,379.1,107.8,366.3,106.7z"/>
	<path class="st7" d="M384.5,122.2c-1.7,8.6-2.3,13.7-7.2,17.6c-7.5,5.8-17.7,0.4-18.6-8.5c-0.8-8,2.1-20.8,11.1-23.1
		c6.4-1.7,12.9,2.1,14.6,8.5C384.9,118.5,384.9,120.4,384.5,122.2z"/>
	<path class="st8" d="M382.8,130.7c-4.2,2.6-7.8-23.8,3.4-20.3C404.5,116,387.8,127.5,382.8,130.7z"/>
	<path class="st8" d="M382.8,115.2c-2.6-3.2-18.1-1.3-25.3-6c-7.2-4.7-2.6-15.1,10.5-13.4c-6.1,0.7-5,5.8-0.8,5.8
		c4.2,0,13.9-5.2,18.1-0.8c5.9,6.2,8.8,2.5,11.7,6C401.3,111.9,388.4,122.1,382.8,115.2z"/>
	<path class="st7" d="M387.2,132.3c-1.4,1.7-3.4,2.8-5.6,2.9c-2.9,0.2-3.8-2.5-2.6-5c1.1-2.3,4-5,6.8-4.1
		C388.5,127.1,388.8,130.2,387.2,132.3z"/>
	<path class="st8" d="M309.1,405.7l14.5,3.5c0,0,9.4-49.5,13.7-76.8c1.3-8.3,4.3-19.7,7.8-31.9c4.5-15.4,10-32,14.4-45
		c4.7-13.7,8.2-23.4,8.2-23.4l-30.8-4.1c0,0-23.5,72-26.1,98.8C308.2,354.7,309.1,405.7,309.1,405.7z"/>
	<path class="st10" d="M345.2,300.5c4.5-15.4,10-32,14.4-45l-2.8-7.1C348.6,257,344.7,285.1,345.2,300.5z"/>
	<path class="st8" d="M353.6,230.3c0,0-1.5,75.7,0.6,101.5c2.3,28.2,23.5,86,23.5,86h16.2c0,0-10.8-52.9-14.1-80.3
		c-3.8-31.3,4.1-103.2,4.1-103.2L353.6,230.3z"/>
	<polygon class="st9" points="375.7,418.2 394.8,418.2 394.8,412.5 373.4,412.1 	"/>
	<polygon class="st9" points="307.2,405.6 324.5,409.8 325.9,404.2 306.6,399.2 	"/>
	<path class="st8" d="M371.1,122.9c-0.1,0.7-0.5,1.2-1,1.1c-0.5-0.1-0.8-0.7-0.7-1.4c0.1-0.7,0.5-1.2,1-1.1
		C370.9,121.6,371.1,122.2,371.1,122.9z"/>
	<path class="st8" d="M363.1,121.8c-0.1,0.7-0.6,1.2-1,1.1s-0.8-0.7-0.7-1.4s0.5-1.2,1-1.1C362.9,120.5,363.2,121.1,363.1,121.8z"/>
	<path class="st11" d="M365.6,122.5c-1.1,2.1-2.5,4-4.2,5.6c0.9,0.8,2.1,1.3,3.3,1.1L365.6,122.5z"/>
	<path class="st8" d="M367.4,131.5c-0.3,0-0.6,0-0.9-0.1c-0.1,0-0.2-0.1-0.2-0.2c0,0,0,0,0,0c0-0.1,0.1-0.2,0.2-0.2c0,0,0,0,0,0
		c1.8,0.3,3.6-0.3,4.9-1.6c0.1-0.1,0.2-0.1,0.3,0c0.1,0.1,0.1,0.2,0,0.3c0,0,0,0,0,0C370.6,130.9,369,131.5,367.4,131.5z"/>
	<path class="st8" d="M373.9,120.7c-0.2,0-0.3-0.1-0.4-0.2c-0.5-0.9-1.4-1.6-2.5-1.7c-0.2,0-0.4-0.2-0.4-0.4c0,0,0,0,0,0
		c0-0.2,0.2-0.4,0.4-0.4c1.3,0.2,2.5,1,3.1,2.2c0.1,0.2,0,0.5-0.2,0.6c0,0,0,0,0,0C374,120.6,373.9,120.6,373.9,120.7z"/>
	<path class="st8" d="M360,118.6c-0.1,0-0.2,0-0.2-0.1c-0.2-0.1-0.2-0.4-0.1-0.6c0.7-1.1,2-1.9,3.3-1.9c0.2,0,0.4,0.2,0.4,0.4
		c0,0.2-0.2,0.4-0.4,0.4c-1.1,0.1-2,0.6-2.6,1.6C360.3,118.5,360.1,118.6,360,118.6z"/>
	<path class="st9" d="M381,430.3c-0.6,0-1.2-0.1-1.7-0.5c-0.3-0.3-0.5-0.7-0.4-1.1c0-0.3,0.1-0.5,0.4-0.6c1-0.5,3.8,1.3,4.1,1.5
		c0.1,0,0.1,0.1,0.1,0.2c0,0.1-0.1,0.1-0.2,0.2C382.6,430.1,381.8,430.3,381,430.3z M379.7,428.5c-0.1,0-0.2,0-0.3,0
		c-0.1,0.1-0.1,0.1-0.1,0.2c0,0.3,0.1,0.6,0.3,0.8c1,0.5,2.1,0.5,3.1,0.2C381.8,429,380.8,428.6,379.7,428.5z"/>
	<path class="st9" d="M383.3,430h-0.1c-0.9-0.5-2.7-2.4-2.5-3.4c0.1-0.3,0.3-0.6,0.7-0.6c0.3,0,0.6,0.1,0.9,0.3
		c1,0.8,1.2,3.4,1.2,3.5c0,0.1,0,0.1-0.1,0.2C383.4,430,383.3,430,383.3,430z M381.5,426.4h-0.1c-0.3,0-0.3,0.2-0.3,0.2
		c-0.1,0.6,1,2,1.9,2.7c-0.1-1-0.4-2-1-2.8C381.8,426.5,381.7,426.4,381.5,426.4L381.5,426.4z"/>
	<path class="st9" d="M309.8,418.3L309.8,418.3c-1.5-0.1-4-0.3-4.7-1.4c-0.2-0.3-0.3-0.7-0.1-1.1c0.1-0.2,0.2-0.4,0.5-0.5
		c1.2-0.3,4.2,2.3,4.5,2.6c0.1,0.1,0.1,0.2,0.1,0.2C309.9,418.3,309.8,418.3,309.8,418.3z M305.5,415.8L305.5,415.8
		c-0.2,0-0.2,0.1-0.3,0.2c-0.1,0.2-0.1,0.5,0.1,0.7c0.4,0.6,1.8,1,3.8,1.1C307.9,416.9,306.2,415.7,305.5,415.8z"/>
	<path class="st9" d="M309.8,418.3c0,0-0.1,0-0.1,0c-0.9-0.7-2.5-3.1-2.1-4c0.1-0.2,0.3-0.5,0.9-0.4c0.4,0,0.8,0.3,1,0.6
		c0.9,1.1,0.5,3.5,0.5,3.6C309.9,418.3,309.9,418.3,309.8,418.3L309.8,418.3z M308.1,414.3c-0.2,0-0.2,0.1-0.2,0.1
		c-0.2,0.6,0.8,2.4,1.7,3.3c0.1-1,0-2-0.5-2.9c-0.2-0.3-0.5-0.4-0.8-0.5H308.1z"/>
	<path class="st7" d="M401.7,168.8c-0.1,1.7-0.3,3.1-0.5,4.6s-0.4,3-0.7,4.5c-0.5,3-1.1,6-1.9,8.9s-1.5,5.9-2.6,8.9
		c-1,3-2.1,5.9-3.5,8.8l-1,2.2l-0.1,0.1l-0.1,0.3l-0.3,0.5c-0.2,0.4-0.5,0.7-0.7,1c-0.5,0.6-1,1.2-1.6,1.7c-1,0.9-2.2,1.5-3.5,2
		c-1,0.4-2.1,0.7-3.1,0.9c-3.4,0.5-6.9,0.5-10.4-0.1c-6.1-1-12-2.8-17.7-5.2l1.9-6.4c2.7,0.4,5.6,0.7,8.4,0.9
		c2.8,0.2,5.6,0.4,8.2,0.4c2.4,0.1,4.7-0.2,7-0.8c0.9-0.3,1.4-0.7,1.3-0.7c-0.1,0-0.1,0-0.2,0.1l-0.1,0.1l-0.1,0.1l0,0v-0.1l0.7-1.8
		c1.8-5.1,3.3-10.4,4.3-15.7c0.6-2.7,1-5.5,1.5-8.2c0.2-1.4,0.4-2.8,0.6-4.1l0.6-4L401.7,168.8z"/>
	<path class="st9" d="M403.4,163.6c4.9,6.9-0.8,28-0.8,28l-23.2,0.7c0,0,1.9-13.9,5.3-24.3C388.5,156.7,397.4,155.3,403.4,163.6z"/>
	<path class="st7" d="M357.1,201.7l-8.1-3.8v11.3c0,0,7.6,1.7,9-2.3L357.1,201.7z"/>
	<polygon class="st7" points="341.7,199.6 342.1,208.9 348.9,209.2 348.9,197.9 	"/>
</g>
<g id="freepik--Notebook--inject-15">
	<path class="st8" d="M310.4,273.6H94.7c-5.8-0.1-10.6-4.6-11.1-10.4l-9.6-137.6c-0.4-5.3,3.5-9.9,8.7-10.4c0.3,0,0.6,0,0.9,0h215.7
		c5.8,0.1,10.6,4.6,11.1,10.4l9.7,137.6c0.4,5.3-3.5,9.9-8.7,10.4C311,273.6,310.7,273.6,310.4,273.6z"/>
	<path class="st8" d="M372.1,385.9H129c-6.4,0-12.9-4.2-14.4-9.2L86.5,281c-1.2-4.1,2.5-7.4,8.2-7.4h215.7c5.7,0,12.3,3.3,14.6,7.4
		l53.7,95.7C381.5,381.7,378.6,385.9,372.1,385.9z"/>
	<path class="st9" d="M313,273.6H97.3c-5.8-0.1-10.6-4.6-11.1-10.4l-9.7-137.6c-0.4-5.3,3.5-9.9,8.8-10.4c0.3,0,0.6,0,0.9,0h215.7
		c5.8,0.1,10.6,4.6,11.1,10.4l9.7,137.6c0.4,5.3-3.5,9.9-8.8,10.4C313.6,273.6,313.3,273.6,313,273.6z"/>
	<path class="st4" d="M99,265c-2.3,0-4.2-1.8-4.4-4.1L85.3,128c-0.2-2.1,1.4-3.9,3.5-4.1c0.1,0,0.2,0,0.4,0h211
		c2.3,0.1,4.2,1.8,4.4,4.1l9.4,132.8c0.2,2.1-1.4,3.9-3.5,4.1c-0.1,0-0.2,0-0.4,0H99z"/>
	
		<ellipse transform="matrix(0.6948 -0.7192 0.7192 0.6948 -26.8783 176.327)" class="st10" cx="194.3" cy="119.8" rx="1.5" ry="1.7"/>
	<path class="st9" d="M374.7,385.9H131.6c-6.4,0-12.9-4.2-14.4-9.2L89.1,281c-1.2-4.1,2.5-7.4,8.2-7.4H313c5.7,0,12.3,3.3,14.6,7.4
		l53.7,95.7C384.1,381.7,381.2,385.9,374.7,385.9z"/>
	<path class="st10" d="M118.5,334.8c-2.4,0-4.8-1.5-5.4-3.3l-14.8-48.8c-0.5-1.6,1-2.9,3.2-2.9H314c2.3,0,4.4,1.1,5.8,2.9l26.9,48.8
		c1,1.8-0.2,3.3-2.6,3.3L118.5,334.8z"/>
	<path class="st10" d="M215.9,377.4c-1.5,0-2.8-0.8-3.5-2.1l-12.4-31.8c-0.4-1.1,0.4-2,1.8-2h64.9c1.4,0,2.7,0.7,3.5,2l14.8,31.8
		c0.5,1.1-0.2,2.1-1.7,2.1H215.9z"/>
	<polygon class="st12" points="191.3,157.6 196.3,165.2 201.2,172.8 218.8,172.8 222.7,165.2 226.5,157.6 221.6,150 216.6,142.3 
		199,142.3 195.1,149.9 	"/>
	<polygon class="st12" points="226.8,157.4 244.4,157.4 248.3,149.8 252.1,142.2 247.1,134.5 242.2,126.9 224.6,126.9 220.7,134.5 
		216.9,142.1 221.8,149.8 	"/>
	<polygon class="st12" points="256.9,204 253,211.6 249.2,219.2 254.1,226.9 259.1,234.5 276.7,234.5 280.5,226.9 284.4,219.3 
		279.4,211.6 274.5,204 	"/>
	<polygon class="st12" points="254.6,173.2 250.8,180.8 247,188.4 251.9,196 256.9,203.6 274.5,203.6 278.3,196 282.1,188.4 
		277.2,180.8 272.2,173.2 	"/>
	<polygon class="st12" points="244.7,157.6 249.7,165.2 254.6,172.8 272.2,172.8 276.1,165.2 279.9,157.6 275,150 270,142.3 
		252.4,142.3 248.6,149.9 	"/>
	<polygon class="st12" points="139.8,188.2 143.7,180.6 147.5,173 142.6,165.4 137.6,157.7 120,157.7 116.2,165.4 112.3,173 
		117.3,180.6 122.2,188.2 	"/>
	<polygon class="st12" points="137.9,157.6 142.9,165.2 147.8,172.8 165.4,172.8 169.3,165.2 173.1,157.6 168.1,150 163.2,142.3 
		145.6,142.3 141.7,149.9 	"/>
	<polygon class="st12" points="126.7,249.9 144.3,249.9 148.1,242.3 152,234.7 147,227 142.1,219.4 124.5,219.4 120.6,227 
		116.8,234.7 121.7,242.3 	"/>
	<polygon class="st12" points="173.4,157.4 191,157.4 194.8,149.8 198.7,142.2 193.7,134.5 188.8,126.9 171.2,126.9 167.3,134.5 
		163.5,142.1 168.4,149.8 	"/>
	<polygon class="st12" points="142.1,219.1 145.9,211.4 149.7,203.8 144.8,196.2 139.8,188.6 122.2,188.6 118.4,196.2 114.6,203.8 
		119.5,211.4 124.5,219.1 	"/>
	<polygon class="st12" points="201.2,173.2 197.4,180.8 193.5,188.4 198.5,196 203.5,203.6 221,203.6 224.9,196 228.7,188.4 
		223.8,180.8 218.8,173.2 	"/>
	<polygon class="st12" points="225.2,196.2 221.4,203.8 226.3,211.4 231.3,219.1 248.9,219.1 252.7,211.4 256.6,203.8 251.6,196.2 
		246.6,188.6 229,188.6 	"/>
	<polygon class="st12" points="193.2,188.6 175.6,188.6 171.8,196.2 168,203.8 172.9,211.4 177.9,219.1 195.5,219.1 199.3,211.4 
		203.2,203.8 198.2,196.2 	"/>
	<polygon class="st12" points="137.6,157.4 141.4,149.8 145.3,142.2 140.3,134.5 135.4,126.9 117.8,126.9 113.9,134.5 110.1,142.1 
		115,149.8 120,157.4 	"/>
	<polygon class="st12" points="177.6,219.3 172.6,211.6 167.7,204 150.1,204 146.2,211.6 142.4,219.2 147.3,226.9 152.3,234.5 
		169.9,234.5 173.7,226.9 	"/>
	<polygon class="st12" points="254.3,173 249.4,165.4 244.4,157.7 226.8,157.7 223,165.4 219.1,173 224.1,180.6 229,188.2 
		246.6,188.2 250.5,180.6 	"/>
	<polygon class="st12" points="248.9,219.4 231.3,219.4 227.4,227 223.6,234.7 228.6,242.3 233.5,249.9 251.1,249.9 254.9,242.3 
		258.8,234.7 253.8,227 	"/>
	<polygon class="st12" points="195.5,219.4 177.9,219.4 174,227 170.2,234.7 175.1,242.3 180.1,249.9 197.7,249.9 201.5,242.3 
		205.4,234.7 200.4,227 	"/>
	<polygon class="st12" points="231,219.3 226,211.6 221.1,204 203.5,204 199.6,211.6 195.8,219.2 200.7,226.9 205.7,234.5 
		223.3,234.5 227.1,226.9 	"/>
	<polygon class="st12" points="191,157.7 173.4,157.7 169.6,165.4 165.7,173 170.7,180.6 175.6,188.2 193.2,188.2 197.1,180.6 
		200.9,173 196,165.4 	"/>
	<polygon class="st12" points="147.8,173.2 144,180.8 140.1,188.4 145.1,196 150.1,203.6 167.6,203.6 171.5,196 175.3,188.4 
		170.4,180.8 165.4,173.2 	"/>
	<path class="st6" d="M93.6,245.4l5.3-10.6h17.6l5,7.6l5,7.6l-3.8,7.6l-3.7,7.3h0.4l3.6-7.1l3.8-7.6h17.6l5,7.6l4.6,7.1h0.4
		l-4.8-7.3l-5-7.6l3.8-7.6l3.8-7.6h17.6l5,7.6l5,7.6l-3.8,7.6l-3.7,7.3h0.4l3.6-7.1l3.8-7.6h17.6l5,7.6l4.6,7.1h0.4l-4.7-7.3
		l-4.9-7.6l3.8-7.6l3.8-7.6h17.6l5,7.6l5,7.6l-3.8,7.6l-3.7,7.3h0.4l3.5-7.1l3.8-7.6h17.6l5,7.6l4.6,7.1h0.4l-4.7-7.3l-5-7.6
		l3.8-7.6l3.8-7.6h17.6l5,7.6l5,7.6l-3.9,7.6l-3.7,7.3h0.4l3.6-7.1l3.8-7.6h17.6l5,7.6l3.6,5.6l0.2-0.3l-3.5-5.4l-5-7.6l3.8-7.6
		l3.4-6.8V235l-3.7,7.3l-3.8,7.6h-17.7l-5-7.6l-5-7.6l3.8-7.6l3.8-7.6h17.6l9.7,14.9l-0.1-0.7l-9.3-14.4l7.3-14.5V204l-7.6,15h-17.6
		l-5-7.6l-5-7.6l3.8-7.6l3.8-7.6h17.6l9.8,15l-0.1-0.7l-9.4-14.5l7.4-14.6v-0.7l-7.6,15.1h-17.6l-5-7.6l-4.9-7.6l3.8-7.6l3.8-7.6
		h17.6l9.8,15.1v-0.7l-9.5-14.6l7.4-14.7v-0.7l-7.8,15.2h-17.6l-5-7.6l-4.9-7.7l3.8-7.6l3.8-7.6h17.6l5,7.6l4.9,7.6v-0.7l-4.7-7.1
		l-5-7.6l1.4-2.8h-0.4l-1.3,2.6H278l-1.7-2.6h-0.4l1.8,2.8l-3.8,7.6L270,142h-17.6l-5-7.6l-5-7.6l1.4-2.8h-0.4l-1.3,2.6h-17.6
		l-1.7-2.6h-0.4l1.8,2.8l-3.8,7.6l-3.8,7.6H199l-5-7.6l-5-7.6l1.4-2.8h-0.4l-1.3,2.6h-17.6l-1.7-2.6H169l1.9,2.8l-3.8,7.6l-3.8,7.6
		h-17.6l-5-7.6l-5-7.6l1.4-2.8h-0.4l-1.3,2.6h-17.6l-1.7-2.6h-0.4l1.9,2.8l-3.8,7.6l-3.8,7.6H92.2l-6.6-10.2v0.7l6.3,9.7l-4.9,9.7
		l0.1,0.7l5.2-10.2h17.6l4.9,7.6l5,7.6l-3.8,7.6l-3.8,7.6H94.4l-4.9-7.6l-1.7-2.7v0.7l1.4,2.1l5,7.6l-3.8,7.6l-1.1,2.3v0.7l1.4-2.7
		l3.8-7.6h17.6l5,7.6l5,7.6l-3.8,7.6l-3.8,7.6H96.6l-5-7.6l-1.8-2.8v0.7l1.5,2.3l5,7.6l-3.8,7.6l-1.1,2.3v0.7l1.4-2.8l3.8-7.6h17.6
		l5,7.6l5,7.6l-3.8,7.6l-3.8,7.6H98.9L92,224l0.1,0.7l6.5,10l-5.1,10L93.6,245.4z M169.9,234.5h-17.6l-5-7.6l-4.9-7.6l3.8-7.6
		l3.8-7.6h17.6l5,7.6l5,7.6l-3.8,7.6L169.9,234.5z M246.6,188.2H229l-5-7.6l-5-7.6l3.8-7.6l3.8-7.6h17.6l5,7.6l5,7.6l-3.8,7.6
		L246.6,188.2z M246.6,188.6l5,7.6l5,7.6l-3.8,7.6l-3.8,7.7h-17.6l-5-7.6l-5-7.6l3.8-7.6l3.8-7.6L246.6,188.6z M223.8,180.8l5,7.6
		l-3.8,7.6l-3.8,7.6h-17.6l-5-7.6l-4.9-7.6l3.8-7.6l3.8-7.6h17.6L223.8,180.8z M203.2,203.8l-3.8,7.6l-3.8,7.6h-17.6l-5-7.6l-5-7.6
		l3.8-7.6l3.8-7.6h17.6l5,7.6L203.2,203.8z M197.1,180.6l-3.8,7.6h-17.6l-5-7.6l-5-7.6l3.8-7.6l3.8-7.6H191l5,7.6l5,7.6L197.1,180.6
		z M170.4,180.8l4.9,7.6l-3.8,7.6l-3.9,7.6h-17.5l-5-7.6l-5-7.6l3.8-7.6l3.8-7.6h17.6L170.4,180.8z M201.5,242.3l-3.8,7.6h-17.6
		l-5-7.6l-5-7.6l3.8-7.6l3.8-7.6h17.6l5,7.6l5,7.6L201.5,242.3z M223.3,234.5h-17.6l-5-7.6l-4.9-7.6l3.8-7.6l3.8-7.6h17.6l5,7.6
		l4.9,7.6l-3.8,7.6L223.3,234.5z M254.9,242.3l-3.8,7.6h-17.5l-5-7.6l-5-7.6l3.8-7.6l3.8-7.6h17.6l5,7.6l5,7.6L254.9,242.3z
		 M279.4,211.6l5,7.6l-3.8,7.6l-3.8,7.6h-17.6l-5-7.6l-5-7.6l3.8-7.6l3.8-7.6h17.6L279.4,211.6z M277.2,180.8l5,7.6l-3.8,7.6
		l-3.8,7.6h-17.6l-5-7.6l-5-7.6l3.8-7.6l3.8-7.6h17.6L277.2,180.8z M252.3,142.3h17.6l5,7.6l5,7.6l-3.8,7.6l-3.8,7.6h-17.5l-5-7.6
		l-5-7.6l3.8-7.6L252.3,142.3z M220.7,134.5l3.8-7.6h17.6l4.9,7.6l5,7.6l-3.8,7.6l-3.9,7.7h-17.6l-4.9-7.6l-5-7.6L220.7,134.5z
		 M199,142.3h17.6l5,7.6l5,7.6l-3.8,7.6l-3.8,7.6h-17.6l-5-7.6l-5-7.6l3.8-7.6L199,142.3z M167.4,134.5l3.8-7.6h17.6l5,7.6l5,7.6
		l-3.8,7.6l-3.9,7.7h-17.6l-5-7.6l-5-7.6L167.4,134.5z M145.6,142.3h17.6l5,7.6l5,7.6l-3.8,7.6l-3.8,7.6h-17.6l-5-7.6l-5-7.6
		l3.8-7.6L145.6,142.3z M115.1,149.8l-5-7.6l3.8-7.6l3.8-7.6h17.6l5,7.6l5,7.6l-3.8,7.6l-3.8,7.6H120L115.1,149.8z M117.3,180.6
		l-5.1-7.6l3.8-7.6l3.8-7.6h17.6l5,7.6l5,7.6l-3.8,7.6l-3.8,7.6h-17.6L117.3,180.6z M119.6,211.4l-5.1-7.6l3.8-7.6l3.8-7.6h17.6
		l5,7.6l5,7.6l-3.8,7.6l-3.8,7.6h-17.6L119.6,211.4z M120.7,227l3.8-7.6h17.6l5,7.6l5,7.6l-3.8,7.6l-3.8,7.6h-17.7l-5-7.6l-4.9-7.6
		L120.7,227z"/>
	<polygon class="st6" points="100.9,265 94.2,254.7 94.3,255.4 100.5,265 	"/>
	<path class="st9" d="M244.5,251h-78.1c-3.3,0-5.9-2.6-6.2-5.8l-3-53.7c-0.2-3,2.1-5.6,5.1-5.8c0.1,0,0.3,0,0.4,0h78.1
		c3.3,0,5.9,2.6,6.1,5.8l2.9,53.7c0.2,3-2.1,5.6-5.1,5.8C244.8,251,244.7,251,244.5,251z"/>
	<path class="st10" d="M162.8,185.7c-3,0-5.5,2.4-5.5,5.4c0,0.1,0,0.3,0,0.4l3,53.7c0.2,3.2,2.9,5.8,6.2,5.8h39l-3.6-65.4H162.8z"/>
	<path class="st10" d="M197.6,235.5l0.9-17.1c-2.8-1.7-4.5-4.7-4.7-7.9c-0.3-4.9,3.4-9.2,8.3-9.5c0.3,0,0.5,0,0.8,0
		c5.3,0.1,9.6,4.2,10,9.4c0.2,3.1-1.3,6.1-3.8,7.9l2.8,17.1L197.6,235.5z"/>
	<path class="st8" d="M211.3,210.5c-0.3-4.5-4-8-8.5-8c-4.2,0-7.6,3.3-7.6,7.4c0,0.2,0,0.4,0,0.6c0.2,3.1,2,5.8,4.8,7.1l-0.9,16.4
		H210l-2.7-16.4C209.9,216.2,211.5,213.4,211.3,210.5z"/>
	<path class="st9" d="M238.9,181.7h-10.3l-0.6-11.2c-1-15-13.4-26.7-28.4-26.9c-13.9-0.1-25.3,11-25.5,25c0,0.6,0,1.3,0.1,1.9
		l0.6,11.2h-10.3l-0.6-11.2c-1.3-19.2,13.2-35.9,32.4-37.2c0.9-0.1,1.8-0.1,2.7-0.1c20.5,0,38.2,16.7,39.3,37.3L238.9,181.7z"/>
</g>
</svg>
