<?xml version="1.0" encoding="utf-8"?>
<!-- Generator: Adobe Illustrator 23.0.2, SVG Export Plug-In . SVG Version: 6.00 Build 0)  -->
<svg version="1.1" id="katman_1" xmlns="http://www.w3.org/2000/svg" xmlns:xlink="http://www.w3.org/1999/xlink" x="0px" y="0px"
	 viewBox="0 0 500 500" style="enable-background:new 0 0 500 500;" xml:space="preserve">
<style type="text/css">
	.st0{fill:#EBEBEB;}
	.st1{fill:#E0E0E0;}
	.st2{fill:#FFFFFF;}
	.st3{fill:#263238;}
	.st4{fill:#339999;}
	.st5{opacity:0.2;}
	.st6{fill:#455A64;}
	.st7{fill:#F5F5F5;}
	.st8{fill:#FAFAFA;}
	.st9{opacity:0.5;}
	.st10{fill:#FFBE9D;}
	.st11{fill:#EB996E;}
	.st12{opacity:0.4;}
	.st13{opacity:0.3;}
</style>
<g id="freepik--background-complete--inject-14">
	<path class="st0" d="M453.6,444.2c3.9-1.9,8.4-2.4,12.7-1.5c2.3,0.4,4.7,1.1,6.3,2.8c1.6,1.7,1.9,4.8,0.1,6.2
		c-1.2,0.8-2.6,1.1-3.9,1c-3.3,0-7.1-0.6-9.7,1.4c-1.5,1.1-2.5,3.1-4.4,3.6c-1.9,0.4-3.8-0.4-4.7-2.1c-0.9-1.7-1.1-3.6-0.5-5.4
		C449.6,447.6,451.3,445.4,453.6,444.2z"/>
	<path class="st0" d="M444.7,427.2c2.4,3.3,6.9,2.2,9.1,0.2c2.1-2,3-5,3.8-7.9c1.9-6.5,3.7-13.3,2.4-19.9c-0.3-2-1.2-3.9-2.5-5.4
		c-1.4-1.5-3.5-2.2-5.5-1.8c-2.3,0.6-3.7,2.9-4.8,5c-3.1,6.4-4.7,13.3-4.7,20.4C442.5,421,442.9,424.4,444.7,427.2"/>
	<path class="st0" d="M438.3,432c2.5-3.2,3.2-7.4,1.9-11.3c-1.3-3.8-3.6-7.1-6.7-9.7c-3.5-3.1-7.5-5.5-11.9-7
		c-1.7-0.7-3.5-1-5.4-0.9c-1.9,0.1-3.5,1.1-4.5,2.7c-1.3,2.4,0,5.3,1.3,7.7c2.3,4.2,4.9,8.2,7.9,12c2.4,3,5,6,8.6,7.4
		c3.6,1.4,7.3,1.2,9.2-1.3"/>
	<path class="st1" d="M444.6,477.9c0.1-0.5,0.2-1,0.2-1.5c0.1-1.1,0.2-2.5,0.4-4.2c0.2-2.1,0.5-4.1,0.9-6.1c0.5-2.5,1.3-4.9,2.2-7.2
		c0.9-2.3,2.2-4.5,3.7-6.5c1.2-1.6,2.8-2.9,4.7-3.9c1.2-0.6,2.6-1,3.9-1.2c0.5,0,1-0.1,1.5-0.2c-0.5-0.1-1-0.1-1.5,0
		c-1.4,0.1-2.8,0.5-4.1,1.1c-1.9,0.9-3.6,2.2-4.9,3.9c-1.6,2-2.9,4.3-3.8,6.7c-1,2.4-1.7,4.8-2.2,7.3c-0.4,2-0.7,4.1-0.8,6.2
		c-0.1,1.8-0.2,3.2-0.2,4.2C444.5,476.9,444.5,477.4,444.6,477.9z"/>
	<path class="st1" d="M444.9,474.7c0-0.2,0-0.5,0-0.7v-2c0-1.8,0-4.3,0.1-7.5c0.2-6.3,0.7-13.1,1.7-22.6c1-9,2.3-19.4,3.7-26.2
		c0.3-1.5,0.6-2.9,0.9-4.2c0.3-1.2,0.5-2.2,0.7-3.1c0.2-0.9,0.3-1.5,0.5-2c0.1-0.2,0.1-0.5,0.1-0.7c-0.1,0.2-0.2,0.4-0.2,0.7
		c-0.2,0.5-0.4,1.1-0.6,1.9s-0.5,1.9-0.8,3.1c-0.3,1.2-0.6,2.6-1,4.1c-1.7,8-3,16.2-3.9,24.3c-1.1,9.6-1.5,18.3-1.6,24.6
		c0,3.2,0,5.7,0.1,7.5c0,0.8,0.1,1.5,0.1,2C444.7,474.2,444.8,474.5,444.9,474.7z"/>
	<path class="st1" d="M444.9,457.9c0.1-0.7,0.1-1.4,0-2.1c-0.1-1.4-0.3-3.3-0.6-5.7c-0.5-2.8-1.1-5.6-1.9-8.4
		c-0.9-3.4-2.1-6.7-3.5-9.9c-2.4-5.9-6-11.3-10.3-16c-0.8-0.8-1.6-1.5-2.4-2.2c-0.4-0.3-0.7-0.6-1-0.9l-0.9-0.6
		c-0.6-0.4-1.2-0.8-1.8-1.1c2.1,1.6,4,3.4,5.8,5.2c4.2,4.7,7.6,10.1,10,15.9c1.4,3.2,2.6,6.5,3.5,9.8c0.8,2.7,1.5,5.5,2,8.3
		c0.4,2.4,0.7,4.3,0.8,5.7C444.6,456.6,444.7,457.2,444.9,457.9z"/>
	<path class="st1" d="M474.8,127.8L414.4,146c-2.9,0.9-6-0.8-6.9-3.7L383.1,61c-0.9-2.9,0.8-6,3.7-6.9L429,41.4l30.3,15.8l19.2,63.8
		C479.4,123.9,477.7,126.9,474.8,127.8z"/>
	<path class="st0" d="M428.9,41.2l4.9,16.2c1.2,4,5.4,6.3,9.4,5.1c0,0,0,0,0,0l16.1-5.2L428.9,41.2z"/>
	<path class="st2" d="M460.9,114.5c0-0.1,0-0.1-0.1-0.2l-0.2-0.5c-0.2-0.5-0.4-1.2-0.7-2.1c-0.6-1.9-1.4-4.6-2.5-8
		c-2.1-6.9-5.1-16.8-8.7-28.6l0.3,0.2l-41.1,12.4c0,0.1,0.4-0.7,0.2-0.4l0,0v0.1v0.1l0.1,0.2l0.1,0.3l0.2,0.7l0.4,1.3l0.8,2.7
		l1.6,5.3l3.1,10.2c2,6.7,3.9,12.9,5.6,18.7l-0.3-0.2l29.8-8.8l8.4-2.5l2.2-0.6l0.6-0.2C460.7,114.5,460.7,114.5,460.9,114.5
		l-0.2,0.1l-0.6,0.2l-2.2,0.7l-8.3,2.5l-29.9,9.1l-0.2,0.1l-0.1-0.2c-1.7-5.8-3.6-12-5.6-18.7c-1-3.3-2-6.7-3.1-10.2l-1.6-5.3
		l-0.8-2.7l-0.4-1.3l-0.2-0.7l-0.1-0.3l-0.1-0.2v-0.1v-0.1l0,0c-0.2,0.3,0.2-0.4,0.2-0.4l41.1-12.3l0.2-0.1l0.1,0.2
		c3.5,11.9,6.5,21.8,8.5,28.8c1,3.4,1.8,6.1,2.4,8l0.6,2.1l0.1,0.5C460.9,114.4,460.9,114.5,460.9,114.5z"/>
	<path class="st2" d="M440.1,121.3c-0.2,0-2.9-8.8-6.2-19.7c-3.3-10.9-5.8-19.8-5.7-19.9s2.9,8.8,6.2,19.7
		C437.7,112.4,440.2,121.2,440.1,121.3z"/>
	<path class="st2" d="M457.8,104.8c0,0.1-9.2,3.1-20.6,6.5c-11.4,3.4-20.7,6.1-20.7,5.9s9.2-3.1,20.6-6.5S457.8,104.6,457.8,104.8z"
		/>
	<path class="st2" d="M455.2,94.6c0,0.2-9.2,3.1-20.6,6.5c-11.4,3.4-20.7,6.1-20.7,5.9c-0.1-0.2,9.2-3.1,20.6-6.5
		S455.2,94.4,455.2,94.6z"/>
	<path class="st2" d="M451.9,84.6c0,0.2-9.1,3-20.4,6.4c-11.3,3.4-20.5,6-20.6,5.9c0-0.2,9.1-3,20.4-6.4
		C442.6,87.1,451.9,84.4,451.9,84.6z"/>
	<path class="st1" d="M34,211.4l-31.1-5.6c-1.5-0.3-2.5-1.7-2.2-3.2l7.5-41.9c0.3-1.5,1.7-2.5,3.2-2.2c0,0,0,0,0,0l21.7,3.8l10,13.9
		l-5.9,32.8C37,210.7,35.6,211.7,34,211.4C34.1,211.4,34,211.4,34,211.4z"/>
	<path class="st0" d="M33.2,162.3l-1.5,8.3c-0.4,2,0.9,4,3,4.4c0,0,0,0,0.1,0l8.4,1.3L33.2,162.3z"/>
	<path class="st2" d="M30.8,202.3c0-0.1,0-0.3,0-0.4l0.2-1.1c0.2-1,0.4-2.4,0.7-4.2c0.6-3.6,1.5-8.7,2.5-14.7l0.2,0.3l-21.2-3.8
		l0.3-0.2l0,0v0.1v0.1v0.2l-0.1,0.3l-0.1,0.7c-0.1,0.5-0.2,0.9-0.2,1.4c-0.2,0.9-0.3,1.8-0.5,2.7c-0.3,1.8-0.6,3.6-0.9,5.3
		c-0.6,3.4-1.2,6.7-1.8,9.6l-0.2-0.3l15.3,2.9l4.3,0.8l1.1,0.2L30.8,202.3l-0.4,0l-1.1-0.2l-4.3-0.7l-15.5-2.7H9.3v-0.3
		c0.5-3,1.1-6.2,1.7-9.6c0.3-1.7,0.6-3.5,0.9-5.3c0.2-0.9,0.3-1.8,0.5-2.7c0.1-0.5,0.2-0.9,0.3-1.4l0.1-0.7l0.1-0.4v-0.2v-0.1v-0.1
		l0,0l0.3-0.2l21.2,3.8h0.2v0.2c-1.1,6.1-2.1,11.2-2.8,14.8c-0.3,1.7-0.6,3.1-0.8,4.1c-0.1,0.4-0.2,0.8-0.2,1.1
		C30.8,202.2,30.8,202.2,30.8,202.3z"/>
	<path class="st2" d="M20,200.6c0.3-3.4,0.8-6.9,1.5-10.2c0.5-3.4,1.2-6.8,2.1-10.1c-0.3,3.4-0.8,6.9-1.5,10.2
		C21.6,193.9,20.9,197.3,20,200.6z"/>
	<path class="st2" d="M31.7,197.3c-3.6-0.3-7.2-0.9-10.7-1.6c-3.6-0.5-7.1-1.3-10.6-2.2c3.6,0.4,7.2,0.9,10.7,1.6
		C24.6,195.7,28.2,196.4,31.7,197.3z"/>
	<path class="st2" d="M32.8,192.2c-3.6-0.4-7.2-0.9-10.7-1.6c-3.6-0.6-7.1-1.3-10.6-2.2c3.6,0.3,7.2,0.9,10.7,1.6
		C25.8,190.5,29.3,191.2,32.8,192.2z"/>
	<path class="st2" d="M33.6,186.9c-3.6-0.3-7.1-0.9-10.6-1.6c-3.5-0.6-7-1.3-10.5-2.2c3.6,0.3,7.1,0.9,10.6,1.6
		C26.6,185.3,30.1,186,33.6,186.9z"/>
</g>
<g id="freepik--Floor--inject-14">
	<path class="st3" d="M502.6,477.8c0,0.2-109.3,0.3-244.1,0.3s-244.1-0.1-244.1-0.3c0-0.2,109.3-0.3,244.1-0.3
		S502.6,477.6,502.6,477.8z"/>
</g>
<g id="freepik--Icons--inject-14">
	<path class="st4" d="M147.2,109.8L104,124.7c-2.1,0.7-4.4-0.4-5.1-2.5l-20-58.1c-0.7-2.1,0.4-4.3,2.4-5.1l30.1-10.4l22.4,10.5
		l15.7,45.6C150.4,106.8,149.2,109.1,147.2,109.8z"/>
	<path class="st4" d="M111.5,48.5l4,11.5c1,2.9,4.1,4.4,6.9,3.4l11.5-4.3L111.5,48.5z"/>
	<g class="st5">
		<path d="M111.5,48.5l4,11.5c1,2.9,4.1,4.4,6.9,3.4l11.5-4.3L111.5,48.5z"/>
	</g>
	<path class="st2" d="M136.7,100.6c-0.1-0.2-0.2-0.4-0.2-0.5c-0.1-0.4-0.3-0.9-0.6-1.5l-2-5.7c-1.8-5-4.2-12-7.2-20.4l0.3,0.2
		L97.7,82.7c0,0.1,0.3-0.7,0.2-0.4l0,0l0,0l0,0v0.1l0.1,0.2l0.2,0.5l0.3,1l0.7,1.9c0.4,1.3,0.9,2.5,1.3,3.8c0.9,2.5,1.7,4.9,2.5,7.3
		c1.6,4.7,3.2,9.2,4.6,13.3l-0.3-0.2l21.3-7.1l6-2l1.6-0.5L136.7,100.6c-0.2,0.1-0.3,0.2-0.5,0.2l-1.5,0.6l-5.9,2.2l-21.4,7.5
		l-0.2,0.1l-0.1-0.2c-1.4-4.1-3-8.6-4.6-13.3l-2.5-7.3c-0.4-1.2-0.9-2.5-1.3-3.8l-0.7-1.9l-0.3-1l-0.2-0.5l-0.1-0.2v-0.1l0,0l0,0
		l0,0c-0.2,0.3,0.2-0.5,0.2-0.4L127,72.2l0.2-0.1l0.1,0.2c2.9,8.5,5.3,15.6,7,20.6l1.9,5.7c0.2,0.6,0.4,1.1,0.5,1.5
		C136.8,100.6,136.7,100.6,136.7,100.6z"/>
	<path class="st2" d="M121.8,106.1c-0.1,0.1-2.5-6.2-5.2-14s-4.8-14.2-4.6-14.2c0.2-0.1,2.5,6.2,5.2,14
		C119.9,99.7,122,106,121.8,106.1z"/>
	<path class="st2" d="M134.2,93.7c0,0.1-6.5,2.6-14.7,5.4s-14.8,5-14.9,4.8c-0.1-0.2,6.5-2.6,14.7-5.4
		C127.5,95.7,134.2,93.5,134.2,93.7z"/>
	<path class="st2" d="M132.1,86.4c0,0.1-6.5,2.6-14.7,5.4s-14.8,5-14.9,4.8c-0.1-0.2,6.5-2.6,14.7-5.4S132,86.2,132.1,86.4z"/>
	<path class="st2" d="M129.3,79.2c0,0.1-6.5,2.5-14.5,5.3c-8.1,2.8-14.7,4.9-14.7,4.8s6.5-2.5,14.6-5.3S129.3,79.1,129.3,79.2z"/>
	<path class="st6" d="M452.9,369.3l-22.6,11.9c-1.1,0.6-2.4,0.2-3-0.9c0,0,0,0,0,0l-16-30.4c-0.6-1.1-0.2-2.4,0.9-3c0,0,0,0,0,0
		l15.8-8.3l13.3,3.9l12.6,23.9C454.5,367.4,454.1,368.7,452.9,369.3C453,369.3,452.9,369.3,452.9,369.3z"/>
	<path class="st1" d="M428,338.4l3.2,6c0.8,1.5,2.6,2.1,4.1,1.3c0,0,0,0,0,0l6-3.3L428,338.4z"/>
	<path class="st2" d="M446.3,365.1c-0.2-0.4-0.4-0.7-0.6-1.1l-1.7-3l-5.7-10.6l0.3,0.1l-15.4,8.2l0.1-0.4l0,0l0,0v0.1l0.1,0.1
		l0.1,0.3l0.3,0.5l0.5,1l1,2l2,3.8l3.7,7l-0.3-0.1l11.1-5.7l3.2-1.6c0.7-0.4,1.1-0.6,1.2-0.6c-0.3,0.2-0.7,0.4-1,0.6l-3.1,1.7
		l-11.2,6l-0.2,0.1l-0.1-0.2c-1.1-2.2-2.4-4.5-3.7-7c-0.7-1.2-1.3-2.5-2-3.8l-1-2l-0.5-1l-0.3-0.5l-0.1-0.2l-0.1-0.1v-0.1l0,0l0,0
		l0,0c-0.1,0.3,0.1-0.5,0.1-0.4l15.4-8.1l0.2-0.1l0.1,0.2c2.3,4.4,4.2,8.2,5.6,10.9c0.6,1.3,1.1,2.2,1.5,3
		C446,364.3,446.2,364.7,446.3,365.1z"/>
	<path class="st2" d="M438.6,369.4c-1.6-2.3-3-4.8-4.2-7.3c-1.4-2.4-2.6-4.9-3.6-7.5c1.5,2.3,2.9,4.8,4.2,7.3
		C436.3,364.3,437.6,366.8,438.6,369.4z"/>
	<path class="st2" d="M444.4,361.5c-2.4,1.6-5,3.1-7.6,4.3c-2.5,1.4-5.2,2.7-7.9,3.8c2.4-1.6,5-3.1,7.6-4.3
		C439.1,363.8,441.7,362.6,444.4,361.5z"/>
	<path class="st2" d="M442.6,357.6c-2.4,1.6-5,3-7.6,4.3c-2.5,1.5-5.2,2.8-7.9,3.9C432.1,362.7,437.2,360,442.6,357.6L442.6,357.6z"
		/>
	<path class="st2" d="M440.5,353.9c-4.9,3-10.1,5.7-15.4,8.1C430,358.9,435.2,356.2,440.5,353.9z"/>
</g>
<g id="freepik--Spreadsheets--inject-14">
	<rect x="63.2" y="118.3" class="st7" width="430.2" height="233.3"/>
	<rect x="63.2" y="118.3" class="st3" width="430.2" height="19.6"/>
	<circle class="st8" cx="73.4" cy="128.4" r="2.4"/>
	<circle class="st8" cx="82.2" cy="128.4" r="2.4"/>
	<circle class="st8" cx="91.1" cy="128.4" r="2.4"/>
	<rect x="62.6" y="171.7" class="st6" width="15.6" height="179.8"/>
	<rect x="62.6" y="164.8" class="st6" width="430.7" height="15.6"/>
	<path class="st1" d="M78.2,341.6c-0.2,0-0.3-39.6-0.3-88.4s0.1-88.4,0.3-88.4s0.3,39.6,0.3,88.4S78.4,341.6,78.2,341.6z"/>
	<path class="st1" d="M139.7,351.6c-0.2,0-0.3-41.8-0.3-93.4s0.1-93.4,0.3-93.4c0.2,0,0.3,41.8,0.3,93.4S139.9,351.6,139.7,351.6z"
		/>
	<path class="st1" d="M205,351.6c-0.2,0-0.3-41.7-0.3-93.1s0.1-93.1,0.3-93.1c0.2,0,0.3,41.7,0.3,93.1S205.2,351.6,205,351.6z"/>
	<path class="st1" d="M268.7,351.6c-0.2,0-0.3-41.7-0.3-93.1s0.1-93.1,0.3-93.1s0.3,41.7,0.3,93.1S268.9,351.6,268.7,351.6z"/>
	<path class="st1" d="M333.9,351.6c-0.2,0-0.3-41.8-0.3-93.4s0.1-93.4,0.3-93.4c0.2,0,0.3,41.8,0.3,93.4S334.1,351.6,333.9,351.6z"
		/>
	<path class="st1" d="M399.1,351.6c-0.2,0-0.3-41.8-0.3-93.4s0.1-93.4,0.3-93.4c0.2,0,0.3,41.8,0.3,93.4S399.3,351.6,399.1,351.6z"
		/>
	<path class="st1" d="M464.4,351.6c-0.2,0-0.3-41.7-0.3-93.1s0.1-93.1,0.3-93.1s0.3,41.7,0.3,93.1S464.5,351.6,464.4,351.6z"/>
	<path class="st1" d="M490.8,194.7c0,0.2-95.9,0.3-214.1,0.3s-214.2-0.1-214.2-0.3c0-0.2,95.9-0.3,214.2-0.3
		S490.8,194.6,490.8,194.7z"/>
	<path class="st1" d="M490.8,180.4c0,0.2-95.9,0.3-214.1,0.3s-214.2-0.1-214.2-0.3c0-0.2,95.9-0.3,214.2-0.3
		S490.8,180.3,490.8,180.4z"/>
	<path class="st1" d="M490.8,209.8c0,0.2-95.9,0.3-214.1,0.3s-214.2-0.1-214.2-0.3s95.9-0.3,214.2-0.3S490.8,209.6,490.8,209.8z"/>
	<path class="st1" d="M490.8,224.8c0,0.2-95.9,0.3-214.1,0.3s-214.2-0.1-214.2-0.3c0-0.2,95.9-0.3,214.2-0.3
		S490.8,224.7,490.8,224.8z"/>
	<path class="st1" d="M490.8,239.8c0,0.2-95.9,0.3-214.1,0.3S62.6,240,62.6,239.8c0-0.2,95.9-0.3,214.2-0.3S490.8,239.7,490.8,239.8
		z"/>
	<path class="st1" d="M490.8,254.9c0,0.2-95.9,0.3-214.1,0.3S62.6,255,62.6,254.9c0-0.2,95.9-0.3,214.2-0.3S490.8,254.7,490.8,254.9
		z"/>
	<path class="st1" d="M490.8,269.9c0,0.2-95.9,0.3-214.1,0.3S62.6,270,62.6,269.9c0-0.2,95.9-0.3,214.2-0.3S490.8,269.7,490.8,269.9
		z"/>
	<path class="st1" d="M490.8,284.9c0,0.2-95.9,0.3-214.1,0.3s-214.2-0.1-214.2-0.3s95.9-0.3,214.2-0.3S490.8,284.8,490.8,284.9z"/>
	<path class="st1" d="M490.8,299.9c0,0.2-95.9,0.3-214.1,0.3s-214.2-0.1-214.2-0.3c0-0.2,95.9-0.3,214.2-0.3
		S490.8,299.8,490.8,299.9z"/>
	<path class="st1" d="M490.8,315c0,0.2-95.9,0.3-214.1,0.3S62.6,315.2,62.6,315c0-0.2,95.9-0.3,214.2-0.3S490.8,314.8,490.8,315z"/>
	<path class="st1" d="M490.8,330c0,0.2-95.9,0.3-214.1,0.3S62.6,330.2,62.6,330c0-0.2,95.9-0.3,214.2-0.3S490.8,329.9,490.8,330z"/>
	<path class="st1" d="M490.8,345.1c0,0.2-95.9,0.3-214.1,0.3s-214.2-0.1-214.2-0.3s95.9-0.3,214.2-0.3S490.8,344.9,490.8,345.1z"/>
	<rect x="78.2" y="180.4" class="st4" width="415" height="29.3"/>
	<path class="st8" d="M404.9,193.1c0,0.2-48.8,0.3-109.1,0.3s-109.1-0.1-109.1-0.3c0-0.2,48.8-0.3,109.1-0.3
		S404.9,192.9,404.9,193.1z"/>
	<path class="st8" d="M425.6,201.4c0,0.2-61.1,0.3-136.4,0.3s-136.4-0.1-136.4-0.3c0-0.2,61.1-0.3,136.4-0.3
		S425.6,201.2,425.6,201.4z"/>
	<rect x="139.7" y="224.8" class="st4" width="129" height="15"/>
	<rect x="139.7" y="238.2" class="st0" width="129" height="63.4"/>
	<path class="st3" d="M194.3,246.7c0,0.2-10.6,0.3-23.8,0.3c-13.1,0-23.8-0.1-23.8-0.3c0-0.2,10.6-0.3,23.8-0.3
		C183.6,246.4,194.3,246.5,194.3,246.7z"/>
	<path class="st3" d="M175.3,263.2c0,0.2-6.4,0.3-14.3,0.3c-7.9,0-14.3-0.1-14.3-0.3s6.4-0.3,14.3-0.3
		C168.9,262.9,175.3,263,175.3,263.2z"/>
	<path class="st3" d="M198.9,275.2c0,0.2-11.7,0.3-26.1,0.3c-14.4,0-26.1-0.1-26.1-0.3s11.7-0.3,26.1-0.3
		C187.2,274.9,198.9,275,198.9,275.2z"/>
	<path class="st3" d="M175.3,251.2c0,0.2-6.4,0.3-14.3,0.3c-7.9,0-14.3-0.1-14.3-0.3s6.4-0.3,14.3-0.3
		C168.9,250.9,175.3,251,175.3,251.2z"/>
	<path class="st3" d="M263.9,246.7c-2.5,0.3-5,0.4-7.6,0.3c-2.5,0.1-5.1,0-7.6-0.3c2.5-0.3,5-0.4,7.6-0.3
		C258.9,246.3,261.4,246.4,263.9,246.7z"/>
	<path class="st3" d="M263.9,260.2c-2.5,0.3-5,0.4-7.6,0.3c-2.5,0.1-5.1,0-7.6-0.3c2.5-0.3,5-0.4,7.6-0.3
		C258.9,259.8,261.4,259.9,263.9,260.2z"/>
	<path class="st3" d="M263.9,275.2c-2.5,0.3-5,0.4-7.6,0.3c-2.5,0.1-5.1,0-7.6-0.3c2.5-0.3,5-0.4,7.6-0.3
		C258.9,274.8,261.4,274.9,263.9,275.2z"/>
	<path class="st3" d="M263.1,293.6c0,0.2-5.4,0.3-12,0.3s-12-0.1-12-0.3c0-0.2,5.4-0.3,12-0.3S263.1,293.4,263.1,293.6z"/>
	<path class="st1" d="M205,300.5c-0.2,0-0.3-13.7-0.3-30.6s0.1-30.6,0.3-30.6c0.2,0,0.3,13.7,0.3,30.6S205.2,300.5,205,300.5z"/>
	<path class="st1" d="M267.6,283.6c0,0.2-14.3,0.3-31.9,0.3s-31.8-0.1-31.8-0.3s14.2-0.3,31.8-0.3S267.6,283.4,267.6,283.6z"/>
	<rect x="139.7" y="329.5" class="st7" width="129" height="15.6"/>
	<rect x="139.5" y="315" class="st4" width="129.2" height="15"/>
	<path class="st3" d="M200,338c0,0.2-12.2,0.3-27.2,0.3c-15,0-27.2-0.1-27.2-0.3c0-0.2,12.2-0.3,27.2-0.3
		C187.8,337.7,200,337.9,200,338z"/>
	<path class="st3" d="M263.1,337.3c0,0.2-5.4,0.3-12,0.3s-12-0.1-12-0.3s5.4-0.3,12-0.3S263.1,337.1,263.1,337.3z"/>
	<rect x="337.1" y="276.9" class="st4" width="11.2" height="37.9"/>
	<rect x="404.9" y="283.7" class="st4" width="11.2" height="31"/>
	<rect x="450.1" y="292.4" class="st3" width="11.2" height="22.3"/>
	<rect x="359.7" y="253.7" class="st6" width="11.2" height="61.1"/>
	<rect x="382.3" y="253.7" class="st3" width="11.2" height="61.1"/>
	<rect x="427.4" y="239.5" class="st6" width="11.2" height="75.2"/>
	<rect x="74.8" y="144.8" class="st4" width="9.9" height="9.9"/>
	<path class="st4" d="M90.4,159.1h-11v-11h11V159.1z M80.6,158h8.8v-8.8h-8.8V158z"/>
	<rect x="104.9" y="147.5" class="st1" width="9.2" height="9.2"/>
	<rect x="120" y="147.5" class="st1" width="9.2" height="9.2"/>
	<rect x="135" y="147.5" class="st1" width="9.2" height="9.2"/>
	<rect x="150" y="147.5" class="st1" width="9.2" height="9.2"/>
	<rect x="165.1" y="147.5" class="st1" width="9.2" height="9.2"/>
	<rect x="188.1" y="147.4" class="st1" width="97.7" height="9.4"/>
	<rect x="299.2" y="147.4" class="st1" width="97.7" height="9.4"/>
	<rect x="409" y="147.4" class="st1" width="84.3" height="9.4"/>
	<path class="st3" d="M493.4,351.6c0-1.8-0.1-89.8-0.2-233.3l0.2,0.2l-430.2,0.1l0,0l0.3-0.3c0,82.4,0,161.3,0,233.3l-0.3-0.3
		L493.4,351.6l-430.1,0.3h-0.3v-0.3c0-71.9,0-150.8,0-233.3V118h0.3l430.2,0.1h0.2v0.2C493.5,261.8,493.4,349.8,493.4,351.6z"/>
	<rect x="34.5" y="99.5" class="st7" width="430.2" height="233.3"/>
	<rect x="34.5" y="99.5" class="st3" width="430.2" height="19.6"/>
	<circle class="st8" cx="44.7" cy="109.6" r="2.4"/>
	<circle class="st8" cx="53.6" cy="109.6" r="2.4"/>
	<circle class="st8" cx="62.4" cy="109.6" r="2.4"/>
	<rect x="33.9" y="152.9" class="st6" width="15.6" height="179.8"/>
	<rect x="33.9" y="146" class="st6" width="430.7" height="15.6"/>
	<path class="st1" d="M49.6,322.7c-0.2,0-0.3-39.6-0.3-88.4s0.1-88.4,0.3-88.4c0.2,0,0.3,39.6,0.3,88.4S49.7,322.7,49.6,322.7z"/>
	<path class="st1" d="M111.1,332.7c-0.2,0-0.3-41.8-0.3-93.4s0.1-93.4,0.3-93.4c0.2,0,0.3,41.8,0.3,93.4S111.2,332.7,111.1,332.7z"
		/>
	<path class="st1" d="M176.3,332.7c-0.2,0-0.3-41.7-0.3-93.1s0.1-93.1,0.3-93.1c0.2,0,0.3,41.7,0.3,93.1S176.5,332.7,176.3,332.7z"
		/>
	<path class="st1" d="M240.1,332.7c-0.2,0-0.3-41.7-0.3-93.1s0.1-93.1,0.3-93.1s0.3,41.7,0.3,93.1S240.2,332.7,240.1,332.7z"/>
	<path class="st1" d="M305.3,332.7c-0.2,0-0.3-41.8-0.3-93.4s0.1-93.4,0.3-93.4c0.2,0,0.3,41.8,0.3,93.4S305.4,332.7,305.3,332.7z"
		/>
	<path class="st1" d="M370.5,332.7c-0.2,0-0.3-41.8-0.3-93.4s0.1-93.4,0.3-93.4c0.2,0,0.3,41.8,0.3,93.4S370.7,332.7,370.5,332.7z"
		/>
	<path class="st1" d="M435.7,332.7c-0.2,0-0.3-41.7-0.3-93.1s0.1-93.1,0.3-93.1s0.3,41.7,0.3,93.1S435.9,332.7,435.7,332.7z"/>
	<path class="st1" d="M462.2,175.9c0,0.2-95.9,0.3-214.1,0.3S33.9,176,33.9,175.9c0-0.2,95.9-0.3,214.2-0.3S462.2,175.8,462.2,175.9
		z"/>
	<path class="st1" d="M462.2,161.6c0,0.2-95.9,0.3-214.1,0.3s-214.2-0.1-214.2-0.3c0-0.2,95.9-0.3,214.2-0.3
		S462.2,161.4,462.2,161.6z"/>
	<path class="st1" d="M462.2,190.9c0,0.2-95.9,0.3-214.1,0.3s-214.2-0.1-214.2-0.3c0-0.2,95.9-0.3,214.2-0.3
		S462.2,190.8,462.2,190.9z"/>
	<path class="st1" d="M462.2,205.9c0,0.2-95.9,0.3-214.1,0.3s-214.2-0.1-214.2-0.3s95.9-0.3,214.2-0.3S462.2,205.8,462.2,205.9z"/>
	<path class="st1" d="M462.2,221c0,0.2-95.9,0.3-214.1,0.3S33.9,221.1,33.9,221s95.9-0.3,214.2-0.3S462.2,220.8,462.2,221z"/>
	<path class="st1" d="M462.2,236c0,0.2-95.9,0.3-214.1,0.3S33.9,236.2,33.9,236c0-0.2,95.9-0.3,214.2-0.3S462.2,235.8,462.2,236z"/>
	<path class="st1" d="M462.2,251c0,0.2-95.9,0.3-214.1,0.3S33.9,251.2,33.9,251c0-0.2,95.9-0.3,214.2-0.3S462.2,250.9,462.2,251z"/>
	<path class="st1" d="M462.2,266.1c0,0.2-95.9,0.3-214.1,0.3s-214.2-0.1-214.2-0.3c0-0.2,95.9-0.3,214.2-0.3
		S462.2,265.9,462.2,266.1z"/>
	<path class="st1" d="M462.2,281.1c0,0.2-95.9,0.3-214.1,0.3s-214.2-0.1-214.2-0.3c0-0.2,95.9-0.3,214.2-0.3
		S462.2,280.9,462.2,281.1z"/>
	<path class="st1" d="M462.2,296.1c0,0.2-95.9,0.3-214.1,0.3s-214.2-0.1-214.2-0.3c0-0.2,95.9-0.3,214.2-0.3S462.2,296,462.2,296.1z
		"/>
	<path class="st1" d="M462.2,311.2c0,0.2-95.9,0.3-214.1,0.3s-214.2-0.1-214.2-0.3c0-0.2,95.9-0.3,214.2-0.3S462.2,311,462.2,311.2z
		"/>
	<path class="st1" d="M462.2,326.2c0,0.2-95.9,0.3-214.1,0.3s-214.2-0.1-214.2-0.3c0-0.2,95.9-0.3,214.2-0.3S462.2,326,462.2,326.2z
		"/>
	<rect x="49.6" y="161.6" class="st4" width="415" height="29.3"/>
	<path class="st8" d="M376.3,174.2c0,0.2-48.8,0.3-109.1,0.3s-109.1-0.1-109.1-0.3s48.8-0.3,109.1-0.3S376.3,174,376.3,174.2z"/>
	<path class="st8" d="M396.9,182.6c0,0.2-61.1,0.3-136.4,0.3s-136.4-0.1-136.4-0.3c0-0.2,61.1-0.3,136.4-0.3
		S396.9,182.4,396.9,182.6z"/>
	<rect x="111.1" y="205.9" class="st4" width="129" height="15"/>
	<rect x="111.1" y="219.3" class="st0" width="129" height="63.4"/>
	<path class="st3" d="M165.6,227.8c0,0.2-10.6,0.3-23.8,0.3c-13.1,0-23.8-0.1-23.8-0.3c0-0.2,10.6-0.3,23.8-0.3
		C155,227.5,165.6,227.7,165.6,227.8z"/>
	<path class="st3" d="M146.7,244.3c0,0.2-6.4,0.3-14.3,0.3c-7.9,0-14.3-0.1-14.3-0.3c0-0.2,6.4-0.3,14.3-0.3
		C140.3,244,146.7,244.2,146.7,244.3z"/>
	<path class="st3" d="M170.2,256.4c0,0.2-11.7,0.3-26.1,0.3c-14.4,0-26.1-0.1-26.1-0.3s11.7-0.3,26.1-0.3
		C158.6,256.1,170.2,256.2,170.2,256.4z"/>
	<path class="st3" d="M146.7,232.3c0,0.2-6.4,0.3-14.3,0.3c-7.9,0-14.3-0.1-14.3-0.3c0-0.2,6.4-0.3,14.3-0.3
		C140.3,232,146.7,232.1,146.7,232.3z"/>
	<path class="st3" d="M235.3,227.8c-2.5,0.3-5,0.4-7.6,0.3c-2.5,0.1-5.1,0-7.6-0.3c2.5-0.3,5.1-0.4,7.6-0.3
		C230.2,227.4,232.8,227.5,235.3,227.8z"/>
	<path class="st3" d="M235.3,241.3c-2.5,0.3-5,0.4-7.6,0.3c-2.5,0.1-5.1,0-7.6-0.3c2.5-0.3,5.1-0.4,7.6-0.3
		C230.2,240.9,232.8,241,235.3,241.3z"/>
	<path class="st3" d="M235.3,256.4c-2.5,0.3-5,0.4-7.6,0.3c-2.5,0.1-5.1,0-7.6-0.3c2.5-0.3,5.1-0.4,7.6-0.3
		C230.2,256,232.8,256.1,235.3,256.4z"/>
	<path class="st3" d="M234.4,274.7c0,0.2-5.4,0.3-12,0.3s-12-0.1-12-0.3c0-0.2,5.4-0.3,12-0.3S234.4,274.6,234.4,274.7z"/>
	<path class="st1" d="M176.3,281.7c-0.2,0-0.3-13.7-0.3-30.6s0.1-30.6,0.3-30.6c0.2,0,0.3,13.7,0.3,30.6S176.5,281.7,176.3,281.7z"
		/>
	<path class="st1" d="M239,264.7c0,0.2-14.3,0.3-31.9,0.3s-31.9-0.1-31.9-0.3c0-0.2,14.3-0.3,31.9-0.3S239,264.6,239,264.7z"/>
	<rect x="111.1" y="310.6" class="st7" width="129" height="15.6"/>
	<rect x="110.9" y="296.1" class="st4" width="129.2" height="15"/>
	<path class="st3" d="M171.3,319.2c0,0.2-12.2,0.3-27.2,0.3c-15,0-27.2-0.1-27.2-0.3s12.2-0.3,27.2-0.3
		C159.1,318.9,171.3,319,171.3,319.2z"/>
	<path class="st3" d="M234.4,318.4c0,0.2-5.4,0.3-12,0.3s-12-0.1-12-0.3s5.4-0.3,12-0.3S234.4,318.3,234.4,318.4z"/>
	<rect x="308.4" y="258" class="st4" width="11.2" height="37.9"/>
	<rect x="376.2" y="264.9" class="st4" width="11.2" height="31"/>
	<rect x="421.4" y="273.5" class="st3" width="11.2" height="22.3"/>
	<rect x="331" y="234.8" class="st6" width="11.2" height="61.1"/>
	<rect x="353.6" y="234.8" class="st3" width="11.2" height="61.1"/>
	<rect x="398.8" y="220.7" class="st6" width="11.2" height="75.2"/>
	<rect x="46.1" y="126" class="st4" width="9.9" height="9.9"/>
	<path class="st4" d="M61.8,140.2h-11v-11h11V140.2z M51.9,139.1h8.8v-8.8h-8.8V139.1z"/>
	<rect x="76.3" y="128.6" class="st1" width="9.2" height="9.2"/>
	<rect x="91.3" y="128.6" class="st1" width="9.2" height="9.2"/>
	<rect x="106.3" y="128.6" class="st1" width="9.2" height="9.2"/>
	<rect x="121.4" y="128.6" class="st1" width="9.2" height="9.2"/>
	<rect x="136.4" y="128.6" class="st1" width="9.2" height="9.2"/>
	<rect x="159.4" y="128.5" class="st1" width="97.7" height="9.4"/>
	<rect x="270.6" y="128.5" class="st1" width="97.7" height="9.4"/>
	<rect x="380.3" y="128.5" class="st1" width="84.3" height="9.4"/>
	<path class="st3" d="M464.8,332.7c0-1.8-0.1-89.8-0.2-233.3l0.2,0.2L34.6,99.8l0,0l0.3-0.3c0,82.4,0,161.3,0,233.3l-0.3-0.3
		L464.8,332.7L34.6,333h-0.3v-0.3c0-71.9,0-150.8,0-233.3v-0.3h0.3l430.2,0.1h0.2v0.2C464.8,242.9,464.8,331,464.8,332.7z"/>
</g>
<g id="freepik--Character--inject-14">
	<path class="st4" d="M260.8,357.6l30,32l44.9-13.3l7.9,17.5c0,0-52.1,19.4-56.6,17.6s-32-25-32-25L260.8,357.6z"/>
	<path class="st8" d="M279,378c-0.6,0.8-1.4,1.6-2.1,2.3c-1.3,1.4-3.1,3.3-5,5.6c-3.1,3.7-5.4,7-6.2,8l-0.5,0.6l0.3-0.7
		c0.1-0.3,0.2-0.5,0.3-0.4c0,0,0,0.2-0.1,0.5l-0.1-0.1c1.7-2.9,3.7-5.7,5.9-8.3c1.6-1.9,3.4-3.8,5.2-5.5
		C277.3,379.3,278.1,378.6,279,378z"/>
	<path class="st8" d="M276.6,374.3c-0.8,0.8-1.6,1.6-2.4,2.4c-1.5,1.4-3.5,3.5-5.6,5.9c-2.1,2.4-3.8,4.7-5,6.5c-0.6,1-1.3,1.9-2,2.8
		c0.4-1.1,1-2.1,1.6-3c1.5-2.3,3.1-4.6,4.9-6.7c1.8-2.1,3.7-4.1,5.8-5.9C274.7,375.5,275.6,374.8,276.6,374.3z"/>
	<path class="st4" d="M340.3,470.7l-0.7-3.5l-19.4,3.8l1.3,7.6l1.2-0.1c5.4-0.6,27.5-3.2,31-4.9
		C357.5,471.8,340.3,470.7,340.3,470.7z"/>
	<g class="st9">
		<path class="st2" d="M328.5,477.4c-0.5-1.6-1.6-3-3-3.9c-1.5-0.9-3.3-1.1-5-0.6l1,5.4L328.5,477.4z"/>
	</g>
	<g class="st9">
		<path class="st2" d="M348.8,471.5c0,0,6.1,0.7,5.5,1.8c-0.6,1.1-22.8,4.6-32.8,5.3v-0.4l25.9-3.9
			C347.4,474.3,347.6,471.8,348.8,471.5z"/>
	</g>
	<path class="st3" d="M321.2,478.2h0.3l1-0.1l3.6-0.4c3-0.4,7.2-0.9,11.7-1.6c4.6-0.7,8.7-1.5,11.7-2l3.5-0.7l1-0.2
		c0.1,0,0.2,0,0.3-0.1h-0.3l-1,0.2l-3.5,0.6c-3,0.5-7.1,1.2-11.7,2c-4.6,0.7-8.7,1.3-11.7,1.7l-3.6,0.5l-1,0.1L321.2,478.2z"/>
	<path class="st3" d="M347.5,474.6c0.1-0.6,0.2-1.2,0.4-1.8c0.3-0.6,0.6-1.1,1-1.5C347.8,472,347.2,473.3,347.5,474.6z"/>
	<path class="st3" d="M341.3,472.6c0.1,0,0.3-0.4,0.5-0.8c0.2-0.3,0.3-0.6,0.3-0.9c-0.1,0-0.3,0.4-0.5,0.8
		C341.4,472,341.3,472.3,341.3,472.6z"/>
	<path class="st3" d="M339.6,472c0.1,0,0.3-0.2,0.6-0.6c0.3-0.4,0.5-0.7,0.4-0.7s-0.3,0.2-0.6,0.6C339.7,471.7,339.5,472,339.6,472z
		"/>
	<path class="st3" d="M338.3,470.3c0.7,0.1,1.4,0,2-0.3C339.6,470,338.9,470.1,338.3,470.3z"/>
	<path class="st3" d="M337.7,469.1c0.4,0.2,0.8,0.2,1.2,0.1c0.4,0,0.8-0.1,1.1-0.3C339.2,469,338.5,469.1,337.7,469.1L337.7,469.1z"
		/>
	<path class="st3" d="M341.7,470.8c0.4,0,0.8-0.1,1.2-0.2c0.4-0.1,0.9-0.3,1.3-0.5c0.3-0.1,0.5-0.3,0.7-0.4c0.1-0.1,0.2-0.3,0.2-0.4
		c0-0.2-0.1-0.4-0.3-0.5c-1.1-0.3-2.2,0.1-2.7,1.1c-0.2,0.3-0.2,0.6-0.3,0.9c0,0.1,0,0.2,0,0.3c0.1-0.4,0.2-0.8,0.4-1.1
		c0.2-0.4,0.6-0.7,1-0.9c0.5-0.2,1-0.3,1.5-0.1c0.2,0.1,0.2,0.4,0,0.5c-0.2,0.2-0.4,0.3-0.7,0.4c-0.4,0.2-0.8,0.4-1.2,0.5
		C342.1,470.7,341.7,470.8,341.7,470.8z"/>
	<path class="st3" d="M342,470.8c0.1-0.3,0.1-0.6,0-0.9c-0.1-0.3-0.3-0.6-0.5-0.9c-0.3-0.3-0.7-0.5-1.1-0.5
		c-0.3,0.1-0.4,0.4-0.3,0.6c0.1,0.2,0.2,0.4,0.3,0.5c0.2,0.2,0.4,0.5,0.7,0.7C341.3,470.6,341.6,470.7,342,470.8
		c-0.1,0-0.4-0.2-0.8-0.5c-0.2-0.2-0.5-0.4-0.6-0.7c-0.2-0.2-0.4-0.7-0.1-0.8c0.3-0.1,0.7,0.2,0.9,0.4c0.2,0.2,0.4,0.5,0.5,0.8
		C341.9,470.3,342,470.5,342,470.8z"/>
	<path class="st3" d="M320.8,472.8c0,0,0.5-0.1,1.4-0.2c1.2,0,2.3,0.2,3.3,0.8c1,0.6,1.8,1.4,2.4,2.5c0.4,0.8,0.5,1.3,0.6,1.3
		c0-0.1,0-0.3-0.1-0.4c-0.1-0.4-0.2-0.7-0.4-1c-1.1-2.2-3.4-3.6-5.9-3.3c-0.4,0-0.7,0.1-1.1,0.2C321,472.7,320.8,472.8,320.8,472.8z
		"/>
	<path class="st3" d="M330.7,475.1c1,0.1,1.9,0,2.9-0.2c1-0.1,1.9-0.3,2.8-0.7c0-0.1-1.3,0.2-2.8,0.4
		C332,474.9,330.7,475,330.7,475.1z"/>
	<path class="st3" d="M326.9,475.7c0,0.1,0.1,0.3,0.3,0.5c0.2,0.3,0.3,0.5,0.4,0.5c0.1,0,0.1-0.3-0.2-0.6
		C327.2,475.7,326.9,475.6,326.9,475.7z"/>
	<path class="st3" d="M325.2,474.1c0,0.1,0.1,0.2,0.4,0.4s0.5,0.3,0.5,0.2c0,0-0.1-0.2-0.3-0.4S325.2,474.1,325.2,474.1z"/>
	<path class="st3" d="M323,473.6c0,0.1,0.3,0,0.6,0.1c0.3,0.1,0.5,0.2,0.6,0.1c0-0.1-0.2-0.3-0.5-0.4
		C323.2,473.4,323,473.6,323,473.6z"/>
	<path class="st3" d="M321.4,473.5c0,0.1,0.1,0.1,0.3,0.2c0.2,0,0.3,0,0.3-0.1c0-0.1-0.1-0.1-0.3-0.2
		C321.6,473.4,321.4,473.4,321.4,473.5z"/>
	<path class="st3" d="M226.5,447.5l66.7-62.9c4.1-4.2,9.8-6.6,15.7-6.5l0,0h1.3c10.7,0.7,19.5,8.7,21.2,19.3l13.8,69.3l-27.8,7.8
		l-10-56.1l-32.9,29.8L226.5,447.5z"/>
	<path class="st3" d="M205.4,454c-0.3,0.8-2.1,23.9,26.7,23.9h77.1c9.7,0,17.7-7.4,17.7-16.6l0,0c0-9.2-7.9-16.6-17.7-16.6h-71.7
		c-2.6,0-5.1,0.5-7.4,1.5L205.4,454z"/>
	<path class="st6" d="M316,444.7c0,0.2-15.9,0.3-35.6,0.3c-19.6,0-35.6-0.1-35.6-0.3s15.9-0.3,35.6-0.3
		C300,444.4,316,444.6,316,444.7z"/>
	<path class="st6" d="M305.4,403.6c0.2,0,0.2,3.3,0.8,7.4c0.6,4,1.5,7.2,1.4,7.3C305.6,413.7,304.9,408.6,305.4,403.6L305.4,403.6z"
		/>
	<path class="st6" d="M308.6,403.2c0.4,5.1,0,10.1-1.2,15.1c-0.2,0,0.3-3.3,0.6-7.5C308.4,406.5,308.5,403.2,308.6,403.2z"/>
	<path class="st6" d="M314.2,477.2c2-0.8,3.9-1.9,5.6-3.3c1.8-1.5,3.3-3.4,4.3-5.6c2.5-5.3,2.1-11.5-1.2-16.4c-1.3-1.9-3-3.6-5-4.9
		c-1.9-1.1-3.9-1.9-6-2.4c0.2,0,0.3,0,0.5,0c0.4,0,0.9,0.1,1.3,0.2c1.6,0.4,3.1,1,4.4,1.8c2.1,1.2,3.9,2.9,5.3,4.9
		c3.4,5,3.9,11.5,1.2,17c-1.1,2.2-2.6,4.1-4.5,5.6c-1.3,1-2.7,1.9-4.2,2.5c-0.4,0.2-0.8,0.3-1.2,0.4
		C314.4,477.1,314.3,477.2,314.2,477.2z"/>
	<path class="st10" d="M250.2,298.1l-0.6,3.3l-9.7,50c-1.1,5.8,3,11.4,9.2,12.5l0,0c6.3,1.1,12.4-2.6,13.6-8.5
		c1.3-6.1,2.8-12.6,2.8-12.6s8.2,0.3,12-9.6c1.9-5,3.3-13.4,4.4-20.4c0.9-6.1-3.3-11.7-9.4-12.6c-0.2,0-0.4-0.1-0.6-0.1L250.2,298.1
		z"/>
	<path class="st3" d="M279.1,318.7c-0.1,0.7-0.8,1.2-1.5,1.1c0,0,0,0,0,0c-0.7-0.1-1.2-0.8-1.1-1.5c0,0,0,0,0,0
		c0.1-0.7,0.8-1.2,1.6-1.1C278.7,317.3,279.2,318,279.1,318.7C279.1,318.7,279.1,318.7,279.1,318.7z"/>
	<path class="st3" d="M279.1,316.9c-0.2,0.1-1-0.8-2.5-1.1c-1.4-0.3-2.6,0.2-2.7,0s0.2-0.4,0.7-0.6c0.7-0.3,1.5-0.4,2.2-0.2
		c0.7,0.2,1.4,0.5,1.9,1.1C279.1,316.5,279.2,316.9,279.1,316.9z"/>
	<path class="st3" d="M264.9,315.5c-0.1,0.7-0.8,1.2-1.6,1.1c-0.7-0.1-1.2-0.7-1.1-1.4c0,0,0,0,0,0c0.1-0.7,0.8-1.2,1.5-1.1
		c0,0,0,0,0,0C264.5,314.1,265,314.8,264.9,315.5z"/>
	<path class="st3" d="M265,314.3c-0.2,0.1-1.1-0.8-2.5-1.1s-2.6,0.2-2.7,0c-0.1-0.2,0.2-0.4,0.7-0.6c0.7-0.3,1.5-0.4,2.2-0.2
		c0.7,0.2,1.4,0.5,1.9,1.1C265,313.9,265.1,314.2,265,314.3z"/>
	<path class="st3" d="M268,325.9c0.8-0.1,1.6-0.1,2.4,0.1c0.4,0,0.7,0,0.8-0.2c0.1-0.4,0.1-0.7,0-1.1c-0.2-0.9-0.3-1.9-0.5-3
		c-0.5-2.6-0.8-5.2-0.9-7.8c0.7,2.5,1.2,5.1,1.5,7.6c0.2,1,0.3,2,0.5,3c0.1,0.5,0.1,1-0.1,1.5c-0.2,0.2-0.4,0.4-0.7,0.4
		c-0.2,0-0.4,0-0.6,0C269.6,326.3,268.8,326.2,268,325.9z"/>
	<path class="st11" d="M265.5,342.9c-4.9-0.9-9.4-3.2-13-6.5c0,0,1.9,7.8,12.4,9L265.5,342.9z"/>
	<path class="st3" d="M263.6,326c0.2,0-0.1,1.6,1,3c1.1,1.4,2.8,1.5,2.7,1.8c0,0.2-0.4,0.2-1.1,0.1c-0.9-0.2-1.7-0.7-2.3-1.4
		c-0.6-0.7-0.8-1.6-0.8-2.5C263.3,326.3,263.5,326,263.6,326z"/>
	<path class="st3" d="M266.6,308.8c-0.2,0.4-1.6-0.1-3.3-0.3c-1.7-0.1-3.2,0-3.3-0.4c-0.1-0.2,0.3-0.5,0.9-0.8
		c0.8-0.3,1.7-0.4,2.6-0.3c0.9,0.1,1.7,0.4,2.5,0.8C266.4,308.2,266.7,308.6,266.6,308.8z"/>
	<path class="st3" d="M279.4,312.7c-0.3,0.3-1.2-0.3-2.4-0.5s-2.2-0.2-2.4-0.6c-0.1-0.2,0.2-0.5,0.7-0.7c0.7-0.3,1.4-0.3,2.1-0.1
		c0.7,0.1,1.3,0.5,1.8,1C279.5,312.2,279.5,312.6,279.4,312.7z"/>
	<path class="st3" d="M292.7,301.1c0.2-0.8,0.1-1.7-0.3-2.5c-0.1-0.7-0.5-1.3-1.1-1.7c-0.7-0.2-1.5-0.2-2.2,0.1
		c-2.5,0.7-5.6,0.6-7.3-1.4c-1.4-1.5-1.6-3.9-3.2-5.2s-4.3-1-6.5-0.4c-2.1,0.7-4.4,1.6-6.6,1c-1.5-0.6-2.9-1.5-4.1-2.6
		c-2.5-1.7-5.5-2.4-8.4-1.9c-3,0.6-5.4,2.5-6.7,5.3c-1.2,2.8-0.6,6,1.5,8.2c0.1,0.1,0.2,0.3,0.3,0.4c-1,5.4-2.2,13.9,0.2,14.5
		c3.5,1,4.8-8.1,4.8-8.1c4.8-0.6,5.9-5.3,7.2-6c1.3-0.7,6.5,1.3,10.7,4.4c5.2,3.8,14.3,4.4,17.4,4.5c0.3,0,0.6,0,0.8,0h0.3l0,0
		c0.2,0,0.4-0.1,0.6-0.2c1-0.6,1.7-1.6,2-2.7c0.4-0.9,0.7-2,0.6-3c-0.1-0.8-0.5-1.4-1.2-1.8C292.1,302,292.5,301.6,292.7,301.1z"/>
	<path class="st6" d="M286.5,303.2c0.1-0.2,0.2-0.3,0.4-0.5c0.5-0.4,1.1-0.5,1.7-0.3c1,0.4,1.5,1.4,1.2,2.4
		c-0.2,0.6-0.7,1.1-1.3,1.3c-0.6,0.2-1.4,0.2-2,0c-1.4-0.5-2.2-2-2.8-3.3c-0.3-0.8-0.6-1.5-1-2.2c-0.4-0.7-0.9-1.3-1.6-1.8
		c-0.8-0.4-1.6-0.4-2.4-0.2c-0.9,0.2-1.7,0.7-2.7,0.9c-1,0.3-2,0.4-3,0.2c-1-0.2-2-0.6-2.9-1.2c-1.7-1.1-3.2-2.4-4.5-4
		c-1.2-1.4-2.6-2.5-4.2-3.4c-1.4-0.8-3.1-1-4.7-0.6c-3.6,0.7-6,4.1-5.5,7.7c0.1,0.8,0.3,1.5,0.5,2.2c-0.1-0.2-0.2-0.3-0.3-0.5
		c-0.2-0.5-0.4-1.1-0.5-1.7c-0.3-2.2,0.3-4.4,1.8-6c2.3-2.4,5.9-3.1,8.9-1.6c1.6,0.9,3.1,2.1,4.4,3.5c1.3,1.5,2.8,2.8,4.4,3.9
		c0.8,0.5,1.7,0.9,2.7,1.1c0.9,0.2,1.9,0.1,2.7-0.1c0.9-0.3,1.8-0.7,2.7-0.9c0.9-0.3,2-0.2,2.8,0.2c1.7,1,2.2,2.8,2.8,4.2
		c0.6,1.4,1.3,2.8,2.5,3.2c0.6,0.2,1.2,0.2,1.7,0.1c0.5-0.1,0.9-0.5,1.1-1c0.2-0.8-0.2-1.7-1-2.1c-0.5-0.2-1.1-0.1-1.6,0.2
		C286.6,303.1,286.5,303.3,286.5,303.2z"/>
	<path class="st6" d="M290.6,305.2c0,0.1-0.1,0.3-0.1,0.4c-0.2,0.4-0.4,0.8-0.7,1.1c-0.5,0.5-1.1,0.8-1.8,1
		c-0.9,0.2-1.9,0.1-2.7-0.2c-1-0.5-1.8-1.3-2.4-2.3c-0.3-0.5-0.7-0.9-1.2-1.2c-0.5-0.3-1.1-0.4-1.6-0.3c-0.6,0.2-1.3,0.4-1.9,0.6
		c-0.7,0.2-1.4,0.4-2.1,0.4c-1.5,0-3-0.4-4.3-1.1c-2.7-1.4-4.8-3.5-7-4.8c-1.9-1.3-4.2-1.9-6.4-1.5c-1.5,0.3-2.8,1.3-3.5,2.7
		c-0.2,0.5-0.4,1.1-0.4,1.6c0-0.2,0-0.3,0-0.5c0-0.4,0.1-0.9,0.3-1.3c0.7-1.5,2-2.6,3.6-3c2.4-0.4,4.8,0.1,6.8,1.5
		c2.3,1.3,4.3,3.4,7,4.8c1.3,0.7,2.7,1.1,4.1,1.1c0.7,0,1.3-0.1,2-0.3c0.6-0.3,1.3-0.5,1.9-0.6c0.7-0.1,1.4,0,2,0.4
		c0.5,0.4,0.9,0.8,1.3,1.4c0.5,0.9,1.3,1.7,2.2,2.2c0.8,0.4,1.6,0.5,2.5,0.3c0.6-0.1,1.2-0.4,1.7-0.9
		C290,306.2,290.3,305.7,290.6,305.2z"/>
	<path class="st10" d="M249.1,311.4c-0.1-0.1-5.6-3.3-6.9,2.7c-1.3,6,5,6.1,5,5.9S249.1,311.4,249.1,311.4z"/>
	<path class="st11" d="M246,317.4c0,0-0.1,0-0.3,0.1c-0.3,0-0.6,0-0.8-0.2c-0.7-0.7-0.9-1.7-0.7-2.6c0.1-0.5,0.3-1,0.6-1.4
		c0.2-0.4,0.6-0.6,1-0.6c0.3,0,0.5,0.2,0.6,0.4c0,0.2,0,0.3,0,0.3c0,0,0.1-0.1,0.2-0.3c0-0.2-0.1-0.3-0.2-0.4
		c-0.1-0.2-0.3-0.3-0.5-0.3c-0.5,0-1,0.3-1.3,0.7c-0.4,0.5-0.6,1-0.7,1.6c-0.3,1.1,0.1,2.2,1,2.9c0.3,0.1,0.7,0.1,1,0
		C245.9,317.5,246,317.4,246,317.4z"/>
	<path class="st10" d="M347.3,376.5c1.7,0.2,12.8,1.9,13.8,2.7c1,0.8,1,2-0.2,2.2c-1.2,0.2-8.2-0.2-8.2-0.2s9,0.2,9.3,1.1
		c0.4,1.4-2.8,2.2-8.8,1.3c0,0,9.2-1,9.1,1.3c0,1.1-8.2,1.2-8.2,1.2c-0.2,0.6,8.3-1.1,8.5,0.2c0.1,0.6-1,1.3-5.3,1.9
		c-2.6,0.4-6.9,0.9-11.1,1.5v0.1l-4.6,0.7l-5.4-12.3c0.4-0.4,3-2,4.7-3.2c1.1-0.8,2.4-1.1,3.7-0.9l0,0
		C345.7,374.1,346.9,375.1,347.3,376.5L347.3,376.5z"/>
	<path class="st11" d="M360.3,381.8c-2.9-0.2-5.7-0.5-8.6-0.8c1.4-0.3,2.9-0.3,4.3-0.1C357.5,380.9,358.9,381.2,360.3,381.8z"/>
	<path class="st11" d="M360.6,383.8c-1.3,0.1-2.6,0.1-3.8,0c-1.3,0.1-2.6,0-3.8-0.3c1.2-0.4,2.6-0.5,3.8-0.3
		C358.1,383.1,359.4,383.3,360.6,383.8z"/>
	<path class="st11" d="M360.9,385.8c-1.3,0.3-2.5,0.4-3.8,0.4c-1.3,0.2-2.5,0.3-3.8,0.2c1.2-0.5,2.5-0.8,3.8-0.8
		C358.4,385.5,359.7,385.5,360.9,385.8z"/>
	<path class="st4" d="M378.7,409.7l-31.6-4.9c-1.5-0.2-2.6-1.7-2.3-3.2c0,0,0,0,0,0l6.7-42.6c0.2-1.5,1.7-2.6,3.2-2.4c0,0,0,0,0,0
		l22.1,3.4l10.4,13.9l-5.2,33.4C381.6,408.9,380.2,410,378.7,409.7C378.7,409.7,378.7,409.7,378.7,409.7z"/>
	<path class="st4" d="M376.7,359.9l-1.3,8.5c-0.3,2.1,1.1,4,3.2,4.4l8.5,1.1L376.7,359.9z"/>
	<g class="st5">
		<path d="M376.7,359.9l-1.3,8.5c-0.3,2.1,1.1,4,3.2,4.4l8.5,1.1L376.7,359.9z"/>
	</g>
	<path class="st2" d="M375.2,400.5c0-0.1,0-0.3,0-0.4c0-0.3,0.1-0.7,0.2-1.1c0.1-1,0.3-2.5,0.6-4.3c0.5-3.7,1.3-8.8,2.2-15l0.2,0.3
		l-21.6-3.3l0.3-0.2l0,0v0.2v0.2v0.4l-0.1,0.7c-0.1,0.5-0.2,0.9-0.2,1.4l-0.4,2.8c-0.3,1.8-0.6,3.6-0.8,5.4
		c-0.6,3.5-1.1,6.8-1.6,9.8l-0.2-0.3l15.6,2.6l4.4,0.8l1.2,0.2c0.1,0,0.3,0,0.4,0.1H375l-1.1-0.2l-4.4-0.6l-15.7-2.3h-0.2v-0.3
		c0.5-3,1-6.3,1.5-9.8c0.3-1.7,0.6-3.5,0.8-5.4l0.4-2.8c0.1-0.5,0.1-0.9,0.2-1.4l0.1-0.7l0.1-0.4v-0.2v-0.2l0,0l0.3-0.2l21.6,3.3
		h0.3v0.2c-1,6.2-1.9,11.4-2.5,15.1c-0.3,1.8-0.5,3.2-0.7,4.2c-0.1,0.4-0.1,0.8-0.2,1.1C375.4,400.3,375.3,400.4,375.2,400.5z"/>
	<path class="st2" d="M364.2,399.1c0.3-3.5,0.7-7,1.3-10.4c0.4-3.5,1.1-6.9,1.9-10.3c-0.3,3.5-0.7,7-1.3,10.4
		C365.6,392.3,365,395.7,364.2,399.1z"/>
	<path class="st2" d="M375.9,395.4c-3.6-0.3-7.3-0.7-10.9-1.4c-3.6-0.5-7.2-1.1-10.8-2c3.6,0.3,7.3,0.7,10.9,1.4
		C368.8,393.9,372.4,394.6,375.9,395.4z"/>
	<path class="st2" d="M377,390.2c-3.6-0.3-7.3-0.7-10.9-1.4c-3.6-0.5-7.2-1.1-10.8-2c3.6,0.3,7.3,0.7,10.9,1.4
		C369.8,388.7,373.4,389.4,377,390.2z"/>
	<path class="st2" d="M377.7,384.9c-3.6-0.3-7.2-0.7-10.8-1.4c-3.6-0.5-7.2-1.1-10.7-2c3.6,0.3,7.2,0.7,10.8,1.4
		C370.6,383.4,374.1,384,377.7,384.9z"/>
	<polygon class="st6" points="257.4,444.2 257.4,440.3 313.8,441.4 346.2,389.6 349.2,391.7 316,444.7 	"/>
	<path class="st10" d="M296.4,426.9l2.8,4.2v8.6c-0.8,0.2-1.6-0.1-2.1-0.8c-0.6-1.7-1-3.4-1.4-5.2l-1.4,3.5
		c-0.6,1.4-2.1,2.2-3.6,1.9l-10.4-2.6l4.3-12.2L296.4,426.9z"/>
	<path class="st10" d="M344.8,374l9.6,3.1c0.1,0.9-0.6,1.6-1.5,1.7c-0.1,0-0.2,0-0.2,0c-1.8-0.1-6.5-0.5-6.5-0.5s0,3.3-2.8,4
		c0,0-3.5-6-3.3-6.2S344.8,374,344.8,374z"/>
	<path class="st11" d="M345.5,386.7c0,0-0.1-0.4-0.5-0.9c-0.4-0.8-1.1-1.4-1.8-1.7l-0.5-0.2l0.5-0.2c1.1-0.4,2-1.3,2.5-2.3
		c0.5-0.9,0.7-1.9,0.6-2.9v-0.3h0.3c1.4,0,2.8,0.2,4.2,0.5c-1.4,0.1-2.8,0.1-4.3,0l0.3-0.3c0.2,1.1,0,2.2-0.6,3.2
		c-0.6,1.2-1.6,2.1-2.9,2.5v-0.5c0.8,0.4,1.5,1.2,1.9,2C345.6,386.3,345.5,386.7,345.5,386.7z"/>
	<path class="st4" d="M238.7,343.3c0,0-12.6,7.2-17.3,14.2s-13,15.3-18.7,37.9c-5,19.7-6.9,46.5-1.5,53.8c1.8,2.7,4,5,6.5,7.1l9.7-4
		c11.6-4.1,22.1-6.8,31.2-15.1l18.5-16.8l-9.8-7.7c0,0,7.4-40.2,5.5-54.2C261.2,346.3,238.7,343.3,238.7,343.3z"/>
	<path class="st4" d="M233.9,362.8l-10.3,48.2c-1.8,8.4,2.9,16.9,11,19.8l44.8,8.6l5.6-16.7l0,0l-36.3-11.3l10.7-46.5L233.9,362.8z"
		/>
	<path class="st3" d="M223.2,420.1l0.1,0.3c0,0.2,0.1,0.5,0.2,0.8l0.1,0.6l0.3,0.7l0.3,0.8c0.2,0.3,0.3,0.6,0.5,0.9
		c0.9,1.5,2.1,2.8,3.6,3.8c2,1.3,4.2,2.3,6.6,2.9l44.3,8.1l-0.3,0.2c1.9-5.3,3.8-10.9,5.8-16.7l0.2,0.4l-36.3-11.3l-0.3-0.1l0.1-0.3
		c0.6-2.5,1.3-5.1,2-7.8c2.1-8.4,4.1-16.7,5.8-24.7c0.8-4,1.6-8,2.2-11.9c0.2-1,0.2-1.9,0.2-2.9c0-0.9-0.1-1.9-0.3-2.8
		c-0.4-1.8-1.3-3.5-2.5-4.9c-2.4-2.8-5.9-4.3-9.5-4.2c-3.4,0.2-6.6,1.8-8.8,4.4c-2.1,2.4-3.6,5.3-4.5,8.4c-0.9,2.8-1.5,5.7-2.1,8.7
		c-2.2,11.2-4,20.2-5.2,26.5l-1.4,7.2c-0.2,0.8-0.3,1.4-0.4,1.9c-0.1,0.4-0.1,0.6-0.1,0.6c0-0.2,0-0.4,0.1-0.6
		c0.1-0.5,0.2-1.1,0.3-1.9c0.3-1.7,0.8-4.1,1.3-7.2c1.2-6.3,2.9-15.3,5-26.5c0.5-3,1.2-5.9,2-8.7c0.9-3.1,2.5-6.1,4.6-8.6
		c2.3-2.8,5.6-4.5,9.2-4.7c3.8-0.1,7.5,1.5,9.9,4.4c1.3,1.5,2.2,3.3,2.6,5.2c0.2,1,0.3,2,0.3,2.9c-0.1,1-0.1,2-0.2,3
		c-0.5,3.9-1.3,7.9-2.2,11.9c-1.7,8-3.7,16.2-5.8,24.7c-0.7,2.7-1.4,5.3-2,7.8l-0.2-0.4l36.3,11.4l0.3,0.1l-0.1,0.3l-5.9,16.7
		l-0.1,0.2H279c-18.3-3.4-33.6-6.2-44.3-8.3c-2.4-0.6-4.6-1.6-6.7-3c-1.5-1-2.7-2.4-3.6-3.9c-0.2-0.3-0.3-0.6-0.5-0.9l-0.3-0.9
		l-0.2-0.7c0-0.2,0-0.4-0.1-0.6l-0.1-0.8C223.2,420.3,223.2,420.2,223.2,420.1z"/>
	<path class="st3" d="M242.3,417.6c-0.1,0-0.1-0.6,0.1-1.4c0.3-1.1,0.9-2.2,1.8-3c0.8-0.8,1.9-1.4,3.1-1.7c0.9-0.2,1.4-0.1,1.4,0
		c0,0.1-0.5,0.2-1.3,0.5c-2.1,0.7-3.7,2.3-4.6,4.4C242.5,417.1,242.4,417.6,242.3,417.6z"/>
	<g class="st5">
		<path d="M232.8,362.1c-5.2,16.8-8.8,34-10.8,51.5c-0.7,4-0.7,8.1-0.2,12.1c0.7,4,2.7,7.9,6.1,10.1c3.3,1.9,7.2,2.5,10.9,1.7
			c3.7-0.7,9.7-1.5,13.1-3.1l-20-4.1c0,0-12.9-0.8-7.4-25.6C230.2,379.9,232.8,362.1,232.8,362.1z"/>
	</g>
	<path class="st3" d="M257.4,412.7c0-0.6,0.1-1.3,0.2-1.9c0.2-1.3,0.4-3.1,0.7-5.2c0.6-4.4,1.5-10.5,2.5-17.2
		c1-6.7,1.8-12.8,2.3-17.2l0.7-5.2c0-0.6,0.1-1.3,0.3-1.9c0,0.6,0,1.3-0.1,1.9c-0.1,1.2-0.2,3-0.5,5.2c-0.5,4.4-1.2,10.5-2.2,17.2
		s-1.9,12.8-2.6,17.1c-0.4,2.2-0.7,4-0.9,5.2C257.7,411.5,257.6,412.1,257.4,412.7z"/>
	<path class="st8" d="M256.8,377.7c0,0.1-1.4-0.5-3.7-1.2c-6-1.9-12.2-2.8-18.5-2.7c-2.4,0-3.9,0.2-3.9,0.1c0.3-0.1,0.7-0.2,1-0.2
		c0.7-0.1,1.6-0.2,2.9-0.3c6.3-0.3,12.7,0.6,18.6,2.7c1.1,0.4,2,0.8,2.7,1.1C256.2,377.3,256.5,377.5,256.8,377.7z"/>
	<path class="st8" d="M255.6,382.6c0,0.1-1.4-0.5-3.8-1.1c-6.1-1.8-12.4-2.5-18.8-2c-2.4,0.2-3.9,0.4-3.9,0.3c0.3-0.1,0.7-0.2,1-0.3
		c0.7-0.1,1.6-0.3,2.9-0.4c3.2-0.3,6.4-0.3,9.6,0c3.2,0.3,6.3,1,9.4,2c1.2,0.4,2.1,0.8,2.7,1C255.3,382.5,255.6,382.6,255.6,382.6z"
		/>
	<path class="st6" d="M271.4,347.1c0-1.4-0.9-2.7-2.2-3.3c-1.2-0.3-2.5-0.3-3.7,0c-4.4,0.4-8.9-0.6-12.6-3c-3.3-2.2-6.1-5.4-9.8-6.9
		c-0.9-0.4-2-0.6-3-0.6c-1.1,0.1-2,0.6-2.6,1.5c-0.9,1.4-0.3,3.3,0.7,4.7c-2,1-3,3.6-1.7,5.5c9.1,1.3,17.3,6.1,22.9,13.3
		c0.8,1.4,2,2.5,3.3,3.4c2.6,1.4,6.1-0.3,7.4-2.9c1.1-2.8,0.7-6-1.1-8.4C270.5,349.9,271.4,348.6,271.4,347.1z"/>
	<path class="st3" d="M268.8,350.1c-0.3,0.3-0.7,0.5-1.1,0.6c-1,0.4-2.1,0.7-3.2,0.8c-1.6,0.2-3.3,0.1-4.9-0.3
		c-2-0.5-3.8-1.4-5.4-2.7c-1.7-1.3-3.3-2.6-4.7-3.8c-1.2-1-2.5-2-3.9-2.8c-1.3-0.7-2.7-1.3-4.1-1.7c0.4,0,0.8,0,1.2,0.2
		c1.1,0.3,2.1,0.7,3.1,1.2c1.4,0.8,2.8,1.7,4.1,2.8c1.4,1.1,3,2.5,4.7,3.7c1.6,1.2,3.3,2.1,5.2,2.6c1.5,0.4,3.2,0.6,4.8,0.4
		C265.9,350.9,267.4,350.6,268.8,350.1z"/>
	<path class="st8" d="M264.6,362.3c0.3-0.1,0.5-0.2,0.8-0.3c0.7-0.4,1.2-0.9,1.6-1.6c0.5-1,0.8-2.1,0.7-3.3
		c-0.1-1.4-0.4-2.7-0.8-4.1c-0.2-0.8-0.9-1.4-1.7-1.5H265l0.2-0.2c0.7-0.9,1.1-1.9,1.1-3c0-0.9-0.2-1.7-0.6-2.5
		c-0.4-0.7-0.9-1.3-1.5-1.8c0.2,0.1,0.4,0.2,0.5,0.4c0.4,0.4,0.8,0.8,1.1,1.4c0.4,0.8,0.7,1.7,0.7,2.5c0,1.1-0.4,2.2-1.1,3.1
		l-0.2-0.1c0.9,0.2,1.6,0.8,1.9,1.7c0.4,1.3,0.7,2.7,0.8,4.2c0.1,1.2-0.2,2.3-0.8,3.3c-0.4,0.7-1,1.2-1.7,1.6
		C265.2,362.2,264.9,362.2,264.6,362.3z"/>
	<path class="st8" d="M257.9,343.1c0.5,0.5,1,1.1,1.3,1.8c0.8,1.7,0.9,3.6,0.3,5.3l-0.2,0.5v-0.1c0.8,1.5,1,3.3,0.4,5
		c-0.2,0.7-0.6,1.3-1.1,1.8c0.4-0.6,0.7-1.2,0.9-1.8c0.5-1.6,0.4-3.3-0.4-4.8v-0.1v-0.1l0.2-0.5c0.5-1.7,0.5-3.5-0.2-5.2
		C258.7,344.4,258.4,343.7,257.9,343.1z"/>
	<path class="st8" d="M253.3,340.8c0.1,0.1,0.2,0.2,0.2,0.3c0.2,0.3,0.3,0.7,0.4,1.1c0.3,1.2,0.1,2.5-0.4,3.6
		c-0.2,0.4-0.4,0.8-0.7,1.1v-0.1c-0.1,1-0.6,1.8-1.3,2.4c-0.2,0.2-0.5,0.3-0.7,0.4c-0.1,0-0.2,0.1-0.3,0.1c0.3-0.2,0.6-0.4,0.9-0.6
		c0.7-0.6,1.1-1.4,1.2-2.4l0,0l0,0c0.3-0.3,0.5-0.7,0.7-1c0.5-1.1,0.7-2.3,0.5-3.5C253.5,341.8,253.4,341.3,253.3,340.8z"/>
	<path class="st8" d="M247.2,336.5c-0.4,0.4-0.8,0.8-1.2,1.2c-0.8,1.1-1.1,2.5-0.8,3.9v0.2v0.1h-0.1c-1.3,0.3-2.3,1.3-2.6,2.6
		c-0.1,0.5-0.1,1.1,0,1.6c-0.1-0.1-0.1-0.3-0.1-0.4c-0.1-0.4-0.1-0.8,0-1.2c0.2-1.4,1.3-2.5,2.7-2.8l-0.1,0.1l-0.1-0.2
		c-0.3-1.4,0-2.9,0.9-4c0.3-0.3,0.6-0.6,0.9-0.9C246.9,336.6,247.1,336.5,247.2,336.5z"/>
	<path class="st8" d="M237.9,345.1c-0.1-0.1-0.3-0.3-0.4-0.4c-0.3-0.4-0.5-0.9-0.5-1.4c-0.1-0.8,0-1.5,0.3-2.2
		c0.4-0.8,1.2-1.5,2.1-1.8l-0.1,0.2l-0.2-0.3c-0.5-0.8-0.7-1.8-0.5-2.8c0.1-0.8,0.5-1.5,1.1-2c0.4-0.4,0.8-0.6,1.4-0.8
		c0.2-0.1,0.4-0.1,0.6-0.1c-0.7,0.2-1.3,0.6-1.8,1c-0.5,0.5-0.9,1.2-1,2c-0.2,0.9,0,1.8,0.5,2.6c0,0.1,0.1,0.2,0.2,0.2l0.1,0.1h-0.1
		c-0.8,0.3-1.5,0.9-2,1.7c-0.3,0.6-0.5,1.4-0.4,2.1C237.2,343.9,237.5,344.5,237.9,345.1z"/>
</g>
<g id="freepik--Plant--inject-14">
	<path class="st4" d="M100.5,428.5c2.2-5.7,5-11.1,8.5-16.1c1-1.8,2.6-3.2,4.4-4.1c3.2-1.2,6.7,0.7,9.5,2.6l6.6,4.3
		c0.4,0.2,0.7,0.6,0.9,1c0.1,0.8-0.9,1.3-1.7,1.4c-2.8,0.3-5.7-0.4-8-2c-1.8-1.2-3.5-3-5.7-2.8c-2.7,0.3-3.8,3.3-4.9,5.8
		c-2.3,5.4-6.2,9.8-11.3,12.7"/>
	<path class="st4" d="M100.5,429.5c0.5-13.2,1-26.5,4.2-39.4s9.2-25.3,19.1-34c-1.3,11.1-5.4,21.7-9.4,32.2
		c-5.4,14.1-10.8,28.2-16.2,42.2"/>
	<path class="st4" d="M98.2,434.3c-1.9-12-5.2-23.8-10-35c-0.5-1.7-1.6-3.2-3-4.3c-2.2-1.4-5.2-0.5-7.6,0.6c-5.7,2.6-11,6-15.7,10.2
		c-0.4,0.3-0.7,0.7-0.8,1.2c0,0.8,0.5,1.4,1.2,1.6c0.7,0.1,1.5,0.1,2.2-0.1l13.2-3.1c1.3-0.4,2.7-0.5,4-0.1c1.5,0.6,2.4,2.2,3.2,3.7
		l13,26.1"/>
	<g class="st12">
		<path d="M100.5,428.5c2.2-5.7,5-11.1,8.5-16.1c1-1.8,2.6-3.2,4.4-4.1c3.2-1.2,6.7,0.7,9.5,2.6l6.6,4.3c0.4,0.2,0.7,0.6,0.9,1
			c0.1,0.8-0.9,1.3-1.7,1.4c-2.8,0.3-5.7-0.4-8-2c-1.8-1.2-3.5-3-5.7-2.8c-2.7,0.3-3.8,3.3-4.9,5.8c-2.3,5.4-6.2,9.8-11.3,12.7"/>
	</g>
	<g class="st12">
		<path d="M100.5,429.5c0.5-13.2,1-26.5,4.2-39.4s9.2-25.3,19.1-34c-1.3,11.1-5.4,21.7-9.4,32.2c-5.4,14.1-10.8,28.2-16.2,42.2"/>
	</g>
	<g class="st13">
		<path d="M98.2,434.3c-1.9-12-5.2-23.8-10-35c-0.5-1.7-1.6-3.2-3-4.3c-2.2-1.4-5.2-0.5-7.6,0.6c-5.7,2.6-11,6-15.7,10.2
			c-0.4,0.3-0.7,0.7-0.8,1.2c0,0.8,0.5,1.4,1.2,1.6c0.7,0.1,1.5,0.1,2.2-0.1l13.2-3.1c1.3-0.4,2.7-0.5,4-0.1
			c1.5,0.6,2.4,2.2,3.2,3.7l13,26.1"/>
	</g>
	<path class="st4" d="M118.2,334.8c-11,13.1-17.5,29.4-18.4,46.5c-1.2,28.1-2.9,48.4-2.9,48.4h3.1c0,0,6.2-56.7,10.3-66.6
		C114.5,353.2,120.9,339.1,118.2,334.8z"/>
	<path class="st3" d="M118.2,334.8c-0.1,0.3-0.2,0.6-0.4,0.9l-1.2,2.5c-1,2.2-2.4,5.4-4,9.5c-1.6,4-3.3,8.9-5,14.4
		c-1.8,5.9-3.3,12-4.3,18.1c-0.6,3.3-0.8,6.5-1,9.6c-0.2,3.1-0.4,6.1-0.6,9c-0.3,5.7-0.7,10.9-1.2,15.2s-1,7.8-1.5,10.2
		c-0.2,1.2-0.5,2.1-0.6,2.7c-0.1,0.3-0.1,0.6-0.3,0.9c0-0.3,0.1-0.6,0.1-1c0.1-0.6,0.3-1.5,0.5-2.8c0.4-2.4,0.9-5.9,1.3-10.2
		c0.4-4.3,0.7-9.5,1-15.2c0.2-2.9,0.3-5.9,0.6-9c0.2-3.2,0.5-6.5,1-9.7c1.1-6.2,2.5-12.2,4.4-18.2c1.7-5.6,3.5-10.4,5.1-14.4
		c1.6-4.1,3.1-7.2,4.2-9.4c0.5-1.1,1-1.9,1.3-2.5C117.9,335.3,118,335,118.2,334.8z"/>
	<path class="st4" d="M129.7,361.1c0,0-20.9,20-23.3,38.9s-3.5,28.9-3.5,28.9h2.1c0,0,4.9-26.9,11.3-35.3
		C122.6,385.1,131.2,363.4,129.7,361.1z"/>
	<path class="st3" d="M129.5,362.4c-0.1,0.2-0.2,0.4-0.3,0.6l-1,1.8l-3.6,6.5c-3.1,5.4-7.3,13-11.1,21.7c-3.3,7.4-5.9,15.2-7.5,23.2
		c-0.6,3.1-0.9,5.6-1.1,7.3c-0.1,0.9-0.2,1.5-0.2,2c0,0.2,0,0.5-0.1,0.7c0-0.2,0-0.5,0-0.7c0-0.5,0-1.1,0.1-2c0.2-2.5,0.5-4.9,1-7.4
		c1.5-8,4-15.9,7.4-23.3c3.4-7.4,7.1-14.7,11.3-21.7c1.6-2.7,2.9-4.9,3.8-6.4l1.1-1.7C129.3,362.8,129.4,362.6,129.5,362.4z"/>
	<path class="st4" d="M89.3,364.6c0,0-3.1,39.5,4.1,63h2.5C95.9,427.7,97.6,376.6,89.3,364.6z"/>
	<path class="st3" d="M91,372.1c0.1,0.2,0.1,0.4,0.1,0.6l0.2,1.6c0.1,1.5,0.3,3.5,0.5,5.9c0.4,5,0.9,11.9,1.5,19.4
		c0.5,7.6,1,14.4,1.3,19.5c0.1,2.4,0.3,4.4,0.3,5.9c0,0.6,0,1.1,0,1.6c0,0.2,0,0.4,0,0.6c-0.1-0.2-0.1-0.4-0.1-0.6l-0.2-1.6
		c-0.1-1.5-0.3-3.5-0.5-5.9c-0.4-5-0.9-11.9-1.5-19.5c-0.5-7.6-1-14.4-1.3-19.5c-0.1-2.4-0.2-4.4-0.3-5.9c0-0.6,0-1.2,0-1.6
		C91,372.4,91,372.3,91,372.1z"/>
	<path class="st3" d="M84.4,425.4c0,0,7.6,5.5,7.2,8S72.9,449.5,74,460.3C75.1,471,84,478.4,99,477.8c15-0.6,25.1-9.9,23.8-19.5
		c-1.4-9.5-16.2-24.7-16.5-25.5c-0.5-2.1,6.7-7.5,6.7-7.5L84.4,425.4z"/>
	<path class="st8" d="M111.7,439.2c0,0.2-5.6,0.3-12.3,0.3S87,439.4,87,439.2c0-0.2,5.6-0.3,12.3-0.3S111.7,439,111.7,439.2z"/>
	<path class="st8" d="M113.4,441.8c0,0.2-6.5,0.3-14.5,0.3s-14.6-0.1-14.6-0.3s6.5-0.3,14.6-0.3S113.4,441.6,113.4,441.8z"/>
	<path class="st8" d="M116,444.7c0,0.2-7.7,0.3-17.2,0.3s-17.2-0.1-17.2-0.3s7.7-0.3,17.2-0.3S116,444.5,116,444.7z"/>
	<path class="st8" d="M118.3,448.5c0,0.2-8.9,0.3-19.8,0.3s-19.8-0.1-19.8-0.3s8.9-0.3,19.8-0.3S118.3,448.3,118.3,448.5z"/>
</g>
</svg>
