<?xml version="1.0" encoding="utf-8"?>
<!-- Generator: Adobe Illustrator 23.0.2, SVG Export Plug-In . SVG Version: 6.00 Build 0)  -->
<svg version="1.1" id="katman_1" xmlns="http://www.w3.org/2000/svg" xmlns:xlink="http://www.w3.org/1999/xlink" x="0px" y="0px"
	 viewBox="0 0 842 744" style="enable-background:new 0 0 842 744;" xml:space="preserve">
<style type="text/css">
	.st0{fill:#F5F5F5;}
	.st1{fill:#E0E0E0;}
	.st2{fill:#EBEBEB;}
	.st3{fill:#FAFAFA;}
	.st4{fill:#339999;}
	.st5{fill:#263238;}
	.st6{fill:#455A64;}
	.st7{fill-rule:evenodd;clip-rule:evenodd;fill:#E0E0E0;}
	.st8{fill-rule:evenodd;clip-rule:evenodd;fill:#F5F5F5;}
	.st9{fill:none;}
	.st10{fill:#B78876;}
	.st11{fill:#AA6550;}
	.st12{opacity:0.4;}
	.st13{opacity:0.3;}
</style>
<g id="freepik--background-complete--inject-15">
	<path class="st0" d="M183.4,544.1c13.5-9.4,18-21,19.5-37.3c1.4-16.6-4.4-33-16-45c-9.6-9.8-22.7-16.2-29.9-27.9
		c-7.6-12.4-7.3-29.4-17.9-39.5c-7.2-6.9-17.8-8.8-26.7-13.6c-7.2-3.9-13.1-9.7-19.7-14.6s-14.4-8.9-22.5-8.3
		c-12.3,0.9-21.9,13-22.5,25.3c-0.6,12.3,6.3,24.1,15.7,32.1c6.8,5.8,15.2,10.2,19.7,18c8.4,14.6-0.4,34.8,8.7,49
		c6.6,10.4,21.5,15.3,23.6,27.4c0.8,4.5-0.5,9-0.5,13.5c0.1,14.1,13.3,25.5,27.2,28C156.2,553.7,170.3,549.3,183.4,544.1"/>
	<path class="st1" d="M97,407.5c0.4,0.6,0.9,1.2,1.5,1.7l4.5,4.5c2,1.9,4.4,4.3,6.9,7.2c2.6,2.9,5.7,6,8.8,9.9
		c1.6,1.9,3.2,3.9,5,5.9c1.7,2.1,3.3,4.3,5.1,6.6c3.6,4.5,6.9,9.7,10.6,15.1c7.6,11.8,14.3,24.2,20.2,37
		c5.7,12.9,10.4,26.2,14.2,39.7c1.6,6.3,3.2,12.2,4.2,17.9c0.5,2.8,1.2,5.5,1.6,8.2c0.4,2.7,0.8,5.2,1.1,7.6
		c0.8,4.8,1.1,9.3,1.6,13.2c0.4,3.9,0.7,7.2,0.8,9.9c0.1,2.7,0.3,4.7,0.4,6.3c0,0.7,0.1,1.5,0.3,2.2c0.1-0.7,0.1-1.5,0.1-2.2
		c0-1.6,0-3.7-0.1-6.3s-0.1-6.1-0.5-10c-0.4-3.9-0.5-8.4-1.3-13.2c-0.3-2.5-0.7-5-1.1-7.7c-0.4-2.7-1-5.4-1.5-8.2
		c-1-5.7-2.5-11.7-4.1-18.1c-3.8-13.7-8.5-27-14.2-40c-5.9-12.9-12.7-25.3-20.4-37.2c-3.7-5.4-7.1-10.5-10.8-15.1
		c-1.8-2.3-3.4-4.6-5.2-6.6l-5-5.9c-3.1-3.8-6.3-6.9-9-9.8c-2.7-2.8-5.1-5.2-7.2-7l-4.7-4.3C98.2,408.3,97.6,407.9,97,407.5z"/>
	<path class="st2" d="M787,302.6c0,0-11.8-7.8-26.3,20.5c-14.4,28.3-19.9,44.7-19.9,44.7s-3.8,5.9-7.9,2s-9.7-14.9-16.6-12.9
		c-7.2,2-9.6,10.1-8.2,21.9c1.4,11.8,3.4,37.7,3.6,40.1s-1.2,5.7-4.3,3.5c-3.2-2.2-21.6-22.7-30.8-13.4c-9.2,9.3,0,41.5,0.9,45.1
		c0.9,3.5,0.2,5.1-1.4,5.9c-1.7,0.9-7.2-6.6-12.7-12.2c-5.5-5.6-12.8-11.2-17.7-5.3c-4.9,5.8-6.4,30,16.6,69.2l11.8,17.5l21.2-1.2
		c45.2-5.3,63.5-21.1,65.3-28.5c1.7-7.3-7.1-9.9-14.9-10.9s-17.1-0.9-17.4-2.8s0.5-3.3,3.9-4.7s34.7-13.4,36.5-26.4
		c1.9-13-25.6-15.3-29.2-16.5s-1.8-4.3,0.2-5.6c1.9-1.2,23.9-15.3,34.1-21.3c10.2-6,15.2-12.7,12.5-19.7c-2.6-6.7-14.7-4.6-20.3-5.5
		c-5.5-0.9-3.1-7.5-3.1-7.5s9.7-14.2,23.6-42.8c13.9-28.5,0.2-33.4,0.2-33.4"/>
	<path class="st1" d="M774.1,327.9c0,0-0.1,0.2-0.3,0.6s-0.5,1-0.8,1.8c-0.8,1.6-1.8,3.8-3.2,6.8c-2.8,5.9-7,14.4-12.1,24.8
		c-10.3,21-24.8,49.8-40.9,81.6c-16,31.8-30.6,60.6-41,81.5l-12.3,24.8c-1.5,2.9-2.6,5.2-3.4,6.7c-0.4,0.7-0.7,1.3-0.9,1.7l-0.3,0.6
		c0,0,0.1-0.2,0.3-0.6l0.8-1.8c0.8-1.6,1.8-3.9,3.2-6.8c2.8-5.9,7-14.4,12.1-24.8c10.3-21,24.8-49.8,40.9-81.6
		c16.1-31.8,30.6-60.6,41-81.5l12.3-24.8l3.4-6.7c0.4-0.7,0.7-1.3,0.9-1.7S774.1,327.9,774.1,327.9z"/>
	<path class="st1" d="M723.6,372.6c0.2,0.5,0.4,0.9,0.5,1.4c0.3,0.9,0.7,2.3,1.2,4c1,3.4,2.2,8.1,3.4,13.3c1.2,5.2,2.3,9.8,3.1,13.3
		l1,4c0.2,0.5,0.3,1,0.3,1.5c-0.2-0.5-0.4-0.9-0.5-1.4c-0.3-0.9-0.7-2.3-1.2-4c-0.9-3.4-2.1-8.1-3.3-13.3c-1.2-5.2-2.4-9.8-3.2-13.3
		c-0.4-1.6-0.7-2.9-1-4C723.7,373.6,723.6,373.1,723.6,372.6z"/>
	<path class="st1" d="M735,410.5c0-0.2,9.5-3.1,21.4-6.5c11.9-3.4,21.5-6,21.6-5.9c0,0.2-9.5,3.1-21.4,6.5
		C744.7,408.1,735,410.7,735,410.5z"/>
	<path class="st1" d="M708.1,458.2c0.5-0.1,1-0.1,1.6-0.1h4.2c3.6,0,8.5,0,14-0.2c5.4-0.2,10.4-0.5,14-0.8l4.2-0.3
		c0.5-0.1,1-0.1,1.6,0c-0.5,0.2-1,0.3-1.5,0.3c-1,0.1-2.5,0.3-4.2,0.5c-3.6,0.4-8.5,0.8-14,1c-5.5,0.2-10.4,0.1-14,0
		c-1.8-0.1-3.2-0.1-4.2-0.2C709.1,458.4,708.6,458.3,708.1,458.2z"/>
	<path class="st1" d="M690.1,426.2c0.3,0.4,0.6,0.8,0.8,1.2l2,3.4c1.7,2.8,4,6.8,6.5,11.2c2.5,4.4,4.8,8.4,6.4,11.3l1.9,3.5
		c0.3,0.4,0.5,0.8,0.6,1.3c-0.3-0.4-0.6-0.8-0.8-1.2l-2-3.3c-1.7-2.8-4-6.8-6.5-11.2c-2.5-4.4-4.8-8.4-6.4-11.3
		c-0.7-1.4-1.4-2.5-1.9-3.5C690.5,427.1,690.3,426.6,690.1,426.2z"/>
	<path class="st1" d="M661.1,465.2c0.4,0.5,0.7,1,1,1.5l2.6,4.3c2.2,3.6,5.2,8.7,8.5,14.2c3.3,5.5,6.2,10.7,8.3,14.3
		c1,1.8,1.8,3.3,2.5,4.4c0.3,0.5,0.6,1.1,0.8,1.7c-0.4-0.5-0.7-1-1-1.5l-2.6-4.3c-2.2-3.6-5.2-8.7-8.5-14.2
		c-3.3-5.5-6.2-10.7-8.3-14.3l-2.5-4.4C661.6,466.4,661.3,465.8,661.1,465.2z"/>
	<path class="st1" d="M684.5,504.5c0.7-0.1,1.3-0.2,2-0.1l5.4-0.2c4.5-0.1,10.8-0.4,17.7-0.8c6.9-0.4,13.2-1,17.7-1.5l5.4-0.5
		c0.7-0.1,1.3-0.1,2-0.1c-0.6,0.2-1.3,0.3-1.9,0.4c-1.2,0.2-3.1,0.4-5.3,0.7c-4.5,0.6-10.8,1.2-17.7,1.6c-6.9,0.4-13.2,0.6-17.8,0.7
		c-2.3,0-4.1,0-5.4,0C685.8,504.7,685.2,504.6,684.5,504.5z"/>
	<path class="st1" d="M531.8,160h85.2c3.7,0,6.7,3,6.7,6.7v56.5c0,3.7-3,6.7-6.7,6.7h-44.8l-21.3,21.3v-21.3h-19c-2.7,0-5-2.2-5-5
		v-60C526.9,162.3,529.1,160,531.8,160C531.8,160,531.8,160,531.8,160z"/>
	<path class="st3" d="M560.1,196.2c0,2.7-2.2,5-5,5s-5-2.2-5-5s2.2-5,5-5S560.1,193.4,560.1,196.2z"/>
	<path class="st3" d="M580,196.2c0,2.7-2.2,5-5,5c-2.7,0-5-2.2-5-5s2.2-5,5-5C577.7,191.2,580,193.4,580,196.2z"/>
	<path class="st3" d="M599.8,196.2c0,2.7-2.2,5-5,5s-5-2.2-5-5s2.2-5,5-5S599.8,193.4,599.8,196.2z"/>
</g>
<g id="freepik--Plants--inject-15">
	<path class="st4" d="M670.3,586.4c-21.3-20.7-21.7-52.8-16.1-80.7c0.9-4.7,1.2-9.7,4.1-13.4s8.6-5.7,12.4-3.1
		c3.2,2.2,4.1,6.5,5.5,10.2c1.9,4.9,5.1,9.1,9.3,12.3c2.7,2,6.2,3.6,9.5,2.5c4.4-1.6,5.8-7.1,6.5-11.7c1.3-8.7,2.7-17.4,4.1-26.1
		c0.7-4.7,1.5-9.4,3.7-13.7c2.2-4.2,6-7.8,10.7-8.3c4.6-0.5,9.7,2.9,9.9,7.6c0.1,2-0.6,3.9-0.8,5.8s0.4,4.2,2.1,5.1s3.8-0.2,5.5-1.3
		c5.6-3.9,9.8-9.4,13.9-15s8-11.2,13.2-15.6c5.2-4.5,11.9-7.4,18.6-6.8c6.7,0.7,13.2,6,13.8,12.8c0.6,6.8-4.3,12.9-9.3,17.5
		c-7.5,6.9-15.9,12.6-25,17.1c-1.6,0.8-3.4,1.7-4.3,3.3c-1.5,2.9,0.9,6.5,3.8,8c3.3,1.7,7.1,2,10.7,3c3.6,1,7.2,3.3,8,6.9
		c1.1,5.1-3.7,9.4-8.1,12c-8.9,5.3-18.7,9-28.8,10.9c-3.6,0.7-7.4,1.2-10.6,3.2c-3.1,1.9-5.5,5.9-4.4,9.4c1.1,3.6,5.2,5.3,8.9,5.2
		c3.7-0.1,7.2-1.5,10.8-2.2c6.8-1.4,15,0.4,18.2,6.6c2.1,4.1,1.5,9.2-0.6,13.3c-2.1,4.1-5.4,7.4-8.9,10.4
		c-12.2,10.4-26.9,17.9-42.6,20.6C698.2,595,684.2,594.2,670.3,586.4"/>
	<path class="st5" d="M666.6,607.1c3.4-12.8,8.1-25.2,13.9-37.1c7.1-14.5,15.1-28.6,23.9-42.2l6.8-10.7c2.2-3.5,4.5-7,6.9-10.3
		c4.6-6.3,9.5-12.3,14.8-18.1c5-5.5,9.9-10.6,14.6-15.3c4.7-4.7,9.1-9,13.3-12.7c6.6-5.9,13.7-11.3,21.1-16.1c2.6-1.7,4.7-3,6.2-3.7
		l1.6-0.9c0.2-0.1,0.4-0.2,0.6-0.3c-0.2,0.1-0.3,0.3-0.5,0.4l-1.6,1c-1.4,0.9-3.5,2.2-6.1,3.9c-7.4,4.9-14.4,10.3-20.9,16.3
		c-4.2,3.7-8.6,8.1-13.2,12.8s-9.5,9.8-14.5,15.3c-5.2,5.7-10.2,11.7-14.7,18c-2.4,3.3-4.6,6.7-6.8,10.3c-2.3,3.5-4.5,7.1-6.8,10.7
		c-8.7,13.6-16.7,27.6-23.9,42.1c-5.8,11.9-10.5,24.2-14,37"/>
	<path class="st5" d="M718.3,506.7c-0.1-0.7-0.2-1.4-0.1-2.1c0-1.3,0-3.2,0-5.6c0.1-4.7,0.4-11.3,0.9-18.5
		c0.4-7.2,0.7-13.8,0.7-18.5c0-2.4,0-4.3,0-5.6c-0.1-0.7,0-1.4,0.1-2.1c0.2,0.7,0.3,1.4,0.3,2c0.1,1.3,0.2,3.2,0.3,5.6
		c0.1,4.7,0,11.3-0.5,18.5c-0.5,7.2-0.8,13.6-1.1,18.5c-0.1,2.2-0.2,4.1-0.3,5.6C718.5,505.4,718.4,506,718.3,506.7z"/>
	<path class="st5" d="M780,505.3c-0.8,0-1.7,0-2.5-0.1c-1.6-0.1-3.8-0.3-6.6-0.4c-5.6-0.3-13.3-0.4-21.8-0.2
		c-8.5,0.2-16.2,0.8-21.8,1.3c-2.8,0.2-5,0.5-6.6,0.7c-0.8,0.1-1.7,0.2-2.5,0.2c0.8-0.3,1.6-0.4,2.4-0.5c1.5-0.3,3.7-0.6,6.6-1
		c5.6-0.7,13.3-1.3,21.9-1.6c7.3-0.2,14.6,0,21.9,0.5c2.8,0.2,5.1,0.5,6.6,0.7C778.3,504.9,779.1,505.1,780,505.3z"/>
	<path class="st5" d="M681.4,569c0,0-0.1-0.3-0.3-0.8c-0.2-0.5-0.4-1.4-0.7-2.3c-0.6-2-1.3-5-2.2-8.7c-1.8-7.3-3.9-17.5-6.1-28.8
		c-2.2-11.3-4.2-21.5-5.8-28.9c-0.8-3.6-1.5-6.5-1.9-8.7c-0.2-1-0.4-1.7-0.5-2.4c-0.1-0.3-0.1-0.6-0.1-0.8c0,0,0.1,0.3,0.3,0.8
		c0.2,0.5,0.4,1.4,0.7,2.3c0.6,2,1.3,5,2.2,8.7c1.8,7.3,3.9,17.5,6.1,28.8s4.2,21.5,5.8,28.8l1.9,8.7c0.2,0.9,0.4,1.7,0.5,2.4
		C681.3,568.4,681.3,568.7,681.4,569z"/>
	<path class="st5" d="M765.1,556.3c-0.3,0.1-0.6,0.2-0.8,0.2l-2.5,0.4l-9,1.4c-7.6,1.2-18,2.9-29.5,4.8c-11.5,1.9-21.9,3.6-29.6,4.6
		c-3.8,0.5-6.9,0.9-9,1.1l-2.5,0.2c-0.3,0-0.6,0-0.9,0c0.3-0.1,0.6-0.2,0.8-0.2l2.5-0.4l9-1.4c7.6-1.2,18-2.9,29.6-4.8
		s22-3.6,29.6-4.6c3.8-0.5,6.9-0.9,9-1.1l2.5-0.2C764.5,556.3,764.8,556.3,765.1,556.3z"/>
	<path class="st4" d="M97.6,488.5c6.7-1.8,14.1-0.1,20,3.6c5.8,3.9,10.7,9,14.2,15.1c7.1,11.4,9.6,26.7,9.8,40.1
		c-14.9-0.7-27.6-12.5-33.7-18.9C98.3,518.2,87.2,494.2,97.6,488.5"/>
	<path class="st4" d="M165.5,556.3c-6.1-4.8-8.8-13.2-7.4-20.9c1.6-7.7,6.2-14.5,12.7-18.8c3-2,6.7-3.6,10.1-2.6
		c3.2,1.2,5.6,4,6.1,7.4c0.5,3.4,0,6.8-1.2,9.9C181.9,542.3,176.2,552.1,165.5,556.3"/>
	<path class="st5" d="M179.1,598.9c-0.6-0.7-1.1-1.5-1.5-2.4c-0.9-1.6-2.1-3.9-3.5-6.8c-3.8-7.6-6.6-15.7-8.3-24
		c-1.8-9.9-0.5-19.2,2-25.3c0.9-2.4,2.1-4.7,3.6-6.8c0.5-0.8,1.1-1.5,1.8-2.1c0.3,0.2-2.4,3.3-4.5,9.3c-2.6,8-3.1,16.4-1.5,24.6
		c1.7,8.2,4.3,16.2,7.7,23.8C177.7,595.1,179.3,598.8,179.1,598.9z"/>
	<path class="st5" d="M107.7,506c1.2,1,2.3,2.1,3.2,3.4c2,2.2,4.9,5.5,8.4,9.6c7,8.1,16.4,19.5,26.5,32.4
		c10.1,12.8,19,24.7,25.3,33.4c3.1,4.3,5.6,7.9,7.3,10.4c0.9,1.2,1.8,2.5,2.5,3.9c-1.1-1.1-2.1-2.3-3-3.6l-7.7-10.1
		c-6.5-8.5-15.5-20.3-25.6-33.1c-10.1-12.8-19.4-24.3-26.2-32.6l-8-9.9C109.4,508.6,108.5,507.4,107.7,506z"/>
	<path class="st4" d="M155.5,572.9c-13.1-10.3-30.4-13.6-46.4-9c-4,1.2-8.4,3.6-8.8,7.8s3.5,7.4,7.2,9.3c16.1,7.6,35.2,4.9,48.5-7.1
		"/>
	<path class="st5" d="M119,571.5c0.8-0.4,1.7-0.6,2.6-0.8c1-0.3,2.1-0.5,3.1-0.6c1.4-0.2,2.8-0.4,4.2-0.4c3.7-0.2,7.3,0,11,0.5
		c8.9,1.3,17.4,4.7,24.8,9.8c3,2.1,5.8,4.5,8.3,7.1c1,1,1.9,2.1,2.8,3.2c0.7,0.8,1.3,1.7,1.9,2.6c0.6,0.7,1,1.5,1.4,2.3
		c-0.2,0.2-2.4-3-6.8-7.3c-2.6-2.5-5.4-4.8-8.3-6.8c-3.7-2.4-7.6-4.5-11.6-6.1c-4.1-1.6-8.3-2.7-12.6-3.5c-3.5-0.6-7.1-0.8-10.7-0.8
		C122.9,570.9,119.1,571.8,119,571.5z"/>
</g>
<g id="freepik--speech-bubble--inject-15">
	<path class="st4" d="M323.2,168.4l-10.4,8.7l-5.1-2.3l-1-4.3c0,0,11.2-8.3,10.8-8.7c-1-1-2.4-1.6-3.8-1.8c-2.7-0.3-5.4,0.4-7.5,2
		l-2,1.5c-3.7,2.7-5.5,7.2-4.8,11.7c0,0.1,0,0.3,0.1,0.4l-30.9,25.7c-5.2-1.7-10.8,1.1-12.6,6.3c-1.7,5.2,1.1,10.8,6.3,12.6
		c5.2,1.7,10.8-1.1,12.6-6.3c0.6-1.7,0.7-3.5,0.3-5.3l30.5-25.6c1.2,1.1,2.8,1.6,4.4,1.6c3.1,0.1,6.1-1.2,8.3-3.4l2.6-2.5
		C323.5,176,324.4,172,323.2,168.4z M263.6,214.9c-2.3-1-3.3-3.7-2.3-6c1-2.3,3.7-3.3,6-2.3c2.3,1,3.3,3.7,2.3,6c0,0,0,0,0,0
		C268.6,214.9,265.9,216,263.6,214.9C263.6,215,263.6,214.9,263.6,214.9L263.6,214.9z"/>
	<path class="st5" d="M369.9,227.6l-33.2,2.8l0.1-0.1c-11.5,13.7-28.3,21.8-46.2,22.2c-7.3,0.1-14.6-1.1-21.5-3.4
		c-7.5-2.6-14.4-6.6-20.4-11.8c-13.2-11.5-21-28-21.4-45.5c-0.1-1.1-0.1-2.3,0-3.4c0-1.1,0.1-2.3,0.2-3.4c0.1-1.1,0.2-2.3,0.4-3.4
		l0.6-3.4c0.2-1.1,0.6-2.2,0.8-3.4s0.5-2.3,0.9-3.4c0.4-1.1,0.8-2.2,1.2-3.3l0.6-1.7c0.2-0.5,0.5-1.1,0.7-1.6
		c3.7-8.1,9.1-15.4,15.8-21.3c12.7-11.2,29.5-16.7,46.4-15.1c21.8,2,40.9,15.4,50.4,35.2c0.7,1.4,1.3,2.8,1.8,4.2
		c0.5,1.4,1,2.8,1.5,4.2c0.8,2.7,1.4,5.5,1.9,8.3c0.2,1.4,0.4,2.7,0.6,4s0.1,2.6,0.2,3.9c0,0.6,0,1.2,0.1,1.9
		c0.1,0.7-0.1,1.2-0.1,1.9c0,1.2-0.1,2.5-0.2,3.6v-0.1C362.9,215.7,369.3,226.4,369.9,227.6l-19-31.8l0,0l0,0c0-1.2,0.1-2.4,0.1-3.6
		c0-0.6,0.1-1.2,0.1-1.9c0-0.6-0.1-1.2-0.1-1.9c-0.1-1.2-0.1-2.6-0.2-3.9c-0.1-1.3-0.4-2.6-0.6-4c-0.4-2.8-1.1-5.6-1.9-8.3
		c-0.5-1.4-1-2.8-1.5-4.2c-0.5-1.4-1.1-2.8-1.8-4.2c-14.5-30.7-51.1-43.7-81.8-29.2c-5.2,2.4-9.9,5.6-14.2,9.4
		c-6.6,5.8-12,13-15.6,21.1c-0.2,0.5-0.5,1-0.7,1.6l-0.6,1.6l-1.2,3.2c-0.4,1.1-0.6,2.2-0.9,3.3c-0.3,1.1-0.6,2.2-0.8,3.3
		c-0.2,1.1-0.3,2.3-0.5,3.4c-0.2,1.1-0.3,2.2-0.4,3.4c-0.1,1.1-0.1,2.2-0.2,3.4c-0.1,1.1-0.1,2.2,0,3.4
		c0.6,25.7,17.1,48.4,41.4,56.8c6.9,2.3,14.1,3.5,21.4,3.4c17.7-0.3,34.5-8.3,45.9-21.8l0,0h0.1L369.9,227.6z"/>
</g>
<g id="freepik--Device--inject-15">
	<path class="st6" d="M189.1,278.1h470.3c10,0,18.1,8.1,18.1,18.1v298.8c0,10-8.1,18.1-18.1,18.1H189.1c-10,0-18.1-8.1-18.1-18.1
		V296.1C171,286.2,179.1,278.1,189.1,278.1z"/>
	<path class="st6" d="M150.5,588.2h548.7l0,0v7.2c0,12.2-9.9,22.1-22.1,22.1H172.6c-12.2,0-22.1-9.9-22.1-22.1V588.2L150.5,588.2z"
		/>
	<rect x="185.3" y="291.4" class="st0" width="477.9" height="282.8"/>
	<path class="st5" d="M375,588.2h2.1h6.2l23.1-0.1l77.4-0.2h0.6l-0.3,0.5c-1,1.7-2,3.5-3.1,5.3s-2.2,3.7-3.3,5.6l-0.1,0.2h-0.2
		l-95.8-0.2h-0.1v-0.1l-5-8.2l-1.2-2.1L375,588.2l0.6,0.8c0.3,0.5,0.8,1.2,1.3,2.1c1.2,1.8,2.9,4.5,5.1,8l-0.1-0.1l95.8-0.2
		l-0.3,0.2l3.3-5.6c1.1-1.8,2.1-3.6,3.1-5.3l0.3,0.5l-77.1-0.2l-23.4-0.1h-6.3h-1.7L375,588.2z"/>
	<path class="st7" d="M360.1,344c0.9-1.2,1.9-2.2,3-3.1l-0.7-4l6.1-2.6l2.4,3.3c1.4-0.2,2.9-0.2,4.3,0l2.3-3.3l6.2,2.5l-0.6,4
		c1.2,0.9,2.2,1.9,3.1,3l4-0.7l2.6,6.1l-3.3,2.4c0.2,1.4,0.2,2.9,0,4.3l3.3,2.3l-2.5,6.2l-4-0.6c-0.9,1.2-1.9,2.2-3,3.1l0.7,3.9
		l-6.1,2.6l-2.4-3.3c-1.4,0.2-2.9,0.2-4.3,0l-2.3,3.3l-6.2-2.5l0.6-4c-1.2-0.9-2.2-1.9-3.1-3l-3.9,0.7l-2.6-6.2l3.3-2.4
		c-0.2-1.4-0.2-2.9,0-4.3l-3.3-2.3l2.5-6.2L360.1,344L360.1,344z M366.8,350.9c-1.5,3.6,0.3,7.8,3.9,9.3c3.6,1.5,7.8-0.3,9.3-3.9
		c1.5-3.6-0.2-7.8-3.9-9.3C372.5,345.5,368.3,347.2,366.8,350.9C366.8,350.9,366.8,350.9,366.8,350.9z"/>
	<path class="st8" d="M335.3,472.3c2.5-3.4,5.5-6.4,8.8-9l-2.1-11.5l17.7-7.6l6.8,9.4c4.2-0.6,8.4-0.7,12.6-0.1l6.6-9.6l17.9,7.2
		l-1.8,11.5c3.4,2.5,6.4,5.5,9,8.8l11.5-2.1l7.6,17.8l-9.4,6.8c0.6,4.2,0.7,8.4,0.1,12.6l9.6,6.6l-7.2,17.9l-11.5-1.8
		c-2.5,3.4-5.5,6.4-8.8,9l2.1,11.5l-17.7,7.6l-6.8-9.4c-4.2,0.6-8.4,0.7-12.6,0.1l-6.6,9.6l-17.9-7.2l1.8-11.5
		c-3.4-2.5-6.4-5.5-9-8.8l-11.5,2.1l-7.6-17.7l9.4-6.8c-0.6-4.2-0.7-8.4-0.1-12.6l-9.6-6.6l7.2-17.9L335.3,472.3L335.3,472.3z
		 M354.5,492.3c-4.3,10.6,0.9,22.7,11.5,26.9c10.6,4.3,22.7-0.9,26.9-11.5c4.3-10.6-0.9-22.7-11.5-26.9c0,0,0,0,0,0
		C370.8,476.5,358.8,481.7,354.5,492.3C354.5,492.3,354.5,492.3,354.5,492.3L354.5,492.3z"/>
	<path class="st9" d="M245.8,496.3c1.4-1.9,3-3.5,4.9-5l-1.2-6.3l9.8-4.2l3.7,5.2c2.3-0.3,4.6-0.4,7-0.1l3.7-5.3l9.9,4l-1,6.4
		c1.9,1.4,3.5,3,5,4.9l6.3-1.2l4.2,9.8l-5.2,3.8c0.3,2.3,0.4,4.6,0.1,7l5.3,3.7l-4,9.9l-6.4-1c-1.4,1.9-3,3.5-4.9,5l1.2,6.3
		l-9.8,4.1l-3.7-5.2c-2.3,0.3-4.6,0.4-7,0.1l-3.7,5.3l-9.9-4l1-6.4c-1.9-1.4-3.5-3-5-4.9l-6.3,1.2l-4.2-9.8l5.2-3.7
		c-0.3-2.3-0.4-4.6-0.1-7l-5.3-3.7l4-9.9L245.8,496.3L245.8,496.3z M256.4,507.3c-2.4,5.9,0.5,12.5,6.4,14.9
		c5.9,2.4,12.5-0.5,14.9-6.4c2.4-5.9-0.5-12.5-6.3-14.9c-5.8-2.4-12.5,0.4-14.9,6.2C256.3,507.2,256.3,507.2,256.4,507.3
		L256.4,507.3z"/>
	<path class="st5" d="M256.3,507.3c0.3-0.9,0.7-1.7,1.2-2.5c1.5-2.2,3.7-3.7,6.2-4.4c3.8-1.1,8-0.2,10.9,2.5
		c0.9,0.7,1.6,1.6,2.2,2.6c0.6,1,1.1,2.1,1.4,3.2c1.3,5-0.8,10.2-5.2,12.9c-2,1.2-4.3,1.8-6.6,1.8c-2.1-0.1-4.1-0.7-5.9-1.9
		c-3.8-2.5-5.8-6.9-5.2-11.4C255.5,509.1,255.8,508.2,256.3,507.3c-0.3,0.9-0.5,1.9-0.7,2.8c-0.3,2.5,0.3,5.1,1.6,7.3
		c2,3.2,5.4,5.3,9.2,5.4c2.2,0.1,4.3-0.5,6.2-1.7c4.2-2.5,6.2-7.5,5-12.2c-0.5-2.1-1.7-4.1-3.3-5.6c-1.5-1.3-3.3-2.2-5.3-2.7
		c-1.7-0.3-3.5-0.3-5.2,0.2c-2.5,0.6-4.7,2.1-6.2,4.1C256.7,506.3,256.4,507.3,256.3,507.3z"/>
	<path class="st5" d="M245.8,496.3h-0.4l-1.2-0.2l-4.8-0.7l0.1-0.1l-3.9,9.9l-0.1-0.2l5.3,3.6l0.1,0.1v0.1c-0.3,2.3-0.2,4.6,0.1,6.9
		v0.1l-0.1,0.1l-5.2,3.8l0.1-0.3l4.2,9.8l-0.3-0.1l6.3-1.2h0.2l0.1,0.1c1.4,1.8,3.1,3.4,5,4.8l0.1,0.1v0.2c-0.3,2-0.7,4.1-1,6.4
		l-0.2-0.3l9.9,4l-0.4,0.1l3.7-5.3l0.1-0.1h0.2c2.3,0.3,4.6,0.2,6.9-0.1h0.2l0.1,0.1l3.8,5.2l-0.4-0.1l9.8-4.2l-0.2,0.4
		c-0.4-2-0.8-4.2-1.2-6.3v-0.2l0.1-0.1c1.8-1.4,3.4-3.1,4.8-4.9l0,0l0.1-0.2h0.2l6.4,1l-0.4,0.2c1.3-3.3,2.7-6.6,4-9.9l0.1,0.4
		l-5.3-3.7l-0.2-0.1v-0.2c0.3-2.3,0.3-4.6-0.1-6.9v-0.2l0.2-0.1l5.2-3.7l-0.1,0.4l-4.2-9.8l0.3,0.2l-6.4,1.1h-0.2l-0.1-0.1
		c-1.4-1.8-3.1-3.4-5-4.8l-0.1-0.1v-0.2c0.4-2.2,0.7-4.3,1-6.4l0.2,0.3l-9.9-4l0.3-0.1l-3.7,5.3l-0.1,0.1h-0.1
		c-2.3-0.3-4.6-0.3-6.9,0h-0.1l-0.1-0.1c-1.4-1.9-2.6-3.6-3.7-5.2l0.2,0.1l-9.8,4.2l0.1-0.2c0.4,2.5,0.8,4.6,1.1,6.4v0.1l0,0
		c-1.4,1.1-2.7,2.3-3.8,3.6l-0.8,1L245.8,496.3c0.1-0.2,0.1-0.3,0.2-0.4c0.2-0.2,0.4-0.6,0.8-1c1.1-1.3,2.4-2.6,3.7-3.7v0.1
		c-0.3-1.7-0.7-3.8-1.2-6.3v-0.1h0.1l9.8-4.2h0.1l0.1,0.1l3.8,5.2l-0.2-0.1c2.3-0.3,4.7-0.4,7-0.1l-0.2,0.1c1.2-1.7,2.4-3.5,3.6-5.3
		l0.1-0.2l0.2,0.1l9.9,4l0.2,0.1v0.2c-0.3,2.1-0.7,4.2-1,6.4l-0.1-0.3c1.9,1.4,3.6,3.1,5,5l-0.3-0.1l6.3-1.2h0.2l0.1,0.2
		c1.3,3.2,2.7,6.5,4.2,9.8l0.1,0.2l-0.2,0.1l-5.2,3.7l0.1-0.3c0.3,2.3,0.4,4.7,0.1,7l-0.1-0.3l5.3,3.7l0.2,0.1l-0.1,0.2l-4,9.9
		l-0.1,0.2h-0.3l-6.4-1l0.3-0.1l0,0c-1.4,1.9-3.1,3.6-5,5l0.1-0.3c0.4,2.2,0.8,4.3,1.2,6.3v0.3l-0.2,0l-9.8,4.2l-0.2,0.1l-0.1-0.2
		l-3.7-5.2l0.3,0.1c-2.3,0.3-4.7,0.4-7,0.1l0.3-0.1l-3.7,5.3l-0.1,0.2l-0.2-0.1l-9.9-4l-0.2-0.1v-0.2c0.4-2.2,0.7-4.4,1-6.4l0.1,0.3
		c-1.9-1.4-3.5-3.1-5-5l0.3,0.1l-6.3,1.1h-0.2l-0.1-0.2c-1.5-3.5-2.9-6.7-4.2-9.8l-0.1-0.2l0.1-0.1l5.2-3.7l-0.1,0.2
		c-0.3-2.3-0.4-4.7-0.1-7l0.1,0.2l-5.3-3.7l-0.1-0.1V505c1.7-4,3-7.3,4-9.9V495h0.1l4.7,0.8l1.2,0.2L245.8,496.3z"/>
	<path class="st7" d="M221.5,365.3c2-5.5,4.8-10.6,8.2-15.3l-7.3-14.3l20.5-17l12.7,9.8c5.3-2.4,10.8-4.2,16.6-5.1l5-15.3l26.5,2.5
		l2.1,15.9c5.4,2,10.6,4.7,15.3,8.1l14.3-7.3l17,20.5l-9.8,12.7c2.4,5.3,4.1,10.8,5.1,16.5l15.3,5l-2.5,26.5l-15.9,2.1
		c-2,5.5-4.7,10.6-8,15.4l7.3,14.3l-20.5,17l-12.7-9.8c-5.3,2.4-10.9,4.1-16.6,5.1l-5,15.3l-26.5-2.5l-2.1-15.9
		c-5.5-2-10.6-4.7-15.4-8l-14.3,7.3l-17-20.5l9.8-12.7c-2.4-5.3-4.2-10.8-5.1-16.6l-15.3-5l2.5-26.5L221.5,365.3L221.5,365.3z
		 M254.7,384.1c-1.5,15.7,10.1,29.6,25.8,31.1c15.7,1.5,29.6-10.1,31.1-25.8c1.5-15.7-10.1-29.6-25.8-31.1c0,0,0,0-0.1,0
		C270,356.9,256.1,368.4,254.7,384.1z"/>
	<path class="st5" d="M677.5,588.2c0,0.2-113.4,0.3-253.2,0.3S171,588.4,171,588.2c0-0.2,113.4-0.3,253.2-0.3
		S677.5,588.1,677.5,588.2z"/>
</g>
<g id="freepik--Character--inject-15">
	<path class="st5" d="M405,207.7c-7.8,3.4-12.4,11.9-14.1,20.2c-1.7,8.4-1.2,17-1.9,25.5c-0.7,8.5-3.1,17.4-9.3,23.2
		c-5.8,5.5-14.3,7.7-19.2,13.9c-6,7.6-4.7,18.6,2.9,24.6c2.1,1.6,4.5,2.8,7.1,3.4c-3.9,6.2-1.9,14.8,3,20.1s12.3,7.9,19.5,9
		c12.7,1.9,26.2-0.2,36.9-7.3c10.7-7.1,18.2-19.3,18.2-32.1"/>
	<path class="st6" d="M371.2,333.8c-0.6-0.8-1.1-1.8-1.4-2.8c-0.9-2.7-1-5.6-0.5-8.4c0.4-1.9,1-3.8,1.8-5.6c1-2,2.2-3.9,3.6-5.7
		c3.3-3.9,6.9-7.5,10.7-10.9c3.7-3.4,7.2-7.1,10.4-11c2.6-3.2,4.9-6.7,6.7-10.4c1.2-2.5,2.1-5.2,2.7-7.9c0.2-1,0.3-1.7,0.4-2.2
		c0-0.3,0.1-0.5,0.2-0.8c0,0.3,0,0.5,0,0.8c-0.1,0.5-0.1,1.3-0.3,2.3c-0.5,2.8-1.4,5.5-2.6,8c-1.8,3.8-4,7.3-6.6,10.6
		c-3.2,4-6.7,7.7-10.5,11.2c-3.8,3.3-7.4,6.9-10.7,10.8c-1.4,1.7-2.6,3.6-3.6,5.5c-0.8,1.7-1.4,3.5-1.8,5.4
		c-0.6,2.7-0.5,5.6,0.3,8.2C370.4,331.9,370.8,332.9,371.2,333.8z"/>
	<path class="st5" d="M498.4,235.7c0,11.5,5.3,22,10,25.9c6.7,5.5,16.6,8.1,23.1,9.9c9.5,2.6,17.4,10.9,18.6,20.7
		c1.2,9.8-5.2,20.2-14.7,22.7c6,6.1,4.2,16.6-0.7,23.6c-9.3,13.3-28,18.4-43.4,13.5c-15.4-4.9-27.3-18.6-32-34.2"/>
	<path class="st6" d="M522,348.7c1.3-0.3,2.6-0.8,3.6-1.6c1.3-0.9,2.3-2.1,3.1-3.5c1-1.8,1.6-3.8,1.6-5.9c0-2.5-0.7-5-1.9-7.1
		c-1.4-2.5-3.3-4.7-5.6-6.5c-4.7-4-11.1-6.4-17.3-9.9c-3-1.7-5.8-3.9-8.2-6.4c-1.1-1.2-2.1-2.6-2.9-4.1c-0.7-1.4-1.3-2.9-1.6-4.5
		c-0.6-2.9-0.7-5.9-0.4-8.8c0.2-2.7,0.6-5.3,0.8-7.6c0.5-3.6,0.5-7.3-0.2-10.9c-0.2-0.6-0.3-1.2-0.4-1.7c-0.1-0.5-0.3-0.9-0.4-1.2
		c-0.1-0.3-0.3-0.6-0.4-1c0.2,0.3,0.3,0.6,0.5,0.9c0.1,0.3,0.3,0.7,0.5,1.2l0.5,1.7c0.8,3.6,0.9,7.4,0.4,11
		c-0.2,2.3-0.5,4.9-0.7,7.6c-0.3,2.9-0.1,5.8,0.4,8.7c0.7,3.1,2.2,6,4.4,8.3c2.3,2.5,5.1,4.6,8.1,6.3c6.1,3.5,12.5,6,17.4,10.1
		c2.3,1.9,4.2,4.1,5.7,6.7c1.3,2.3,1.9,4.8,1.9,7.4c-0.1,2.1-0.7,4.2-1.8,6.1c-0.8,1.4-1.9,2.6-3.2,3.5c-0.8,0.6-1.8,1-2.7,1.2
		C522.7,348.7,522.4,348.7,522,348.7z"/>
	<path class="st6" d="M544.3,310.4c0.7-0.9,1.1-2,1.2-3.2c0-1.3-0.3-2.7-0.9-3.9c-0.8-1.6-2-2.9-3.5-3.9c-1.9-1.1-4-1.8-6.1-2
		c-2.3-0.4-4.8-0.6-7.4-1c-5.7-0.9-11.2-3.1-16-6.3c-4.8-3.3-8.9-7.5-11.9-12.5c-2.4-4.1-4-8.6-4.9-13.3c-0.6-3.1-0.7-6.3-0.5-9.5
		c0.1-0.9,0.2-1.7,0.3-2.6c0-0.3,0.1-0.6,0.2-0.9c0.1,0-0.1,1.2-0.2,3.5c-0.3,7.9,1.6,15.7,5.6,22.5c3,4.9,7,9.1,11.7,12.3
		c4.8,3.2,10.1,5.3,15.8,6.3c2.6,0.4,5.1,0.6,7.4,1c2.2,0.3,4.3,1.1,6.2,2.2c1.6,1,2.8,2.4,3.6,4.1c0.6,1.2,0.9,2.6,0.8,4
		c-0.1,0.9-0.4,1.7-0.8,2.5c-0.2,0.2-0.3,0.4-0.4,0.5L544.3,310.4z"/>
	<path class="st10" d="M410.6,370.2c1.6-17.1,3-35.2,3-35.2s-21.7-5.8-23.4-35.1c-1.7-27.9,9.1-90.9,9.1-90.9l0,0
		c33.1-9.8,69.8,2.5,90,30.2l0,0l-15.6,139c-1.8,16.1-17.1,27.4-34.4,25.4l0,0C421.9,401.4,409.1,386.5,410.6,370.2z"/>
	<path class="st5" d="M402.6,259.4c-0.2,2,1.2,3.8,3.2,4.1c1.9,0.4,3.8-0.9,4.1-2.8c0,0,0-0.1,0-0.1c0.2-2-1.2-3.8-3.2-4.1
		c-1.9-0.4-3.8,0.9-4.1,2.8C402.6,259.3,402.6,259.3,402.6,259.4z"/>
	<path class="st5" d="M397,254.6c0.4,0.5,3.4-1.2,7.4-0.9s6.7,2.7,7.2,2.2c0.2-0.2-0.1-1.1-1.3-2.2c-1.6-1.4-3.6-2.2-5.7-2.4
		c-2.1-0.2-4.1,0.2-5.9,1.2C397.3,253.6,396.8,254.4,397,254.6z"/>
	<path class="st5" d="M443.2,264.1c-0.2,2,1.2,3.8,3.2,4.1c1.9,0.4,3.8-0.9,4.1-2.8c0,0,0-0.1,0-0.1c0.2-2-1.2-3.8-3.2-4.1
		C445.4,260.8,443.6,262,443.2,264.1C443.2,264,443.2,264,443.2,264.1z"/>
	<path class="st5" d="M438.4,260.1c0.4,0.5,3.4-1.2,7.4-0.9s6.7,2.7,7.2,2.2c0.2-0.2-0.1-1.1-1.3-2.2c-1.6-1.4-3.6-2.2-5.7-2.4
		c-2.1-0.2-4.1,0.2-5.9,1.2C438.7,259.1,438.2,259.9,438.4,260.1z"/>
	<path class="st5" d="M421,288.2c0-0.2-2.4-0.9-6.3-1.8c-1-0.2-1.9-0.5-2-1.2c0-1.1,0.4-2.1,1-2.9l3.7-7.4
		c5.3-10.6,9.2-19.3,8.7-19.6c-0.5-0.2-5,8.2-10.3,18.8c-1.2,2.6-2.5,5.1-3.6,7.4c-0.8,1.2-1.1,2.5-0.9,3.9c0.2,0.8,0.8,1.4,1.5,1.7
		c0.5,0.2,1.1,0.3,1.7,0.4C418.5,288.2,421,288.4,421,288.2z"/>
	<path class="st11" d="M413.7,335c13.5,1.5,27.2-0.7,39.6-6.5c0,0-11.4,18.9-39.9,13.3L413.7,335z"/>
	<path class="st11" d="M421.8,298c1.7-1.8,4.2-2.6,6.7-2c1.8,0.3,3.3,1.4,4.3,2.9c1,1.5,0.9,3.4-0.2,4.8c-1.4,1.3-3.6,1.6-5.3,0.8
		c-1.8-0.8-3.4-2-4.8-3.5c-0.4-0.3-0.8-0.8-1-1.2c-0.3-0.5-0.2-1.1,0.1-1.5"/>
	<path class="st5" d="M432.5,292.1c-0.6-0.1-1.1,4.2-5.1,6.9s-8.5,1.8-8.6,2.4c-0.1,0.3,0.9,0.9,2.9,1.2c2.5,0.3,5.1-0.3,7.2-1.7
		c2-1.3,3.5-3.4,4-5.8C433.2,293.2,432.8,292.1,432.5,292.1z"/>
	<path class="st10" d="M475.6,269.9c3.1-0.4,6.3,0.2,9.2,1.5c2.9,1.4,5.1,3.8,6.2,6.8c0.9,3.1,0.6,6.4-0.8,9.2
		c-1.4,2.8-3.5,5.3-6,7.2c-1.7,1.5-3.8,2.6-6,3.2c-2.2,0.6-4.6-0.1-6.3-1.6"/>
	<path class="st11" d="M475.5,288.7c-0.4,0.1,0.8,2.1,3.7,1.6c1.5-0.4,2.9-1.3,3.7-2.7c1-1.5,1.7-3.2,2-5c0.4-1.9,0.1-3.8-0.8-5.5
		c-0.8-1.5-2.2-2.5-3.8-2.8c-2.9-0.3-4,1.6-3.7,1.7c0.3,0.1,1.4-0.7,3.3,0c1.8,0.7,3.3,3.2,2.6,6.2c-0.7,3-2.2,5.9-3.9,6.5
		S475.7,288.5,475.5,288.7z"/>
	<path class="st5" d="M413.2,221.3c-4.4,10-13.2,17.4-23.8,20c-0.6-7.1-1-14.3,0.1-21.4c1.2-7.1,4-14,9.2-18.9
		c5.1-5,12.7-7.6,19.6-5.8"/>
	<path class="st5" d="M415.2,208.3c-5.8,14.5,1.3,31,15.9,36.8c4.3,1.7,8.9,2.3,13.4,1.8c1.9-0.2,3.9-0.6,5.6,0.1s3.1,2.5,4.3,4.2
		c4.6,6.9,9.4,14,16.7,18c7.2,4,17.6,3.6,22.4-3.1c2.3-3.3,3-7.4,3.6-11.4c1.8-13.4,2.6-27.7-3.8-39.6c-4.7-8.9-13-15.4-22.2-19.4
		c-9.2-4-19.3-5.6-29.3-6.2c-5.8-0.4-11.8-0.4-17.2,1.8s-10.1,7.1-10.4,12.9"/>
	<path class="st6" d="M495.8,258.5c-0.1-0.3-0.3-0.6-0.3-1c-0.2-0.6-0.5-1.6-1-2.8c-1.3-3.4-2.9-6.7-4.9-9.8
		c-2.9-4.5-6.6-8.6-10.8-12c-5.3-4-11.1-7.3-17.2-9.7c-6.5-2.7-12.9-5-18.4-7.6c-5-2.2-9.7-5.1-13.9-8.5c-2.9-2.3-5.3-5.1-7.4-8.1
		c-0.5-0.8-1-1.7-1.5-2.6c-0.2-0.3-0.3-0.6-0.4-0.9c0.2,0.3,0.4,0.6,0.5,0.9c0.5,0.9,1,1.7,1.6,2.5c2.1,3,4.6,5.7,7.4,7.9
		c4.3,3.3,8.9,6.1,13.9,8.3c5.5,2.6,11.9,4.8,18.4,7.5c6.2,2.4,12.1,5.7,17.4,9.8c4.2,3.5,7.9,7.6,10.8,12.2
		c1.9,3.1,3.5,6.5,4.8,9.9c0.4,1.2,0.7,2.2,0.9,2.9C495.7,257.8,495.8,258.1,495.8,258.5z"/>
	<path class="st6" d="M486.9,256.9c-0.2-0.3-0.4-0.5-0.5-0.8c-0.3-0.5-0.8-1.3-1.5-2.3c-2-2.7-4.4-5-7.1-6.9
		c-4.1-2.8-8.5-5.1-13.1-6.9c-2.6-1.1-5.3-2.2-8-3.6s-5.6-2.8-8.4-4.4c-5.3-3.1-10.1-6.9-14.4-11.2c-3.5-3.5-6.6-7.5-9-11.9
		c-1.7-2.9-3-6-4-9.2c-0.3-1.1-0.6-2-0.7-2.6c-0.1-0.3-0.1-0.6-0.2-0.9c0.1,0.3,0.2,0.6,0.3,0.9c0.2,0.6,0.4,1.5,0.8,2.6
		c1.1,3.2,2.4,6.2,4.1,9.1c2.5,4.3,5.5,8.2,9,11.7c4.3,4.3,9.1,8,14.4,11.1c2.8,1.7,5.5,3.1,8.3,4.4c2.7,1.3,5.4,2.5,8,3.6
		c4.6,1.9,9,4.2,13.1,7.1c2.8,1.9,5.2,4.4,7.1,7.1c0.5,0.8,1,1.5,1.4,2.4C486.6,256.3,486.8,256.6,486.9,256.9z"/>
	<path class="st6" d="M389.6,252.8c-0.1-0.2-0.2-0.4-0.3-0.7c-0.2-0.4-0.4-1.1-0.7-1.9c-0.7-2.4-1.1-4.9-1.2-7.4
		c-0.4-8.5,2.3-16.8,7.4-23.5c1.5-1.9,3.1-3.6,5-5.2c1.8-1.5,3.6-2.7,5.4-3.9c3.2-1.9,6.2-4.2,9-6.7c1.8-1.7,3.3-3.8,4.4-6
		c0.7-1.6,0.9-2.6,0.9-2.6c0,0.2,0,0.5-0.1,0.7c-0.2,0.7-0.4,1.3-0.6,2c-1,2.3-2.5,4.4-4.3,6.2c-2.7,2.6-5.7,4.9-8.9,6.8
		c-1.8,1.2-3.6,2.5-5.3,3.9c-1.8,1.5-3.4,3.2-4.9,5.1c-2.8,3.6-4.9,7.7-6.1,12.1c-1,3.6-1.5,7.3-1.4,11c0.1,2.5,0.4,5,1,7.4
		c0.2,0.8,0.4,1.5,0.6,2C389.5,252.3,389.5,252.5,389.6,252.8z"/>
	<path class="st4" d="M460.7,310.2c-6.8,0.1-13.3-2.3-18.4-6.8l0.8-0.9c10.7,9.7,27.3,8.8,36.9-1.9c6.6-7.4,8.5-17.9,4.9-27.1
		l1.1-0.4c4.3,11.8,0.3,25-9.9,32.5C471.6,308.6,466.2,310.3,460.7,310.2z"/>
	<circle class="st4" cx="445.4" cy="305.2" r="5.7"/>
	<circle class="st4" cx="489.3" cy="276.1" r="19.2"/>
	<path class="st4" d="M486.2,273.4c-0.1-1.6-0.1-3.2,0.1-4.9l0.2-5.7c0-2.2,0.1-4.7,0-7.5c0-1.4-0.1-2.8-0.2-4.3
		c-0.1-1.5-0.2-3.1-0.4-4.7c-0.1-1.6-0.4-3.3-0.6-5c-0.2-0.8-0.3-1.7-0.5-2.6c-0.2-0.9-0.3-1.8-0.6-2.6c-1.7-7.7-5.1-14.9-10-21.1
		c-5.1-6-11.7-10.6-19.1-13.4c-6.1-2.3-12.4-3.9-18.8-4.7c-5.5-0.8-10-1-13.1-1.2c-1.6,0-3.2-0.1-4.8-0.4c1.6-0.3,3.2-0.4,4.9-0.3
		c4.4,0,8.9,0.2,13.3,0.6c6.6,0.7,13,2.2,19.3,4.4c7.7,2.8,14.5,7.5,19.9,13.8c5.1,6.4,8.6,13.9,10.3,21.9c0.2,0.9,0.4,1.8,0.5,2.7
		s0.3,1.8,0.4,2.6c0.2,1.8,0.5,3.5,0.6,5.1c0.1,1.7,0.3,3.3,0.3,4.8c0,1.5,0.1,3,0,4.4c0,2.8-0.2,5.3-0.3,7.6
		c-0.1,2.2-0.3,4.1-0.5,5.7C486.8,270.3,486.6,271.9,486.2,273.4z"/>
	<g class="st12">
		<circle cx="489.8" cy="276.1" r="13.2"/>
	</g>
	<path class="st5" d="M485.5,263.8c0.2-0.1,0.4-0.2,0.6-0.3c0.6-0.2,1.2-0.4,1.8-0.5c2.3-0.4,4.8,0,6.8,1.2c1.5,0.8,2.7,2,3.5,3.4
		c1,1.6,1.4,3.5,1.4,5.4c-0.1,5.5-4.6,9.8-10.1,9.7c-1.4,0-2.7-0.3-4-0.9c-1.9-0.9-3.4-2.4-4.4-4.3c-0.9-1.7-1.3-3.6-1.1-5.5
		c0.2-1.6,0.7-3.2,1.6-4.6c1.2-2,3.2-3.6,5.5-4.2c0.6-0.2,1.3-0.2,1.9-0.2c0.2,0,0.4,0,0.7,0.1c-0.8,0-1.7,0.1-2.5,0.3
		c-2.2,0.8-4,2.3-5.2,4.3c-1.9,2.9-2,6.6-0.4,9.6c0.9,1.8,2.4,3.2,4.1,4c4,1.8,8.7,0.6,11.4-2.8c1.2-1.6,1.8-3.5,1.9-5.5
		c0.1-1.8-0.4-3.6-1.2-5.1c-0.8-1.4-1.9-2.5-3.3-3.3c-2-1.2-4.3-1.6-6.6-1.3C487.2,263.3,486.3,263.5,485.5,263.8z"/>
	<path class="st5" d="M489.7,289.1c-0.5-1-0.7-2-0.6-3.1c-0.1-1.1,0-2.1,0.3-3.1c0.2,1,0.3,2.1,0.3,3.1
		C489.9,287,489.9,288,489.7,289.1z"/>
	<path class="st5" d="M497,286.5c-1.1-1.7-1.8-3.6-2.2-5.6C495.9,282.6,496.7,284.5,497,286.5z"/>
	<path class="st5" d="M501.9,280.8c-0.1,0.1-1-0.5-2-1.4s-1.7-1.8-1.6-1.9c0.1-0.1,1,0.5,2,1.4S502,280.7,501.9,280.8z"/>
	<path class="st5" d="M502.2,272.8c-0.1,0.2-0.7,0.1-1.5-0.2c-0.8-0.3-1.3-0.6-1.2-0.8c0.1-0.2,0.7-0.1,1.5,0.2
		C501.8,272.3,502.3,272.6,502.2,272.8z"/>
	<path class="st5" d="M481.1,286.1c0.3-2.1,1.3-4.1,2.9-5.6c-0.3,1-0.8,2-1.3,2.9C482.3,284.4,481.7,285.3,481.1,286.1z"/>
	<path class="st5" d="M477.2,279.4c-0.1-0.1,0.6-1.1,1.7-2.1c1-1,2-1.8,2.1-1.6c0.1,0.1-0.6,1.1-1.7,2.1
		C478.2,278.8,477.3,279.5,477.2,279.4z"/>
	<path class="st5" d="M480.3,270.3c0,0.2-0.5,0.4-1.2,0.6c-0.7,0.2-1.3,0.2-1.4,0c0-0.2,0.5-0.5,1.2-0.6
		C479.7,270.1,480.2,270.1,480.3,270.3z"/>
	<path class="st10" d="M580.4,375.1c-1.2-7-4-10.8-6-12.8c-1.8-2-3.9-3.7-6.1-5.2c-2.8-1.7-6.6-3.8-9-4.3c-3-0.6-3.7-4.5-1.2-5.6
		c2.5-1.1,10.8,0.5,18.8,6.3c8,5.9,3.9-9,2.6-14.4c-1.4-5.4-4.8-22.4-3.5-24.2c2-2.5,5.1-0.8,6.3,4.7c1.3,5.5,6.1,21.6,9,20.8
		c2.8-0.8-4.6-28.4-4.6-28.4s-2.5-5.7,0.7-6.7c5.9-1.8,11.5,28,12,30.9c0.3,2,3.5,1.2,3-0.9c-0.5-2.1-8-27.4-2-29.3
		c4.6-1.5,4.9,24.5,9.4,29c4.5,4.4-2.3-19.7,2.2-21c1.7-0.5,3-0.6,4.8,13.8c1,7.7,0.4,18.4,3.4,33.2"/>
	<path class="st10" d="M565.6,430.6l27.1,38.9l-13-100.4l38.8-15.3c0,0,49,187.7-16.7,190.3c0,0-45.4-1.2-79.4-79.9L565.6,430.6z"/>
	<path class="st11" d="M609.1,353c0.1,0.1-0.8,0.7-2,2c-1.6,1.8-2.7,3.9-3.2,6.2l-0.1,0.7l-0.5-0.5c-0.6-0.6-1.3-1.2-2-1.8
		c-2.4-1.8-5.3-2.9-8.2-3.2c-2.3-0.2-3.7,0-3.7-0.1c1.2-0.4,2.5-0.6,3.8-0.4c4.1,0.2,8,2,10.8,5l-0.7,0.2c0.5-2.5,1.8-4.7,3.6-6.5
		C607.3,353.9,608.2,353.4,609.1,353z"/>
	<path class="st4" d="M546.1,511.7l-32.8-41.6l-8.5,42.6c-3.5,17.3-1.7,35.1,5.1,51.4l4.2,10.1H362l3.8-13.5
		c2.1-16.6-0.7-33.9-0.2-57.6l-4.2-26.8l-23,98h-67.6c0,0,37.1-152,60.4-182.1c29.3-37.9,80.5-32.9,80.5-32.9l31.4,49.2l30.6-44.4
		c0,0,52.7-11.2,93.8,59.6l22,37.7l0,0l-10.2-77.6l47.6-11c0,0,17.2,76.3,16.1,117.1c-1,36.5-16.5,55.6-38,57.5
		C571,550.2,546.1,511.7,546.1,511.7z"/>
	<path class="st4" d="M411.6,359.2l0.5-6.1c0,0,23.2,5.2,31,45.7c0,0,7.8-37.4,32.8-41.2l4.2,10.8l-15.4,40l-27,7.9l-26.3-7.9
		l-12-23.7L411.6,359.2z"/>
	<path class="st5" d="M346.9,375.3c0.1,0.3,0.1,0.7,0.1,1c0,0.7,0.1,1.8,0.2,3c0.2,2.6,0.4,6.4,0.8,11.1c0.8,9.4,2,22.3,4.1,36.5
		c2,14.2,4.4,27,6.3,36.2c1,4.6,1.8,8.3,2.3,10.9c0.3,1.2,0.5,2.2,0.6,3c0.1,0.3,0.1,0.7,0.2,1c-0.1-0.3-0.2-0.7-0.3-1
		c-0.2-0.7-0.4-1.7-0.7-2.9c-0.6-2.5-1.5-6.2-2.5-10.8c-2-9.2-4.5-22-6.5-36.2c-2-14.2-3.2-27.1-3.9-36.5c-0.3-4.7-0.5-8.5-0.6-11.1
		c0-1.2-0.1-2.3-0.1-3S346.9,375.3,346.9,375.3z"/>
	<path class="st5" d="M479.7,362.6c-0.1,0.2-0.2,0.4-0.3,0.6l-1,1.6l-3.9,5.9c-3.3,5-7.6,12-12.2,19.9c-0.2,0.3-0.4,0.6-0.5,0.9
		l-0.3,0.5l-0.2-0.5c-0.8-2-1.9-3.8-3.3-5.4c-1.3-1.4-3.2-2.2-5.2-1.9c-1.7,0.4-3.2,1.4-4.3,2.8c-0.9,1.2-1.7,2.6-2.1,4.1
		c-0.9,2.7-1.4,5-2,6.5c-0.2,0.6-0.5,1.1-0.8,1.7c-0.2,0.4-0.3,0.5-0.4,0.5c0,0,0.4-0.8,1-2.3c0.5-1.5,1-3.7,1.8-6.6
		c0.4-1.5,1.2-3,2.1-4.3c1.1-1.6,2.7-2.6,4.6-3c2.1-0.3,4.2,0.5,5.7,2.1c1.5,1.6,2.7,3.5,3.5,5.5h-0.5l0.5-0.9
		c4.6-7.9,9-14.9,12.4-19.8c1.7-2.5,3.1-4.5,4-5.8c0.5-0.6,0.8-1.1,1.1-1.6C479.4,362.9,479.5,362.7,479.7,362.6z"/>
	<path class="st5" d="M457.6,385.5c0,0-0.1,0.2-0.2,0.5l-0.8,1.4l-3.1,5.2l-4.7,7.7l-2.8,4.6c-0.5,0.8-1,1.6-1.5,2.4
		c-0.2,0.2-0.4,0.4-0.6,0.6c-0.3,0.2-0.6,0.2-0.9,0.1c-0.5-0.2-1-0.6-1.2-1.1c-4.4-6.6-7.6-12.9-10.2-17.4c-1.2-2.2-2.3-4-3-5.3
		c-0.4-0.6-0.8-1.3-1.1-1.9c0,0,0.1,0.1,0.4,0.5c0.2,0.3,0.5,0.8,0.9,1.4c0.8,1.2,1.9,3,3.2,5.2c2.6,4.4,6,10.7,10.3,17.2
		c0.3,0.4,0.5,0.8,0.8,0.9c0.3,0.1,0.6-0.1,0.9-0.5l1.5-2.4l2.8-4.5l4.8-7.6l3.3-5.1c0.4-0.5,0.7-1,0.9-1.4
		C457.3,385.8,457.4,385.7,457.6,385.5z"/>
	<path class="st5" d="M541.7,389.2c-0.1,0.3-0.2,0.5-0.4,0.8c-0.3,0.6-0.6,1.3-1.1,2.3c-1,2-2.4,4.8-4,8.4
		c-1.7,3.6-3.6,7.8-5.5,12.6c-2,4.8-4,10.1-6,15.8c-2,5.7-3.6,11.2-5,16.1c-1.4,5-2.5,9.5-3.4,13.4c-0.9,3.8-1.5,6.9-2,9.1
		c-0.2,1-0.4,1.8-0.5,2.5c0,0.3-0.1,0.6-0.2,0.9c0-0.3,0-0.6,0.1-0.9c0.1-0.6,0.2-1.5,0.4-2.5c0.3-2.2,1-5.3,1.8-9.1
		c0.8-3.8,1.9-8.4,3.3-13.4c1.4-5,3-10.5,5-16.1c1.9-5.7,4-11,6-15.8c2-4.8,4-9.1,5.7-12.6c1.7-3.5,3.2-6.4,4.2-8.3l1.2-2.2
		C541.4,389.7,541.6,389.4,541.7,389.2z"/>
	<path class="st5" d="M472.2,543.4c-0.3,0-0.6,0-0.9,0l-2.7-0.2c-1.2-0.1-2.6-0.2-4.3-0.4c-1.7-0.2-3.6-0.4-5.7-0.7
		c-4.2-0.6-9.2-1.4-14.6-2.6s-11.4-2.6-17.6-4.5c-6.2-1.8-12-3.9-17.2-5.9c-5.2-2-9.8-4-13.7-5.8c-1.9-0.9-3.6-1.8-5.1-2.5
		c-1.5-0.7-2.8-1.4-3.8-2l-2.4-1.3c-0.3-0.1-0.6-0.3-0.8-0.5c0.3,0.1,0.6,0.2,0.9,0.4l2.5,1.2c1.1,0.5,2.3,1.2,3.9,1.9
		c1.5,0.6,3.2,1.6,5.2,2.4c3.8,1.8,8.5,3.7,13.7,5.7c5.2,2,11,4,17.2,5.8c6.2,1.8,12.1,3.3,17.6,4.5c5.4,1.2,10.4,2.1,14.6,2.7
		c2.1,0.4,4,0.6,5.6,0.8c1.7,0.2,3.1,0.4,4.3,0.5l2.7,0.3C471.6,543.3,471.9,543.3,472.2,543.4z"/>
	<path class="st5" d="M465.5,546c-0.2,0.1-0.4,0.1-0.6,0.2l-1.8,0.3c-1.6,0.3-3.9,0.6-6.7,1c-14.8,2-29.8,2.5-44.7,1.6
		c-2.9-0.2-5.2-0.4-6.8-0.6l-1.8-0.2c-0.2,0-0.4-0.1-0.6-0.1c0.2,0,0.4,0,0.6,0l1.8,0.1c1.6,0.1,3.9,0.2,6.8,0.4
		c5.7,0.3,13.7,0.5,22.3,0.2c8.7-0.3,16.6-1,22.3-1.7c2.8-0.3,5.1-0.6,6.7-0.8l1.8-0.2C465.1,546,465.3,546,465.5,546z"/>
	<path class="st5" d="M519.3,477.8c0-0.3,0.1-0.6,0.2-0.9l0.6-2.5l2.4-9.3c2-7.8,4.6-18.7,7.9-30.6c1.6-6,3.3-11.6,5-16.7
		s3.2-9.6,4.7-13.4c0.7-1.9,1.4-3.6,2-5.1c0.6-1.5,1.2-2.8,1.6-3.8l1.1-2.4c0.1-0.3,0.3-0.6,0.4-0.8c-0.1,0.3-0.2,0.6-0.3,0.9
		c-0.2,0.6-0.6,1.4-1,2.4s-1,2.3-1.5,3.8c-0.6,1.5-1.2,3.2-1.9,5.1c-1.4,3.8-3,8.4-4.6,13.4c-1.6,5.1-3.3,10.7-4.9,16.7
		c-3.3,11.9-6,22.8-8.1,30.6c-1,3.9-1.9,7.1-2.5,9.2l-0.7,2.5C519.5,477.2,519.4,477.5,519.3,477.8z"/>
	<path class="st5" d="M360.6,475.7c-0.2-0.2-0.4-0.5-0.6-0.7c-0.4-0.5-1-1.2-1.7-2.2c-2-2.8-3.9-5.8-5.4-8.9
		c-2.3-4.6-4.2-9.4-5.7-14.4c-1.8-6.1-3.1-12.3-3.9-18.5c-1.8-13.3-2.1-25.5-2.7-34.3c-0.2-4.4-0.5-7.9-0.7-10.4
		c-0.1-1.2-0.2-2.1-0.2-2.8c0-0.3,0-0.7,0-1c0.1,0.3,0.1,0.6,0.2,1c0.1,0.6,0.2,1.6,0.3,2.8c0.3,2.5,0.6,6,0.9,10.4
		c0.7,8.8,1,21,2.8,34.2c0.8,6.2,2.1,12.4,3.9,18.5c1.4,4.9,3.3,9.8,5.5,14.4c1.5,3.1,3.3,6.1,5.2,9c0.7,1,1.2,1.8,1.6,2.3
		C360.2,475.2,360.4,475.4,360.6,475.7z"/>
	<path class="st5" d="M354.8,448.4c0,0.2-1.8,0.6-3.7,1.7s-3.1,2.5-3.3,2.4C349.3,450.1,351.9,448.5,354.8,448.4L354.8,448.4z"/>
	<path class="st5" d="M353.6,432.5c-1.6,0.4-3.1,1-4.6,1.7c-1.4,0.9-2.7,1.8-4,2.9C346.9,434,350.2,432.3,353.6,432.5L353.6,432.5z"
		/>
	<path class="st5" d="M350.2,417.9c-1.3,0.3-2.5,0.8-3.7,1.2c-1.1,0.7-2.2,1.4-3.2,2.2C344.6,418.9,347.3,417.6,350.2,417.9
		L350.2,417.9z"/>
	<path class="st5" d="M348.5,402.8c0,0.2-1.6,0.5-3.3,1.2c-1.8,0.8-3.1,1.7-3.2,1.6c0.8-1,1.8-1.7,3-2.1
		C346,402.9,347.2,402.7,348.5,402.8z"/>
	<path class="st5" d="M347.5,390.7c0,0.2-1.6,0.5-3.4,1.3c-1.8,0.8-3,1.9-3.1,1.7c0.7-1.1,1.7-1.9,2.9-2.3
		C345,390.8,346.2,390.5,347.5,390.7z"/>
	<path class="st5" d="M522.5,459.2c-0.1,0.1-1-1-2.5-1.6c-0.9-0.3-1.9-0.5-2.8-0.6c1-0.5,2.1-0.5,3.1,0
		C521.9,457.7,522.6,459.1,522.5,459.2z"/>
	<path class="st5" d="M527.1,446.8c-1.3-2.5-3.8-4.1-6.6-4.3c0-0.1,0.5-0.2,1.2-0.2c1,0.1,2.1,0.4,2.9,1c0.9,0.6,1.6,1.4,2.1,2.3
		C527.1,446.3,527.2,446.7,527.1,446.8z"/>
	<path class="st5" d="M530.5,433.1c-1.8-1.9-4.3-3-6.9-2.7c0-0.1,0.4-0.3,1.1-0.4c1-0.1,2,0,2.9,0.4c0.9,0.4,1.7,0.9,2.3,1.7
		C530.5,432.6,530.6,433.1,530.5,433.1z"/>
	<path class="st5" d="M534.6,420c-0.2,0.1-0.8-1.1-2.2-1.9c-0.9-0.4-1.8-0.6-2.8-0.8c0-0.1,0.3-0.2,0.9-0.3c1.5,0,3,0.7,3.8,2
		C534.6,419.6,534.7,419.9,534.6,420z"/>
	<path class="st5" d="M539.4,407.9c-0.7-0.9-1.5-1.6-2.5-2.1c-1-0.4-2.2-0.6-3.3-0.5c0-0.1,0.3-0.3,1-0.4c1.8-0.2,3.5,0.6,4.5,2.1
		C539.4,407.5,539.5,407.9,539.4,407.9z"/>
	<path class="st5" d="M461.4,390.7c-0.1,0.2-0.2,0.4-0.3,0.6l-0.9,1.6c-0.8,1.4-1.9,3.3-3.4,5.8c-1.4,2.4-3.2,5.3-5.2,8.4
		c-1,1.6-2.1,3.2-3.2,4.9c-1.1,1.8-2.4,3.4-3.7,5.1c-0.4,0.4-0.8,0.8-1.2,1.1c-0.2,0.1-0.4,0.1-0.5,0.1c-0.2,0-0.3-0.1-0.5-0.1
		c-0.2-0.1-0.5-0.3-0.7-0.5c-0.8-0.7-1.5-1.5-2.2-2.3c-1.2-1.6-2.5-3.2-3.5-4.7c-2.1-3.1-3.9-5.9-5.4-8.3s-2.7-4.3-3.5-5.7l-0.9-1.6
		c-0.1-0.2-0.2-0.4-0.3-0.6c0.1,0.2,0.3,0.3,0.4,0.5l1,1.5c0.9,1.4,2.1,3.3,3.6,5.6c1.5,2.3,3.4,5.1,5.5,8.1
		c1.1,1.5,2.2,3.1,3.5,4.6c0.6,0.8,1.3,1.5,2.1,2.2c0.4,0.3,0.8,0.6,1.1,0.4c0.4-0.3,0.8-0.6,1.1-1c1.3-1.6,2.6-3.2,3.7-5
		c1.1-1.7,2.2-3.3,3.2-4.9c2-3.1,3.8-5.9,5.3-8.3c1.5-2.4,2.6-4.2,3.5-5.6l1-1.5C461.2,390.8,461.3,390.7,461.4,390.7z"/>
	<path class="st5" d="M434.9,408.3c-0.1,0-0.2-0.4-0.2-1.1c0.1-0.9,0.5-1.8,1-2.6c0.6-0.7,1.4-1.3,2.2-1.6c0.7-0.2,1.1-0.2,1.1-0.1
		c-1.1,0.5-2.1,1.2-2.9,2.1C435.6,406,435.1,407.2,434.9,408.3z"/>
	<path class="st5" d="M443.1,418.1c-0.8-3.2-0.8-6.6-0.1-9.8c0.2,1.6,0.2,3.3,0.1,4.9C443.3,414.9,443.3,416.5,443.1,418.1z"/>
	<path class="st5" d="M452.3,405.7c-0.2,0-0.6-1.3-1.8-2.4c-0.8-0.6-1.7-1-2.7-1.4c0-0.1,0.4-0.2,1-0.1c0.8,0.1,1.5,0.5,2.1,1
		c0.6,0.5,1.1,1.2,1.3,1.9C452.4,405.3,452.4,405.6,452.3,405.7z"/>
	<path class="st5" d="M458.4,395.5c-0.4-0.9-0.9-1.8-1.5-2.6c-0.8-0.7-1.6-1.2-2.5-1.7c0-0.1,0.4-0.1,1,0c0.7,0.2,1.4,0.7,1.9,1.2
		c0.5,0.6,0.9,1.3,1.1,2C458.5,395.2,458.5,395.5,458.4,395.5z"/>
	<path class="st5" d="M428.8,399.1c-0.1,0-0.3-0.5-0.3-1.2c0-1.1,0.2-2.2,0.8-3.1c0.5-1,1.3-1.8,2.2-2.4c0.7-0.4,1.2-0.5,1.2-0.5
		C430.2,393.5,428.7,396.2,428.8,399.1L428.8,399.1z"/>
	<g class="st12">
		<path d="M411.3,359.1c2.7,10.2,7.1,26.8,11.9,39.8c0.2,0.6,0.5,1.2,0.9,1.7c1.2,1.2,3.3,0.4,4.5-0.8c1-1.3,1.9-2.6,2.6-4
			c0.8-1.4,2.2-2.4,3.8-2.6c1.3,0,2.6,0.7,3.4,1.7c0.8,1,1.5,2.1,2.1,3.3c0.3,0.7,0.8,1.2,1.5,1.4c0.5,0.1,1-0.1,1.1-0.6
			c0.1-0.2,0-0.5-0.1-0.7l-4.2-11c0,0-1.9-8.1-8.7-6.8c-7.5,1.4-4.1,13.8-4.1,13.8S411.2,358.6,411.3,359.1z"/>
	</g>
	<path class="st5" d="M443.2,398.8c-0.2-0.2-0.3-0.5-0.4-0.7c-0.2-0.5-0.5-1.2-0.9-2.1c-0.8-1.9-1.8-4.6-3.1-7.9
		c-0.3-0.8-0.7-1.7-1.1-2.6c-0.4-0.9-0.9-1.8-1.6-2.5c-1.5-1.6-3.7-2.4-5.9-2.2c-1.1,0.1-2.2,0.6-3.1,1.4c-0.8,0.9-1.4,2-1.7,3.2
		c-0.3,1.2-0.4,2.5-0.3,3.7c0.2,1.3,0.4,2.6,0.7,3.9c0.1,0.5,0.2,1,0.3,1.4l-0.6,0.2c-1.7-5-3.7-9.6-5.6-13.8
		c-1.8-4.2-3.5-8-4.8-11.2c-1.3-3.2-2.3-5.8-2.9-7.6c-0.3-0.9-0.5-1.6-0.6-2.1c-0.1-0.2-0.1-0.5-0.2-0.7c0.1,0.2,0.2,0.5,0.3,0.7
		c0.2,0.5,0.4,1.2,0.7,2.1c0.6,1.8,1.7,4.4,3,7.5s3.1,6.9,5,11.1c1.9,4.2,3.9,8.8,5.6,13.9l-0.6,0.2c-0.1-0.5-0.2-0.9-0.4-1.4
		c-0.3-1.3-0.6-2.7-0.7-4c-0.2-1.3-0.1-2.7,0.3-4c0.3-1.3,1-2.5,1.8-3.5c1-0.8,2.2-1.4,3.5-1.5c2.4-0.2,4.7,0.7,6.3,2.4
		c0.7,0.8,1.2,1.7,1.6,2.7c0.4,0.9,0.7,1.8,1.1,2.6c1.2,3.3,2.2,6,2.9,8c0.3,0.9,0.6,1.6,0.8,2.2
		C443.1,398.2,443.2,398.5,443.2,398.8z"/>
	<g class="st12">
		<path d="M443.8,398.5c-0.2,0.2-0.1,0.6,0.2,0.7c0.3,0,0.6-0.1,0.9-0.3c1.4-1.4,2.6-3,3.6-4.7c1.1-1.7,2.7-3.3,4.7-3.3
			s3.8,1.8,4.9,3.6c1,1.8,1.8,3.9,3.3,5.4c7.6-11.2,13.7-23.3,18-36.1c-2.5,1.7-4.1,4.4-5.7,7c-4,6.7-8.1,13.5-12.1,20.2
			c-0.8-2-1.9-3.8-3.4-5.4c-1.5-1.6-3.7-2.3-5.9-1.9c-2.3,0.6-4,2.7-5.1,4.8c-1.7,3.1-2.8,6.5-3.2,10"/>
	</g>
	<path class="st5" d="M602.3,497.9c-0.3-0.4-0.6-0.9-0.8-1.4c-0.5-0.9-1.2-2.2-1.9-3.8c-2-4.3-3.9-8.6-5.4-13.1
		c-1.6-4.5-3-9-4.1-13.6c-0.4-1.8-0.7-3.2-0.9-4.2c-0.1-0.5-0.2-1-0.2-1.6c0.2,0.5,0.4,1,0.5,1.5c0.3,1.1,0.7,2.5,1.1,4.1
		c1,3.5,2.4,8.3,4.3,13.5c1.9,5.2,3.8,9.8,5.3,13.1c0.7,1.6,1.2,2.9,1.8,3.9C602,496.9,602.2,497.4,602.3,497.9z"/>
	<path class="st5" d="M590.5,495.6c-0.2-0.4-0.4-0.9-0.5-1.4c-0.3-0.9-0.6-2.2-1-3.8c-2-8.4-2.7-17.2-2-25.8c0.1-1.7,0.3-3,0.4-3.9
		c0-0.5,0.1-1,0.3-1.4c0.1,0.5,0.1,1,0,1.4c-0.1,0.9-0.1,2.3-0.2,3.9c-0.4,8.6,0.3,17.3,2,25.7c0.3,1.6,0.6,2.9,0.9,3.8
		C590.4,494.6,590.5,495.1,590.5,495.6z"/>
	<path class="st5" d="M628.4,386.9c0.3,0.1,0.6,0.2,0.9,0.4l0.2,0.1l-0.2,0.1c-7.7,2.6-15.6,4.6-23.7,6.1c-6.9,1.2-13.3,2-17.9,2.4
		c-2.3,0.2-4.2,0.3-5.4,0.3c-0.7,0.1-1.3,0.1-2,0c0.7-0.1,1.3-0.2,2-0.2l5.4-0.5c4.6-0.5,10.9-1.2,17.8-2.6
		c11.5-2.1,21-4.9,23.8-5.6v0.1C629.1,387.3,628.7,387.1,628.4,386.9z"/>
	<path class="st5" d="M617.8,381.5c0,0,0.1-0.2,0.5-0.3c0.6-0.1,1.1,0,1.6,0.4c0.7,0.5,1.1,1.3,1,2.2c-0.1,0.5-0.4,1-0.9,1.2
		c-0.5,0.3-1,0.4-1.6,0.3c-0.5-0.1-1.1-0.3-1.5-0.7c-0.4-0.4-0.6-0.9-0.6-1.4c0.1-0.9,0.6-1.6,1.3-2c0.5-0.3,1.1-0.4,1.6-0.3
		c0.4,0.1,0.5,0.3,0.5,0.3c-0.7-0.1-1.3,0-1.9,0.3c-0.6,0.4-0.9,1-1,1.7c0.1,0.8,0.7,1.5,1.6,1.5c0.8,0.2,1.6-0.3,1.9-1
		c0.1-1.1-0.8-2.1-1.9-2.2c0,0-0.1,0-0.1,0C618,381.5,617.8,381.6,617.8,381.5z"/>
	<path class="st3" d="M433.3,407.8c-0.2,0.2-0.4,0.4-0.7,0.6c-0.5,0.3-1.1,0.9-2,1.6c-2.6,1.8-5.3,3.4-8.3,4.7
		c-4.3,1.9-8.9,3.2-13.6,3.8c-2.8,0.4-5.5,0.5-8.3,0.4c-3-0.1-6-0.5-8.9-1.1c-6-1.4-11.4-3.6-16.5-5c-2.4-0.7-4.8-1.2-7.3-1.4
		c-2.2-0.2-4.4-0.2-6.5,0.1c-3.1,0.3-6.1,1.4-8.8,3.1c-0.9,0.7-1.8,1.4-2.7,2.2c0.7-0.9,1.6-1.7,2.6-2.4c2.6-1.8,5.7-3,8.9-3.3
		c2.2-0.3,4.4-0.3,6.6-0.1c2.5,0.2,5,0.7,7.4,1.4c5.2,1.3,10.6,3.5,16.5,4.9c2.9,0.6,5.8,1,8.8,1.1c2.7,0.1,5.5-0.1,8.2-0.4
		c4.6-0.6,9.2-1.9,13.5-3.7c2.9-1.2,5.7-2.7,8.3-4.5c1-0.6,1.6-1.1,2.1-1.5C432.8,408.1,433,407.9,433.3,407.8z"/>
	<path class="st3" d="M512.2,458.9c-0.1,0-0.3-0.1-0.4-0.2l-1.1-0.6c-0.5-0.2-1.1-0.5-1.8-0.8c-0.7-0.3-1.6-0.6-2.5-0.9
		c-5.5-1.4-11.3-1.6-16.9-0.6c-3.9,0.6-7.7,1.5-11.5,2.6c-4.1,1.1-8.5,2.4-13.2,3.4c-4.9,1.1-10,1.4-15,0.9
		c-5.4-0.6-10.6-1.9-15.7-3.7c-5.3-1.8-10.3-3.7-15.2-5.4c-4.7-1.7-9.6-2.8-14.5-3.6c-8.4-1.1-16.9-0.6-25.1,1.4
		c-3.1,0.8-6.2,1.8-9.3,3c-1.3,0.6-2.5,1.1-3.6,1.6s-2.1,1-3,1.5l-2.3,1.3l-1.7,1l-1,0.6c-0.1,0.1-0.2,0.2-0.4,0.2l0.3-0.2l1-0.7
		c0.4-0.3,1-0.7,1.6-1.1l2.3-1.4c0.9-0.5,1.9-1,3-1.6c1.1-0.6,2.3-1.1,3.6-1.7c3-1.2,6.1-2.3,9.3-3.1c8.3-2.1,16.9-2.6,25.3-1.5
		c5,0.7,9.9,1.9,14.6,3.6c5,1.6,9.9,3.6,15.2,5.4c5,1.8,10.3,3.1,15.6,3.7c5,0.5,10,0.2,14.8-0.9c4.7-0.9,9-2.2,13.1-3.3
		c3.8-1.1,7.7-1.9,11.6-2.5c5.6-1,11.4-0.7,16.9,0.8c1,0.3,1.8,0.6,2.5,0.9s1.3,0.6,1.8,0.9l1,0.6
		C512.1,458.8,512.2,458.8,512.2,458.9z"/>
	<path class="st3" d="M449.6,406.9c1,0.3,2.1,0.5,3.2,0.7c2.9,0.3,5.9,0.1,8.8-0.7c4.2-1.3,8.3-2.8,12.3-4.6c2.4-1,4.9-1.7,7.5-2.2
		c2.8-0.5,5.6-0.7,8.4-0.5c5.4,0.4,10.7,1.6,15.8,3.7c4.1,1.7,8,3.8,11.7,6.1c3.2,2,5.7,3.7,7.4,4.9c0.8,0.6,1.5,1,2,1.4
		c0.2,0.1,0.5,0.3,0.7,0.5c-0.3-0.1-0.5-0.2-0.7-0.4l-2-1.2c-1.8-1.1-4.3-2.8-7.6-4.7c-3.8-2.3-7.7-4.3-11.7-5.9
		c-5-2.1-10.2-3.3-15.6-3.7c-2.8-0.2-5.5,0-8.3,0.5c-2.5,0.5-5,1.2-7.4,2.2c-4.6,1.8-8.7,3.7-12.4,4.5c-2.9,0.8-5.9,0.9-8.9,0.5
		C451.7,407.6,450.6,407.3,449.6,406.9z"/>
	<path class="st3" d="M522.2,375.7c-0.6,0.2-1.2,0.4-1.8,0.5c-0.6,0.2-1.2,0.3-2.1,0.5s-1.8,0.4-2.8,0.5c-2.5,0.4-5,0.7-7.4,0.8
		c-3,0.2-6,0.1-9.1-0.1c-3-0.3-6.1-0.7-9-1.4c-2.4-0.5-4.8-1.2-7.2-2c-1-0.3-1.9-0.7-2.7-1c-0.8-0.3-1.5-0.6-2-0.8
		c-0.6-0.2-1.1-0.5-1.7-0.8c0.6,0.2,1.2,0.4,1.7,0.6c0.6,0.2,1.2,0.5,2,0.7c0.8,0.3,1.7,0.6,2.7,0.9c2,0.6,4.4,1.3,7.2,1.9
		c5.9,1.3,12,1.8,18,1.5c2.8-0.1,5.3-0.4,7.4-0.7c1.1-0.1,2-0.3,2.8-0.4c0.8-0.1,1.5-0.3,2.1-0.4C521,375.9,521.6,375.8,522.2,375.7
		z"/>
	<path class="st3" d="M347.4,383.7c0.2-0.2,0.3-0.3,0.5-0.5c0.4-0.3,0.9-0.7,1.6-1.2c1.4-1.1,3.5-2.6,6.2-4.4
		c6.9-4.8,14.5-8.5,22.5-11.1c8-2.6,16.6-3.2,24.9-1.7c2.5,0.5,5,1.2,7.3,2.1c0.8,0.3,1.5,0.6,1.9,0.8c0.2,0.1,0.4,0.2,0.6,0.3
		c0,0-0.9-0.3-2.6-0.9c-2.4-0.8-4.8-1.5-7.3-1.9c-8.3-1.3-16.7-0.6-24.7,1.9c-7.9,2.6-15.4,6.2-22.3,10.9c-2.7,1.7-4.8,3.2-6.3,4.3
		l-1.7,1.2C347.9,383.5,347.6,383.6,347.4,383.7z"/>
	<path class="st3" d="M503.6,513.9c-0.1,0.1-0.2,0.1-0.3,0.1l-1,0.2c-0.6,0.1-1.1,0.2-1.7,0.3l-1.1,0.1h-1.2
		c-3.6,0.1-8.7-0.8-14.7-2.7c-3-0.9-6.3-2.1-9.9-3.2c-3.8-1.1-7.7-1.9-11.6-2.2c-8.3-0.8-17.5,0.2-27,1.9
		c-9.5,1.7-18.5,3.9-26.8,4.9c-7.4,1-14.9,1.1-22.3,0.1c-5-0.7-9.8-2.1-14.3-4.3l-2.1-1.1l-1.5-0.9l-0.9-0.6l-0.3-0.2
		c0.1,0,0.2,0.1,0.3,0.2l0.9,0.5l1.5,0.9l2.1,1c4.5,2.1,9.4,3.5,14.3,4.1c7.4,0.9,14.8,0.8,22.1-0.3c8.3-1,17.3-3.2,26.8-5
		c9.5-1.8,18.8-2.7,27.2-1.9c4,0.4,7.9,1.2,11.7,2.3c3.6,1.1,6.9,2.3,9.9,3.2c4.7,1.7,9.6,2.7,14.6,2.9h1.2l1.1-0.1
		c0.6,0,1.1-0.1,1.7-0.2l1-0.2L503.6,513.9z"/>
	<g class="st13">
		<path d="M394.2,522.4c5.6,14,16.5,24,31.5,26.1s30.1-1.4,44.7-5.3C443.9,539.4,420.4,535.8,394.2,522.4"/>
	</g>
	<path class="st3" d="M507.4,561l-0.4-0.1l-1.1-0.4l-4-1.8c-3.5-1.5-8.5-3.9-14.7-6.6c-3.4-1.5-6.9-2.7-10.5-3.6
		c-4.1-1-8.4-1.2-12.6-0.6c-2.3,0.3-4.5,0.8-6.7,1.5c-2.3,0.7-4.5,1.5-6.7,2.5c-4.5,2-8.9,4.4-13.5,6.9c-4.4,2.5-9.1,4.6-13.8,6.4
		c-4.4,1.7-9.1,2.7-13.9,2.8c-4.3,0.1-8.6-0.8-12.6-2.5c-3.4-1.5-6.7-3.2-9.9-5.1c-3-1.7-5.6-3.2-8.1-4.4c-2.1-1-4.2-1.9-6.4-2.6
		c-0.8-0.3-1.6-0.5-2.5-0.7c-0.6-0.2-1.2-0.3-1.8-0.3l-1.1-0.2c-0.1,0-0.3,0-0.4-0.1c0.1,0,0.3,0,0.4,0l1.1,0.1
		c0.6,0.1,1.2,0.2,1.8,0.3c0.8,0.1,1.7,0.3,2.5,0.6c2.2,0.7,4.4,1.5,6.5,2.5c2.5,1.2,5.2,2.7,8.1,4.3c3.2,1.9,6.5,3.5,9.9,5
		c3.9,1.6,8.2,2.4,12.4,2.4c4.7-0.2,9.3-1.1,13.7-2.8c4.7-1.8,9.3-4,13.7-6.4c4.6-2.5,9-4.9,13.6-6.9c2.2-1,4.5-1.8,6.8-2.6
		c2.2-0.7,4.5-1.2,6.8-1.5c4.3-0.6,8.6-0.4,12.8,0.6c3.6,0.9,7.2,2.2,10.6,3.7c6.2,2.8,11.2,5.2,14.7,6.8l4,1.9l1,0.5
		C507.3,560.9,507.4,561,507.4,561z"/>
</g>
</svg>
