<?xml version="1.0" encoding="utf-8"?>
<!-- Generator: Adobe Illustrator 23.0.2, SVG Export Plug-In . SVG Version: 6.00 Build 0)  -->
<svg version="1.1" id="katman_1" xmlns="http://www.w3.org/2000/svg" xmlns:xlink="http://www.w3.org/1999/xlink" x="0px" y="0px"
	 viewBox="0 0 500 500" style="enable-background:new 0 0 500 500;" xml:space="preserve">
<style type="text/css">
	.st0{fill:#339999;}
	.st1{opacity:0.7;fill:#FFFFFF;enable-background:new    ;}
	.st2{opacity:0.3;}
	.st3{fill:none;stroke:#000000;stroke-linecap:round;stroke-linejoin:round;stroke-miterlimit:10;}
	.st4{fill:none;stroke:#263238;stroke-width:3;stroke-linecap:round;stroke-linejoin:round;stroke-miterlimit:10;}
	.st5{fill:#FFFFFF;stroke:#263238;stroke-linecap:round;stroke-linejoin:round;stroke-miterlimit:10;}
	.st6{fill:none;stroke:#263238;stroke-linecap:round;stroke-linejoin:round;stroke-miterlimit:10;}
	.st7{fill:#263238;stroke:#263238;stroke-linecap:round;stroke-linejoin:round;stroke-miterlimit:10;}
	.st8{fill:#339999;stroke:#263238;stroke-linecap:round;stroke-linejoin:round;stroke-miterlimit:10;}
</style>
<g id="Background_Simple">
	<g>
		<path class="st0" d="M330.5,47.7c0,0-80.2-29.9-158.1,15.1c-77.8,45-116.3,135.8-149.3,208.5C-10,344,10.5,418.6,70.8,453.3
			s100.4-14.8,184.3-16.2c83.9-1.4,106.7,11.1,175.7-36.2c69.1-47.4,80.3-161.1,24.2-246.1C399,69.7,330.5,47.7,330.5,47.7z"/>
		<path class="st1" d="M330.5,47.7c0,0-80.2-29.9-158.1,15.1c-77.8,45-116.3,135.8-149.3,208.5C-10,344,10.5,418.6,70.8,453.3
			s100.4-14.8,184.3-16.2c83.9-1.4,106.7,11.1,175.7-36.2c69.1-47.4,80.3-161.1,24.2-246.1C399,69.7,330.5,47.7,330.5,47.7z"/>
	</g>
</g>
<g id="Graphics">
	<g class="st2">
		
			<rect x="392.7" y="287.7" transform="matrix(0.7071 -0.7071 0.7071 0.7071 -92.4088 371.5888)" class="st3" width="19.3" height="19.3"/>
		
			<rect x="98.2" y="46.3" transform="matrix(0.7071 -0.7071 0.7071 0.7071 -8.0167 92.6519)" class="st3" width="19.3" height="19.3"/>
		
			<rect x="77" y="329.5" transform="matrix(0.7071 -0.7071 0.7071 0.7071 -212.932 156.9741)" class="st3" width="11.9" height="11.9"/>
		
			<rect x="29.3" y="192.5" transform="matrix(0.7071 -0.7071 0.7071 0.7071 -130.0115 83.0954)" class="st3" width="11.9" height="11.9"/>
		
			<rect x="374.5" y="94.8" transform="matrix(0.7071 -0.7071 0.7071 0.7071 40.1966 298.5661)" class="st3" width="11.9" height="11.9"/>
		
			<rect x="93.5" y="340" transform="matrix(0.7071 -0.7071 0.7071 0.7071 -216.5442 174.1554)" class="st3" width="17" height="17"/>
		
			<rect x="335.4" y="326.1" transform="matrix(0.7071 -0.7071 0.7071 0.7071 -134.842 338.6774)" class="st3" width="11.9" height="11.9"/>
		
			<rect x="394.7" y="79.8" transform="matrix(0.7071 -0.7071 0.7071 0.7071 54.4468 313.9267)" class="st3" width="22.8" height="22.8"/>
		
			<rect x="227" y="459.1" transform="matrix(0.7071 -0.7071 0.7071 0.7071 -260.597 300.9671)" class="st3" width="11.9" height="11.9"/>
		<circle class="st3" cx="64.9" cy="189.6" r="12.3"/>
		<circle class="st3" cx="420.7" cy="227.8" r="11.6"/>
		<circle class="st3" cx="462.3" cy="148" r="6.8"/>
		<path class="st3" d="M326,58.7c0-2.3-1.8-4.1-4.1-4.1c-2.3,0-4.1,1.8-4.1,4.1s1.8,4.1,4.1,4.1S326,61,326,58.7z"/>
		<circle class="st3" cx="154.2" cy="291.9" r="4.1"/>
		<circle class="st3" cx="57.4" cy="401.6" r="6.1"/>
		<path class="st3" d="M428.9,391.4c0-3-2.4-5.5-5.5-5.5c-3,0-5.5,2.4-5.5,5.5c0,3,2.4,5.5,5.5,5.5S428.9,394.4,428.9,391.4z"/>
		<path class="st3" d="M385.3,39c0-3-2.4-5.5-5.5-5.5c-3,0-5.5,2.4-5.5,5.5c0,3,2.4,5.5,5.5,5.5C382.9,44.4,385.3,42,385.3,39z"/>
	</g>
</g>
<g id="Lines">
	<g>
		<line class="st4" x1="167.1" y1="248.3" x2="128.3" y2="269.4"/>
		<line class="st4" x1="93.5" y1="133" x2="135.1" y2="149.4"/>
		<line class="st4" x1="143.3" y1="40.3" x2="169.9" y2="83.3"/>
		<line class="st4" x1="233.9" y1="21.2" x2="232.6" y2="55.3"/>
		<line class="st4" x1="311.7" y1="102.4" x2="346.4" y2="67.6"/>
		<line class="st4" x1="360.1" y1="172.6" x2="390.1" y2="162.4"/>
		<line class="st4" x1="331.4" y1="248.9" x2="356.7" y2="263.3"/>
		<line class="st4" x1="134.4" y1="101.7" x2="154.9" y2="117.4"/>
		<line class="st4" x1="354.6" y1="131" x2="332.8" y2="141.2"/>
		<line class="st4" x1="141.9" y1="205.3" x2="118.7" y2="212.1"/>
		<line class="st4" x1="341" y1="214.2" x2="351.9" y2="216.9"/>
	</g>
</g>
<g id="Hand_2">
	<g>
		<path class="st5" d="M350.3,173.6c-3.9-2.7-18.4-0.3-27.6,7.1s-11.3,10.1-11.3,10.1s-4.1-29-4.1-29.9c0-0.9-5.9-55.4-7.1-63.4
			s-3-19.9-4.7-22.5c-1.8-2.7-8.9-3-11.3-1.8c-2.4,1.2-2.4,1.2-2.4,1.2s1.2-20.7-1.2-25.8c-2.4-5-9.8-2.1-11.9,0.6
			c-2.1,2.7-3.6,6.8-3.6,6.8s-6.8-2.4-10.7,5.3c-3.9,7.7-6.8,14.5-7.4,21.9s-3.9,16.9-3.9,16.9s-3.9-6.2-8-2.7
			c-4.1,3.6-8.9,17.5-10.1,27.6s-2.4,36.8-2.4,36.8s-2.4,12.2-3.6,21.9s-0.3,50.4,4.1,67.3s10.4,27.6,10.4,27.6s10.4,34.1,11.9,38.8
			c1.5,4.7,17.8,69.4,17.8,69.4l48.6-61.7c0,0-12.2-33.5-14.8-41.2c-2.7-7.7-4.4-10.1-4.4-10.1s14.8-21,22.8-27.3
			c8-6.2,12.2-27,14.2-36.2c2.1-9.2,10.7-21.9,15.4-26.1C350,180.1,354.2,176.2,350.3,173.6z M240.6,159.4c-0.9,0-0.6-11.6-0.6-25.5
			s2.4-20.2,2.4-20.2c-1.2,6.2,1.2,37.1,1.2,39.1C243.6,154.9,241.5,159.4,240.6,159.4z"/>
		<path class="st6" d="M285.5,278.8c3.7-1.9,4.4-3.9,4.4-3.9"/>
		<path class="st6" d="M256.4,272c0,0,16.3,10.7,24.3,8.6"/>
		<path class="st6" d="M311.5,190.8c0,0-6.2,9.8-7.7,13.3c-1.5,3.6-2.4,6.5-5,8c-2.7,1.5-6.2,3.6-6.2,3.6"/>
		<path class="st6" d="M293.6,193.7c-7.5,3.5-18.1,9.7-24.2,18.7"/>
		<path class="st6" d="M302.3,190.2c0,0-2.2,0.7-5.5,2.1"/>
		<path class="st6" d="M266.1,216.3c0,0-5.3,9.8-7.7,17.5"/>
		<path class="st6" d="M265.2,55.9c0,0-1.5,12.4-3.6,31.1s-3.3,27.9-3,39.7s3.6,22.2,3.3,23.7"/>
		<path class="st6" d="M281.8,74.3c0,0-0.9,7.7,0,17.8s-0.9,28.8-0.9,35.9c0,7.1,0.3,17.8,0.6,21c0.3,3.3,2.1,5.6,2.1,5.6"/>
		<path class="st6" d="M287.5,156.4c0,0,1.5,2.7,11.3,3"/>
		<path class="st6" d="M265,149.3c0,0,7.1,1.5,11.9,0.6"/>
		<path class="st6" d="M239.2,161.7c0,0,0,3-8.6,5.6"/>
		<path class="st6" d="M256.1,153.7c0.9-0.6,4.4-1.8,5.3-5.9"/>
		<path class="st6" d="M256.6,199.1c0,0,18.4-6.8,30.1-9.2"/>
		<path class="st7" d="M308.9,499.1h159.3c-11.1-14.7-51.7-68.2-54.4-70.9c-3.1-3.1-16.6-4.9-16.6-4.9l-39.9-33.2l-49.8-82.3
			l-47.3,65.7l-8-31.9L234.5,408c0,0,64.5,78.6,67,81.7C301.9,490.3,304.7,493.8,308.9,499.1z"/>
	</g>
</g>
<g id="Hand_1">
	<g>
		<path class="st5" d="M184.1,268.7c0,0-13.2-33.8-16.4-40s-20.4-33.2-21.3-40.6c-0.9-7.3-3.6-19.5-6.4-24.6
			c-2.8-5.1,5.5-8.4,12.3-2s11,17,10.9,20c-0.1,3,15.4,14.3,15.4,14.3l2.8-26c0,0,3-64.6,2.4-74.2s-1.2-30.1,6.4-30.9
			c7.6-0.8,8.8,5.3,8.8,5.3s0.3-15.3,8.8-14.3c6.5,0.8,9,6.9,9.9,9.8s2.1,6.6,2.1,6.6s5.4-3.6,10.6,5c3,5,9.4,20.6,10.4,24.6
			s1.3,5.4,1.3,5.4s7.2-0.2,10.3,7.3c3.2,7.6,7.7,27.3,12.1,43.7s4.2,31.9,4.2,31.9s1.7,52.6-1.8,69.3c-3.5,16.7-10.1,31-11.5,32.3
			c-1.4,1.4-20.9,59.1-20.9,59.1l-67.8-25.1c0,0,14.1-34.7,16.4-42.3C185.4,275.8,184.1,268.7,184.1,268.7z"/>
		<path class="st6" d="M169.9,219.4c0.1,3.3,0.9,5.3,0.9,5.3"/>
		<path class="st6" d="M176.6,198.7c0,0-3.8,4.5-5.8,12.4c-0.4,1.6-0.6,3.1-0.8,4.5"/>
		<path class="st6" d="M199.1,70c0,0,1.2,20.9,2,31.3c0.8,10.4,1.2,26.4,1.2,36.9c0.1,10.5-1.2,23.7-1.9,26.6
			c-0.7,2.9-2.3,6.5-2.3,6.5"/>
		<path class="st6" d="M219.9,72.1c0,0-3.3,3.9-2.2,8.9c1.1,5,6.3,33.1,6.3,37.1c0,4.1,0.3,39.3,0.4,41.7c0.1,2.4-1.6,10.4-2.4,13.6
			"/>
		<path class="st6" d="M242.2,107.2c0,0-3.8,0.4-3,6.4s2.8,25.4,2.8,30.8s1.3,17.9,1,29.7c-0.2,11.8,2.5,15.9,3.7,18.9"/>
		<path class="st6" d="M183.2,185.8c0,0-1.4,6.8,0.5,10.3s4.4,10.9,4.4,15"/>
		<path class="st6" d="M196.9,182.5c0,0-0.7,5.6,0.1,9.2c0.8,3.6,3.3,7.3,3.3,7.3"/>
		<path class="st6" d="M219.8,191.3c0,0-0.8,5.9,0.6,9.6c1.4,3.7,3.1,6.5,3.1,6.5"/>
		<g>
			<path class="st8" d="M189,499.1l63.1-142.3c0,0-26.9-22.2-44.6-33.9s-38.9-11.3-38.9-11.3s-27.7,59-29.2,62.8
				c-1.5,3.8-20.8,43.8-20.8,43.8s-8.5,3-12.3,9.8c-3,5.3-24.2,51.4-33.3,71.1L189,499.1L189,499.1z"/>
			<ellipse class="st7" cx="230.7" cy="361.1" rx="5.9" ry="5.9"/>
			<path class="st7" d="M227.5,384.5c-0.8,3.1-4,5.1-7.1,4.3s-5.1-4-4.3-7.1c0.8-3.1,4-5.1,7.1-4.3
				C226.4,378.2,228.3,381.4,227.5,384.5z"/>
		</g>
	</g>
</g>
</svg>
