<?xml version="1.0" encoding="utf-8"?>
<!-- Generator: Adobe Illustrator 23.0.2, SVG Export Plug-In . SVG Version: 6.00 Build 0)  -->
<svg version="1.1" id="katman_1" xmlns="http://www.w3.org/2000/svg" xmlns:xlink="http://www.w3.org/1999/xlink" x="0px" y="0px"
	 viewBox="0 0 500 500" style="enable-background:new 0 0 500 500;" xml:space="preserve">
<style type="text/css">
	.st0{fill:#F0F0F0;}
	.st1{fill:#E0E0E0;}
	.st2{fill:#E6E6E6;}
	.st3{fill:#FFFFFF;}
	.st4{fill:#FAFAFA;}
	.st5{fill:#F5F5F5;}
	.st6{display:none;}
	.st7{display:inline;}
	.st8{fill:#407BFF;}
	.st9{opacity:0.9;fill:#FFFFFF;enable-background:new    ;}
	.st10{fill:#339999;}
	.st11{fill:#CE7A63;}
	.st12{fill:#263238;}
	.st13{opacity:0.2;enable-background:new    ;}
	.st14{fill:#BA4D3C;}
	.st15{fill:#FFC3BD;}
	.st16{opacity:0.2;fill:#FFFFFF;enable-background:new    ;}
	.st17{opacity:0.2;}
	.st18{fill:#ED847E;}
	.st19{fill:#FF8B7B;}
	.st20{display:none;fill:#407BFF;}
	.st21{fill:#FF5652;}
	.st22{fill:none;}
</style>
<g id="Background_complete">
	<g>
		<g>
			<g>
				<g>
					<g>
						<path class="st0" d="M472.5,360.9H265.9c-3.7,0-6.7-3-6.7-6.7v-301c0-3.7,3-6.7,6.7-6.7h206.6c3.7,0,6.7,3,6.7,6.7v301
							C479.2,357.9,476.2,360.9,472.5,360.9z M265.9,46.7c-3.5,0-6.4,2.9-6.4,6.4v301c0,3.5,2.9,6.4,6.4,6.4h206.6
							c3.5,0,6.4-2.9,6.4-6.4v-301c0-3.5-2.9-6.4-6.4-6.4H265.9z"/>
					</g>
				</g>
				<g>
					<g>
						<path class="st0" d="M234.2,360.9H27.6c-3.7,0-6.7-3-6.7-6.7v-301c0-3.7,3-6.7,6.7-6.7h206.6c3.7,0,6.7,3,6.7,6.7v301
							C240.9,357.9,237.9,360.9,234.2,360.9z M27.6,46.7c-3.5,0-6.4,2.9-6.4,6.4v301c0,3.5,2.9,6.4,6.4,6.4h206.6
							c3.5,0,6.4-2.9,6.4-6.4v-301c0-3.5-2.9-6.4-6.4-6.4H27.6z"/>
					</g>
				</g>
			</g>
			<g>
				<g>
					<rect x="-35" y="430.7" class="st1" width="571.7" height="0.3"/>
				</g>
			</g>
		</g>
		<g>
			<g>
				<g>
					<g>
						<g>
							<g>
								<g>
									<path class="st1" d="M501.9,294.9H284.6l0,0c0,3.7,3,6.7,6.7,6.7h203.9C498.9,301.5,501.9,298.6,501.9,294.9L501.9,294.9z"
										/>
								</g>
							</g>
						</g>
					</g>
					<g>
						<g>
							<g>
								<g>
									<rect x="329.3" y="357.9" class="st1" width="129.9" height="6.2"/>
								</g>
							</g>
						</g>
					</g>
					<g>
						<g>
							<g>
								<g>
									<g>
										<polygon class="st2" points="454.6,430.8 472.3,301.5 466.1,301.5 448.4,430.8 										"/>
									</g>
								</g>
							</g>
						</g>
					</g>
					<g>
						<g>
							<g>
								<g>
									<g>
										<polygon class="st2" points="469.2,430.8 451.2,301.5 457.4,301.5 475.4,430.8 										"/>
									</g>
								</g>
							</g>
						</g>
					</g>
					<g>
						<g>
							<g>
								<g>
									<g>
										<polygon class="st2" points="319.3,430.8 337.8,301.5 331.6,301.5 313.1,430.8 										"/>
									</g>
								</g>
							</g>
						</g>
					</g>
					<g>
						<g>
							<g>
								<g>
									<g>
										<polygon class="st2" points="333.9,430.8 316.2,301.5 322.4,301.5 340.1,430.8 										"/>
									</g>
								</g>
							</g>
						</g>
					</g>
					<g>
						<g>
							<g>
								<g>
									<g>
										<g>
											<rect x="277.4" y="284.2" class="st2" width="231.8" height="10.7"/>
										</g>
									</g>
								</g>
							</g>
						</g>
					</g>
				</g>
				<g>
					<g>
						<g>
							<g>
								<g>
									<path class="st1" d="M360.9,284.2h100.6l1.1-2.5c0.7-1.6-1.1-3.1-3.6-3.1h-92.8c-1.7,0-3.1,0.7-3.6,1.8L360.9,284.2z"/>
								</g>
							</g>
							<g>
								<g>
									<g>
										<g>
											<g>
												<path class="st0" d="M489.1,214.2l-12.9,54.5c-0.3,1.5-1.6,2.5-3.1,2.5h-79.3c-2.1,0-3.6-1.9-3.1-4l12.9-54.5
													c0.3-1.5,1.6-2.5,3.1-2.5h79.3C488,210.3,489.5,212.2,489.1,214.2z"/>
											</g>
										</g>
									</g>
								</g>
							</g>
							<g>
								<g>
									<g>
										<g>
											<g>
												<g>
													<path class="st1" d="M450.5,242.8c-0.4,3.4-3.5,6.2-6.9,6.2s-5.9-2.8-5.5-6.2c0.4-3.4,3.5-6.2,6.9-6.2
														C448.4,236.6,450.9,239.4,450.5,242.8z"/>
												</g>
											</g>
										</g>
									</g>
								</g>
							</g>
							<g>
								<g>
									<g>
										<g>
											<g>
												<g>
													<path class="st1" d="M409.8,210.3L396,271.1h-2.3c-2.1,0-3.6-1.9-3.1-4l12.9-54.5c0.3-1.5,1.6-2.5,3.1-2.5H409.8z"/>
												</g>
											</g>
										</g>
									</g>
								</g>
							</g>
							<g>
								<g>
									<g>
										<polygon class="st1" points="432.7,271.1 430,284.1 438,284.1 440.7,271.1 										"/>
									</g>
								</g>
							</g>
							<g>
								<g>
									<g>
										<path class="st1" d="M418.4,281.9l1.6-2.3c0.6-0.8,1.5-1.3,2.5-1.3h21.8c1.2,0,2.2,0.6,2.7,1.7l1.1,2.1
											c0.5,1-0.2,2.2-1.3,2.2h-27.3C418.4,284.2,417.7,282.9,418.4,281.9z"/>
									</g>
								</g>
							</g>
						</g>
					</g>
				</g>
			</g>
		</g>
		<g>
			<g>
				<polygon class="st0" points="386,108.9 385.4,107.9 423.7,83.8 461,108.4 460.3,109.5 423.7,85.2 				"/>
			</g>
			<g>
				<rect x="384.7" y="108" class="st1" width="77.1" height="48.2"/>
				<rect x="386.9" y="110.1" class="st3" width="72.8" height="44"/>
				<g>
					<g>
						<rect x="392.6" y="123.9" class="st0" width="4.7" height="4.7"/>
						<rect x="399.7" y="123.9" class="st0" width="4.7" height="4.7"/>
						<rect x="406.9" y="123.9" class="st0" width="4.7" height="4.7"/>
						<rect x="414.1" y="123.9" class="st0" width="4.7" height="4.7"/>
						<rect x="421.3" y="123.9" class="st0" width="4.7" height="4.7"/>
						<rect x="428.4" y="123.9" class="st0" width="4.7" height="4.7"/>
						<rect x="435.6" y="123.9" class="st0" width="4.7" height="4.7"/>
						<rect x="442.8" y="123.9" class="st0" width="4.7" height="4.7"/>
						<rect x="450" y="123.9" class="st0" width="4.7" height="4.7"/>
					</g>
					<g>
						<rect x="392.6" y="130.3" class="st0" width="4.7" height="4.7"/>
						<rect x="399.7" y="130.3" class="st0" width="4.7" height="4.7"/>
						<rect x="406.9" y="130.3" class="st0" width="4.7" height="4.7"/>
						<rect x="414.1" y="130.3" class="st0" width="4.7" height="4.7"/>
						<rect x="421.3" y="130.3" class="st0" width="4.7" height="4.7"/>
						<rect x="428.4" y="130.3" class="st0" width="4.7" height="4.7"/>
						<rect x="435.6" y="130.3" class="st0" width="4.7" height="4.7"/>
						<rect x="442.8" y="130.3" class="st0" width="4.7" height="4.7"/>
						<rect x="450" y="130.3" class="st0" width="4.7" height="4.7"/>
					</g>
					<g>
						<rect x="392.6" y="136.7" class="st0" width="4.7" height="4.7"/>
						<rect x="399.7" y="136.7" class="st0" width="4.7" height="4.7"/>
						<rect x="406.9" y="136.7" class="st0" width="4.7" height="4.7"/>
						<rect x="414.1" y="136.7" class="st0" width="4.7" height="4.7"/>
						<rect x="421.3" y="136.7" class="st0" width="4.7" height="4.7"/>
						<rect x="428.4" y="136.7" class="st0" width="4.7" height="4.7"/>
						<rect x="435.6" y="136.7" class="st0" width="4.7" height="4.7"/>
						<rect x="442.8" y="136.7" class="st0" width="4.7" height="4.7"/>
						<rect x="450" y="136.7" class="st0" width="4.7" height="4.7"/>
					</g>
					<g>
						<rect x="392.6" y="143.6" class="st0" width="4.7" height="4.7"/>
						<rect x="399.7" y="143.6" class="st0" width="4.7" height="4.7"/>
						<rect x="406.9" y="143.6" class="st0" width="4.7" height="4.7"/>
						<rect x="414.1" y="143.6" class="st0" width="4.7" height="4.7"/>
					</g>
				</g>
				<rect x="402.9" y="114.4" class="st1" width="41.4" height="4"/>
			</g>
			<path class="st1" d="M426.1,84.2c0,1.3-1,2.3-2.3,2.3c-1.3,0-2.3-1-2.3-2.3s1-2.3,2.3-2.3C425.1,81.9,426.1,82.9,426.1,84.2z"/>
		</g>
		<g>
			<rect x="276" y="60.5" class="st0" width="80.4" height="195.3"/>
			<rect x="280.9" y="65.4" class="st4" width="70.6" height="185.5"/>
			<polygon class="st3" points="351.5,73.3 351.5,87.3 280.9,157.9 280.9,143.9 			"/>
			<polygon class="st3" points="351.5,121.8 351.5,141.5 280.9,212.1 280.9,192.4 			"/>
			<rect x="313.7" y="60.5" class="st0" width="4.9" height="195.3"/>
		</g>
		<g>
			<rect x="134.7" y="60.5" class="st0" width="80.4" height="195.3"/>
			<rect x="139.6" y="65.4" class="st4" width="70.6" height="185.5"/>
			<polygon class="st3" points="210.2,73.3 210.2,87.3 139.6,157.9 139.6,143.9 			"/>
			<polygon class="st3" points="210.2,121.8 210.2,141.5 139.6,212.1 139.6,192.4 			"/>
			<rect x="172.4" y="60.5" class="st0" width="4.9" height="195.3"/>
		</g>
		<g>
			<g>
				<g>
					<g>
						<g>
							<g>
								<g>
									<g>
										<g>
											<g>
												<g>
													<path class="st0" d="M159.7,404.6c0,0-9.7,2.2-8.3-4.6c1.4-6.8,1.3-9.3-2.6-12.4c-3.9-3.1-7.9-4.6-4.9-9.5
														c3-4.9-2.7-8.7-5.7-11.3c-3-2.6,0.4-4.6,1.2-9.6c0.8-5-4.6-4.2-5-10.5c-0.4-6.3,5.9-13.6,0.5-22.2
														c0,0,7.3,3.8,9.7,10.5s0.5,11.8,4.8,14.4c4.3,2.5,7,6.9,5.6,11.4c-1.5,4.5,0.6,6.9,4.2,10.2c3.6,3.3,2.6,4.6,2.2,8.6
														c-0.4,4,0.4,3.1,4.5,8.6C170,393.8,170.1,402.8,159.7,404.6z"/>
												</g>
											</g>
										</g>
									</g>
								</g>
							</g>
							<g>
								<g>
									<path class="st1" d="M161.1,404.3c0,0,0-0.1,0-0.1l-19.4-59c-0.1-0.3,0.1-0.5,0.3-0.6c0,0,0,0,0,0c0.3-0.1,0.5,0.1,0.6,0.3
										l19.4,59c0,0,0,0.1,0,0.1L161.1,404.3z"/>
								</g>
							</g>
						</g>
						<g>
							<g>
								<g>
									<g>
										<path class="st0" d="M177.3,404.5c0,0,9.7,2.1,8.2-4.6c-1.4-6.7-1.3-9.2,2.6-12.3c3.9-3.1,7.9-4.6,4.9-9.4
											c-3-4.9,2.7-8.6,5.6-11.2c2.9-2.6-0.4-4.6-1.2-9.5c-0.8-4.9,4.5-4.2,4.9-10.4c0.4-6.2-5.9-13.5-0.5-22.1
											c0,0-7.3,3.8-9.7,10.4c-2.4,6.6-0.5,11.8-4.8,14.3c-4.3,2.5-7,6.9-5.5,11.4c1.5,4.5-0.6,6.9-4.2,10.1
											c-3.5,3.3-2.6,4.6-2.2,8.6c0.4,4-0.4,3.1-4.5,8.5C167.1,393.7,167,402.7,177.3,404.5z"/>
									</g>
								</g>
							</g>
							<g>
								<g>
									<g>
										<g>
											<g>
												<path class="st1" d="M175,403.9c0,0,0-0.1,0-0.1l19.3-58.7c0.1-0.3,0.3-0.4,0.6-0.3c0,0,0,0,0,0
													c0.3,0.1,0.4,0.4,0.3,0.6l-19.3,58.7c0,0,0,0.1,0,0.1L175,403.9z"/>
											</g>
										</g>
									</g>
								</g>
							</g>
						</g>
						<g>
							<g>
								<g>
									<path class="st5" d="M166.5,403.2c0,0-11.1-0.9-7.3-7.7c3.8-6.8,4.5-9.5,1.3-14.1c-3.2-4.6-7-7.6-2.1-11.8
										c4.9-4.2,0-10.2-2.3-14c-2.3-3.8,1.9-4.8,4.4-9.9c2.5-5.1-3.5-6-1.8-12.9c1.6-6.8,10.9-12.6,7.9-23.6c0,0,6.6,6.5,7,14.5
										c0.4,8-3.4,12.8,0.4,17c3.8,4.2,5.2,9.8,2.2,14.1c-3.1,4.3-1.6,7.6,1.1,12.3s1.3,5.8-0.5,9.9c-1.8,4.2-0.5,3.4,2,10.7
										C181.1,395.1,178.2,404.8,166.5,403.2z"/>
								</g>
							</g>
							<g>
								<g>
									<g>
										<g>
											<g>
												<path class="st1" d="M168.1,403.4c0,0,0-0.1,0-0.1l-1.2-69.7c0-0.3,0.2-0.5,0.5-0.6c0,0,0,0,0,0c0.3,0,0.5,0.2,0.5,0.5
													l1.2,69.7c0,0.1,0,0.1,0,0.2L168.1,403.4z"/>
											</g>
										</g>
									</g>
								</g>
							</g>
						</g>
						<g>
							<g>
								<path class="st2" d="M196.8,397.9h-54.4c-1.6,0-2.6,1.6-2.1,3l0.8,2.1l0.5,1.4l1.5,3.9l0.5,1.4l1.5,4l0.5,1.4l6,15.9h36
									l6-15.9l0.5-1.4l1.5-4l0.5-1.4l1.5-3.9l0.5-1.4l0.8-2.1C199.5,399.4,198.4,397.9,196.8,397.9z"/>
							</g>
						</g>
					</g>
				</g>
			</g>
		</g>
		<g>
			<g>
				<g>
					<g>
						<circle class="st1" cx="66.9" cy="88.9" r="19.6"/>
					</g>
				</g>
			</g>
			<g>
				<g>
					<g>
						<ellipse class="st4" cx="66.9" cy="88.9" rx="18.1" ry="18.1"/>
					</g>
				</g>
			</g>
			<g>
				<g>
					<g>
						<g>
							<rect x="66.2" y="72.4" class="st1" width="0.7" height="3.8"/>
						</g>
					</g>
				</g>
				<g>
					<g>
						<g>
							<rect x="66.2" y="101.4" class="st1" width="0.7" height="3.8"/>
						</g>
					</g>
				</g>
			</g>
			<g>
				<g>
					<g>
						<g>
							<rect x="50.2" y="88.5" class="st1" width="3.8" height="0.7"/>
						</g>
					</g>
				</g>
				<g>
					<g>
						<g>
							<rect x="79.2" y="88.5" class="st1" width="3.8" height="0.7"/>
						</g>
					</g>
				</g>
			</g>
			<g>
				<g>
					<g>
						<g>
							
								<rect x="74.9" y="78.2" transform="matrix(0.707 -0.7072 0.7072 0.707 -33.0564 77.3439)" class="st1" width="3.8" height="0.7"/>
						</g>
					</g>
				</g>
				<g>
					<g>
						<g>
							
								<rect x="54.4" y="98.7" transform="matrix(0.707 -0.7072 0.7072 0.707 -53.5545 68.8552)" class="st1" width="3.8" height="0.7"/>
						</g>
					</g>
				</g>
			</g>
			<g>
				<g>
					<g>
						<g>
							
								<rect x="56" y="76.7" transform="matrix(0.7071 -0.7071 0.7071 0.7071 -39.0611 62.838)" class="st1" width="0.7" height="3.8"/>
						</g>
					</g>
				</g>
				<g>
					<g>
						<g>
							
								<rect x="76.5" y="97.2" transform="matrix(0.707 -0.7072 0.7072 0.707 -47.5495 83.3484)" class="st1" width="0.7" height="3.8"/>
						</g>
					</g>
				</g>
			</g>
			<g>
				<g>
					<g>
						
							<rect x="69.2" y="86.5" transform="matrix(0.3664 -0.9305 0.9305 0.3664 -39.5857 121.664)" class="st1" width="0.6" height="6.9"/>
					</g>
				</g>
			</g>
			<g>
				<g>
					<g>
						<polygon class="st1" points="66.9,89.1 56.3,89.1 56.3,88.5 66.3,88.5 66.3,80.3 66.9,80.3 						"/>
					</g>
				</g>
			</g>
		</g>
	</g>
</g>
<g id="Background_simple" class="st6">
	<g class="st7">
		<path class="st8" d="M70.2,208.3c-4.7-23.3-1.8-47.7,9.3-68.8c10.3-19.6,29-39.7,63-44.1c77.9-10,81.3,113.1,170.7,58.9
			c89.4-54.2,164.7,51.4,104.4,114.4c-60.3,63-192,76.8-258,48.1C97.5,289.7,76.9,241.4,70.2,208.3z"/>
		<path class="st9" d="M70.2,208.3c-4.7-23.3-1.8-47.7,9.3-68.8c10.3-19.6,29-39.7,63-44.1c77.9-10,81.3,113.1,170.7,58.9
			c89.4-54.2,164.7,51.4,104.4,114.4c-60.3,63-192,76.8-258,48.1C97.5,289.7,76.9,241.4,70.2,208.3z"/>
	</g>
</g>
<g id="Shadow">
	<g>
		<g>
			<path class="st5" d="M498.8,482.8c0,3-111.1,5.5-248,5.5s-248-2.5-248-5.5c0-3,111.1-5.5,248-5.5S498.8,479.7,498.8,482.8z"/>
		</g>
	</g>
</g>
<g id="Symbol">
	<g>
		
			<ellipse transform="matrix(0.7071 -0.7071 0.7071 0.7071 2.0291 159.3109)" class="st10" cx="193.3" cy="77.2" rx="18.3" ry="18.3"/>
		<path class="st3" d="M202.5,77.2L202.5,77.2c0,0.9-0.7,1.5-1.5,1.5h-6.1v6.1c0,0.8-0.7,1.5-1.5,1.5c-0.9,0-1.5-0.7-1.5-1.5v-6.1
			h-6.1c-0.8,0-1.5-0.7-1.5-1.5v0c0-0.8,0.7-1.5,1.5-1.5h6.1v-6.1c0-0.8,0.7-1.5,1.5-1.5c0.8,0,1.5,0.7,1.5,1.5v6.1h6.1
			C201.8,75.7,202.5,76.4,202.5,77.2z"/>
		<path class="st10" d="M193.3,100.2c-0.3,0-0.5-0.2-0.5-0.5v-1.1c0-0.3,0.2-0.5,0.5-0.5c0.3,0,0.5,0.2,0.5,0.5v1.1
			C193.9,99.9,193.6,100.2,193.3,100.2z M193.9,125.8v-2.2c0-0.3-0.2-0.5-0.5-0.5c-0.3,0-0.5,0.2-0.5,0.5v2.2c0,0.3,0.2,0.5,0.5,0.5
			S193.9,126.1,193.9,125.8z M193.9,119.3v-2.2c0-0.3-0.2-0.5-0.5-0.5c-0.3,0-0.5,0.2-0.5,0.5v2.2c0,0.3,0.2,0.5,0.5,0.5
			S193.9,119.6,193.9,119.3z M193.9,112.7v-2.2c0-0.3-0.2-0.5-0.5-0.5c-0.3,0-0.5,0.2-0.5,0.5v2.2c0,0.3,0.2,0.5,0.5,0.5
			S193.9,113,193.9,112.7z M193.9,106.2V104c0-0.3-0.2-0.5-0.5-0.5c-0.3,0-0.5,0.2-0.5,0.5v2.2c0,0.3,0.2,0.5,0.5,0.5
			S193.9,106.5,193.9,106.2z M195,131.3c0-0.3-0.2-0.5-0.5-0.5h-0.5v-0.5c0-0.3-0.2-0.5-0.5-0.5c-0.3,0-0.5,0.2-0.5,0.5v1.1
			c0,0.3,0.2,0.5,0.5,0.5h1.1C194.7,131.8,195,131.6,195,131.3z M219.8,131.3c0-0.3-0.2-0.5-0.5-0.5h-2.1c-0.3,0-0.5,0.2-0.5,0.5
			c0,0.3,0.2,0.5,0.5,0.5h2.1C219.6,131.8,219.8,131.6,219.8,131.3z M213.6,131.3c0-0.3-0.2-0.5-0.5-0.5H211c-0.3,0-0.5,0.2-0.5,0.5
			c0,0.3,0.2,0.5,0.5,0.5h2.1C213.3,131.8,213.6,131.6,213.6,131.3z M207.4,131.3c0-0.3-0.2-0.5-0.5-0.5h-2.1
			c-0.3,0-0.5,0.2-0.5,0.5c0,0.3,0.2,0.5,0.5,0.5h2.1C207.1,131.8,207.4,131.6,207.4,131.3z M201.2,131.3c0-0.3-0.2-0.5-0.5-0.5
			h-2.1c-0.3,0-0.5,0.2-0.5,0.5c0,0.3,0.2,0.5,0.5,0.5h2.1C200.9,131.8,201.2,131.6,201.2,131.3z M225,131.3c0-0.3-0.2-0.5-0.5-0.5
			h-1.1c-0.3,0-0.5,0.2-0.5,0.5c0,0.3,0.2,0.5,0.5,0.5h1.1C224.8,131.8,225,131.6,225,131.3z"/>
	</g>
</g>
<g id="Character_3">
	<g>
		<g>
			<g>
				<g>
					<g>
						<polygon class="st11" points="431,455.6 432.1,474 424.3,474.6 419.1,456.5 						"/>
					</g>
				</g>
			</g>
			<g>
				<g>
					<g>
						<path class="st12" d="M426.1,472.8c0,0-1.2-1.5-2.7-1c-1.5,0.5-3.5,3-3.5,3s-8.3,2.6-10.5,2.8c-2.2,0.1-3.7,1.6-3.9,5.7h28.1
							c0,0,0-9.7-1-11.4c-0.8-1.5-2.5,0.4-2.5,0.4L426.1,472.8z"/>
					</g>
				</g>
			</g>
			<g>
				<g>
					<g>
						<g>
							<path class="st3" d="M406.2,482c1.6,0,3.3,0,4.9-0.1c7.1-0.1,14.2-0.1,21.3-0.2c0.3,0,0.3-0.4,0-0.4c-0.5,0-1,0-1.4,0
								c0,0,0,0,0,0c-1-2.3,0.2-4.6,2.2-5.7c0.2-0.1,0-0.5-0.2-0.4c-2.2,1.2-3.4,3.7-2.4,6.1l-3,0c-7.1,0.1-14.2,0.1-21.3,0.2
								C405.9,481.6,405.9,482,406.2,482z"/>
						</g>
					</g>
				</g>
			</g>
			<g>
				<g>
					<g>
						<g>
							<path class="st3" d="M420.9,476.5c-0.9-1.3-2.5-1.7-3.9-0.7c-0.2,0.2-0.4-0.2-0.2-0.4c1.5-1.1,3.4-0.6,4.4,0.8
								C421.4,476.5,421,476.7,420.9,476.5L420.9,476.5z"/>
						</g>
					</g>
				</g>
			</g>
			<g>
				<g>
					<g>
						<g>
							<path class="st3" d="M418.5,477.2c-0.9-1.3-2.5-1.7-3.9-0.7c-0.2,0.2-0.4-0.2-0.2-0.4c1.5-1.1,3.4-0.6,4.4,0.8
								C419,477.2,418.7,477.4,418.5,477.2L418.5,477.2z"/>
						</g>
					</g>
				</g>
			</g>
			<g>
				<g>
					<g>
						<g>
							<path class="st3" d="M416.1,477.9c-0.9-1.3-2.5-1.7-3.9-0.7c-0.2,0.2-0.4-0.2-0.2-0.4c1.5-1.1,3.4-0.6,4.4,0.8
								C416.6,477.9,416.3,478.1,416.1,477.9L416.1,477.9z"/>
						</g>
					</g>
				</g>
			</g>
		</g>
		<g>
			<g>
				<g>
					<g>
						<polygon class="st11" points="370.9,455.4 369.8,474 361.9,474.6 358.9,456.3 						"/>
					</g>
				</g>
			</g>
			<g>
				<g>
					<g>
						<path class="st12" d="M363.8,472.8c0,0-1.2-1.5-2.7-1c-1.5,0.5-3.5,3-3.5,3s-8.3,2.6-10.5,2.8s-4.2,1.4-5,5.7h27
							c0,0,1.1-9.8,1.2-11.4c0.2-1.7-2.5,0.4-2.5,0.4L363.8,472.8z"/>
					</g>
				</g>
			</g>
			<g>
				<g>
					<g>
						<g>
							<path class="st3" d="M342.8,482c1.6,0,3.3,0,4.9-0.1c7.1-0.1,14.2-0.1,21.3-0.2c0.3,0,0.3-0.4,0-0.4c-0.5,0-1,0-1.4,0
								c0,0,0,0,0,0c-1-2.3,0.2-4.6,2.2-5.7c0.2-0.1,0-0.5-0.2-0.4c-2.2,1.2-3.4,3.7-2.4,6.1l-3,0c-7.1,0.1-14.2,0.1-21.3,0.2
								C342.5,481.6,342.5,482,342.8,482z"/>
						</g>
					</g>
				</g>
			</g>
			<g>
				<g>
					<g>
						<g>
							<path class="st3" d="M358.5,476.5c-0.9-1.3-2.5-1.7-3.9-0.7c-0.2,0.2-0.4-0.2-0.2-0.4c1.5-1.1,3.4-0.6,4.4,0.8
								C359,476.5,358.6,476.7,358.5,476.5L358.5,476.5z"/>
						</g>
					</g>
				</g>
			</g>
			<g>
				<g>
					<g>
						<g>
							<path class="st3" d="M356.2,477.2c-0.9-1.3-2.5-1.7-3.9-0.7c-0.2,0.2-0.4-0.2-0.2-0.4c1.5-1.1,3.4-0.6,4.4,0.8
								C356.7,477.2,356.3,477.4,356.2,477.2L356.2,477.2z"/>
						</g>
					</g>
				</g>
			</g>
			<g>
				<g>
					<g>
						<g>
							<path class="st3" d="M353.7,477.9c-0.9-1.3-2.5-1.7-3.9-0.7c-0.2,0.2-0.4-0.2-0.2-0.4c1.5-1.1,3.4-0.6,4.4,0.8
								C354.3,477.9,353.9,478.1,353.7,477.9L353.7,477.9z"/>
						</g>
					</g>
				</g>
			</g>
		</g>
		<path class="st12" d="M352.5,262c0,0-4.6,62-4.3,89.3c0.3,28.3,9.6,110.8,9.6,110.8h15.1c0,0,2.8-81,4.1-108.8
			c1.5-30.3,10.5-96.2,10.5-96.2L352.5,262z"/>
		<path class="st13" d="M379.9,319.5c1.2-11.1,2.5-22.6,3.8-32.7l-1.8-10.6C381.9,276.2,376,292.7,379.9,319.5z"/>
		<path class="st10" d="M374,457.5c0,1.6-0.1,4.9-0.1,4.9h-17.4l-0.5-4.9H374z"/>
		<path class="st12" d="M378.3,257c0,0,4.6,68.3,9.5,93.9c5.4,28,30,111.1,30,111.1h16.4c0,0-10.5-80.7-13.3-108.4
			c-3-30.1-4.4-90.9-4.4-90.9L378.3,257z"/>
		<path class="st10" d="M434.9,457.4c0.2,1.7,0.4,5,0.4,5h-19.2l-1.2-5H434.9z"/>
		<path class="st10" d="M419.3,268.6c-32.7,2.2-57.3,2.4-70.3-2.5c-0.9-57.6,1.1-93.4,3.8-102.2c0.7-2.4,2.3-4.3,4.5-5.4
			c2.3-1.2,5.7-2.5,10.3-3.2c6.8-1,18.2-1.3,26-1.3c4.3,0,8.7,0.3,12.4,0.7c4.5,0.5,7.5,4.5,7.3,9.1c-0.4,8.8-0.4,17.6-0.2,26.3
			c0.1,5,0.3,9.9,0.6,14.8C415.3,235.7,419.3,261.9,419.3,268.6z"/>
		<path class="st13" d="M413.7,204.8l-14-30.9l13.5,16.1C413.3,195.1,413.5,200,413.7,204.8z"/>
		<path class="st12" d="M372.4,109.1c-1.7-1.9-7.5-2-10.3,1.6c-2.9,3.9-6.7,11-9.1,9.1c0,0,1,3.5,5,3.8c0,0-2.4,2.6-5.5,1.7
			c0,0,1.4,4.9,7.2,5.7c5.3,0.8,12.7-14.5,13.9-17C373.6,111.3,373.4,111.4,372.4,109.1z"/>
		<path class="st12" d="M375.7,109.8c4.7-0.5,9.5,0.8,13.1,3.9c2.4,2,4.2,4.7,3.4,7.9c-1.9,7.5-6.9,19.5-6.9,19.5l-22.6-17.4
			c0,0-0.1-7.2,3.5-10.8C368.1,111,372.2,110.2,375.7,109.8z"/>
		<path class="st12" d="M371.5,109.4c0,0,7.8-5.5,18.1,2.1c10.3,7.7,0,21.6,0,21.6s-3.3,6.2-0.4,7.7c0,0-1.8,0.7-3.2,0.6
			c0,0,1,1.9,2.3,1.7c0,0-1.8,0.7-5-0.7C380.1,141,371.5,109.4,371.5,109.4z"/>
		<path class="st11" d="M372,147.8L372,147.8c0,0,0,0.1,0,0.1l0.6,4.5c0,0.9-0.1,1.8-0.3,2.6c-0.1,0.7-0.3,1.4-0.6,2.1
			c-1.1,1.2-1.9,4.1,1.5,4.6c4.3,0.6,13-4.8,13.5-6.6c-1.3-6.1-2.1-13.2-1.1-18.8l-5.6,4.7L372,147.8z"/>
		<path class="st13" d="M372,147.9l0.6,4.5c2.8-0.9,6-3.2,7-6c0.7-2,0-4.1-0.8-4.3L372,147.9z"/>
		<path class="st11" d="M362.3,137.4c0.1,1,0.3,2,0.5,2.9c1.7,8.5,11.7,10.5,18.7,5.2c0,0,0,0,0,0c0.6-0.5,1.2-1,1.8-1.6
			c4.6-4.7,4.1-8.9,4.6-18.1c0.5-9.2-8.5-16.1-17.4-12.4C362.4,116.8,360.9,127.6,362.3,137.4z"/>
		<path class="st12" d="M373.3,129.9c0,0.7-0.4,1.3-0.9,1.4c-0.5,0-0.9-0.6-0.9-1.3c0-0.7,0.4-1.3,0.9-1.4S373.3,129.2,373.3,129.9"
			/>
		<path class="st12" d="M365.2,130c0,0.7-0.4,1.3-0.9,1.4s-0.9-0.6-0.9-1.3c0-0.7,0.4-1.3,0.9-1.4
			C364.8,128.7,365.2,129.3,365.2,130"/>
		<path class="st12" d="M370.4,140c-0.2,0-0.2,0-0.3,0c-0.2,0-0.3-0.2-0.2-0.3c0-0.2,0.2-0.2,0.3-0.2c0.1,0,3.8,0.8,4.8-3.4
			c0-0.2,0.2-0.2,0.3-0.2c0.2,0,0.2,0.2,0.2,0.3C374.6,140.2,371.3,140.1,370.4,140z"/>
		<path class="st12" d="M387.9,126.8c0,0-2.3,1.7-2.8,4c-0.1,0.7-0.6,0.8-0.6,0.8l-3.3,0.3c0,0,2-8.9-0.3-9.1
			c-2.4-0.2,0.7-3.9-0.7-4.7c-3.2-1.8-12.3-3-16.5,2c0,0,1.6-5.3,6.3-7.7c4.7-2.4,13.5-1.9,16.5,2.8
			C389.5,120,387.9,126.8,387.9,126.8z"/>
		<path class="st11" d="M391.9,132c-0.7,2.4-2.4,4.3-4.2,5.2c-2.7,1.5-4.7-0.8-4.6-3.7c0.2-2.6,1.8-6.5,4.7-6.8
			C390.8,126.5,392.6,129.3,391.9,132"/>
		<path class="st12" d="M363,126.9c0.1,0,0.3-0.1,0.3-0.2c0.3-0.5,0.7-0.9,1.1-1c0.7-0.2,1.5,0.2,1.5,0.2c0.2,0.1,0.4,0,0.5-0.1
			c0.1-0.2,0-0.4-0.1-0.5c0,0-1-0.6-2-0.3c-0.7,0.2-1.2,0.6-1.6,1.3c-0.1,0.2,0,0.4,0.1,0.5C362.9,126.9,362.9,126.9,363,126.9z"/>
		<path class="st12" d="M377,126.6c0.1,0,0.1,0,0.2,0c0.2-0.1,0.2-0.3,0.1-0.5c0,0-0.6-1-1.6-1.3c-0.7-0.2-1.3,0-2,0.4
			c-0.2,0.1-0.2,0.3-0.1,0.5c0.1,0.2,0.3,0.2,0.5,0.1c0.5-0.3,1-0.4,1.5-0.3c0.8,0.2,1.2,0.9,1.2,0.9
			C376.7,126.6,376.9,126.6,377,126.6z"/>
		<path class="st14" d="M368.8,129.3c0,0-0.5,2.4-2.4,4c-1.9,1.6,1.8,3,1.8,3L368.8,129.3z"/>
		<path class="st3" d="M384.8,128.5c-4.7-0.5-7.6,1.2-8.3,1.7c-0.2-2-1.5-3.6-3.2-3.6c-1.7,0-3.1,1.8-3.2,4c-1.7-1-2.8-0.4-3.3-0.1
			c-0.1-2.2-1.5-3.9-3.2-3.9c-1.8,0-3.2,1.9-3.2,4.2c0,2.3,1.4,4.2,3.2,4.2c1.8,0,3.2-1.8,3.2-4.1c0.2-0.2,1.3-1.2,3.3,0
			c0,2.3,1.5,4.1,3.2,4.1c1.8,0,3.2-1.9,3.2-4.2c0-0.1,0-0.2,0-0.3c0.3-0.2,3.2-2.2,8.2-1.7c0.1,0,0.1,0,0.2-0.1
			C384.9,128.6,384.8,128.5,384.8,128.5z M363.6,134.7c-1.6,0-2.9-1.8-2.9-3.9s1.3-3.9,2.9-3.9c1.6,0,2.9,1.8,2.9,3.9
			C366.6,132.9,365.3,134.7,363.6,134.7z M373.3,134.7c-1.6,0-2.9-1.8-2.9-3.9s1.3-3.9,2.9-3.9c1.6,0,2.9,1.8,2.9,3.9
			C376.2,132.9,374.9,134.7,373.3,134.7z"/>
		<path class="st10" d="M352.2,166.2l-9.8,23.5c-1.6,3.9-3.3,7.8-5,11.5c-0.8,1.9-1.7,3.8-2.6,5.5s-1.8,3.6-2.6,5
			c-0.3,0.5-0.6,0.9-0.8,1.2l0,0l-1.3,0.6l-1.4,0.6l-2.9,1.2l-11.8,5c-7.9,3.3-15.8,6.8-23.6,10.4l2.8,8.6c8.5-1.6,17-3.5,25.4-5.7
			c4.2-1.1,8.4-2.2,12.6-3.5l3.2-1l1.6-0.5l1.7-0.6l0.7-0.2l0.3-0.1l1.2-0.5c0.2-0.1,0.4-0.2,0.6-0.3c0.3-0.1,0.5-0.3,0.7-0.4
			c0.2-0.1,0.5-0.3,0.6-0.4c0.7-0.5,1.2-1,1.6-1.4c0.5-0.5,0.9-1,1.3-1.5c0.7-0.8,1.2-1.6,1.7-2.3c0.9-1.3,1.6-2.5,2.3-3.6
			c0.5-0.9,1-1.7,1.5-2.5c1.1-2,2.2-4,3.2-6c2-4,3.9-7.9,5.7-11.9c3.6-8,7-15.9,10.1-24.2L352.2,166.2z M331.9,212.7L331.9,212.7
			l-0.1,0.1L331.9,212.7c0,0,0.1-0.1,0.1-0.1C332,212.6,331.9,212.7,331.9,212.7z"/>
		<path class="st13" d="M351.3,180.6c-0.9,6.8-2.6,36.8-2.6,36.8s0,0,0,0.1c-0.7,1.2-1.5,2.4-2.3,3.6c-0.5,0.7-1,1.4-1.7,2.3
			C345.3,209,351.3,180.6,351.3,180.6z"/>
		<path class="st11" d="M293.9,236.8c-0.5-2.9-1.3-4.9-1.3-4.9s-2.4-2.5-5.2-2.6c-2.9-0.1-5.1-0.9-7.3-0.8c-2.1,0.1,0.1,1.9,1.5,2.6
			c1.4,0.7,3,1.5,2.3,2.5c-0.7,1-10,5.2-10.9,6.6c-0.8,1.4,0.9,1.2,0.9,1.2s-2.1,1-2.1,2.1c0,1.1,1.5,0.9,1.5,0.9s-1.4,0.7-0.8,1.6
			c0.3,0.5,2.7,0.1,4.9-0.4c-0.5,0.2-0.8,0.5-0.8,0.8c-0.2,1.4,2.9,0.9,5.3,0.6c2.5-0.3,5-1.4,6.7-3.3
			C290.5,241.9,294.3,239.7,293.9,236.8z M281.5,244.8c0.1,0,0.2,0,0.2,0C281.7,244.8,281.6,244.8,281.5,244.8z"/>
		<path class="st14" d="M273.8,244.5c2.4-1.1,4.8-2.1,7.3-3c0.3,0.6,0.6,1.2,0.9,1.8c0.2,0.3,0.5-0.1,0.4-0.4
			c-1.1-1.8-1.7-3.8-1.9-6c0-0.4-0.5-0.2-0.5,0.1c0.1,0.5,0.1,1.1,0.2,1.6c0,0-0.1,0-0.1,0c-2,0.6-3.9,1.4-5.7,2.4
			c-0.3,0.2-0.1,0.7,0.2,0.5c1.8-1,3.6-1.8,5.5-2.4c0.1,0,0.1-0.1,0.2-0.1c0.1,0.7,0.3,1.3,0.6,2c-2.4,0.9-4.9,1.9-7.3,3
			C273.3,244.1,273.5,244.6,273.8,244.5z"/>
		<path class="st14" d="M283,238.9c1.9-2.5,4.6-3.4,7.2-2.5c0.3,0.1,0.5-0.4,0.2-0.5c-2.8-1-5.8,0-7.8,2.7
			C282.4,238.9,282.8,239.2,283,238.9z"/>
		<path class="st10" d="M411.8,158.1c5.6,7.3,10.9,14.7,16.2,22.2c2.6,3.7,5.2,7.5,7.8,11.3c2.6,3.8,5.1,7.6,7.7,11.6l0.5,0.8l0.6,1
			l0.3,0.5l0.1,0.1l0.3,0.5l0.3,0.6c0.1,0.2,0.2,0.4,0.2,0.5c0.2,0.5,0.4,1.1,0.4,1.4l0.1,0.6l0.1,0.4c0.2,1.1,0.2,1.9,0.2,2.7
			c0,0.8,0,1.5,0,2.1c-0.1,2.7-0.3,5-0.5,7.4c-0.5,4.7-1.1,9.3-1.8,13.9c-1.4,9.2-3.2,18.2-5.3,27.2l-9.6-1.1
			c0-9.1,0.1-18.3,0.2-27.3c0.1-4.5,0.1-9,0-13.4c0-2.2-0.1-4.4-0.3-6.3c0-0.5-0.1-0.9-0.2-1.3c-0.1-0.4-0.1-0.7-0.2-0.7
			c0,0,0,0,0,0l0,0.1c0,0,0.1,0.3,0.2,0.6l0.1,0.3c0.1,0.1,0.1,0.3,0.2,0.4l0.2,0.3l0-0.1l-0.2-0.2l-0.8-1.1
			c-2.6-3.5-5.4-7.1-8.2-10.7c-2.8-3.6-5.5-7.2-8.3-10.9c-5.5-7.3-10.9-14.6-16.2-22.1L411.8,158.1z"/>
		<path class="st11" d="M438.8,262.4c-2.1-5.4-6.8-4-8.1-2.7c0,0-3.5,3.5-4.2,5.5c-0.7,2-1.7,4-1.4,4.9c0.2,0.4,0.8,0,1.4-0.6
			c-0.4,1.1-0.6,1.9-0.6,2.3c0,0,0.5,5.6,2.7,7.3c2.2,1.7,1.8-3.3,1.8-3.3s0.3,4.9,5.5,3.4c2-0.6,4.2-6.5,4.6-9.9
			C441.3,266.6,438.8,262.4,438.8,262.4z"/>
		<path class="st10" d="M372.8,153.3c0,0-4.5-0.5-6.8,2.2c-1,3.3,1.1,7.3,3.4,11.3l4.9-5.1C374.6,161.8,372,157.4,372.8,153.3z"/>
		<path class="st13" d="M372.8,153.3c0,0-4.5-0.5-6.8,2.2c-1,3.3,1.1,7.3,3.4,11.3l4.9-5.1C374.6,161.8,372,157.4,372.8,153.3z"/>
		<path class="st10" d="M386,150.9c-2.1,4.9-6.6,8.1-11.7,10.8l2.8,5.1l17.2-12.9C394.2,154,389.3,149.6,386,150.9z"/>
		<path class="st13" d="M386,150.9c-2.1,4.9-6.6,8.1-11.7,10.8l2.8,5.1l17.2-12.9C394.2,154,389.3,149.6,386,150.9z"/>
		<path class="st13" d="M374.3,169.1c0,0.5-0.4,0.9-0.9,0.9s-0.9-0.4-0.9-0.9c0-0.5,0.4-0.9,0.9-0.9S374.3,168.6,374.3,169.1z"/>
		<path class="st13" d="M374.3,174.8c0,0.5-0.4,0.9-0.9,0.9s-0.9-0.4-0.9-0.9c0-0.5,0.4-0.9,0.9-0.9S374.3,174.3,374.3,174.8z"/>
		<path class="st13" d="M374.3,180.6c0,0.5-0.4,0.9-0.9,0.9s-0.9-0.4-0.9-0.9c0-0.5,0.4-0.9,0.9-0.9S374.3,180.1,374.3,180.6z"/>
	</g>
</g>
<g id="Character_2">
	<g>
		<g>
			<polygon class="st15" points="264.8,462.5 267.2,474.4 273.5,474.4 274.3,462.5 			"/>
			<path class="st12" d="M272.6,472.9c0,0,1.2-1.5,2.7-1c1.5,0.5,3.5,3,3.5,3s8.2,2.6,10.4,2.8c2.2,0.1,4.1,1.4,5,5.7h-26.8
				c0,0-1.1-9.7-1.2-11.3c-0.2-1.7,2.5,0.4,2.5,0.4L272.6,472.9z"/>
			<path class="st8" d="M293.4,482c-1.6,0-3.2,0-4.8,0c-7-0.1-14.1-0.1-21.1-0.2c-0.3,0-0.3-0.4,0-0.4c0.5,0,1,0,1.4,0
				c0,0,0,0,0-0.1c1-2.2-0.2-4.5-2.2-5.7c-0.2-0.1,0-0.5,0.2-0.4c2.2,1.2,3.4,3.7,2.4,6.1c1,0,2,0,3,0c7,0.1,14.1,0.1,21.1,0.2
				C293.7,481.6,293.7,482,293.4,482z"/>
			<path class="st3" d="M277.9,476.5c0.9-1.3,2.5-1.7,3.8-0.7c0.2,0.2,0.4-0.2,0.2-0.4c-1.5-1.1-3.3-0.6-4.4,0.8
				C277.4,476.6,277.7,476.8,277.9,476.5L277.9,476.5z"/>
			<path class="st3" d="M280.2,477.2c0.9-1.3,2.5-1.7,3.8-0.7c0.2,0.2,0.4-0.2,0.2-0.4c-1.5-1.1-3.3-0.6-4.4,0.8
				C279.7,477.3,280,477.5,280.2,477.2L280.2,477.2z"/>
			<path class="st3" d="M282.6,477.9c0.9-1.3,2.5-1.7,3.8-0.7c0.2,0.2,0.4-0.2,0.2-0.4c-1.5-1.1-3.3-0.6-4.4,0.8
				C282,477.9,282.4,478.2,282.6,477.9L282.6,477.9z"/>
		</g>
		<g>
			<polygon class="st15" points="208.7,462.6 210,474.4 216.3,474.4 218.2,462.6 			"/>
			<path class="st12" d="M215.5,472.9c0,0,1.2-1.5,2.7-1c1.5,0.5,3.5,3,3.5,3s8.2,2.6,10.4,2.8c2.2,0.1,4.1,1.4,5,5.7h-26.8
				c0,0-1.1-9.7-1.2-11.3c-0.2-1.7,2.5,0.4,2.5,0.4L215.5,472.9z"/>
			<path class="st8" d="M236.2,482c-1.6,0-3.2,0-4.8,0c-7-0.1-14.1-0.1-21.1-0.2c-0.3,0-0.3-0.4,0-0.4c0.5,0,1,0,1.4,0
				c0,0,0,0,0-0.1c1-2.2-0.2-4.5-2.2-5.7c-0.2-0.1,0-0.5,0.2-0.4c2.2,1.2,3.4,3.7,2.4,6.1c1,0,2,0,3,0c7,0.1,14.1,0.1,21.1,0.2
				C236.5,481.6,236.5,482,236.2,482z"/>
			<path class="st3" d="M220.7,476.5c0.9-1.3,2.5-1.7,3.8-0.7c0.2,0.2,0.4-0.2,0.2-0.4c-1.5-1.1-3.3-0.6-4.4,0.8
				C220.2,476.6,220.6,476.8,220.7,476.5L220.7,476.5z"/>
			<path class="st3" d="M223,477.2c0.9-1.3,2.5-1.7,3.8-0.7c0.2,0.2,0.4-0.2,0.2-0.4c-1.5-1.1-3.3-0.6-4.4,0.8
				C222.5,477.3,222.9,477.5,223,477.2L223,477.2z"/>
			<path class="st3" d="M225.4,477.9c0.9-1.3,2.5-1.7,3.8-0.7c0.2,0.2,0.4-0.2,0.2-0.4c-1.5-1.1-3.3-0.6-4.4,0.8
				C224.9,477.9,225.3,478.2,225.4,477.9L225.4,477.9z"/>
		</g>
		<path class="st10" d="M262.8,462.9h13.8c1.2-17.8,4.6-76.9,1.9-106.1c1.9-40.5-4.3-94.4-4.3-94.4h-43.8c0,0,3.2,36,17.6,93.8
			C247.9,402,259.1,447.8,262.8,462.9z"/>
		<path class="st16" d="M262.8,462.9h13.8c1.2-17.8,4.6-76.9,1.9-106.1c1.9-40.5-4.3-94.4-4.3-94.4h-43.8c0,0,3.2,36,17.6,93.8
			C247.9,402,259.1,447.8,262.8,462.9z"/>
		<path class="st13" d="M245.7,346.5c7.9-32.4,1-74.4,1-74.4l-6.8,48L245.7,346.5z"/>
		<polygon class="st12" points="261.1,462.6 262.1,467.8 278,467.8 278,462.5 		"/>
		<path class="st10" d="M206.8,463.4h13.8c4.9-18.3,14.8-77.3,16.4-106.5c7.8-40.5,11.6-94.5,11.6-94.5h-43.8c0,0-4.1,36.4,1.9,94.2
			C205.5,407,206.4,447.8,206.8,463.4z"/>
		<path class="st16" d="M206.8,463.4h13.8c4.9-18.3,14.8-77.3,16.4-106.5c7.8-40.5,11.6-94.5,11.6-94.5h-43.8c0,0-4.1,36.4,1.9,94.2
			C205.5,407,206.4,447.8,206.8,463.4z"/>
		<polygon class="st12" points="205.6,462.6 205.5,467.8 221.5,467.8 222.4,462.6 		"/>
		<path class="st12" d="M280,269.1c-30.4,11.7-80,3.2-80,3.2c0.3-8.3,0.6-21.2,0.8-35.3c0-3.8,0.1-7.6,0.1-11.5c0-7.4,0-14.9,0-22
			c0-0.6,0-1.1,0-1.7c0-3.5-0.1-6.8-0.2-10c0-0.4,0-0.8,0-1.2c-0.1-6.3-0.4-11.8-0.7-16.2c-0.6-8.3,4-16.1,12.2-17.5
			c2.5-0.4,5.2-0.8,8-1.1c0.7-0.1,1.3-0.1,2-0.2c7.8-0.8,16.4-1.1,24.2-0.9c0.4,0,0.8,0,1.2,0c0.2,0,0.4,0,0.6,0c0.3,0,0.7,0,1,0
			c3.5,0.1,6.8,0.4,9.8,0.8c6.7,0.9,12.7,6.2,12.8,13c0.1,6.2,0.7,19.4,1.6,34.2c0.3,5.6,0.7,11.5,1.1,17.3
			C276.2,242.9,278.3,265.1,280,269.1z"/>
		<path class="st13" d="M217.8,180.6c0,0-0.7,32.3,1.5,36.2s43.7,15.8,43.7,15.8c-20.8-2.8-40.9-6-51.5-13.9L217.8,180.6z"/>
		<path class="st13" d="M264.4,242c-24.2,5.7-52.5-1.6-63.6-5.1c0-3.8,0.1-7.6,0.1-11.5C218,238.1,264.4,242,264.4,242z"/>
		<polygon class="st10" points="243.9,174.5 239.8,219.7 247.9,236.1 254.3,218.2 247.7,174.5 		"/>
		<polygon class="st10" points="244.8,164.8 240.4,171.3 245.6,177.3 250.8,169.6 		"/>
		<path class="st12" d="M253.8,110.6c-4.8-1.7-10-1.5-14.5,0.9c-2.9,1.5-5.5,3.9-5.4,7.3c0.1,8.2,2.4,21.8,2.4,21.8l27.5-12.4
			c0,0,2-6.8-1.2-11.2C260.2,113.7,257.3,111.8,253.8,110.6z"/>
		<path class="st12" d="M243.5,109.9c0,0-3.7-2.1-7.5,1.8c-3.1,3.2-1.8,13.7-1.8,13.7L243.5,109.9z"/>
		<path class="st12" d="M240.7,110.8c0,0,1.1-6.2,12.4-4.4c11.4,1.9,20.4,11.2,16.2,16.1c-4,4.7-16.2-3.1-16.2-3.1L240.7,110.8z"/>
		<g>
			<path class="st15" d="M248.3,150.7L248.3,150.7c0,0,0,0.1,0,0.1l-1.7,4.5c-0.2,0.9-0.3,1.9-0.3,2.8c0,0.8,0,1.5,0.1,2.3
				c0.9,1.5,1,4.7-2.6,4.4c-4.6-0.5-12.4-7.7-12.4-9.7c2.8-6,5.5-13.6,5.8-19.6l4.6,6.2L248.3,150.7z"/>
		</g>
		<path class="st12" d="M244.8,164.8c1.1-2.4,1.1-5.3,1.5-7.9c0,0,0.2-1.9,0.8-2.9c0,0,3.1-0.7,5,0.9c0.7,5,0.1,10-1.3,14.9
			L244.8,164.8z"/>
		<path class="st12" d="M227.5,155.2c0,0,2.5-4.9,6-5.5c0.4,5.9,2.8,10.6,11.4,15.1l-5.1,7.5C232.8,166.5,228.8,160.8,227.5,155.2z"
			/>
		<g class="st17">
			<path d="M248.3,150.8l-1.7,4.5c-2.7-1.6-5.4-4.8-5.8-7.9c-0.2-2.3,1-4.2,1.9-4.2L248.3,150.8z"/>
		</g>
		<g>
			<path class="st15" d="M260.9,142.3c-0.4,1-0.8,1.9-1.2,2.9c-3.8,8.3-14.6,8-20.6,0.9c0,0,0,0,0,0c-0.5-0.6-1-1.3-1.5-2.1
				c-3.6-6-2.1-10.2-0.4-19.8c1.7-9.6,12.7-14.5,21-8.6C265.8,121,264.7,132.5,260.9,142.3z"/>
		</g>
		<path class="st12" d="M242.8,127.9c0,0,0,8,3.1,9.2c3.1,1.1,5.5-1.5,8.9,1.8c0,0,2.3-1.2,4.4,0.4c2.1,1.6,1.7,2.5,1.7,2.5
			s-0.8,12-11.8,10.6c-11-1.4-12.3-12.2-11.5-17.9l2.2-7.1L242.8,127.9z"/>
		<path class="st3" d="M249.9,139.1c0,0,2.9,1,6.8,2c0,0-1.4,3.2-4.9,1.7C249.7,141.9,249.9,139.1,249.9,139.1z"/>
		<path class="st12" d="M259.1,114.7c-4.3-3.6-13.5-5.2-17.7-1.1c-4.2,4.2-4.3,11.5-4.3,11.5s-0.1,1.3,0.7,2.2
			c0.1,0.1,0.2,0.2,0.3,0.4l4.8,0.8c0.4-2,1.2-5.6,2.5-5.7c2.5-0.4,0.8-3.1,1.3-4.7c1.8-5,15.5-1.6,17.1,6.1
			C263.7,124.2,263.3,118.3,259.1,114.7z"/>
		<g>
			<path class="st15" d="M231.7,129.6c0.1,2.6,1.4,5,3,6.4c2.4,2.2,5.1,0.3,5.6-2.7c0.5-2.7-0.2-7.2-3.2-8.2
				C234.1,124.1,231.5,126.6,231.7,129.6"/>
		</g>
		<g>
			<path class="st12" d="M251.3,130.1c-0.2,0.7,0.1,1.4,0.6,1.5c0.5,0.1,1-0.4,1.2-1.1c0.2-0.7-0.1-1.4-0.6-1.5
				C252.1,128.9,251.5,129.4,251.3,130.1"/>
		</g>
		<g>
			<path class="st12" d="M259.1,132c-0.2,0.7,0.1,1.4,0.6,1.5c0.5,0.1,1-0.4,1.2-1.1c0.2-0.7-0.1-1.4-0.6-1.5
				C259.8,130.7,259.3,131.2,259.1,132"/>
		</g>
		<g>
			<path class="st12" d="M262.5,129.7c-0.1,0-0.2-0.1-0.3-0.3c-0.2-0.6-0.5-1.1-0.9-1.3c-0.7-0.4-1.6-0.1-1.6-0.1
				c-0.2,0.1-0.4,0-0.5-0.3c-0.1-0.2,0.1-0.4,0.3-0.5c0,0,1.2-0.4,2.2,0.2c0.6,0.3,1.1,0.9,1.3,1.8c0.1,0.2-0.1,0.4-0.3,0.5
				C262.6,129.8,262.6,129.8,262.5,129.7z"/>
		</g>
		<g>
			<path class="st12" d="M249.7,126.7c-0.1,0-0.1,0-0.2-0.1c-0.2-0.1-0.2-0.4-0.1-0.6c0,0,0.9-1,2.1-1.1c0.8-0.1,1.5,0.2,2.2,0.8
				c0.2,0.2,0.2,0.4,0,0.6c-0.2,0.2-0.4,0.2-0.6,0c-0.5-0.5-1.1-0.7-1.6-0.6c-0.9,0.1-1.5,0.8-1.5,0.8
				C250.1,126.7,249.9,126.7,249.7,126.7z"/>
		</g>
		<g>
			<path class="st18" d="M256.5,130.3c0,0,0.4,3.4,1.4,5.8c1,2.4-3.1,1.5-3.1,1.5L256.5,130.3z"/>
		</g>
		<path class="st15" d="M287.3,239.9c-1.5-2.7-7.1-5.1-7.1-5.1c-0.7-0.3-2.6-0.2-4.6-0.1l0.2,0c0,0,3.7-2.1,2.7-2.6
			c-0.9-0.5-3.2,0.3-5.4,0.8c-2.2,0.5-4.7,2.5-4.7,2.5c-1.6,1-2.6,4.1-1.4,8.1c0,0,4.7,4.4,8,5.1c3.3,0.8,10,1.2,11.5-0.8
			c3.1-4.3-2.6-7.3-2.6-7.3S288.8,242.6,287.3,239.9z"/>
		<path class="st12" d="M266.6,233.5l-1.3,9c-9.5-0.5-18.9-1.4-28.3-2.6c-4.7-0.6-9.4-1.4-14.2-2.3c-2.4-0.4-4.8-1-7.2-1.6
			c-2.4-0.6-4.9-1.3-7.7-2.3c-0.7-0.3-1.4-0.6-2.2-1c-0.8-0.4-1.6-0.9-2.8-1.7c-0.6-0.4-1.2-1-1.9-1.9c-0.4-0.4-0.8-1-1.2-1.7
			c-0.2-0.4-0.4-0.8-0.6-1.3c-0.1-0.3-0.2-0.5-0.2-0.8l-0.1-0.3c-0.3-1.4-0.4-2.2-0.5-3c-0.3-3-0.4-5.4-0.4-7.9
			c0-4.9,0-9.6,0.2-14.4c0.3-9.5,1-18.9,2-28.3l18.2,1.6c-0.3,4.6-0.7,9.2-1,13.9l-1.1,13.8c-0.3,4.6-0.7,9.2-0.9,13.7
			c-0.1,1.6-0.1,3.2-0.2,4.6c1.4,0.7,3.1,1.3,4.8,1.9c2.1,0.7,4.2,1.4,6.4,2c4.3,1.3,8.8,2.5,13.2,3.7
			C248.5,228.9,257.6,231.2,266.6,233.5z"/>
		<path class="st12" d="M346.9,173.8c-6.1,5.8-12.5,11.2-19.1,16.5c-3.3,2.7-6.7,5.2-10.2,7.7c-1.8,1.2-3.6,2.5-5.6,3.7
			c-0.5,0.3-1,0.6-1.6,0.9c-0.6,0.3-1.2,0.7-2.1,1c-0.5,0.2-1,0.4-2.1,0.6l-0.5,0.1c-0.2,0-0.4,0.1-0.6,0.1c-0.5,0-1,0.1-2,0
			l-0.3-0.1l-0.5-0.1c-0.3-0.1-0.6-0.2-0.9-0.3l-0.2,0l-0.3-0.1c-0.4-0.1-0.9-0.3-1.2-0.5l-1-0.4c-2.4-1.1-4.3-2.2-6.3-3.3
			c-1.9-1.1-3.8-2.2-5.6-3.4c-3.6-2.3-7.2-4.6-10.6-7.1c-0.2-0.1-0.4-0.3-0.5-0.4c-1.1-0.8-2.1-1.5-3.2-2.3
			c-5.6-4-11.1-8.1-16.4-12.5l11.2-14.5c6.7,4.8,13.3,9.8,19.8,14.7c3.3,2.4,6.5,4.9,9.8,7.3c1.6,1.2,3.2,2.4,4.8,3.5
			c1.1,0.8,2.3,1.6,3.4,2.3c1.5-0.7,3-1.5,4.5-2.3c3.6-1.8,7.2-3.8,10.8-5.8c7.2-3.9,14.6-7.9,22-11.7L346.9,173.8z"/>
		<path class="st13" d="M275.8,188.9c-1.1-0.8-2.1-1.5-3.2-2.3l-1-15.6L275.8,188.9z"/>
		<path class="st15" d="M346.1,174c0,0,2.3-0.2,3.3-1.8c1.9-3.1,4.9-3.7,6.1-4.3c1.2-0.7-0.2-2.7-3.2-2c0,0,1.3-4.2,2.4-5.3
			c1.1-1,6.6-3.2,6.5-4c-0.1-0.8-4.4,0.5-6.9,1.6c-2.5,1.1-7.6,7.4-12.1,9.7C342.1,167.8,340.3,172.6,346.1,174z"/>
	</g>
</g>
<g id="Character_1">
	<g>
		<path class="st10" d="M128.5,169c1,7.5,1.7,15.1,2.4,22.7c0.4,3.8,0.6,7.6,0.9,11.3l0.4,5.6l0.4,5c0,0.1,0.1,1,0.4,1.7
			c0.2,0.8,0.5,1.6,0.7,2.4c0.5,1.7,1.2,3.4,1.8,5.2c1.2,3.5,2.6,7,3.8,10.6c2.6,7.1,5.3,14.2,7.8,21.4l-8.1,4
			c-4.3-6.4-8.2-13-12-19.7c-1.9-3.4-3.7-6.8-5.5-10.3c-0.9-1.7-1.7-3.5-2.6-5.4c-0.4-0.9-0.8-1.9-1.3-2.9c-0.4-1-0.8-2-1.3-3.8
			l-0.2-0.7l-0.1-0.4l-0.1-0.8l-0.3-1.5l-0.5-2.9l-0.9-5.7c-0.5-3.8-1.1-7.6-1.6-11.3c-1-7.6-1.9-15.1-2.5-22.7L128.5,169z"/>
		<g>
			<path class="st12" d="M121.8,273.6l-22.4-26.5c-0.6-0.7-0.5-1.7,0.2-2.2l37.3-31.6c0.7-0.6,1.7-0.5,2.2,0.2l22.4,26.5
				c0.6,0.7,0.5,1.7-0.2,2.2L124,273.7C123.3,274.3,122.3,274.2,121.8,273.6z"/>
			<path class="st16" d="M121.8,273.6l-22.4-26.5c-0.6-0.7-0.5-1.7,0.2-2.2l37.3-31.6c0.7-0.6,1.7-0.5,2.2,0.2l22.4,26.5
				c0.6,0.7,0.5,1.7-0.2,2.2L124,273.7C123.3,274.3,122.3,274.2,121.8,273.6z"/>
			<path class="st12" d="M135.3,243.5c0,2.7-2.2,4.9-4.9,4.9s-4.9-2.2-4.9-4.9c0-2.7,2.2-4.9,4.9-4.9
				C133.1,238.6,135.3,240.8,135.3,243.5z"/>
		</g>
		<g>
			<path class="st12" d="M105.6,110.9c0,0-8.7-0.1-10.8,9.7c-2.2,10.2-2.8,6.2-7.5,11s0.4,11.4-7.6,15.1c0,0,6.7,6.5,19.7,3.9
				c13-2.6,11.2,6.7,28,4.3c0,0-2.6-4.9,1-9.2c3.7-4.4,0.9-7.6,1.1-12.2c0.2-4.6,1.3-14.7-5-19.1c-6.4-4.3-12-2.4-12-2.4
				S108.8,110.4,105.6,110.9z"/>
			<g>
				<g>
					<g>
						<polygon class="st19" points="128.2,460.3 131.5,473.7 138.6,473.7 138.9,460.3 						"/>
						<g>
							<g>
								<path class="st10" d="M159.2,483.3c-0.4-4.4-2.3-5.7-4.7-5.9c-2.5-0.2-11.3-3.1-11.3-3.1s-1.8-2.8-3.5-3.4
									c-1.6-0.6-3.2,1.1-3.2,1.1l-4.5-0.5c0,0-1.3-2-2.3-0.2c-1.4,2.7-1.3,10.3-1.1,12L159.2,483.3L159.2,483.3z"/>
							</g>
						</g>
						<g>
							<g>
								<g>
									<path d="M158.6,482.1c-1.8,0-3.7,0-5.5,0c-8.1,0-16.2-0.1-24.2-0.1c-0.3,0-0.2-0.5,0.1-0.5c0.5,0,1.1,0,1.6,0
										c0,0,0,0,0-0.1c1.5-2.5,0.5-5.1-1.7-6.4c-0.3-0.1,0-0.6,0.3-0.4c2.3,1.4,3.3,4.1,1.8,6.9c1.1,0,2.3,0,3.4,0
										c8.1,0,16.1,0.1,24.2,0.1C159,481.7,158.9,482.1,158.6,482.1z"/>
								</g>
							</g>
						</g>
						<g>
							<g>
								<g>
									<path class="st3" d="M141.8,476.2c1.3-1.5,3.1-1.9,4.4-0.8c0.2,0.2,0.5-0.2,0.3-0.4c-1.5-1.3-3.7-0.7-5.1,1
										C141.2,476.2,141.6,476.5,141.8,476.2L141.8,476.2z"/>
								</g>
							</g>
						</g>
						<g>
							<g>
								<g>
									<path class="st3" d="M144.3,477c1.3-1.5,3.1-1.9,4.4-0.8c0.2,0.2,0.5-0.2,0.3-0.4c-1.5-1.3-3.7-0.7-5.1,1
										C143.8,477,144.1,477.2,144.3,477L144.3,477z"/>
								</g>
							</g>
						</g>
						<g>
							<g>
								<g>
									<path class="st3" d="M146.9,477.8c1.3-1.5,3.1-1.9,4.4-0.8c0.2,0.2,0.5-0.2,0.3-0.4c-1.5-1.3-3.7-0.7-5.1,1
										C146.3,477.8,146.7,478,146.9,477.8L146.9,477.8z"/>
								</g>
							</g>
						</g>
					</g>
				</g>
				<path class="st12" d="M98.8,283.5c1.4,13.6,4.3,31.2,9.4,53.8c1.5,6.6,3.2,13.6,5.1,21c-5.2,43.2,15.2,105.6,15.2,105.6l11-0.2
					c0,0,1.4-69.7,0.1-106.2c-2.1-59.8-9.4-116.8-9.4-116.8l-29.9-0.1C100.4,240.6,95.2,249.6,98.8,283.5z"/>
				<path class="st13" d="M98.8,283.5c1.4,13.6,4.3,31.2,9.4,53.8c6.3-23.9-5.1-75-5.1-75L98.8,283.5z"/>
				<g>
					<polygon class="st12" points="140.8,466.3 141.1,461.6 126.5,461.6 127.3,466.3 					"/>
				</g>
			</g>
			<g>
				<g>
					<g>
						<polygon class="st19" points="82.7,460.3 86,473.7 93.1,473.7 93.4,460.3 						"/>
						<g>
							<polygon class="st12" points="95.6,466.3 95.9,461.6 81.3,461.6 82.1,466.3 							"/>
						</g>
						<g>
							<g>
								<path class="st10" d="M113.8,483.3c-0.4-4.4-2.3-5.7-4.7-5.9c-2.5-0.2-11.3-3.1-11.3-3.1s-1.8-2.8-3.5-3.4
									c-1.6-0.6-3.2,1.1-3.2,1.1l-4.5-0.5c0,0-1.3-2-2.3-0.2c-1.4,2.7-1.3,10.3-1.1,12L113.8,483.3L113.8,483.3z"/>
							</g>
						</g>
						<g>
							<g>
								<g>
									<path d="M113.2,482.1c-1.8,0-3.7,0-5.5,0c-8.1,0-16.2-0.1-24.2-0.1c-0.3,0-0.2-0.5,0.1-0.5c0.5,0,1.1,0,1.6,0
										c0,0,0,0,0-0.1c1.5-2.5,0.5-5.1-1.7-6.4c-0.3-0.1,0-0.6,0.3-0.4c2.3,1.4,3.3,4.1,1.8,6.9c1.1,0,2.3,0,3.4,0
										c8.1,0,16.1,0.1,24.2,0.1C113.5,481.7,113.5,482.1,113.2,482.1z"/>
								</g>
							</g>
						</g>
						<g>
							<g>
								<g>
									<path class="st3" d="M96.4,476.2c1.3-1.5,3.1-1.9,4.4-0.8c0.2,0.2,0.5-0.2,0.3-0.4c-1.5-1.3-3.7-0.7-5.1,1
										C95.8,476.2,96.2,476.5,96.4,476.2L96.4,476.2z"/>
								</g>
							</g>
						</g>
						<g>
							<g>
								<g>
									<path class="st3" d="M98.9,477c1.3-1.5,3.1-1.9,4.4-0.8c0.2,0.2,0.5-0.2,0.3-0.4c-1.5-1.3-3.7-0.7-5.1,1
										C98.3,477,98.7,477.2,98.9,477L98.9,477z"/>
								</g>
							</g>
						</g>
						<g>
							<g>
								<g>
									<path class="st3" d="M101.5,477.8c1.3-1.5,3.1-1.9,4.4-0.8c0.2,0.2,0.5-0.2,0.3-0.4c-1.5-1.3-3.7-0.7-5.1,1
										C100.9,477.8,101.3,478,101.5,477.8L101.5,477.8z"/>
								</g>
							</g>
						</g>
					</g>
				</g>
				<path class="st12" d="M109.1,243c0,0-5.6,82.6-7.4,115.4c-2.1,37.5-6.8,101.4-7.4,105.6H82.9c1.3,1.3-14.5-56.1-8.2-102.8
					c-6-44.7-13.3-77.4-3.9-119.4L109.1,243z"/>
			</g>
			<path class="st10" d="M67.5,245c23.8,7.9,63.8,5.3,63.8-0.2c0-15.4-5.4-32.6-4-42.6c11.3-7.9,2.5-15,3.4-26.7
				c0.8-8.9-5.5-16.9-14.4-18.4c-2-0.3-4.1-0.7-6.2-1c-0.4-0.1-0.8-0.1-1.3-0.2c-5.5-0.7-10.8-0.8-16.6-0.8c-2,0-4.1,0-6.3,0.1
				c-2.2,0-4.3,0.1-6.4,0.3c-7.6,0.5-13,7.5-11.7,15c1.9,11.1,3.1,21.5,3.5,31c0.1,2.1,0.2,4.2,0.2,6.2c0.1,7.9-0.2,15.1-1,21.3
				c0,0.1,0,0.3,0,0.4c-0.3,2.8-0.8,5.4-1.2,7.8c-0.1,0.7-0.3,1.5-0.5,2.2C68.5,240.9,67.9,243.5,67.5,245z"/>
			<path class="st16" d="M131.3,244.8c0,5.5-40,8-63.8,0.2c0.4-1.5,1-4.1,1.3-5.5c0.2-0.7,0.3-1.4,0.5-2.2c0.5-2.4,0.9-5,1.2-7.8
				c0-0.1,0-0.3,0.1-0.4c0.7-6.2,1.1-13.4,1-21.3c0-2-0.1-4.1-0.2-6.3c-0.1-3.1-0.3-6.4-0.7-9.7c-0.2-2.1-0.4-4.3-0.7-6.6
				c-0.5-4.8-1.3-9.7-2.1-14.7c-1.3-7.5,4.1-14.5,11.7-15c2-0.1,4.2-0.2,6.4-0.3c2.2,0,4.3-0.1,6.3-0.1c5.8,0,11.1,0.1,16.6,0.8
				c0.4,0,0.8,0.1,1.3,0.2c2.1,0.3,4.2,0.6,6.2,0.9c8.8,1.5,15.1,9.5,14.3,18.4c-1,11.7,7.8,18.8-3.4,26.7
				C125.9,212.2,131.3,229.5,131.3,244.8z"/>
			<path class="st13" d="M82.6,173.9l-11.9,17.9c-0.2-2.1-0.4-4.3-0.7-6.6v0L82.6,173.9z"/>
			<path d="M110.2,175.6c0,0.4,0.3,0.8,0.8,0.8s0.8-0.3,0.8-0.8c0-0.4-0.3-0.8-0.8-0.8S110.2,175.2,110.2,175.6z"/>
			<circle class="st20" cx="111.4" cy="182.5" r="0.8"/>
			<circle cx="111.4" cy="189.5" r="0.8"/>
			<path class="st19" d="M92.3,155.2c5.6,9.9,18.9,15.8,18.9,15.8c1.8-4.4,1.2-11.6-1-14.9c-0.4-0.1-0.8-0.1-1.3-0.2
				C103.4,155.3,98.1,155.2,92.3,155.2z"/>
			<g>
				<g>
					<path class="st19" d="M110.4,159.1c0,0.1,0.1,0.3,0.2,0.5c1.9,3-0.2,5.8-3.5,5.6c-0.3,0-0.6-0.1-0.9-0.1
						c-1.2-0.2-2.3-0.8-3.1-1.7c0,0,0,0,0,0c-4-4.3-8.2-7.5-8.2-7.5c5-2.7,6.8-12.1,7.2-18l7.7,9.8l1.4,2.1
						c-0.7,1.2-1.3,2.5-1.7,3.8C109,155.4,109,157.3,110.4,159.1z"/>
				</g>
				<path class="st10" d="M95.6,155.2c0,0-4.6-1.2-8.2,0l7.5,12.9c3.9-2.9,8.5,0.9,16.4,3C111.2,171,101.8,166.3,95.6,155.2z"/>
				<path class="st10" d="M95.6,155.2c0,0-4.6-1.2-8.2,0l7.5,12.9c3.9-2.9,8.5,0.9,16.4,3C111.2,171,101.8,166.3,95.6,155.2z"/>
				<path class="st10" d="M109.2,155.8c0,0,4.6-0.8,7.2,1.3c0,0,1.5,5.1,2.1,10.1c0,0-4.4-2.2-7.4,3.8
					C111.2,171,112.7,161.5,109.2,155.8z"/>
				<path class="st10" d="M109.2,155.8c0,0,4.6-0.8,7.2,1.3c0,0,1.5,5.1,2.1,10.1c0,0-4.4-2.2-7.4,3.8
					C111.2,171,112.7,161.5,109.2,155.8z"/>
				<g class="st17">
					<path d="M109.5,153.4c0.3-1.3,1-2.6,1.7-3.8l-1.4-2.1l-4.8,0.1C104.9,147.6,106.2,151.5,109.5,153.4z"/>
				</g>
				<g>
					<path class="st19" d="M100.7,127.2c-0.8,9.7-1.3,13.8,2.8,19.4c6.1,8.4,18,7.2,21.6-2.1c3.2-8.4,4-22.8-4.7-27.9
						C111.7,111.5,101.4,117.5,100.7,127.2"/>
				</g>
				<path class="st12" d="M102.8,133.5c-4.9-1.3-2.9-6.3-2.9-6.3l7.2,1.1C107,128.3,107.6,134.8,102.8,133.5z"/>
				<path class="st12" d="M122.4,117.5c0,0-0.1,5.4-6.7,5.6c-6.6,0.3-6,10-13.4,8.5c-7.4-1.5-3.7-10.7-0.6-13.1
					C104.9,116,112.7,108.7,122.4,117.5z"/>
				<g>
					<path class="st3" d="M120.9,142.1c0,0-4.7-2.1-5.8-4.2c0,0-0.7,3.7,1.8,5C119.4,144.3,120.9,142.1,120.9,142.1z"/>
				</g>
				<g>
					<path class="st12" d="M116.6,131.5c-0.1,0.8,0.2,1.5,0.7,1.5c0.5,0.1,1-0.5,1.1-1.3c0.1-0.8-0.2-1.5-0.7-1.5
						C117.2,130.1,116.7,130.7,116.6,131.5"/>
				</g>
				<g>
					<path class="st12" d="M124.6,132.8c-0.1,0.8,0.2,1.5,0.7,1.5c0.5,0.1,1-0.5,1.1-1.3c0.1-0.8-0.2-1.5-0.7-1.5
						C125.2,131.4,124.7,132,124.6,132.8"/>
				</g>
				<g>
					<path class="st12" d="M125.4,131.5l2-0.3C127.4,131.2,126.2,132.6,125.4,131.5"/>
				</g>
				<g>
					<path class="st21" d="M121.6,132.6c0,0,1.1,2.3,2.3,4.3c0.4,0.7,0.1,1.5-0.6,1.7c-1.2,0.4-2.5,0.5-2.5,0.5L121.6,132.6z"/>
				</g>
				<g>
					<path class="st19" d="M96.3,133.3c0.6,2,1.9,3.3,3.3,3.9c2.1,0.9,3.4-1.3,3.2-3.8c-0.2-2.2-1.6-5.4-3.8-5.2
						C96.8,128.5,95.6,131.1,96.3,133.3"/>
				</g>
				<g>
					<path class="st12" d="M114.5,128.4c0.1,0,0.2-0.1,0.3-0.1c1.4-1.5,3.1-1.2,3.1-1.2c0.2,0,0.5-0.1,0.5-0.4
						c0-0.3-0.1-0.5-0.4-0.5c-0.1,0-2.2-0.4-4,1.5c-0.2,0.2-0.2,0.5,0,0.7C114.2,128.3,114.3,128.4,114.5,128.4"/>
				</g>
				<g>
					<path class="st12" d="M128.2,129.8c0.1,0,0.2,0,0.3-0.1c0.2-0.2,0.2-0.5,0.1-0.7c-1.6-2-3.7-1.8-3.8-1.8
						c-0.3,0-0.4,0.3-0.4,0.5c0,0.3,0.3,0.4,0.5,0.4c0.1,0,1.7-0.1,3,1.5C128,129.7,128.1,129.8,128.2,129.8"/>
				</g>
				<g>
					<path class="st12" d="M117.5,130.2l2-0.3C119.5,129.9,118.3,131.3,117.5,130.2"/>
				</g>
			</g>
		</g>
		<line class="st22" x1="99.8" y1="127.2" x2="107" y2="128.3"/>
		<path class="st10" d="M58.1,215.9c4,6.4,8.4,12.8,12.8,19.2l-6.7,6.1c-6-5.4-11.6-11-16.9-17.2c-2.7-3.1-5.2-6.3-7.7-10.1
			c-0.6-0.9-1.2-1.9-1.8-3c-0.6-1.1-1.1-2.3-1.6-3.8c-0.3-0.7-0.5-1.6-0.7-2.6c-0.2-1-0.3-2.3,0-4c0.3-1.6,0.7-2.5,1-3.4
			c0.4-0.8,0.7-1.5,1.1-2.1c1.4-2.4,2.7-4.2,4-5.9c1.3-1.7,2.7-3.3,4.1-4.9c2.8-3.1,5.5-6,8.4-8.9c5.7-5.7,11.5-11,17.8-16.2
			l11.9,13.9l-17.1,15.4c-2.8,2.6-5.6,5.1-8.2,7.8c-1.3,1.3-2.6,2.6-3.8,3.9c-1.2,1.2-2.3,2.6-3,3.5c0,0,0,0,0,0.1
			c0.1,0.2,0.2,0.5,0.3,0.7c0.3,0.7,0.6,1.4,0.9,2.2C54.1,209.4,56.1,212.7,58.1,215.9z"/>
		<path class="st16" d="M58.1,215.9c4,6.4,8.4,12.8,12.8,19.2l-6.7,6.1c-6-5.4-11.6-11-16.9-17.2c-2.7-3.1-5.2-6.3-7.7-10.1
			c-0.6-0.9-1.2-1.9-1.8-3c-0.6-1.1-1.1-2.3-1.6-3.8c-0.3-0.7-0.5-1.6-0.7-2.6c-0.2-1-0.3-2.3,0-4c0.3-1.6,0.7-2.5,1-3.4
			c0.4-0.8,0.7-1.5,1.1-2.1c1.4-2.4,2.7-4.2,4-5.9c1.3-1.7,2.7-3.3,4.1-4.9c2.8-3.1,5.5-6,8.4-8.9c5.7-5.7,11.5-11,17.8-16.2
			l11.9,13.9l-17.1,15.4c-2.8,2.6-5.6,5.1-8.2,7.8c-1.3,1.3-2.6,2.6-3.8,3.9c-1.2,1.2-2.3,2.6-3,3.5c0,0,0,0,0,0.1
			c0.1,0.2,0.2,0.5,0.3,0.7c0.3,0.7,0.6,1.4,0.9,2.2C54.1,209.4,56.1,212.7,58.1,215.9z"/>
		<path class="st19" d="M70.4,232.2c0,0,7.6,2.8,8.8,4.3s-6.3,9.9-9.2,11.1c-2.9,1.2-1.4-2.3-1.4-2.3s-3.7,0.9-5.5-2
			C61.4,240.5,63.4,232.7,70.4,232.2z"/>
		<g>
			<path class="st19" d="M151.3,254c0,0,0.7-0.2,2-2c1.1-1.6,1.2-3.2,1.3-4.1l-4.8,4.1c0,0-4.3-1.6-6.9,0.3
				c-5.3,3.9-3.8,8.3-3.2,9.6c0.6,1.3,5,0.5,8-2C150.7,257.2,151.3,254,151.3,254z"/>
		</g>
	</g>
</g>
</svg>
