<?xml version="1.0" encoding="utf-8"?>
<!-- Generator: Adobe Illustrator 23.0.2, SVG Export Plug-In . SVG Version: 6.00 Build 0)  -->
<svg version="1.1" id="katman_1" xmlns="http://www.w3.org/2000/svg" xmlns:xlink="http://www.w3.org/1999/xlink" x="0px" y="0px"
	 viewBox="0 0 500 500" style="enable-background:new 0 0 500 500;" xml:space="preserve">
<style type="text/css">
	.st0{display:none;}
	.st1{display:inline;}
	.st2{fill:#E0E0E0;}
	.st3{display:inline;fill:#E0E0E0;}
	.st4{fill:#EBEBEB;}
	.st5{fill:#E6E6E6;}
	.st6{fill:#F0F0F0;}
	.st7{fill:#407BFF;}
	.st8{opacity:0.9;fill:#FFFFFF;enable-background:new    ;}
	.st9{fill:#F5F5F5;}
	.st10{fill:#339999;}
	.st11{fill:none;stroke:#339999;stroke-width:0.5;stroke-linecap:round;stroke-linejoin:round;stroke-miterlimit:10;}
	.st12{fill:#FFFFFF;}
	.st13{fill:#BF5E60;}
	.st14{fill:none;stroke:#A74145;stroke-width:0.5;stroke-miterlimit:10;}
	.st15{fill:#263238;}
	.st16{fill:none;stroke:#FFFFFF;stroke-width:0.5;stroke-linecap:round;stroke-linejoin:round;stroke-miterlimit:10;}
	.st17{opacity:0.2;enable-background:new    ;}
	.st18{opacity:0.3;enable-background:new    ;}
	.st19{fill:#A74145;}
	
		.st20{opacity:0.2;fill:none;stroke:#000000;stroke-width:0.5;stroke-linecap:round;stroke-linejoin:round;stroke-miterlimit:10;enable-background:new    ;}
	.st21{fill:#FB504E;}
	.st22{fill:#FDAC6D;}
	.st23{fill:#ED8640;}
	.st24{fill:#D7504D;}
	.st25{fill:#FFBBB5;}
	.st26{opacity:0.2;fill:#FFFFFF;enable-background:new    ;}
	.st27{fill:#E97A75;}
</style>
<g id="Background_complete">
	<g class="st0">
		<g class="st1">
			<g>
				<g>
					<g>
						<path class="st2" d="M443.9,314.1H263.2c-3.2,0-5.9-2.6-5.9-5.9V44.9c0-3.2,2.6-5.9,5.9-5.9h180.7c3.2,0,5.9,2.6,5.9,5.9
							v263.3C449.8,311.4,447.2,314.1,443.9,314.1z M263.2,39.3c-3.1,0-5.6,2.5-5.6,5.6v263.3c0,3.1,2.5,5.6,5.6,5.6h180.7
							c3.1,0,5.6-2.5,5.6-5.6V44.9c0-3.1-2.5-5.6-5.6-5.6L263.2,39.3L263.2,39.3z"/>
					</g>
				</g>
				<g>
					<g>
						<path class="st2" d="M235.5,314.1H54.7c-3.2,0-5.9-2.6-5.9-5.9V44.9c0-3.2,2.6-5.9,5.9-5.9h180.7c3.2,0,5.9,2.6,5.9,5.9v263.3
							C241.4,311.4,238.7,314.1,235.5,314.1z M54.7,39.3c-3.1,0-5.6,2.5-5.6,5.6v263.3c0,3.1,2.5,5.6,5.6,5.6h180.7
							c3.1,0,5.6-2.5,5.6-5.6V44.9c0-3.1-2.5-5.6-5.6-5.6L54.7,39.3L54.7,39.3z"/>
					</g>
				</g>
			</g>
			<g>
				<g>
					<rect y="375.1" class="st2" width="500" height="0.3"/>
				</g>
			</g>
		</g>
		<rect x="51.7" y="389.4" class="st3" width="16.1" height="0.3"/>
		<rect x="170.4" y="386.7" class="st3" width="53.5" height="0.3"/>
		<rect x="68.7" y="398.7" class="st3" width="36.3" height="0.3"/>
		<rect x="378.4" y="386.6" class="st3" width="43.2" height="0.3"/>
		<rect x="430.5" y="386.6" class="st3" width="6.3" height="0.3"/>
		<rect x="316.2" y="392.8" class="st3" width="53.9" height="0.3"/>
	</g>
	<path class="st4" d="M283.5,122.4c-3.1,7.6-4.7,15.7-4.8,23.7l-12,3.5l4.6,23.7l12.5-1.2c3.1,7.4,7.5,14.2,13.3,20.2l-6,11l20,13.5
		l7.9-9.6c7.6,3.1,15.7,4.7,23.7,4.8l3.5,12l23.7-4.6l-1.2-12.5c7.4-3.1,14.2-7.5,20.2-13.3l11,6l13.5-20l-9.6-7.9
		c3.1-7.6,4.7-15.7,4.8-23.7l12-3.5l-4.6-23.7l-12.5,1.2c-3.1-7.4-7.5-14.2-13.3-20.2l6-11l-20-13.5l-7.9,9.7
		c-7.6-3.1-15.7-4.7-23.7-4.8l-3.5-12l-23.7,4.6l1.2,12.5c-7.4,3.1-14.2,7.5-20.2,13.3l-11-6l-13.5,20L283.5,122.4z M361.9,119.9
		c15,10.1,18.9,30.4,8.8,45.4c-10.1,15-30.4,18.9-45.4,8.8c-15-10.1-18.9-30.4-8.8-45.4C326.6,113.7,346.9,109.8,361.9,119.9z"/>
	<path class="st2" d="M136.1,58.5c-2.8,4.3-4.7,9-5.7,13.9l-7.8,0.7l0,15l7.8,0.7c1,4.9,2.9,9.6,5.7,13.9l-5,6l10.6,10.6l6-5
		c4.3,2.8,9,4.7,13.9,5.7l0.7,7.8l15,0l0.7-7.8c4.9-1,9.6-2.9,13.9-5.7l6,5l10.6-10.6l-5-6c2.8-4.3,4.7-9,5.7-13.9l7.8-0.7l0-15
		l-7.8-0.7c-1-4.9-2.9-9.6-5.7-13.9l5-6L198,41.9l-6,5c-4.3-2.8-9-4.7-13.9-5.7l-0.7-7.8l-15,0l-0.7,7.8c-4.9,1-9.6,2.9-13.9,5.7
		l-6-5l-10.6,10.6L136.1,58.5z M184.3,66.3c7.9,7.9,7.9,20.8,0,28.8c-7.9,7.9-20.8,7.9-28.8,0c-7.9-7.9-7.9-20.8,0-28.8
		C163.5,58.3,176.3,58.3,184.3,66.3z"/>
	<path class="st4" d="M169,163.8c-3.7,5.6-6.1,11.7-7.4,18.1l-10.1,0.9l0,19.5l10.1,0.9c1.3,6.3,3.8,12.5,7.4,18.1l-6.4,7.8
		l13.8,13.8l7.8-6.4c5.6,3.7,11.7,6.1,18.1,7.4l0.9,10.1l19.5,0l0.9-10.1c6.3-1.3,12.5-3.8,18.1-7.4l7.8,6.4l13.8-13.8l-6.4-7.8
		c3.7-5.6,6.1-11.7,7.4-18.1l10.1-0.9l0-19.5l-10.1-0.9c-1.3-6.3-3.8-12.5-7.5-18.1l6.4-7.8l-13.8-13.8l-7.8,6.4
		c-5.6-3.7-11.7-6.1-18.1-7.5l-0.9-10.1l-19.5,0l-0.9,10.1c-6.3,1.3-12.5,3.8-18.1,7.4l-7.8-6.4L162.6,156L169,163.8z M231.6,173.9
		c10.3,10.3,10.3,27.1,0,37.4c-10.3,10.3-27.1,10.3-37.4,0c-10.3-10.3-10.3-27.1,0-37.4C204.6,163.6,221.3,163.6,231.6,173.9z"/>
	<path class="st5" d="M227,83.6c-1.4,2.2-2.4,4.6-2.9,7.1l-4,0.4v7.7l4,0.4c0.5,2.5,1.5,4.9,2.9,7.1l-2.5,3.1l5.4,5.4l3.1-2.5
		c2.2,1.4,4.6,2.4,7.1,2.9l0.4,4h7.7l0.4-4c2.5-0.5,4.9-1.5,7.1-2.9l3.1,2.5l5.4-5.4l-2.5-3.1c1.4-2.2,2.4-4.6,2.9-7.1l4-0.4v-7.7
		l-4-0.4c-0.5-2.5-1.5-4.9-2.9-7.1l2.5-3.1l-5.4-5.4l-3.1,2.5c-2.2-1.4-4.6-2.4-7.1-2.9l-0.4-4h-7.7l-0.4,4
		c-2.5,0.5-4.9,1.5-7.1,2.9l-3.1-2.5l-5.4,5.4L227,83.6z M251.6,87.6c4.1,4.1,4.1,10.6,0,14.7c-4.1,4.1-10.6,4.1-14.7,0
		c-4.1-4.1-4.1-10.6,0-14.7C241,83.5,247.5,83.5,251.6,87.6z"/>
	<path class="st6" d="M262.5,48c-1,1.5-1.6,3.1-2,4.8l-2.7,0.3v5.2l2.7,0.3c0.4,1.7,1,3.3,2,4.8l-1.7,2.1l3.7,3.7l2.1-1.7
		c1.5,1,3.1,1.6,4.8,2l0.3,2.7h5.2l0.3-2.7c1.7-0.4,3.3-1,4.8-2l2.1,1.7l3.7-3.7l-1.7-2.1c1-1.5,1.6-3.1,2-4.8l2.7-0.3v-5.2
		l-2.7-0.3c-0.4-1.7-1-3.3-2-4.8l1.7-2.1l-3.7-3.7l-2.1,1.7c-1.5-1-3.1-1.6-4.8-2l-0.3-2.7h-5.2l-0.3,2.7c-1.7,0.4-3.3,1-4.8,2
		l-2.1-1.7l-3.7,3.7L262.5,48z M279.2,50.7c2.8,2.8,2.8,7.2,0,10c-2.8,2.8-7.2,2.8-10,0c-2.8-2.8-2.8-7.2,0-10
		C272,48,276.4,48,279.2,50.7z"/>
	<path class="st6" d="M424.2,161.6c-1,1.5-1.6,3.1-2,4.8l-2.7,0.3v5.2l2.7,0.3c0.4,1.7,1,3.3,2,4.8l-1.7,2.1l3.7,3.7l2.1-1.7
		c1.5,1,3.1,1.6,4.8,2l0.3,2.7h5.2l0.3-2.7c1.7-0.4,3.3-1,4.8-2l2.1,1.7l3.7-3.7l-1.7-2.1c1-1.5,1.6-3.1,2-4.8l2.7-0.3v-5.2
		l-2.7-0.3c-0.4-1.7-1-3.3-2-4.8l1.7-2.1l-3.7-3.7l-2.1,1.7c-1.5-1-3.1-1.6-4.8-2l-0.3-2.7h-5.2l-0.3,2.7c-1.7,0.4-3.3,1-4.8,2
		l-2.1-1.7l-3.7,3.7L424.2,161.6z M440.9,164.3c2.8,2.8,2.8,7.2,0,10c-2.8,2.8-7.2,2.8-10,0c-2.8-2.8-2.8-7.2,0-10
		C433.7,161.5,438.1,161.5,440.9,164.3z"/>
	<path class="st6" d="M84.1,146.2c-2.1,3.2-3.5,6.7-4.3,10.4l-5.8,0.5v11.2l5.8,0.5c0.8,3.6,2.2,7.2,4.3,10.4l-3.7,4.5l7.9,7.9
		l4.5-3.7c3.2,2.1,6.7,3.5,10.4,4.3l0.5,5.8l11.2,0l0.5-5.8c3.6-0.8,7.2-2.2,10.4-4.3l4.5,3.7l7.9-7.9l-3.7-4.5
		c2.1-3.2,3.5-6.7,4.3-10.4l5.8-0.5l0-11.2l-5.8-0.5c-0.8-3.6-2.2-7.2-4.3-10.4l3.7-4.5l-7.9-7.9l-4.5,3.7
		c-3.2-2.1-6.7-3.5-10.4-4.3l-0.5-5.8l-11.2,0l-0.5,5.8c-3.6,0.8-7.2,2.2-10.4,4.3l-4.5-3.7l-7.9,7.9L84.1,146.2z M120.1,152
		c5.9,5.9,5.9,15.5,0,21.5c-5.9,5.9-15.5,5.9-21.5,0c-5.9-5.9-5.9-15.5,0-21.5C104.5,146.1,114.2,146.1,120.1,152z"/>
	<path class="st6" d="M193.9,284.9c-2.1,3.2-3.5,6.7-4.3,10.4l-5.8,0.5V307l5.8,0.5c0.8,3.6,2.2,7.2,4.3,10.4l-3.7,4.5l7.9,7.9
		l4.5-3.7c3.2,2.1,6.7,3.5,10.4,4.3l0.5,5.8l11.2,0l0.5-5.8c3.6-0.8,7.2-2.2,10.4-4.3l4.5,3.7l7.9-7.9l-3.7-4.5
		c2.1-3.2,3.5-6.7,4.3-10.4l5.8-0.5l0-11.2l-5.8-0.5c-0.8-3.6-2.2-7.2-4.3-10.4l3.7-4.5l-7.9-7.9l-4.5,3.7
		c-3.2-2.1-6.7-3.5-10.4-4.3l-0.5-5.8l-11.2,0l-0.5,5.8c-3.6,0.8-7.2,2.2-10.4,4.3l-4.5-3.7l-7.9,7.9L193.9,284.9z M229.8,290.7
		c5.9,5.9,5.9,15.5,0,21.5c-5.9,5.9-15.5,5.9-21.5,0c-5.9-5.9-5.9-15.5,0-21.5C214.3,284.7,223.9,284.7,229.8,290.7z"/>
	<g>
		<g>
			<g>
				<path class="st5" d="M80.7,241.6c-14,16.3-18,40.5-10.2,60.5c8.7-7.8,14.8-19.6,15.2-30C86.1,261.8,83.4,251.6,80.7,241.6z"/>
			</g>
			<g>
				<path class="st5" d="M78.3,304c-4.7,7.3-7,16.1-6.3,24.7c7.5-2.6,14.2-11.1,18.2-18.1c4-6.9,6.2-14.7,8.2-22.4
					C90.2,291.1,83,296.7,78.3,304z"/>
			</g>
			<g>
				<g>
					<path class="st2" d="M76.5,270.1c-5.6,20.2-8.5,41.1-8.4,62c0,6,0.2,11.9,0.7,17.8c0,0.5,0.8,0.5,0.8,0
						C67.8,329,69,308,73.1,287.4c1.1-5.8,2.5-11.5,4.1-17.1C77.3,269.8,76.6,269.6,76.5,270.1L76.5,270.1z"/>
				</g>
			</g>
			<g>
				<g>
					<path class="st2" d="M69,335.6c5.7-13.6,13.3-26.4,22-38.3c0.3-0.4-0.4-0.8-0.6-0.4c-8.7,12-16.3,24.8-22,38.5
						C68.1,335.8,68.9,336,69,335.6L69,335.6z"/>
				</g>
			</g>
			<g>
				<path class="st5" d="M60.8,315.3c3.9,6.1,5.8,13.4,5.3,20.6c-6.3-2.2-11.8-9.3-15.2-15.1c-3.3-5.8-5.2-12.3-6.9-18.7
					C50.9,304.5,56.9,309.2,60.8,315.3z"/>
			</g>
			<g>
				<g>
					<path class="st2" d="M68.9,340.7c-4.7-11.2-10.9-21.6-18.1-31.4c-0.3-0.4-0.9,0-0.6,0.4c7.1,9.7,13.3,20,18,31.2
						C68.3,341.3,69.1,341.1,68.9,340.7L68.9,340.7z"/>
				</g>
			</g>
			<g>
				<g>
					<path class="st2" d="M69.1,344.5c8.9-9.1,17.9-18.1,26.8-27.2c0.3-0.3-0.2-0.9-0.5-0.5c-8.9,9.1-17.9,18.1-26.8,27.2
						C68.2,344.3,68.7,344.8,69.1,344.5L69.1,344.5z"/>
				</g>
			</g>
			<g>
				<path class="st5" d="M96.2,313c-7.7,7.4-14.7,15.6-20.9,24.3h1.4c5.9-0.3,11.6-3.2,15.2-7.7C95.6,324.9,97.2,318.8,96.2,313z"/>
			</g>
			<g>
				<g>
					<g>
						<path class="st2" d="M59.6,295.3c3.3,5.4,6.4,10.9,9.3,16.6c0.2,0.4,0.9,0,0.6-0.4c-2.9-5.6-6-11.2-9.3-16.6
							C60,294.5,59.4,294.9,59.6,295.3L59.6,295.3z"/>
					</g>
				</g>
				<g>
					<path class="st5" d="M51.7,267.9c-1.3,5.7-2.5,13.1-2.5,19s1.8,11.7,5.1,15.6c3.4,4,10.1,5.7,12.9,3.4L51.7,267.9z"/>
				</g>
			</g>
		</g>
		<rect x="51.6" y="347" class="st2" width="35.5" height="6.2"/>
		<polygon class="st2" points="79.8,375.5 58.9,375.5 55.1,351.8 82.8,351.8 		"/>
	</g>
	<g>
		<g>
			<g>
				<path class="st5" d="M439.8,241.6c-14,16.3-18,40.5-10.2,60.5c8.7-7.8,14.8-19.6,15.2-30C445.2,261.8,442.5,251.6,439.8,241.6z"
					/>
			</g>
			<g>
				<path class="st5" d="M437.4,304c-4.7,7.3-7,16.1-6.3,24.7c7.5-2.6,14.2-11.1,18.2-18.1c4-6.9,6.2-14.7,8.2-22.4
					C449.3,291.1,442.1,296.7,437.4,304z"/>
			</g>
			<g>
				<g>
					<path class="st2" d="M435.6,270.1c-5.6,20.2-8.5,41.1-8.5,62c0,6,0.2,11.9,0.7,17.8c0,0.5,0.8,0.5,0.8,0
						c-1.6-20.9-0.4-41.9,3.6-62.5c1.1-5.8,2.5-11.5,4.1-17.1C436.4,269.8,435.7,269.6,435.6,270.1L435.6,270.1z"/>
				</g>
			</g>
			<g>
				<g>
					<path class="st2" d="M428.2,335.6c5.7-13.6,13.3-26.4,22-38.3c0.3-0.4-0.4-0.8-0.6-0.4c-8.7,12-16.3,24.8-22,38.5
						C427.3,335.8,428,336,428.2,335.6L428.2,335.6z"/>
				</g>
			</g>
			<g>
				<path class="st5" d="M420,315.3c3.9,6.1,5.8,13.4,5.3,20.6c-6.3-2.2-11.8-9.3-15.2-15.1c-3.3-5.8-5.2-12.3-6.9-18.7
					C410,304.5,416,309.2,420,315.3z"/>
			</g>
			<g>
				<g>
					<path class="st2" d="M428,340.7c-4.7-11.2-10.9-21.6-18.1-31.4c-0.3-0.4-0.9,0-0.6,0.4c7.1,9.7,13.3,20,18,31.2
						C427.5,341.3,428.2,341.1,428,340.7L428,340.7z"/>
				</g>
			</g>
			<g>
				<g>
					<path class="st2" d="M428.2,344.5c8.9-9.1,17.9-18.1,26.8-27.2c0.3-0.3-0.2-0.9-0.5-0.5c-8.9,9.1-17.9,18.1-26.8,27.2
						C427.3,344.3,427.9,344.8,428.2,344.5L428.2,344.5z"/>
				</g>
			</g>
			<g>
				<path class="st5" d="M455.3,313c-7.7,7.4-14.7,15.6-20.9,24.3h1.4c5.9-0.3,11.6-3.2,15.2-7.7C454.7,324.9,456.3,318.8,455.3,313
					z"/>
			</g>
			<g>
				<g>
					<g>
						<path class="st2" d="M418.8,295.3c3.3,5.4,6.4,10.9,9.3,16.6c0.2,0.4,0.9,0,0.6-0.4c-2.9-5.6-6-11.2-9.3-16.6
							C419.2,294.5,418.5,294.9,418.8,295.3L418.8,295.3z"/>
					</g>
				</g>
				<g>
					<path class="st5" d="M410.9,267.9c-1.3,5.7-2.5,13.1-2.5,19s1.8,11.7,5.1,15.6c3.4,4,10.1,5.7,12.9,3.4L410.9,267.9z"/>
				</g>
			</g>
		</g>
		<rect x="410.7" y="347" class="st2" width="35.5" height="6.2"/>
		<polygon class="st2" points="438.9,375.5 418,375.5 414.2,351.8 441.9,351.8 		"/>
	</g>
</g>
<g id="Background_simple" class="st0">
	<g class="st1">
		<path class="st7" d="M159.2,67.5C133,71,107.8,78.3,85.4,89.9C59,103.5,32,124.7,40,152.4c14.7,51.2,85.2,52.1,71.1,86.5
			c-15.9,39-5.3,84.7,66.3,97.4c135.9,24.1,300.3-117.1,254.1-194.7C402.8,93.2,298.2,49.2,159.2,67.5z"/>
		<path class="st8" d="M159.2,67.5C133,71,107.8,78.3,85.4,89.9C59,103.5,32,124.7,40,152.4c14.7,51.2,85.2,52.1,71.1,86.5
			c-15.9,39-5.3,84.7,66.3,97.4c135.9,24.1,300.3-117.1,254.1-194.7C402.8,93.2,298.2,49.2,159.2,67.5z"/>
	</g>
</g>
<g id="Shadows">
	<g>
		<g>
			<path class="st9" d="M197.2,438.2c0,6.9-26.9,12.5-60.2,12.5s-60.2-5.6-60.2-12.5c0-6.9,26.9-12.5,60.2-12.5
				S197.2,431.3,197.2,438.2z"/>
		</g>
	</g>
	<g>
		<g>
			<ellipse class="st9" cx="287.4" cy="469.2" rx="56.3" ry="12.5"/>
		</g>
	</g>
	<g>
		<g>
			<path class="st9" d="M444.2,418.3c0,7.6-25.2,13.8-56.4,13.8s-56.4-6.2-56.4-13.8s25.2-13.8,56.4-13.8S444.2,410.7,444.2,418.3z"
				/>
		</g>
	</g>
</g>
<g id="Speech_Bubble">
	<g>
		<g>
			<g>
				<path class="st10" d="M307,89.4c7.8-8.7,7.1-22.1-1.7-30s-22.1-7.1-30,1.7c-6,6.7-6.9,16.3-3,23.9l-2.3,5.9l6.7-0.1
					c0.1,0.1,0.2,0.2,0.3,0.2C285.8,98.9,299.2,98.1,307,89.4z"/>
			</g>
			<path class="st11" d="M303.2,54.1c6.2,3.1,10.6,9.4,11.3,16.3"/>
			<path class="st11" d="M314.7,73.6c0.2,1,0.2,2.1-0.1,3.1"/>
		</g>
		<g>
			<polygon class="st12" points="290.8,84.3 281.1,77 283.6,73.6 290.1,78.5 299.1,67.8 302.3,70.5 			"/>
		</g>
	</g>
</g>
<g id="Character_3">
	<g>
		<g>
			<path class="st13" d="M253.1,132.1c0,0,21,27,27.5,31.1s27.8,18.7,27.8,18.7l7-14L281.8,150l-21.5-22L253.1,132.1z"/>
			<g>
				<path class="st13" d="M253.1,132.1c0,0-2.3-1.9-2.6-5.6s1.9-20.1,3.5-20s1.2,1.2,1.6,6.3c0.4,5,1.7,10.5,1.7,10.5l3,4.7
					L253.1,132.1z"/>
				<path class="st14" d="M252.5,129.1c-1.5-2.4,0.1-6.6-0.2-9.4c-0.1-0.8-0.2-1.6,0.1-2.4c0.3-0.7,1.1-1.3,1.9-1.1
					c0.7,0.2,1,1.1,1.2,1.9c0.5,1.9,1,3.8,1.5,5.7"/>
			</g>
		</g>
		<g>
			<polygon class="st13" points="347.7,390.6 352.9,402.7 362.7,400.7 359.3,386.9 			"/>
			<g>
				<g>
					<path class="st15" d="M350.2,401.4c-0.2-0.5,0.1-1,0.6-1.2l2.9-0.8c0.7-0.2,1.9,0.9,2.5,1.4c2.7,2,3.7,0.6,5-2.4
						c1.2-0.5,2,0.8,2.3,1.2l5.2,8.2c0.4,0.7,0.3,1.6-0.4,2c-0.1,0.1-0.2,0.1-0.4,0.2c-3.9,1.2-5.8,1.8-10.6,3.3l-14.9,4.6
						c-4.1,1.2-6.2-2.7-4.6-3.6c7-4,11.6-7.9,13.2-10.8C351.3,403,350.6,402.3,350.2,401.4z"/>
					<path class="st16" d="M349.7,404.6c1.2-0.2,2.4,0.2,3.3,1"/>
					<path class="st16" d="M348,406.5c1.2-0.2,2.4,0.2,3.3,1"/>
					<path class="st16" d="M345.8,408.6c1.2-0.2,2.4,0.2,3.3,1"/>
				</g>
			</g>
		</g>
		<g>
			<polygon class="st13" points="415,364.2 425.6,371.8 433,365.1 423.1,355 			"/>
			<g>
				<g>
					<path class="st15" d="M422.5,372.2c-0.4-0.3-0.4-0.9-0.1-1.3l2-2.2c0.5-0.6,2.1-0.3,2.8-0.2c3.3,0.3,3.5-1.5,3-4.8
						c0.8-1.1,2.2-0.4,2.5-0.2l8.6,4.3c0.7,0.4,1,1.2,0.7,2c-0.1,0.1-0.1,0.3-0.2,0.4c-2.7,3.1-4,4.6-7.3,8.5l-10.3,11.9
						c-2.8,3.2-6.6,1-5.7-0.6c3.9-7.2,5.8-13,5.7-16.4C424.2,373,423.3,372.8,422.5,372.2z"/>
					<path class="st16" d="M423.9,375.1c0.9-0.8,2.1-1.1,3.3-0.9"/>
					<path class="st16" d="M423.4,377.7c0.9-0.8,2.1-1.1,3.3-0.9"/>
					<path class="st16" d="M422.6,380.7c0.9-0.8,2.1-1.1,3.3-0.9"/>
				</g>
			</g>
		</g>
		<g>
			<path class="st15" d="M360.2,387.1l-14.4,5.6l-20.6-55.1c-0.7-1.9-1.1-4-1.2-6c-0.5-17.2-2.4-99.3-2.4-99.3
				c27.4-24.9,33.5,18.6,33.3,19.2c-1.8,5.7-7,81.5-7,81.5S360.5,373.2,360.2,387.1z"/>
			<path class="st15" d="M321.4,232l0.4,0.6c5.3,7.2,15.3,14.8,20.6,21.3l1.8,4.1c0,0,38.1-29.6,13.4-41.8c-1-0.5-8.6-4.6-8.6-4.6
				C342.2,210.1,321.4,232,321.4,232z"/>
			<path class="st15" d="M378.3,258.1c2.1,12.9,8.5,46.3,12.2,58.8c0,0,11.2,6.4,17.6,13.6l20.3,28.6l-9,8.1l-37-27.1
				c-8.4-6.3-11.8-11-15-17.1c-8-15-12-34.1-16.8-49.2c-2.2-7-10.7-29.5-10-36.8c1-9.8,1.3-25.7,13.2-20.3
				C365.2,220.2,371.9,222.3,378.3,258.1z"/>
			<polygon class="st17" points="350,277.3 340.6,242.6 329.9,239.1 338.3,246.9 			"/>
		</g>
		<g>
			<path class="st10" d="M357.1,210.2c-3-3.4-4.9-7.6-5.6-12.1c-1-6.8-2.5-16.3-2.3-17.1l0.5-18.4c-4.1-4.1-19.1-4.1-19.1-4.1
				l-10.1,2.6c0,0-3.8,1.7-6.9,3.4c-4.2,2.4-6.4,2.5-7,5.2c0,0-0.8,8.9-1.1,17.8c-0.1,3.2,14.8,32.6,15,38.2l0,9
				c21.5,10.9,44.2-16,44.2-16L357.1,210.2z"/>
			<path class="st18" d="M350,188.2c0,0-9.4-8.5-9-12.5l8,4.3l0.5,5.4L350,188.2z"/>
		</g>
		<g>
			<path class="st13" d="M356.9,170.7c0.2,0.3,13.9,15.7,19.4,21.6c1.2,1.3,2.1,2.7,2.7,4.3l11.3,31.5l-7.1,2.1L367,199.8
				l-20.4-17.2L356.9,170.7z"/>
			<g>
				<g>
					<g>
						<g>
							<g>
								<path class="st13" d="M383,227.7c0,0-1.9,2.2-1.7,4.5c0.2,2.4-0.3,4.3,0,6c0.3,1.7,1.5-0.3,2-1.5c0.5-1.2,1-2.6,1.9-2.1
									s5.1,7.8,6.3,8.4c1.3,0.6,0.9-0.8,0.9-0.8s1.1,1.8,1.9,1.5c0.2-0.1,0.6-0.5,0.2-1.4c-0.8-2-2.8-6-2.8-6
									c0.1,0.2,2.9,5.1,3.4,5.7c0.7,0.9,1.4,0.9,1.9,0.5c0.7-0.6-2.5-6.7-2.5-7c0,0,1.7,3.6,2.9,3.6c1.2,0.1,0.2-2.2-1-4.1
									c-1.1-1.7-2.9-5.4-4.2-7c-1.6-2-3.2-3-5.5-2.4C384.3,226.3,383,227.7,383,227.7z"/>
							</g>
						</g>
					</g>
				</g>
			</g>
			<path class="st10" d="M347,161.3c4.6,0.3,12.9,11.8,12.9,11.8l-10.8,12.2c0,0-10.1-8.8-10.3-14.7
				C338.8,165.5,341.2,161,347,161.3z"/>
		</g>
		<path class="st10" d="M314.4,164.6c0,0-16-5.9-15.7-5.7s-6.4,15.1-6.4,15.1l15.6,10.5L314.4,164.6z"/>
		<g>
			<g>
				<path class="st15" d="M362.7,147.6c4.9-2.6,7.6-8.8,6.2-14.2c-2.9,1.3-5.7,2.5-8.8,3.1s-6.4,0.5-9.1-0.9
					c-2.1-1.1-3.8-2.8-5.5-4.4s-3.5-3.2-5.8-3.9c-2.2-0.7-5-0.3-6.4,1.6l-3.1,5c2.1-0.5,4.2,0.8,5.4,2.5c1.2,1.7,1.6,3.9,1.8,6
					s0.3,4.2,1,6.2c0.9,2.5,2.7,4.7,4.8,6.4c4.7,3.7,11.1,5.3,16.9,3.9c5.8-1.4,10.8-5.9,12.7-11.5
					C369.5,147.9,366.1,148,362.7,147.6z"/>
			</g>
			<g>
				<g>
					<path class="st15" d="M316.2,124.3c0,0-7.5,13.5-7.9,17.8c-2.9,2.4-4.9-2.5-4.8-9.2c0.1-5.4,2.9-11.3,7.6-13.4
						C317.7,116.5,316.2,124.3,316.2,124.3z"/>
					<g>
						<g>
							<path class="st13" d="M315.8,170.7c0,0-2-6.2-0.2-7.3c1.3-1.3,2.9-2.7,2.7-4.6c-0.2-1.4-0.6-2.9-1.2-4.3l1.9-2l9.8-9.2
								c-0.5,6.3-3.1,11.6,1.7,15.2"/>
							<path class="st17" d="M318.4,159.4c2.6-1.4,5.6-4,5.4-7.1c-0.1-1.3-0.3-2.5-0.6-3.3l-5.5,6.8
								C318,157,318.1,157.7,318.4,159.4z"/>
							<path class="st13" d="M331.8,133.3c-1.2,9.7-1.6,13.8-6.7,18.6c-7.8,7.4-19.3,4.4-20.9-5.3c-1.5-8.7,0.8-23,10.5-26.8
								C324.2,116.2,333.1,123.6,331.8,133.3z"/>
							<path class="st15" d="M318.7,136.7c0,0.9-0.5,1.7-1.2,1.7c-0.6,0-1.1-0.7-1.1-1.6c0-0.9,0.5-1.7,1.2-1.7
								C318.2,135.1,318.7,135.8,318.7,136.7z"/>
							<path class="st15" d="M309.5,136c0,0.9-0.4,1.7-1.1,1.7s-1.2-0.6-1.2-1.4s0.4-1.7,1.1-1.7C308.9,134.5,309.4,135.1,309.5,136
								z"/>
							<path class="st15" d="M321.3,133.6c-0.1,0-0.2,0-0.3-0.1c-1.4-1.4-3.1-1-3.1-1c-0.3,0.1-0.5-0.1-0.5-0.3
								c0-0.3,0.1-0.5,0.4-0.6c0.1,0,2.2-0.5,4,1.3c0.2,0.2,0.2,0.5,0,0.7C321.5,133.5,321.4,133.6,321.3,133.6z"/>
							<path class="st15" d="M306.3,131.6c-0.1,0-0.2-0.1-0.3-0.2c-0.1-0.2,0-0.5,0.2-0.6c2.4-1.2,4.3-0.2,4.4-0.1
								c0.2,0.1,0.3,0.4,0.1,0.6c-0.1,0.2-0.4,0.3-0.7,0.2c-0.1,0-1.6-0.8-3.5,0.1C306.5,131.6,306.4,131.6,306.3,131.6z"/>
							<path class="st15" d="M307.1,122.8c2-4.3,10.4-8.2,20-4.1c14.3,4.8,7.5,28.1,3.2,23.5c-1.2-1.2-2.2-2.5-3-3.7
								C322.3,131.3,315.3,125.7,307.1,122.8L307.1,122.8z"/>
							<path class="st13" d="M334.5,141.3c-1.2,1.9-3.1,3.1-4.8,3.5c-2.6,0.6-3.8-3.6-2.8-6.2c0.9-2.3,3.4-3.7,5.9-3.1
								C335.2,136.1,335.9,139.1,334.5,141.3z"/>
							<path class="st19" d="M312.2,135.2c0,0-1.6,3.6-3.4,5.8c-0.3,0.4-0.1,1,0.3,1.2c1.2,0.5,2.6,0.1,2.6,0.1L312.2,135.2z"/>
						</g>
						<path class="st15" d="M317.8,135.1l-2.2-0.4C315.5,134.7,316.8,136.3,317.8,135.1z"/>
						<path class="st15" d="M308.6,134.6l-2.3-0.3C307.4,135.5,308.3,134.9,308.6,134.6z"/>
					</g>
					<path class="st20" d="M330.9,137.9c0.8-0.3,1.7,0.2,1.9,0.9c0.3,0.8-0.1,2.7-2.6,3.3"/>
				</g>
			</g>
			<path class="st15" d="M310.8,145.5c0.7,1.1,1.6,3.1,1.6,3.1c0.2,0,0.4-0.1,0.6-0.2c2.7-0.7,3.8-1.9,4.1-3.1
				c0.2-0.6,0.1-1.2,0-1.7c-0.1-0.6-0.3-0.9-0.3-0.9c-1.2,1.2-3.7,2.1-5.1,2.5C311.2,145.4,310.8,145.5,310.8,145.5z"/>
			<path class="st12" d="M311.8,145.2l0.5,0.9c2.6-0.7,4.3-1.5,4.9-2.5c-0.1-0.6-0.3-0.9-0.3-0.9C315.6,144,313.1,144.8,311.8,145.2
				z"/>
			<path class="st21" d="M313,148.5c2.7-0.7,3.8-1.9,4.1-3.1c-0.9,0.3-2,0.7-2.9,1.4C313.6,147.3,313.2,147.9,313,148.5z"/>
		</g>
	</g>
</g>
<g id="Character_1">
	<g>
		<path class="st22" d="M133,177.4c0,0-14.7,23.3-17.5,35.1c-1.5,6.4,6.8,35.8,6.8,35.8l8.4-1.2c0,0-4.4-30-2.8-32.9
			c4.7-8.7,19.5-27.5,19.2-28.1C146.9,185.7,133,177.4,133,177.4z"/>
		<path class="st22" d="M122.6,256.9c0.9,2.2,2.2,5,3.3,5.3c1.1,0.3,1.4-0.6,2.1-0.6c0.7,0,1.6,0.8,2.9-0.7c0,0,2.5,1,3.3-0.8
			c1.8-0.2,2.3-1.2,1.9-3.1c-0.1-0.5-1.2-3-1.2-3.4c0.2,0.1,1.8,2.8,2.1,2.9c2.1,0.7,3.1,0.4,3.1-0.6c0-0.5-0.3-1-0.7-1.2
			c-1.1-0.6-1.5-5-2.7-5.7c-1.1-0.6-4.7-2.5-6.2-2.9s-7.7,1.3-7.7,1.3S121.7,254.7,122.6,256.9z"/>
	</g>
	<g>
		<path class="st22" d="M184.3,163.4c0,0,21.4-5.8,27-9.8c5.6-4,15.5-31.4,15.5-31.4l7.4,0.1c0,0-5.6,31.3-10.6,37.9
			c-5.1,6.6-30.5,18.7-30.5,18.7L184.3,163.4z"/>
		<g>
			<g>
				<g>
					<g>
						<g>
							<g>
								<g>
									<path class="st22" d="M227.5,123.3c0,0-2.7-2-3.1-4.8s-1.5-4.9-1.6-7c-0.2-2.1,1.8-0.1,2.7,1.2c0.8,1.3,1.8,2.7,2.7,1.9
										c0.9-0.8,3.9-10.4,5.2-11.3c1.3-1,1.3,0.7,1.3,0.7s0.8-2.3,1.8-2.2c0.3,0,0.8,0.5,0.6,1.6c-0.4,2.5-1.6,7.7-1.6,7.7
										c0.1-0.3,2-6.6,2.4-7.5c0.5-1.2,1.4-1.5,2.1-1.1c1,0.5-1.2,8.3-1,8.7c0,0,1.1-4.6,2.4-4.9c1.3-0.4,0.8,2.5-0.1,5
										c-0.9,2.3-2,7-3.1,9.2c-1.4,2.7-2.9,4.3-5.8,4.2C229.4,124.6,227.5,123.3,227.5,123.3z"/>
								</g>
							</g>
						</g>
					</g>
				</g>
			</g>
		</g>
	</g>
	<g>
		<polygon class="st22" points="174.4,424.1 184.1,425.6 192.2,405.1 179.5,401.1 		"/>
		<path class="st15" d="M185.3,424l-3.1-0.9c-0.7-0.2-1.4,0-2,0.4c-2.5,1.9-3.5,0.6-4.8-2.2c-1.2-0.5-1.9,0.8-2.1,1.2l-4.7,7.7
			c-0.4,0.6-0.2,1.5,0.4,1.9c0.1,0.1,0.2,0.1,0.4,0.2c3.7,1.1,5.5,1.6,10.1,2.9l14.1,4.1c3.9,1.1,5.8-2.5,4.3-3.4
			c-6.7-3.6-11.1-7.2-12.7-9.9C184.9,425.4,185.4,425.2,185.3,424z"/>
		<path class="st10" d="M191.2,428.3c0.4-0.1,0.7-0.5,0.8-0.8c0.1-0.2,0.1-0.4-0.1-0.6c-0.8-1-5.1-0.3-5.6-0.2c-0.1,0-0.1,0-0.1,0.1
			c-0.1,0.1,0,0.2,0,0.2c0.9,0.5,1.8,0.9,2.8,1.2C189.7,428.4,190.5,428.5,191.2,428.3z M191.6,427c0.1,0.1,0.1,0.2,0,0.3
			c-0.1,0.3-0.3,0.5-0.6,0.6c-1.1,0.4-3.1-0.5-4.1-1C188.7,426.6,191.2,426.5,191.6,427z"/>
		<path class="st10" d="M186.4,427c1.3-0.1,4.2-1.3,4.4-2.4c0-0.2,0-0.5-0.5-0.7c-2-0.8-4,2.7-4.1,2.8c0,0.1,0,0.1,0,0.2
			C186.2,427,186.2,427,186.4,427L186.4,427z M190.1,424.2c0.4,0.2,0.3,0.3,0.3,0.3c-0.1,0.6-2.3,1.7-3.7,2c0.5-0.8,1.9-2.8,3.2-2.4
			L190.1,424.2z"/>
		<path class="st11" d="M186.7,427c-1.1-0.2-2.3,0.2-3.1,0.9"/>
		<path class="st11" d="M188.2,428.9c-1.1-0.2-2.3,0.2-3.1,0.9"/>
		<path class="st11" d="M190.2,430.8c-1.1-0.2-2.3,0.2-3.1,0.9"/>
	</g>
	<g>
		<polygon class="st22" points="87.7,390.8 96.8,394.4 109.3,376.3 97.9,369.5 		"/>
		<path class="st15" d="M98.3,393.1l-2.8-1.5c-0.6-0.4-1.4-0.4-2-0.1c-2.8,1.3-3.6-0.2-4.2-3.2c-1-0.7-2,0.4-2.3,0.7l-6.3,6.4
			c-0.5,0.5-0.5,1.4,0,1.9c0.1,0.1,0.2,0.2,0.3,0.2c3.4,1.9,5,2.8,9.2,5.1l12.9,7.2c3.5,2,6.2-1.2,4.9-2.3c-5.7-5-9.2-9.5-10.2-12.5
			C97.7,394.3,98.2,394.3,98.3,393.1z"/>
		<path class="st10" d="M103.2,398.6c0.4,0,0.8-0.3,1-0.6c0.1-0.2,0.2-0.4,0-0.6c-0.5-1.1-4.9-1.4-5.4-1.4c-0.1,0-0.1,0-0.1,0
			c-0.1,0.1-0.1,0.2,0,0.2c0.7,0.7,1.6,1.3,2.4,1.8C101.7,398.4,102.4,398.6,103.2,398.6z M103.8,397.5c0,0.1,0,0.2,0,0.3
			c-0.2,0.3-0.4,0.4-0.7,0.5c-1.1,0.2-2.9-1.2-3.8-1.9C101.1,396.4,103.5,396.9,103.8,397.5z"/>
		<path class="st10" d="M98.7,396.3c1.3,0.1,4.4-0.4,4.8-1.3c0.1-0.2,0.1-0.5-0.4-0.8c-1.8-1.3-4.5,1.7-4.6,1.8
			c-0.1,0-0.1,0.1,0,0.2C98.6,396.2,98.6,396.2,98.7,396.3L98.7,396.3z M103,394.4c0.3,0.2,0.3,0.4,0.2,0.4
			c-0.2,0.6-2.6,1.2-4.1,1.1c0.7-0.7,2.5-2.3,3.7-1.6L103,394.4z"/>
		<path class="st11" d="M99.1,396.3c-1-0.4-2.2-0.3-3.2,0.2"/>
		<path class="st11" d="M100.1,398.5c-1-0.4-2.2-0.3-3.2,0.2"/>
		<path class="st11" d="M101.6,400.8c-1-0.4-2.2-0.3-3.2,0.2"/>
	</g>
	<g>
		<path class="st15" d="M88.3,381.1l16.6,10.4c0,0,37.9-51.3,45-64.4c7.1-13.2,21.4-47.5,21.4-47.5l0,0l0,0.1
			c0.3,1,1.7,11.3,4.8,21.8c4.1,13.7,8.4,28.4,9.3,32.3c2.4,11.3-11.9,81.5-11.9,81.5l17.4,4.9c0,0,20.8-70.8,21.8-80.4
			c2.3-22.3-15-77.7-15.5-80.6c-0.6-3.6-1.3-14.6-1.3-14.6l-45.6-12c0,0-3.3,6.3-5.5,12c-8.3,21.5-15,60.7-17.4,68.8
			C115.1,328.7,88.3,381.1,88.3,381.1z"/>
		<path class="st17" d="M174.2,274.4l-2.9,5.3c0.1,1.2,3.3,18.1,4.7,21.1C180.6,292.4,180.1,281.9,174.2,274.4z"/>
	</g>
	<g>
		<path class="st10" d="M179,181.1c6.7,4.8,31.3-3,31.3-3l-3.4-21.7c0,0-10,2.4-20.6,5.5C179.2,163.9,171.6,175.9,179,181.1z"/>
		<path class="st10" d="M141.2,164.2c1.7,9.6-0.4,19.4-0.2,29.2c0.2,6.9,0.2,13.6-0.1,19.5c-0.6,13.8-2.5,31.7-2.4,35.3
			c17.7-6.1,54.1,20.9,67.5,5.7c-12.2-43.8-15.4-93.3-15.4-93.3c-5,0-7.9,1.8-11.6,1.3c-0.8-0.1-1.6-0.2-2.4-0.2
			c-6.7-0.3-13.3-0.2-20,0.2c-1.3,0.1-2.5,0.2-3.8,0.3C146.5,162.9,141.2,164.2,141.2,164.2z"/>
		<path class="st17" d="M148.9,184.9c-0.6,7.2-3.3,14.2-7.7,19.9c0-1.3,0-2.7-0.1-4.1c-0.1-5.1-0.5-10.5-1-15.9L148.9,184.9z"/>
		<path class="st10" d="M141.9,164.1c-8.4,1.2-25.1,29.8-25.1,29.8l21.7,12.1c0,0,7.4-15.2,12.8-24.8
			C157.1,170.7,152,162.6,141.9,164.1z"/>
		<path class="st17" d="M192.7,182.1c0,0-2.2-9-2-10.3c0.1-1.3,6.7,9.5,6.7,9.5C195.9,181.7,192.7,182.1,192.7,182.1z"/>
	</g>
	<g>
		<g>
			<path class="st15" d="M183.2,122.8l1,0.6c1.2,0,2.3,0.9,2.6,2.1c0.3,1.1-0.3,2.5-1.3,3c-0.2,0.1-0.3,0.2-0.4,0.3
				c-0.1,0.3,0.2,0.5,0.4,0.7c1.1,0.9,0.9,2.7,0,3.8s-2.5,1.4-3.9,1.3C181.2,130.6,183.6,126.8,183.2,122.8z"/>
		</g>
		<g>
			<path class="st15" d="M153.2,134c-1.5,0.1-3-0.9-3.6-2.2c-0.2-0.4-0.3-0.8-0.2-1.2c0.2-1.1,1.5-1.6,2.5-1.9
				c-1.2-0.3-2-1.5-2.3-2.7c-0.1-0.6-0.1-1.2,0.1-1.7c0.3-0.9,1.1-1.6,2-1.9c0.9-0.4,1.9-0.5,2.8-0.5l5.5,17.5
				c-1.2,0.3-2.5,0.4-3.7,0.2c-1.2-0.2-2.5-0.8-3.1-1.9C152.4,136.4,152.4,134.9,153.2,134z"/>
		</g>
		<path class="st22" d="M174.5,161.7c-2-2.8-1.3-6.9-0.8-8.3c0.2-0.8,0.5-1.5,0.9-2.3l-14.5-12.6c0.9,6.5,3.8,19-1.3,23.3
			c0,0,10.6,7.4,13.3,4.9C174.8,164.2,174.5,161.7,174.5,161.7z"/>
		<path class="st17" d="M162.8,145.2c-0.9,7.6,6.8,11.3,10.6,12.5c-0.3-1.5-0.1-3,0.4-4.3L162.8,145.2z"/>
		<g>
			<g>
				<path class="st22" d="M157.7,132.8c1.8,9,2.6,14.1,8,18.2c8.1,6,18.8,0.5,19.8-8.9c0.9-8.4-2.2-21.8-11.8-24.1
					C164.2,115.7,155.9,123.8,157.7,132.8z"/>
				<path class="st15" d="M155,122.1c0.6-5.2,13.5-6.9,17.5-4.8c0.6,0.3-6.6,5-6.1,4.8l-3.4,1.7c-0.6,0-1.6,0.7-1.9,2.5
					c0,0,2.3,13.9-1.3,18.4c-3.5-1.1-4.4-6.6-5.9-9.8C151.7,130.2,148.9,123.2,155,122.1z"/>
				<path class="st22" d="M155,140.9c1.1,2.2,3.1,3.8,5.1,4.4c3,1,3.6-2.1,3-4.9c-0.6-2.5-1.8-5.6-4.8-5.4
					C155.2,135.3,153.8,138.3,155,140.9z"/>
				<path class="st15" d="M171.7,133c0.1,0.9,0.7,1.6,1.4,1.5s1-0.9,0.9-1.8c-0.1-0.9-0.7-1.6-1.4-1.5
					C172,131.3,171.6,132.1,171.7,133z"/>
				<path class="st15" d="M180.8,132.7c0.1,0.9,0.7,1.6,1.4,1.5c0.6-0.1,1-0.9,0.9-1.8s-0.7-1.6-1.4-1.5
					C181.1,131,180.7,131.8,180.8,132.7z"/>
				<path class="st23" d="M177.7,132.6c0,0,3.6,4.2,4.9,6c-1.2,1.3-3.5,1.1-3.5,1.1L177.7,132.6z"/>
				<path class="st15" d="M168.5,129.7c0.2,0,0.3,0,0.4-0.1c1.4-1.4,3.1-1.1,3.1-1.1c0.2,0,0.5-0.1,0.5-0.3s-0.1-0.5-0.4-0.5
					c-0.1,0-2.1-0.4-3.9,1.4c-0.2,0.2-0.2,0.5,0,0.6C168.4,129.6,168.4,129.6,168.5,129.7z"/>
				<path class="st20" d="M156.8,138.1c0.3-0.6,1-0.9,1.7-0.8s1.3,0.5,1.7,0.9c0.6,0.6,1,1.3,1.2,2.1"/>
				<path class="st15" d="M184.5,128.3c0.1,0,0.2-0.1,0.2-0.2c0.1-0.2,0.1-0.5-0.1-0.6c-2-1.5-3.9-0.8-4-0.7
					c-0.2,0.1-0.4,0.3-0.3,0.6c0.1,0.2,0.3,0.3,0.6,0.3c0.1,0,1.6-0.5,3.2,0.6C184.2,128.3,184.3,128.3,184.5,128.3z"/>
			</g>
			<g>
				<path class="st15" d="M152,117.9c0.5-2.2,3.2-3,5.4-2.8c-0.4-2.6,2.9-4.4,5.1-4.6c2.3-0.2,3.2,0.6,3.2,0.6
					c-0.2,0.1,0.5-1.4,1-1.9c1.7-2.1,4.8-3.1,7.4-2.3c2.6,0.8,4.6,3.3,4.9,6.1c1.2-1.5,3.8-1.8,5.3-0.5c1.5,1.3,1.7,3.9,0.4,5.4
					c1.7-0.1,3.3,1.5,3.3,3.2c0,1.7-1.6,3.2-3.3,3.1c0.1,1.9,0.2,4.3,0.3,6.2l-3.4-6.7c-1.4-0.3-1.7-0.9-2.2-2.3
					c-0.8,1.9-2.4,1.9-4.4,2.1c-2,0.1-4.1-0.9-5.1-2.7c-0.8,2-2.6,3.6-4.7,3.8c-2.1,0.2-4.3-1.4-4.6-3.5c-1,2-3.6,3-5.6,2.2
					C152.8,122.6,151.5,120.1,152,117.9z"/>
			</g>
			<g>
				<path class="st15" d="M178.7,142.8c-0.8,1-1.5,2.1-2.1,3.2c-0.2-0.1-0.4-0.1-0.6-0.2c-2.8-1.1-3.8-2.5-4-3.8
					c-0.1-0.6,0-1.3,0.2-1.8c0.1-0.3,0.3-0.7,0.5-1c1.2,1.5,3.7,2.7,5.1,3.3C178.4,142.6,178.7,142.8,178.7,142.8z"/>
				<path class="st12" d="M177.8,142.4l-0.6,0.9c-2.7-1-4.4-2.1-4.9-3.2c0.1-0.3,0.3-0.7,0.5-1C173.8,140.6,176.4,141.8,177.8,142.4
					z"/>
				<path class="st24" d="M176,145.7c-2.8-1.1-3.8-2.5-4-3.8c1.1,0.4,2.1,1,2.9,1.8C175.5,144.2,175.9,144.9,176,145.7z"/>
			</g>
		</g>
	</g>
</g>
<g id="Character_2">
	<g>
		<path class="st25" d="M294,194.3c1.2,1.3,2.2,2.5,3.3,3.7c1,1.3,2,2.5,3,3.8c1.9,2.5,3.8,5.1,5.6,7.8c1.8,2.6,3.5,5.3,5.1,8.2
			l1.4,2.2c0.5,0.8,0.9,1.7,1.3,2.5c0.8,1.7,1.5,3.4,2,5.2c1.1,3.3,1.8,6.8,2.2,10.2c0.4,3.3,0.5,6.7,0.4,10.1
			c-0.1,3.3-0.4,6.5-0.8,9.8c-0.5,3.3-1.1,6.5-2,9.6l-8.2-1.4c0-2.8,0-5.9-0.2-8.8c-0.2-2.9-0.4-5.9-0.8-8.7
			c-0.6-5.5-2-10.8-4.1-15.9c-0.5-1.1-1.1-2.2-1.7-3.3c-0.3-0.5-0.6-1-1-1.5c-0.2-0.2-0.3-0.4-0.5-0.7l-0.7-0.9
			c-1.8-2.4-3.7-4.7-5.6-7.1c-1.9-2.4-3.7-4.7-5.6-7l-5.5-6.8L294,194.3z"/>
		<path class="st15" d="M271.4,200.2c-1.8,6.4,17.5,19.3,17.5,19.3l16.5-12.6c-3.7-6-7.9-11.6-12.6-16.8
			C285.1,181.6,274.3,189.8,271.4,200.2z"/>
		<path class="st26" d="M271.4,200.2c-1.8,6.4,17.5,19.3,17.5,19.3l16.5-12.6c-3.7-6-7.9-11.6-12.6-16.8
			C285.1,181.6,274.3,189.8,271.4,200.2z"/>
		<path class="st17" d="M284.9,207.8c-2.8-1.7-3.4,1.8-3.2,6.4c3.8,3.1,7.2,5.4,7.2,5.4l2.1-1.6
			C289.6,213.7,287.7,209.5,284.9,207.8z"/>
		<g>
			<g>
				<g>
					<g>
						<g>
							<g>
								<g>
									<path class="st25" d="M309.4,263.8c0,0-3.3,0.5-5,2.8c-1.6,2.3-3.5,3.7-4.6,5.5c-1.1,1.8,1.6,0.9,2.9,0.2
										c1.3-0.8,2.9-1.6,3.3-0.5c0.4,1.1-1.3,11-0.5,12.4c0.7,1.5,1.5-0.1,1.5-0.1s-0.3,2.4,0.6,2.8c0.2,0.1,1,0,1.3-1.1
										c0.7-2.4,2-7.6,2-7.6c-0.1,0.3-1.2,6.8-1.3,7.8c-0.1,1.3,0.6,1.9,1.3,1.9c1.1,0,2.8-8,3.1-8.3c0,0-1.1,4.6-0.1,5.5
										c1,0.9,1.9-1.9,2.2-4.5c0.3-2.4,1.4-7.1,1.4-9.6c0-3.1-0.6-5.1-3.2-6.4C311.7,263.6,309.4,263.8,309.4,263.8z"/>
								</g>
							</g>
						</g>
					</g>
				</g>
			</g>
		</g>
	</g>
	<path class="st15" d="M228.9,292.2c0,0,20.9,1.8,44.2-1.1c23.3-3,23.5-6.6,23.5-6.6l-7-8c0,0-15.8-3.9-17.1-4.1
		C271.3,272.1,228.9,292.2,228.9,292.2z"/>
	<g>
		<polygon class="st25" points="320.2,448.3 310.7,450.4 301.3,430.4 313.7,425.6 		"/>
		<path class="st15" d="M309.4,448.8l3-1.1c0.7-0.2,1.4-0.1,2,0.3c2.6,1.7,3.6,0.4,4.6-2.5c1.1-0.6,2,0.7,2.2,1l5.2,7.4
			c0.4,0.6,0.3,1.5-0.3,1.9c-0.1,0.1-0.2,0.1-0.4,0.2c-3.6,1.3-5.4,1.9-9.9,3.5l-13.9,5c-3.8,1.4-5.9-2.2-4.5-3.1
			c6.4-4,10.7-7.9,12.1-10.7C309.8,450.2,309.3,450.1,309.4,448.8z"/>
		<path class="st10" d="M305.9,453.2c0.9-0.4,1.8-0.8,2.7-1.4c0.1-0.1,0.1-0.2,0-0.2c0,0-0.1-0.1-0.1-0.1c-0.5-0.1-4.9-0.5-5.6,0.5
			c-0.1,0.2-0.2,0.4-0.1,0.6c0.1,0.4,0.5,0.7,0.9,0.8C304.4,453.6,305.2,453.5,305.9,453.2z M307.9,451.8c-1,0.6-3,1.6-4.1,1.3
			c-0.3-0.1-0.5-0.3-0.6-0.6c0-0.1,0-0.2,0-0.3C303.6,451.7,306.1,451.7,307.9,451.8z"/>
		<path class="st10" d="M308.5,451.9c0,0,0.1,0,0.1,0c0-0.1,0-0.1,0-0.2c-0.1-0.2-2.3-3.5-4.2-2.6c-0.5,0.3-0.5,0.5-0.5,0.8
			C304.1,450.8,307.2,451.9,308.5,451.9L308.5,451.9z M304.7,449.3c1.3-0.5,2.8,1.4,3.4,2.2c-1.5-0.2-3.7-1.1-3.8-1.8
			c0,0-0.1-0.2,0.3-0.4L304.7,449.3z"/>
		<path class="st11" d="M308.1,451.9c1.1-0.2,2.3,0,3.1,0.7"/>
		<path class="st11" d="M306.8,453.9c1.1-0.2,2.3,0,3.1,0.7"/>
		<path class="st11" d="M304.9,456c1.1-0.2,2.3,0,3.1,0.7"/>
	</g>
	<g>
		<polygon class="st25" points="262.3,462 252.5,462.2 247.4,440.7 260.5,438.5 		"/>
		<path class="st15" d="M251.6,460.4l3.2-0.4c0.7-0.1,1.4,0.2,1.9,0.7c2.2,2.2,3.4,1.1,5.1-1.5c1.2-0.3,1.8,1.1,1.9,1.4l3.5,8.2
			c0.3,0.7,0,1.5-0.7,1.8c-0.1,0.1-0.3,0.1-0.4,0.1c-3.8,0.5-5.6,0.8-10.4,1.4l-14.6,2c-4,0.6-5.4-3.3-3.8-3.9c7.1-2.6,12-5.5,14-8
			C251.8,461.8,251.3,461.6,251.6,460.4z"/>
		<path class="st10" d="M247.3,463.9c1-0.2,2-0.4,2.9-0.8c0.1,0,0.1-0.2,0.1-0.2c0,0-0.1-0.1-0.1-0.1c-0.5-0.2-4.7-1.5-5.6-0.6
			c-0.2,0.1-0.2,0.4-0.2,0.6c0.1,0.4,0.3,0.8,0.7,1C245.8,464,246.6,464.1,247.3,463.9z M249.5,463c-1.1,0.4-3.3,1-4.2,0.4
			c-0.3-0.2-0.4-0.4-0.5-0.7c0-0.1,0-0.2,0.1-0.3C245.4,462,247.8,462.5,249.5,463z"/>
		<path class="st10" d="M250.1,463.2c0,0,0.1,0,0.1,0c0-0.1,0.1-0.1,0-0.2c0-0.2-1.5-3.9-3.6-3.4c-0.5,0.1-0.6,0.4-0.6,0.6
			C246.1,461.3,248.8,462.9,250.1,463.2L250.1,463.2z M246.9,459.9c1.4-0.2,2.5,2,2.9,2.8c-1.4-0.5-3.4-1.9-3.4-2.5
			c0-0.1,0-0.2,0.4-0.3L246.9,459.9z"/>
		<path class="st11" d="M249.7,463.1c1.1,0,2.2,0.5,2.9,1.4"/>
		<path class="st11" d="M248,464.8c1.1,0,2.2,0.5,2.9,1.4"/>
		<path class="st11" d="M245.7,466.4c1.1,0,2.2,0.5,2.9,1.4"/>
	</g>
	<path class="st25" d="M269.1,162.5c-1,6.6-1.8,18.8,3,23c-3.4,3.7-7.9,8-15.8,8.6c-7.8,0.6-6.7-4.9-4.7-7.8
		c7.3-2.1,6.9-7.5,5.4-12.6L269.1,162.5z"/>
	<path class="st15" d="M249.1,154.8c-0.1,0.7-0.6,1.3-1.1,1.2s-0.8-0.7-0.7-1.4s0.6-1.2,1.1-1.2C249,153.5,249.3,154.1,249.1,154.8z
		"/>
	<path class="st27" d="M248.8,155.5c-1.2,2.1-2.7,4-4.4,5.6c0.9,0.9,2.1,1.3,3.3,1.2L248.8,155.5z"/>
	<path class="st15" d="M251.2,152.2c-0.1-0.1-0.2-0.2-0.2-0.3c-0.2-1.1-0.8-2-1.8-2.5c-0.2-0.1-0.3-0.3-0.2-0.6
		c0.1-0.2,0.3-0.3,0.6-0.2l0,0c1.2,0.6,2.1,1.8,2.3,3.2c0,0.2-0.1,0.4-0.4,0.5C251.4,152.3,251.3,152.3,251.2,152.2z"/>
	<path class="st25" d="M273.8,156.8c-2.2,8.7-3.1,13.9-8.4,17.5c-8,5.5-18-0.6-18.4-9.8c-0.4-8.2,3.3-21,12.6-22.9
		c6.6-1.4,13.1,2.9,14.4,9.5C274.3,153,274.3,155,273.8,156.8z"/>
	<path class="st15" d="M255.9,158.2c-2.4-3-1.1-9.3,0.7-12.2c-1.9,1.1-8.2,0.3-8-4.7c0.4-7.3,12.7-8.3,19.3-6.6
		c7.6,2,14.2,9.6,17,7.2c2.5,5-2.4,6.4-2.4,6.4s4.1,12.3-14,23.2c-2.4-0.5-4.8-0.5-7.2-0.1c-0.5,0-1-0.3-1.4-0.7
		C258.1,169,253.5,163.2,255.9,158.2z"/>
	<path class="st15" d="M281.7,148.1c0,0,3.3,0.9,4.5-1.2C285.8,150,283.9,149.9,281.7,148.1z"/>
	<path class="st25" d="M261.5,161.4c-1.2,1.9-3.1,3.2-5.3,3.7c-2.9,0.6-4.2-2.1-3.2-4.7c0.9-2.4,3.5-5.6,6.3-5
		S262.9,159,261.5,161.4z"/>
	<g>
		<path class="st10" d="M255.7,266.6c0,0,10.5,74.2,16.4,99.9c6.4,28.2,29.7,76.7,29.7,76.7l17.3-5.6c0,0-14.7-38.8-19.9-66.6
			c-3.5-18.9-6.4-57.8-6.6-78.6c-0.1-16.4-5.8-26.7-5.8-26.7L255.7,266.6z"/>
		<path class="st17" d="M265.5,300.2c0.7,20.5,1.1,22.9,1,38.8c-2.9-17-5.9-36.6-8.1-51.2L265.5,300.2z"/>
		<path class="st10" d="M246.4,453.7l16.1-0.9c0,0-2.8-57.6-3.2-85.7c-0.1-8.5,0.8-20.6,2.3-33.5c1.8-16.3,2.8-22.8,5.1-43.3
			c1.7-14.7,3.3-24.1,3.3-24.1L232,266c0,0,1,72.4,3,99.8C237.3,394.3,246.4,453.7,246.4,453.7z"/>
		<polygon class="st10" points="245.5,454.8 263.7,454.2 263.5,448.3 245.2,448.7 		"/>
		<polygon class="st18" points="245.5,454.8 263.7,454.2 263.5,448.3 245.2,448.7 		"/>
		<polygon class="st10" points="301.4,444.2 319.7,437.6 317.7,432.1 298.8,437.6 		"/>
		<polygon class="st18" points="301.4,444.2 319.7,437.6 317.7,432.1 298.8,437.6 		"/>
		<path class="st17" d="M274.2,288.7l-8.7,11.5C265.5,300.2,272.4,298.4,274.2,288.7z"/>
	</g>
	<g>
		<path class="st15" d="M289.4,191.4c-6,34.2,7.3,86,7.2,93.1c-11.8-17-53.2,7.4-67.7,7.7c6.9-60.4,10.8-105,10.8-105s3-0.8,7.2-1.5
			c1.3-0.2,2.7-0.4,4.2-0.6c0.8-0.1,1.6-0.2,2.5-0.3c6.8-0.3,13.7-0.2,20.5,0.2c1.3,0.1,2.6,0.1,3.9,0.3c1.3,0.2,2.3,0.3,3.4,0.4
			c1.7,0.2,3.2,0.5,4.6,0.7C288.3,186.9,289.8,189.1,289.4,191.4C289.4,191.4,289.4,191.4,289.4,191.4z"/>
		<path class="st26" d="M289.4,191.4c-6,34.2,7.3,86,7.2,93.1c-11.8-17-53.2,7.4-67.7,7.7c6.9-60.4,10.8-105,10.8-105s3-0.8,7.2-1.5
			c1.3-0.2,2.7-0.4,4.2-0.6c0.8-0.1,1.6-0.2,2.5-0.3c6.8-0.3,13.7-0.2,20.5,0.2c1.3,0.1,2.6,0.1,3.9,0.3c1.3,0.2,2.3,0.3,3.4,0.4
			c1.7,0.2,3.2,0.5,4.6,0.7C288.3,186.9,289.8,189.1,289.4,191.4C289.4,191.4,289.4,191.4,289.4,191.4z"/>
		<path class="st17" d="M238.5,202.6c-0.3,1.8-0.5,3.7-0.7,5.7c3.2-0.1,7.1-0.7,8.9-2.5C248.7,203.6,242.6,202.9,238.5,202.6z"/>
	</g>
	<g>
		<g>
			<g>
				<g>
					<g>
						<g>
							<g>
								<g>
									<path class="st25" d="M235.9,130.8c0,0,3.2,1,5.7-0.3c2.5-1.3,4.8-1.7,6.6-2.8c1.8-1.1-1-1.5-2.5-1.5
										c-1.5,0.1-3.3,0.1-3.1-1s6.1-9.2,6.1-10.8c0-1.6-1.4-0.6-1.4-0.6s1.4-2,0.8-2.8c-0.2-0.2-0.9-0.4-1.7,0.4
										c-1.8,1.8-5.2,5.8-5.2,5.8c0.2-0.2,4.2-5.5,4.6-6.3c0.6-1.1,0.4-2-0.3-2.3c-0.9-0.5-6.1,5.9-6.5,6c0,0,3.1-3.6,2.6-4.8
										c-0.5-1.3-2.5,0.8-4,3.1c-1.3,2-4.5,5.7-5.6,7.9c-1.4,2.7-1.8,4.9,0,7.1C233.7,130,235.9,130.8,235.9,130.8z"/>
								</g>
							</g>
						</g>
					</g>
				</g>
			</g>
		</g>
	</g>
	<path class="st25" d="M230.6,125.2c0,0-17.3,24.6-18.6,34.1c-1.3,9.5,20,36.9,20,36.9l14.9-7.2c0,0-20.7-24.1-20.5-30.1
		c0.2-6,12.8-30.3,12.8-30.3L230.6,125.2z"/>
	<path class="st15" d="M237.8,202.5c-2.9-2.3-16.1-15.7-16.1-15.7l10.7-18c0,0,15.3,8.7,24.3,15.4
		C265.9,191,247.1,204.3,237.8,202.5z"/>
	<path class="st26" d="M237.8,202.5c-2.9-2.3-16.1-15.7-16.1-15.7l10.7-18c0,0,15.3,8.7,24.3,15.4
		C265.9,191,247.1,204.3,237.8,202.5z"/>
</g>
</svg>
