<?xml version="1.0" encoding="utf-8"?>
<!-- Generator: Adobe Illustrator 23.0.2, SVG Export Plug-In . SVG Version: 6.00 Build 0)  -->
<svg version="1.1" id="katman_1" xmlns="http://www.w3.org/2000/svg" xmlns:xlink="http://www.w3.org/1999/xlink" x="0px" y="0px"
	 viewBox="0 0 500 500" style="enable-background:new 0 0 500 500;" xml:space="preserve">
<style type="text/css">
	.st0{fill:#EBEBEB;}
	.st1{fill:#E6E6E6;}
	.st2{fill:#F5F5F5;}
	.st3{fill:#FFFFFF;}
	.st4{fill:#F0F0F0;}
	.st5{fill:#FAFAFA;}
	.st6{fill:#E0E0E0;}
	.st7{fill:#263238;}
	.st8{fill:#339999;}
	.st9{opacity:0.7;fill:#FFFFFF;enable-background:new    ;}
	.st10{opacity:0.4;fill:#FFFFFF;enable-background:new    ;}
	.st11{opacity:0.1;fill:#FFFFFF;enable-background:new    ;}
	.st12{fill:#FF8B7B;}
	.st13{opacity:0.2;enable-background:new    ;}
	.st14{fill:#FF5652;}
</style>
<g id="freepik--background-complete--inject-14">
	<rect x="-26.8" y="412.6" class="st0" width="553.7" height="0.3"/>
	<rect x="370.7" y="423.1" class="st0" width="100.7" height="0.3"/>
	<rect x="312.4" y="420.1" class="st0" width="27.6" height="0.3"/>
	<rect x="360.2" y="433.4" class="st0" width="42.7" height="0.3"/>
	<rect x="31.3" y="431.5" class="st0" width="25.1" height="0.3"/>
	<rect x="66.2" y="431.5" class="st0" width="29.8" height="0.3"/>
	<rect x="170.6" y="426.9" class="st0" width="51.9" height="0.3"/>
	<path class="st0" d="M235.6,363.2H21.8c-3.5,0-6.3-2.8-6.3-6.3V56.3c0-3.5,2.8-6.3,6.3-6.3h213.8c3.5,0,6.3,2.8,6.3,6.3
		c0,0,0,0,0,0v300.5C241.9,360.4,239.1,363.2,235.6,363.2z M21.8,50.2c-3.3,0-6,2.7-6,6v300.6c0,3.3,2.7,6,6,6h213.8
		c3.3,0,6-2.7,6-6V56.3c0-3.3-2.7-6-6-6H21.8z"/>
	<path class="st0" d="M475.1,363.2H261.3c-3.5,0-6.3-2.8-6.3-6.3V56.3c0-3.5,2.9-6.3,6.3-6.3h213.8c3.5,0,6.3,2.8,6.3,6.3v300.6
		C481.4,360.3,478.6,363.2,475.1,363.2z M261.3,50.2c-3.3,0-6,2.7-6,6v300.6c0,3.3,2.7,6,6,6h213.8c3.3,0,6-2.7,6-6V56.3
		c0-3.3-2.7-6-6-6H261.3z"/>
	<rect x="323.6" y="77.5" class="st1" width="116.2" height="129.1"/>
	<rect x="298.8" y="77.5" class="st2" width="135.7" height="129.1"/>
	<rect x="312.1" y="85.8" class="st3" width="109" height="112.5"/>
	<rect x="365.9" y="84.3" class="st2" width="1.4" height="115.4"/>
	<rect x="63" y="84.8" class="st1" width="148.4" height="299.4"/>
	<rect x="52.7" y="84.8" class="st4" width="156" height="299.4"/>
	<rect x="65.7" y="97.8" class="st3" width="129.9" height="273.3"/>
	<polygon class="st5" points="114.7,371.1 140.3,97.8 110.8,97.8 85.1,371.1 	"/>
	<polygon class="st5" points="137.6,371.1 163.3,97.8 148.5,97.8 122.9,371.1 	"/>
	<rect x="267.6" y="295.3" class="st1" width="27.7" height="117.3"/>
	<polygon class="st5" points="283.7,412.6 267.6,412.6 267.6,396.4 300.6,396.4 	"/>
	<rect x="432.3" y="295.3" class="st1" width="27.7" height="117.3"/>
	<rect x="267.6" y="295.3" class="st5" width="178.9" height="111.7"/>
	<polygon class="st5" points="430.3,412.6 446.4,412.6 446.4,396.4 413.4,396.4 	"/>
	<rect x="280.1" y="336.9" class="st4" width="153.8" height="27.9"/>
	<rect x="280.1" y="370.8" class="st4" width="153.8" height="27.9"/>
	<path class="st5" d="M404.7,339.9h-95.4c-2.8,0-5.1-2.3-5.1-5.1v-0.3l0,0h105.5l0,0v0.3C409.7,337.6,407.5,339.9,404.7,339.9
		L404.7,339.9z"/>
	<rect x="280.1" y="303" class="st4" width="153.8" height="27.9"/>
	<path class="st5" d="M404.7,306h-95.4c-2.8,0-5.1-2.3-5.1-5.1v-0.3l0,0h105.5l0,0v0.3C409.7,303.7,407.5,306,404.7,306z"/>
	<path class="st5" d="M404.7,373.8h-95.4c-2.8,0-5.1-2.3-5.1-5.1v-0.3l0,0h105.5l0,0v0.3C409.7,371.6,407.5,373.8,404.7,373.8z"/>
	<rect x="296.9" y="242.6" class="st2" width="5.5" height="50.7"/>
	<rect x="297.6" y="242.6" class="st5" width="1.5" height="50.7"/>
	<path class="st4" d="M287.6,295.3h24.1c0-1.7-1.3-3-3-3c0,0,0,0,0,0h-18C288.9,292.3,287.6,293.6,287.6,295.3L287.6,295.3z"/>
	<path class="st4" d="M289.1,278.6L289.1,278.6c0.9,0,1.6-0.7,1.6-1.6v-28c0-0.9-0.7-1.6-1.6-1.6l0,0c-0.9,0-1.6,0.7-1.6,1.6v28
		C287.5,277.9,288.2,278.6,289.1,278.6C289.1,278.6,289.1,278.6,289.1,278.6z"/>
	<path class="st6" d="M275.1,256h48.9l-1.7-4.8c-2.3-6.4-8.5-10.7-15.3-10.7h-14.9c-6.9,0-13,4.3-15.3,10.7L275.1,256z"/>
	<rect x="422.1" y="242.6" class="st2" width="5.5" height="50.7"/>
	<rect x="422.8" y="242.6" class="st5" width="1.5" height="50.7"/>
	<path class="st4" d="M412.8,295.3h24.1c0-1.7-1.4-3-3-3h-18.1C414.1,292.3,412.8,293.6,412.8,295.3L412.8,295.3z"/>
	<path class="st4" d="M414.3,278.6L414.3,278.6c0.9,0,1.6-0.7,1.6-1.6v-28c0-0.9-0.7-1.6-1.6-1.6l0,0c-0.9,0-1.6,0.7-1.6,1.6v28
		C412.8,277.9,413.5,278.6,414.3,278.6C414.3,278.6,414.3,278.6,414.3,278.6z"/>
	<path class="st6" d="M400.3,256h49l-1.7-4.8c-2.3-6.5-8.5-10.7-15.3-10.7h-14.8c-6.9,0-13,4.3-15.3,10.7L400.3,256z"/>
</g>
<g id="freepik--Shadow--inject-14">
	<ellipse id="freepik--path--inject-14" class="st2" cx="250" cy="450" rx="214.7" ry="12.5"/>
</g>
<g id="freepik--Speedometer--inject-14">
	<path class="st7" d="M157.6,115.3l-0.7-0.9c4.9-3.9,9.9-7.6,15.2-11.1l0.6,0.9C167.4,107.7,162.4,111.4,157.6,115.3z"/>
	<path class="st7" d="M149.4,122.3l-0.8-0.8c1.5-1.3,3-2.7,4.5-4l0.7,0.9C152.4,119.6,150.9,120.9,149.4,122.3z"/>
	
		<ellipse transform="matrix(0.7522 -0.659 0.659 0.7522 -72.3307 187.2555)" class="st7" cx="212.8" cy="189.8" rx="127.6" ry="89.9"/>
	
		<ellipse transform="matrix(0.7522 -0.659 0.659 0.7522 -72.3307 187.2555)" class="st3" cx="212.8" cy="189.8" rx="110.7" ry="78"/>
	<path class="st8" d="M235.8,104.2c-47.9,3.9-97.1,45.4-109.8,92.6l173.6-14.1C312.3,135.5,283.7,100.3,235.8,104.2z"/>
	<path class="st9" d="M126,196.8l86.8-7l-45.1-55.6C147.8,151,132.3,173.2,126,196.8z"/>
	<path class="st10" d="M235.8,104.2c-24,1.9-48.2,13.3-68.1,30l45.1,55.6L235.8,104.2L235.8,104.2z"/>
	<path class="st11" d="M235.8,104.2l-23,85.6l77.6-65.5C278.9,110,259.7,102.2,235.8,104.2z"/>
	
		<ellipse transform="matrix(0.7522 -0.659 0.659 0.7522 -72.3307 187.2555)" class="st3" cx="212.8" cy="189.8" rx="45.2" ry="31.8"/>
	
		<ellipse transform="matrix(0.7522 -0.659 0.659 0.7522 -72.3307 187.2555)" class="st7" cx="212.8" cy="189.8" rx="26.4" ry="18.6"/>
	<path class="st7" d="M277.8,144c-20.7,7.8-40.2,18.2-58.3,30.9l8.2,14.6C246.1,176.4,262.9,161.1,277.8,144z"/>
	<path class="st8" d="M135.9,229.5c-0.9,0-1.7-0.7-1.8-1.6c0-0.2,0-0.3,0-0.5c0.3-1.3,1.3-2.2,2.6-2.4l95.4-7.6
		c0.9-0.1,1.8,0.5,1.9,1.4c0,0.2,0,0.4,0,0.6c-0.3,1.3-1.3,2.2-2.6,2.4l-95.4,7.6L135.9,229.5z"/>
	<path class="st8" d="M218.5,238.6c-0.9,0.1-1.7-0.6-1.8-1.6c0-0.2,0-0.3,0-0.5c0.3-1.3,1.3-2.2,2.6-2.4l31-2.5
		c0.9-0.1,1.8,0.5,1.9,1.4c0,0.2,0,0.4,0,0.6c-0.3,1.3-1.3,2.2-2.6,2.4l-31,2.5L218.5,238.6z"/>
	<path class="st8" d="M60.8,278.2c-0.9,0-1.7-0.7-1.8-1.6c0-0.2,0-0.3,0-0.5c0.3-1.3,1.3-2.3,2.7-2.4l31-2.5
		c0.9-0.1,1.8,0.5,1.9,1.4c0,0.2,0,0.4,0,0.6c-0.3,1.3-1.3,2.2-2.6,2.4l-31,2.5L60.8,278.2z"/>
	<path class="st8" d="M88.4,260.1c-0.9,0-1.7-0.7-1.7-1.6c0-0.2,0-0.3,0-0.5c0.3-1.3,1.3-2.2,2.6-2.4l93-7.4
		c0.9-0.1,1.8,0.5,1.9,1.4c0,0.2,0,0.4,0,0.6c-0.3,1.3-1.3,2.2-2.6,2.4l-93,7.4L88.4,260.1z"/>
</g>
<g id="freepik--Character--inject-14">
	<polygon class="st12" points="288.1,359.5 292,367.5 311.5,360.5 307.6,352.5 	"/>
	<polygon class="st12" points="193.3,425 199.2,431.7 214.3,414.5 207,409.5 	"/>
	<path class="st7" d="M200.5,431l-4-10.1c-0.1-0.3-0.5-0.5-0.8-0.5l-7.9,1.7c-0.7,0.2-1.2,0.9-1,1.6c0,0.1,0,0.2,0.1,0.2
		c1.4,3.2,2.5,5.5,4.1,9.6c1,2.5,3.8,10.2,5.2,13.7c1.4,3.5,4.9,2.4,4.7,0.8c-1.2-7-1.2-12.6-0.2-15.4
		C200.8,432,200.8,431.5,200.5,431z"/>
	<path class="st7" d="M292.9,367l-4.3-8.7c-0.2-0.3-0.5-0.5-0.9-0.4l-7.9,1.9c-0.7,0.2-1.1,0.8-1,1.5c0,0.1,0.1,0.2,0.1,0.3
		c1.6,3.1,4,7.6,6,11.5c2.3,4.6,2.6,4.8,5.3,10.2c1.6,3.3,5.4,2.5,5,1c-1.7-6.9-2.7-8.1-2-15.1C293.4,368.5,293.2,367.7,292.9,367z"
		/>
	<path class="st12" d="M369.6,216.4c-0.4,2.9-0.9,6-1.2,9s-0.7,6.1-0.9,9.1c-0.6,5.9-0.8,11.9-0.5,17.8c0,0.7,0.1,1.4,0.2,2.1l0.2,2
		c0,1.2,0.8,2.3,1.9,2.6c1,0.5,2.1,0.8,3.2,1c2.7,0.4,5.5,0.5,8.2,0.3c1.5-0.1,2.9-0.2,4.4-0.4c1.5-0.2,3-0.4,4.4-0.6l2.1,6.3
		c-1.5,0.7-3.1,1.4-4.7,1.9c-1.6,0.6-3.2,1.1-4.8,1.5c-1.7,0.4-3.4,0.8-5.1,1c-1.8,0.3-3.6,0.4-5.5,0.4c-2.1,0-4.1-0.3-6.1-0.9
		c-2.4-0.7-4.6-2-6.4-3.8c-1.8-1.9-3.1-4.3-3.7-6.9c-0.1-0.3-0.1-0.5-0.1-0.8l-0.1-0.6l-0.2-1.3c-0.2-0.9-0.3-1.7-0.4-2.6
		c-0.7-6.6-0.9-13.3-0.4-19.9c0.2-3.3,0.4-6.5,0.8-9.7c0.4-3.2,0.8-6.4,1.4-9.7L369.6,216.4z"/>
	<path class="st8" d="M355.4,208.4c-5.8,6.2-3.5,21.8-3.5,21.8l16.4,2.5c0,0,3.8-8.9,2.4-18C368.9,203.6,361.8,201.6,355.4,208.4z"
		/>
	<path class="st13" d="M360.7,215.2c-2.7-3.5-5.5-4.7-7-4.4c-3.6,7.1-1.8,19.3-1.8,19.3l11.6,1.9C364.8,228.4,365,220.7,360.7,215.2
		z"/>
	<path class="st12" d="M387.2,260.2l9.5-6.2l2.1,9.6c0,0-5.9,6-10.8,1.8L387.2,260.2z"/>
	<polygon class="st12" points="402.6,251.9 403.7,260.2 398.8,263.6 396.7,254 	"/>
	<polygon class="st13" points="311.5,360.5 301.5,364.1 297.5,356.1 307.6,352.5 	"/>
	<polygon class="st13" points="207,409.5 214.3,414.5 207.2,422.6 199.9,417.5 	"/>
	<path class="st8" d="M321.7,187c-6.7,34.5-24.7,65.5-27.2,72.4c6.4,2.7,30.7,12.8,43.9,18.3c24.6-36.7,28.4-63.2,29-69.6
		c0.1-0.9-0.3-1.8-1.1-2.4c-1.1-0.8-2.7-2-4.8-3.3c-1.1-0.7-2.3-1.5-3.6-2.2c-0.7-0.4-1.4-0.8-2.1-1.2c-6.1-2.9-12.3-5.5-18.7-7.8
		c-1.2-0.4-2.4-0.9-3.6-1.2c-1.2-0.4-2.2-0.7-3.3-1C325.5,187.8,321.7,187,321.7,187z"/>
	<path class="st3" d="M348.1,236.1l2.4,0.6c-1.6,1.5-3.5,2.7-5.7,3.3c-2.4,0.7-5,0.8-7.5,0.1c-2.2-0.4-4.2-1.5-5.7-3.1
		c-1.3-1.5-2-3.4-1.8-5.4c0.2-2.3,0.8-4.6,1.9-6.6c1.3-2.5,3-4.8,5.1-6.6c1.9-1.8,4.2-3.1,6.6-3.8c2.2-0.6,4.6-0.7,6.8-0.1
		c1.7,0.4,3.3,1.3,4.4,2.6c1.1,1.3,1.6,3,1.5,4.6c-0.1,1.9-0.6,3.8-1.5,5.5c-1.2,2.3-2.9,4.2-4.9,5.7c-2.7,1.9-5.2,2.6-7.5,2
		c-0.5-0.1-0.9-0.3-1.2-0.7c-0.2-0.4-0.2-0.9,0-1.3c-1.1,0.7-2.5,1-3.9,0.7c-1.2-0.2-2.1-1.2-2.3-2.3c-0.3-1.5,0-3.1,0.9-4.4
		c1.1-2.1,2.6-3.9,4.4-5.3c2.3-1.8,4.4-2.5,6.3-2c1.2,0.2,2.1,1.3,2.1,2.6l1-1.4l3,0.8l-6.6,9.1c-0.3,0.4-0.5,0.7-0.8,1.1
		c-0.1,0.2-0.1,0.4-0.1,0.5c0,0.1,0.1,0.2,0.2,0.2c0.6,0,1.3-0.1,1.8-0.4c1.2-0.5,2.4-1.3,3.3-2.2c1-1,1.9-2.1,2.5-3.3
		c1.1-1.8,1.4-4,0.8-6c-0.6-1.8-2.1-3-4.5-3.6c-2-0.5-4-0.5-6,0.2c-2,0.7-3.9,1.8-5.4,3.3c-1.6,1.5-2.9,3.3-4,5.3
		c-0.9,1.7-1.4,3.5-1.4,5.4c0,1.6,0.6,3.1,1.7,4.2c1.2,1.2,2.8,2,4.4,2.3c1.7,0.4,3.4,0.5,5.1,0.3
		C345.2,237.7,346.8,237.1,348.1,236.1z M338.6,227.6c-0.5,0.8-0.7,1.7-0.7,2.6c0.1,0.6,0.5,1,1,1.2c0.5,0.1,1,0.1,1.4-0.1
		c0.5-0.1,0.9-0.4,1.3-0.6c0.9-0.6,1.6-1.3,2.3-2.1c0.8-0.9,1.4-1.8,1.9-2.8c0.5-0.7,0.7-1.6,0.6-2.5c-0.1-0.6-0.5-1.1-1.1-1.2
		c-0.8-0.1-1.6,0-2.3,0.4c-1,0.6-1.8,1.3-2.5,2.2C339.8,225.6,339.1,226.6,338.6,227.6z"/>
	<path class="st12" d="M347.8,171.2c-1.3,6.5-4.7,18-10.6,20.2c1.9,4.6,4.6,10.1,11.6,13.4s7.8-2.2,7-5.5c-6-4.4-3.8-9.3-0.7-13.5
		L347.8,171.2z"/>
	<path class="st13" d="M350.8,177.2l4.4,8.6c-0.7,1-1.4,2-1.9,3.1c-2.4-1.4-4.8-5.7-3.9-8.5C349.6,179.2,350.1,178.1,350.8,177.2z"
		/>
	<path class="st7" d="M365.5,171.5c6.9,0.5,13.1-16.8,3-18.8c-6.8-1.4-6.8,2.7-7.5,7.2C360.2,164.3,361.1,171.1,365.5,171.5z"/>
	<path class="st12" d="M348.6,162.7c-1.8,8.6-3.3,13.6-0.2,19.1c4.7,8.3,16.2,7.3,20.6-0.7c3.9-7.1,6.2-20.1-1.2-25.7
		c-5.3-4.1-12.8-3.1-16.9,2.2C349.7,159.1,348.9,160.9,348.6,162.7z"/>
	<path class="st7" d="M347.1,168.9c6.9,0.5,11.6-15.3,1.5-17.4c-6.8-1.4-7.4,2.6-7.3,6.9C341.4,163,342.7,168.5,347.1,168.9z"/>
	<path class="st7" d="M352.7,156.8c4.7,2.3,27.3,7.1,26-2.6S365.3,140,365.3,140s7,7.7,1.2,5.8c-5.8-1.8-7.5-3.2-14.4-4.4
		c0,0,6.8,5.7-1.1,4.1c-4.6-1-9.4-0.2-13.5,2.1c4.1,2.8,6.4,7.6,5.8,12.5C342.9,168.6,352.7,156.8,352.7,156.8z"/>
	<path class="st12" d="M343,169.3c0.3,2,1.4,3.8,3,5c2.1,1.6,4.1-0.2,4.2-2.8c0.1-2.3-0.8-6-3.3-6.5S342.7,166.8,343,169.3z"/>
	<path class="st7" d="M309.7,265.7l-9.2,29.7l47.5,29.9c-8.2,13.7-49.9,27.3-49.9,27.3l6.6,13.5c0,0,58.1-4.4,69.8-30.1
		c11.3-24.6-36.2-58.4-36.2-58.4L309.7,265.7z"/>
	<path class="st13" d="M315.9,305.2l-8.3-5.2l10.2-14.8C317.8,285.1,318.1,297,315.9,305.2z"/>
	<path class="st13" d="M315.9,305.2l-8.3-5.2l10.2-14.8C317.8,285.1,318.1,297,315.9,305.2z"/>
	<path class="st7" d="M328.1,273.4c0,0-38.3,63.8-54.2,84.4c-17.3,22.7-62.2,65.3-62.2,65.3l-13.4-9.3c0,0,38.8-42.7,53.4-66.4
		c16.7-26.9,42.8-88.1,42.8-88.1L328.1,273.4z"/>
	<polygon class="st8" points="213.1,424.6 197.4,413.7 200.7,409 218.5,420.9 	"/>
	<polygon class="st8" points="305.3,368 297.4,352 302.5,349.4 311.7,367.2 	"/>
	<path class="st7" d="M360.8,168.6c-0.2,0.7,0,1.4,0.5,1.5c0.5,0.1,1-0.3,1.2-1s0-1.4-0.5-1.5S361,167.9,360.8,168.6z"/>
	<path class="st7" d="M368.6,170.7c-0.2,0.7,0,1.4,0.5,1.5c0.5,0.1,1-0.3,1.2-1c0.2-0.7,0-1.4-0.5-1.5S368.8,170,368.6,170.7z"/>
	<path class="st14" d="M366.1,170.4c0.3,2.3,0.8,4.6,1.7,6.8c-1.1,0.4-2.4,0.3-3.5-0.3L366.1,170.4z"/>
	<path class="st7" d="M360.9,178c-1.5-0.6-2.7-1.8-3.3-3.3c0-0.1,0-0.2,0.1-0.3c0.1,0,0.2,0,0.3,0.1c0.7,1.7,2.1,2.9,3.9,3.3
		c0.1,0,0.2,0.1,0.2,0.2c0,0,0,0,0,0c0,0.1-0.1,0.2-0.3,0.1c0,0,0,0,0,0C361.4,178.2,361.1,178.1,360.9,178z"/>
	<path class="st7" d="M359.1,165.4c-0.1,0-0.1-0.1-0.2-0.1c-0.1-0.2-0.1-0.4,0.1-0.6c0,0,0,0,0,0c1.1-0.9,2.5-1.1,3.8-0.8
		c0.2,0.1,0.3,0.3,0.3,0.5c-0.1,0.2-0.3,0.3-0.5,0.3l0,0c-1-0.3-2.2,0-3,0.7C359.4,165.4,359.2,165.4,359.1,165.4z"/>
	<path class="st7" d="M372.7,168.9c-0.1-0.1-0.2-0.2-0.2-0.3c-0.2-1.1-0.8-2-1.8-2.5c-0.2-0.1-0.3-0.3-0.3-0.5
		c0.1-0.2,0.3-0.3,0.5-0.3c0,0,0,0,0.1,0c1.2,0.6,2.1,1.7,2.3,3.1c0,0.2-0.1,0.4-0.3,0.5c0,0,0,0,0,0
		C372.9,169,372.8,169,372.7,168.9z"/>
	<path class="st8" d="M200.2,434.4c-0.3-0.7-0.5-1.5-0.6-2.3c0-0.1,0-0.2,0.1-0.2c0.1,0,0.2,0,0.2,0c0.3,0.2,3,2.1,2.9,3.3
		c0,0.3-0.2,0.5-0.4,0.6c-0.4,0.2-0.8,0.2-1.2,0C200.8,435.4,200.4,434.9,200.2,434.4z M200.2,432.5c0.3,1.5,0.8,2.6,1.3,2.9
		c0.3,0.1,0.6,0.1,0.8-0.1c0.2-0.1,0.2-0.2,0.2-0.2C202.5,434.5,201.2,433.3,200.2,432.5z"/>
	<path class="st8" d="M199.7,432.1c0-0.1,0-0.2,0.1-0.3c0,0,0,0,0,0c0.1,0,2.5-0.9,3.7-0.3c0.3,0.1,0.5,0.4,0.6,0.7l0,0
		c0.1,0.3,0,0.7-0.3,0.9C203,433.6,200.5,432.8,199.7,432.1C199.7,432.1,199.7,432.1,199.7,432.1z M203.6,432.2
		c-0.1-0.2-0.2-0.3-0.3-0.4c-1-0.3-2-0.2-2.9,0.2c1,0.6,2.7,1,3.2,0.7C203.6,432.7,203.7,432.6,203.6,432.2L203.6,432.2L203.6,432.2
		z"/>
	<path class="st8" d="M292.2,368.3c0-0.1,0-0.2,0.1-0.2c0.1,0,0.2,0,0.2,0c0.4,0.3,3.6,2.7,3.5,3.9c0,0.2-0.1,0.4-0.3,0.6l0,0
		c-0.3,0.2-0.7,0.3-1.1,0.1C293.4,372.2,292.6,369.8,292.2,368.3L292.2,368.3z M295.6,371.9c-0.1-0.7-1.6-2.1-2.8-3.1
		c0.6,1.9,1.3,3.2,2,3.5c0.2,0.1,0.5,0.1,0.7-0.1C295.6,372.2,295.6,372.1,295.6,371.9L295.6,371.9z"/>
	<path class="st8" d="M292.2,368.3c0-0.1,0.1-0.1,0.1-0.2c0.1,0,2.3-0.9,3.7-0.3c0.4,0.2,0.7,0.5,0.8,0.9l0,0c0.2,0.5,0,0.8-0.2,1
		c-0.8,0.6-3.5-0.5-4.4-1.2C292.2,368.4,292.2,368.4,292.2,368.3L292.2,368.3z M296.5,369.1c0-0.1,0-0.1-0.1-0.2l0,0
		c-0.1-0.3-0.3-0.5-0.6-0.7c-1-0.3-2-0.2-3,0.2c1.1,0.7,3.1,1.3,3.6,1C296.5,369.3,296.5,369.2,296.5,369.1L296.5,369.1z
		 M296.7,368.8L296.7,368.8z"/>
	<path class="st12" d="M322,202.1l-3.5-2.3c-1.2-0.8-2.4-1.6-3.7-2.3c-2.5-1.5-5-3-7.5-4.3c-2.5-1.4-5.1-2.6-7.7-3.8
		c-1.3-0.6-2.6-1.1-3.9-1.6l-1.9-0.7l-0.5-0.2l-0.2-0.1l0,0c0,0-0.1,0-0.2-0.1c-0.9-0.1-1.9,0-2.8,0.2c-1.3,0.2-2.5,0.5-3.8,0.9
		c-2.7,0.9-5.4,1.9-8,3c-5.4,2.3-10.8,4.9-16.2,7.6l-3.8-5.5c4.8-4.1,9.9-7.8,15.3-11.1c2.8-1.7,5.7-3.2,8.7-4.6
		c1.6-0.7,3.3-1.3,5-1.8c2-0.6,4.2-0.9,6.3-0.9c0.7,0,1.4,0.1,2.1,0.3l0.5,0.1l0.3,0.1l0.6,0.2l2.4,0.6c1.6,0.5,3.2,1,4.7,1.5
		c3.1,1.1,6.1,2.4,9,3.8c2.9,1.4,5.7,2.9,8.5,4.6c1.4,0.8,2.7,1.7,4.1,2.6s2.6,1.8,4.1,2.8L322,202.1z"/>
	<path class="st8" d="M335.3,192.7c-2-4.9-20.5-11.5-20.5-11.5l-6,15.6c0,0,6.5,4.3,11.8,7.5C330.8,210.5,339.1,202.2,335.3,192.7z"
		/>
	<path class="st12" d="M264.1,196.1l-3.8,8.1l-5.7-7.4c0,0,4.3-7.3,7.4-4.4L264.1,196.1z"/>
	<polygon class="st12" points="252.4,206.8 249.5,200.3 254.6,196.8 260.3,204.3 	"/>
</g>
</svg>
