<?xml version="1.0" encoding="utf-8"?>
<!-- Generator: Adobe Illustrator 23.0.2, SVG Export Plug-In . SVG Version: 6.00 Build 0)  -->
<svg version="1.1" id="katman_1" xmlns="http://www.w3.org/2000/svg" xmlns:xlink="http://www.w3.org/1999/xlink" x="0px" y="0px"
	 viewBox="0 0 500 500" style="enable-background:new 0 0 500 500;" xml:space="preserve">
<style type="text/css">
	.st0{fill:#F5F5F5;}
	.st1{fill:#E0E0E0;}
	.st2{fill:#FAFAFA;}
	.st3{fill:#EBEBEB;}
	.st4{fill:#FFFFFF;}
	.st5{display:none;}
	.st6{display:inline;fill:#F5F5F5;}
	.st7{fill:#263238;}
	.st8{opacity:0.3;}
	.st9{fill:#455A64;}
	.st10{fill:#339999;}
	.st11{fill:#6F4439;}
	.st12{fill:#AE7461;}
	.st13{fill:#FFBF9D;}
	.st14{fill:#FF9A6C;}
	.st15{opacity:0.3;enable-background:new    ;}
</style>
<g id="Background_Complete">
	<g>
		<g>
			<g>
				<g>
					<path class="st0" d="M46.4,474.2c-1.3-1.1-4.3-4.7-2-8.9c0.8-1.5,2.6-2.3,4.2-3c1.6-0.7,3.3-1.3,4.6-2.4
						c2.5-2.1,3.2-5.7,4.8-8.5c1.9-3.3,5.5-5.7,9.2-5.5c4.3,0.2,7.9,3.7,9.5,7.7c1.6,4,1.7,8.4,1.7,12.8c0,2.4-0.1,5.1-1.8,6.7
						c-1.6,1.5-4.1,1.5-6.2,1.4c-7.8-0.2-15.6-0.5-23.5-0.7"/>
				</g>
			</g>
		</g>
		<g>
			<g>
				<g>
					<g>
						<path class="st1" d="M91.3,409.7H29.6L40.7,476c0.5,2.9,2.6,5.1,5.3,5.9c0.1,0,0.1,0,0.2,0.1c0.2,0,0.4,0.1,0.5,0.1
							c0.4,0.1,0.8,0.1,1.3,0.1c0,0,0,0,0,0.1l0.3,0c0,0,0,0,0,0h27.5c0.5,0,1-0.1,1.5-0.2c3.2-0.5,5.8-3.1,6.2-6.5l5.4-45.7
							l0.2-1.8h0l2.1-18.1L91.3,409.7z M79.7,452h-6.3l0.6-19.2h7.3L79.7,452z M81.9,432.7H88L85.7,452h-5.5L81.9,432.7z
							 M63.8,473.3l-0.4-16.7h9.1L72,473.3H63.8z M54,456.6h8.9l0.4,16.7h-8L54,456.6z M54.7,473.3h-7.4c-0.7-4.5-1.6-10.4-2.6-16.7
							h8.8L54.7,473.3z M53.6,452l-1.5-19.2h10.2l0.4,19.2H53.6z M63.4,452l-0.4-19.2h10.5L72.7,452H63.4z M62.8,428.1l-0.4-17.8
							h11.7l-0.6,17.8L62.8,428.1L62.8,428.1z M62.2,428.1H51.8l-1.4-17.8h11.4L62.2,428.1z M51.2,428.1h-11
							c-0.4-2.5-0.8-4.8-1.1-6.9c-1.2-7.2-1.6-9.9-1.8-10.9h12.6L51.2,428.1z M51.5,432.7L53,452h-9.1c-0.3-2-0.6-3.9-0.9-5.9
							c-0.7-4.5-1.4-9.1-2.1-13.3L51.5,432.7L51.5,432.7z M43.3,452h-6l-3.2-19.2h6.2C41.2,438.7,42.2,445.3,43.3,452z M44,456.6
							c0.9,5.8,1.8,11.5,2.6,16.7h-5.7l-2.8-16.7H44z M72.6,473.3l0.6-16.7h6.1l-1.4,16.7H72.6z M74.1,428.1l0.6-17.8h8.5l-1.5,17.8
							L74.1,428.1L74.1,428.1z M36.6,410.3c0.2,1.3,1.4,8.3,2.9,17.8h-6.2l-3-17.8H36.6z M83.2,473.3h-4.8l1.4-16.7h5.3L83.2,473.3z
							 M88.5,428.1h-6.2l1.5-17.8h6.8L88.5,428.1z"/>
					</g>
				</g>
			</g>
		</g>
	</g>
	<g>
		<g>
			<g>
				<g>
					<rect x="383.4" y="127.4" class="st2" width="83.2" height="74.4"/>
				</g>
			</g>
			<g>
				<g>
					<g>
						<path class="st1" d="M466.6,201.9c0,0,0-0.5,0-1.4c0-0.9,0-2.2,0-4c0-3.5,0-8.6,0-15.1c0-13-0.1-31.6-0.1-54l0.2,0.2
							c-24,0-52.6,0-83.2,0h0l0.2-0.2c0,27.1,0,52.6,0,74.4l-0.2-0.2c24.8,0,45.6,0.1,60.2,0.1c7.3,0,13,0,17,0.1c2,0,3.5,0,4.5,0
							c0.5,0,0.9,0,1.2,0C466.5,201.9,466.6,201.9,466.6,201.9s-0.1,0-0.4,0c-0.3,0-0.6,0-1.1,0c-1,0-2.5,0-4.5,0
							c-3.9,0-9.7,0-16.9,0.1c-14.6,0-35.4,0.1-60.3,0.1h-0.2v-0.2c0-21.9,0-47.4,0-74.4v-0.2h0.2h0c30.6,0,59.2,0,83.2,0h0.2v0.2
							c0,22.4-0.1,41-0.1,54.1c0,6.5,0,11.6,0,15.1c0,1.7,0,3,0,4C466.6,201.4,466.6,201.9,466.6,201.9z"/>
					</g>
				</g>
			</g>
		</g>
		<g>
			<g>
				<g>
					<path class="st1" d="M415.3,140.7c0,0.1-4.4,0.2-9.8,0.2c-5.4,0-9.8-0.1-9.8-0.2c0-0.1,4.4-0.2,9.8-0.2
						C410.9,140.5,415.3,140.6,415.3,140.7z"/>
				</g>
			</g>
		</g>
		<g>
			<g>
				<g>
					<path class="st1" d="M450.6,146.3c0,0.1-12,0.2-26.9,0.2c-14.8,0-26.9-0.1-26.9-0.2s12-0.2,26.9-0.2
						C438.5,146,450.6,146.1,450.6,146.3z"/>
				</g>
			</g>
		</g>
		<g>
			<g>
				<rect x="395.9" y="155.7" class="st1" width="3.5" height="3.5"/>
			</g>
		</g>
		<g>
			<g>
				<rect x="404.5" y="155.7" class="st1" width="3.5" height="3.5"/>
			</g>
		</g>
		<g>
			<g>
				<rect x="413.3" y="155.6" class="st1" width="3.5" height="3.5"/>
			</g>
		</g>
		<g>
			<g>
				<rect x="421.8" y="155.7" class="st1" width="3.5" height="3.5"/>
			</g>
		</g>
		<g>
			<g>
				<rect x="430.4" y="155.7" class="st1" width="3.5" height="3.5"/>
			</g>
		</g>
		<g>
			<g>
				<rect x="439" y="155.7" class="st1" width="3.5" height="3.5"/>
			</g>
		</g>
		<g>
			<g>
				<rect x="447.7" y="155.7" class="st3" width="3.5" height="3.5"/>
			</g>
		</g>
		<g>
			<g>
				<rect x="395.9" y="163.2" class="st3" width="3.5" height="3.5"/>
			</g>
		</g>
		<g>
			<g>
				<rect x="404.5" y="163.2" class="st1" width="3.5" height="3.5"/>
			</g>
		</g>
		<g>
			<g>
				<rect x="413.1" y="163.2" class="st3" width="3.5" height="3.5"/>
			</g>
		</g>
		<g>
			<g>
				<rect x="421.8" y="163.2" class="st1" width="3.5" height="3.5"/>
			</g>
		</g>
		<g>
			<g>
				<rect x="430.4" y="163.2" class="st1" width="3.5" height="3.5"/>
			</g>
		</g>
		<g>
			<g>
				<rect x="439.2" y="163" class="st1" width="3.5" height="3.5"/>
			</g>
		</g>
		<g>
			<g>
				<rect x="447.7" y="163.2" class="st1" width="3.5" height="3.5"/>
			</g>
		</g>
		<g>
			<g>
				<rect x="395.9" y="170.6" class="st1" width="3.5" height="3.5"/>
			</g>
		</g>
		<g>
			<g>
				<rect x="404.7" y="170.5" class="st1" width="3.5" height="3.5"/>
			</g>
		</g>
		<g>
			<g>
				<rect x="413.1" y="170.6" class="st1" width="3.5" height="3.5"/>
			</g>
		</g>
		<g>
			<g>
				<rect x="421.8" y="170.6" class="st3" width="3.5" height="3.5"/>
			</g>
		</g>
		<g>
			<g>
				<rect x="430.4" y="170.6" class="st1" width="3.5" height="3.5"/>
			</g>
		</g>
		<g>
			<g>
				<rect x="439" y="170.6" class="st1" width="3.5" height="3.5"/>
			</g>
		</g>
		<g>
			<g>
				<rect x="447.7" y="170.6" class="st1" width="3.5" height="3.5"/>
			</g>
		</g>
		<g>
			<g>
				<rect x="395.9" y="178.1" class="st1" width="3.5" height="3.5"/>
			</g>
		</g>
		<g>
			<g>
				<rect x="404.5" y="178.1" class="st1" width="3.5" height="3.5"/>
			</g>
		</g>
		<g>
			<g>
				<rect x="413.1" y="178.1" class="st1" width="3.5" height="3.5"/>
			</g>
		</g>
		<g>
			<g>
				<rect x="421.9" y="177.9" class="st1" width="3.5" height="3.5"/>
			</g>
		</g>
		<g>
			<g>
				<rect x="430.4" y="178.1" class="st1" width="3.5" height="3.5"/>
			</g>
		</g>
		<g>
			<g>
				<rect x="439" y="178.1" class="st3" width="3.5" height="3.5"/>
			</g>
		</g>
		<g>
			<g>
				<rect x="447.7" y="178.1" class="st1" width="3.5" height="3.5"/>
			</g>
		</g>
		<g>
			<g>
				<rect x="395.9" y="185.5" class="st1" width="3.5" height="3.5"/>
			</g>
		</g>
		<g>
			<g>
				<rect x="404.5" y="185.5" class="st3" width="3.5" height="3.5"/>
			</g>
		</g>
		<g>
			<g>
				<rect x="413.1" y="185.5" class="st1" width="3.5" height="3.5"/>
			</g>
		</g>
		<g>
			<g>
				<rect x="421.8" y="185.5" class="st1" width="3.5" height="3.5"/>
			</g>
		</g>
		<g>
			<g>
				<rect x="430.4" y="185.5" class="st1" width="3.5" height="3.5"/>
			</g>
		</g>
		<g>
			<g>
				<rect x="439.2" y="185.4" class="st1" width="3.5" height="3.5"/>
			</g>
		</g>
		<g>
			<g>
				<rect x="447.7" y="185.5" class="st1" width="3.5" height="3.5"/>
			</g>
		</g>
	</g>
	<g>
		<g>
			<g>
				<g>
					<ellipse class="st1" cx="420.6" cy="74.5" rx="30.3" ry="30.3"/>
				</g>
			</g>
		</g>
		<g>
			<g>
				<g>
					<circle class="st4" cx="420.9" cy="74.2" r="27.4"/>
				</g>
			</g>
		</g>
		<g>
			<g>
				<g>
					<g>
						<g>
							<g>
								<g>
									<g>
										<g>
											<g>
												<path class="st3" d="M393.2,72.5c0,0,0,0.2,0,0.4c0,0.3,0,0.7,0,1.3c0,0.3,0,0.6,0,1c0,0.4,0.1,0.7,0.1,1.2
													c0,0.4,0.1,0.9,0.1,1.4c0,0.5,0.2,1,0.3,1.5c0.3,2.2,1.2,4.7,2.6,7.5c1.4,2.8,3.5,5.7,6.5,8.2c0.4,0.3,0.7,0.6,1.1,1
													c0.4,0.3,0.8,0.6,1.2,0.9c0.4,0.3,0.8,0.6,1.3,0.9c0.5,0.3,0.9,0.5,1.4,0.8c0.2,0.1,0.5,0.3,0.7,0.4
													c0.2,0.1,0.5,0.2,0.7,0.3c0.5,0.2,1,0.4,1.5,0.7c0.5,0.2,1.1,0.4,1.6,0.5c0.5,0.2,1.1,0.4,1.6,0.5
													c1.1,0.2,2.3,0.5,3.4,0.6c0.6,0.1,1.2,0.2,1.8,0.2c0.6,0,1.2,0,1.8,0c0.3,0,0.6,0,0.9,0c0.3,0,0.6-0.1,0.9-0.1
													c0.6-0.1,1.2-0.1,1.9-0.2c1.2-0.3,2.5-0.4,3.7-0.8l0.9-0.3c0.2,0,0.3-0.1,0.5-0.1l0.5-0.2c0.6-0.2,1.2-0.5,1.8-0.7
													c0.6-0.3,1.2-0.6,1.8-0.9c0.3-0.2,0.6-0.3,0.9-0.5l0.8-0.6c1.2-0.7,2.2-1.6,3.3-2.4c0.5-0.5,1-1,1.5-1.4l0.4-0.4
													l0.3-0.4l0.7-0.8l0.7-0.8l0.6-0.9l0.6-0.9L444,89c0.1-0.2,0.2-0.3,0.3-0.5c0.4-0.6,0.7-1.2,1.1-1.9
													c0.3-0.7,0.6-1.3,0.9-2c1.1-2.7,1.7-5.6,2-8.5c0.2-3-0.1-5.9-0.8-8.7c-0.2-0.7-0.4-1.4-0.6-2.1c-0.3-0.7-0.5-1.3-0.8-2
													l-0.2-0.5l-0.2-0.5l-0.5-0.9l-0.5-0.9l-0.6-0.9l-0.6-0.9l-0.3-0.4l-0.3-0.4c-0.4-0.5-0.9-1.1-1.3-1.6
													c-1-1-1.9-2-2.9-2.8l-0.8-0.7c-0.3-0.2-0.5-0.4-0.8-0.6c-0.6-0.4-1.1-0.8-1.6-1.1c-0.6-0.3-1.1-0.6-1.7-1l-0.4-0.2
													c-0.1-0.1-0.3-0.1-0.4-0.2l-0.9-0.4c-1.2-0.6-2.4-0.9-3.6-1.3c-0.6-0.2-1.2-0.3-1.8-0.4c-0.3-0.1-0.6-0.1-0.9-0.2
													c-0.3-0.1-0.6-0.1-0.9-0.1c-0.6-0.1-1.2-0.1-1.8-0.2c-0.6,0-1.2,0-1.8,0c-1.2-0.1-2.3,0.1-3.5,0.2
													c-0.6,0-1.1,0.2-1.7,0.3c-0.6,0.1-1.1,0.2-1.6,0.3c-0.5,0.2-1.1,0.3-1.6,0.5c-0.3,0.1-0.5,0.2-0.8,0.2
													c-0.3,0.1-0.5,0.2-0.7,0.3c-0.5,0.2-1,0.4-1.5,0.6c-0.5,0.2-0.9,0.5-1.4,0.7c-0.5,0.2-0.9,0.5-1.3,0.7
													c-0.4,0.3-0.8,0.5-1.2,0.8c-3.3,2.2-5.7,4.8-7.5,7.3c-1.7,2.6-2.9,5-3.5,7.1c-0.2,0.5-0.4,1-0.5,1.5
													c-0.1,0.5-0.2,0.9-0.3,1.3c-0.1,0.4-0.2,0.8-0.2,1.1c0,0.4-0.1,0.7-0.1,1c-0.1,0.6-0.1,1-0.2,1.3
													C393.3,72.4,393.2,72.5,393.2,72.5s0-0.2,0-0.4c0-0.3,0.1-0.7,0.1-1.3c0-0.3,0.1-0.6,0.1-1c0.1-0.4,0.1-0.7,0.2-1.1
													c0.1-0.4,0.2-0.9,0.3-1.3c0.1-0.5,0.3-1,0.4-1.5c0.6-2.1,1.8-4.6,3.5-7.2c1.8-2.6,4.2-5.2,7.5-7.4
													c0.4-0.3,0.8-0.5,1.3-0.8c0.4-0.3,0.9-0.5,1.4-0.7c0.5-0.2,0.9-0.5,1.4-0.7c0.5-0.2,1-0.4,1.5-0.6
													c0.3-0.1,0.5-0.2,0.8-0.3c0.3-0.1,0.5-0.2,0.8-0.2c0.5-0.2,1.1-0.3,1.6-0.5c0.5-0.1,1.1-0.2,1.7-0.3
													c0.6-0.1,1.1-0.3,1.7-0.3c1.2-0.1,2.3-0.3,3.5-0.2c0.6,0,1.2,0,1.8,0c0.6,0.1,1.2,0.1,1.8,0.2c0.3,0,0.6,0.1,0.9,0.1
													c0.3,0.1,0.6,0.1,0.9,0.2c0.6,0.1,1.2,0.3,1.8,0.4c1.2,0.4,2.5,0.7,3.6,1.3l0.9,0.4c0.1,0.1,0.3,0.1,0.4,0.2l0.4,0.2
													c0.6,0.3,1.2,0.7,1.7,1c0.6,0.4,1.1,0.8,1.7,1.1c0.3,0.2,0.6,0.4,0.8,0.6l0.8,0.7c1.1,0.8,2,1.9,3,2.9
													c0.4,0.5,0.9,1.1,1.3,1.6l0.3,0.4l0.3,0.4l0.6,0.9l0.6,0.9l0.5,0.9l0.5,1l0.2,0.5l0.2,0.5c0.3,0.7,0.5,1.3,0.8,2
													c0.2,0.7,0.4,1.4,0.6,2.1c0.7,2.8,1,5.8,0.9,8.8c-0.2,3-0.9,5.9-2,8.6c-0.3,0.7-0.6,1.3-0.9,2c-0.4,0.6-0.7,1.3-1.1,1.9
													c-0.1,0.2-0.2,0.3-0.3,0.5l-0.3,0.4l-0.6,0.9l-0.6,0.9l-0.7,0.8l-0.7,0.8l-0.3,0.4l-0.4,0.4c-0.5,0.5-1,1-1.5,1.5
													c-1.1,0.9-2.1,1.8-3.3,2.5l-0.9,0.6c-0.3,0.2-0.6,0.3-0.9,0.5c-0.6,0.3-1.2,0.6-1.8,0.9c-0.6,0.2-1.2,0.5-1.8,0.7
													l-0.5,0.2c-0.2,0.1-0.3,0.1-0.5,0.1l-0.9,0.3c-1.2,0.4-2.5,0.6-3.8,0.8c-0.6,0.1-1.3,0.1-1.9,0.2
													c-0.3,0-0.6,0.1-0.9,0.1c-0.3,0-0.6,0-0.9,0c-0.6,0-1.2,0-1.8,0c-0.6,0-1.2-0.1-1.8-0.2c-1.2-0.1-2.3-0.4-3.5-0.6
													c-0.6-0.1-1.1-0.3-1.6-0.5c-0.5-0.2-1.1-0.3-1.6-0.5c-0.5-0.2-1-0.5-1.5-0.7c-0.3-0.1-0.5-0.2-0.7-0.3
													c-0.2-0.1-0.5-0.3-0.7-0.4c-0.5-0.3-0.9-0.5-1.4-0.8c-0.5-0.3-0.9-0.6-1.3-0.9c-0.4-0.3-0.8-0.6-1.2-0.9
													c-0.4-0.3-0.8-0.7-1.1-1c-3-2.6-5.1-5.5-6.5-8.3c-1.4-2.8-2.2-5.4-2.5-7.6c-0.1-0.5-0.2-1-0.2-1.5
													c0-0.5-0.1-0.9-0.1-1.4c0-0.4-0.1-0.8-0.1-1.2c0-0.4,0-0.7,0-1c0-0.6,0-1,0-1.3C393.2,72.7,393.2,72.5,393.2,72.5z"/>
											</g>
										</g>
									</g>
								</g>
							</g>
						</g>
					</g>
				</g>
			</g>
		</g>
		<g>
			<g>
				<g>
					<g>
						<g>
							<g>
								<g>
									<g>
										<g>
											<g>
												<path class="st1" d="M433.4,74.9c0,0-0.3,0-1,0.1c-0.7,0-1.6,0-2.7,0.1c-2.3,0-5.4,0.1-9,0.1h-0.2v-0.2
													c0-0.6,0-1.2,0-1.8c0-4,0-7.6,0.1-10.2c0-1.3,0-2.3,0.1-3.1c0-0.7,0-1.1,0.1-1.1c0,0,0,0.4,0.1,1.1c0,0.8,0,1.8,0.1,3.1
													c0,2.6,0.1,6.2,0.1,10.2c0,0.6,0,1.2,0,1.8l-0.2-0.2c3.6,0,6.8,0,9,0.1c1.1,0,2,0,2.7,0.1
													C433.1,74.9,433.4,74.9,433.4,74.9z"/>
											</g>
										</g>
									</g>
								</g>
							</g>
						</g>
					</g>
				</g>
			</g>
			<g>
				<g>
					<g>
						<g>
							<g>
								<g>
									<g>
										<g>
											<g>
												<path class="st1" d="M420.8,51c0.1,0,0.2,1,0.2,2.3c0,1.3-0.1,2.3-0.2,2.3c-0.1,0-0.2-1-0.2-2.3
													C420.7,52.1,420.7,51,420.8,51z"/>
											</g>
										</g>
									</g>
								</g>
							</g>
						</g>
					</g>
				</g>
			</g>
			<g>
				<g>
					<g>
						<g>
							<g>
								<g>
									<g>
										<g>
											<g>
												<path class="st1" d="M433.4,54.7c0.1,0.1-0.6,0.8-1.5,1.7c-0.9,0.9-1.7,1.6-1.7,1.5c-0.1-0.1,0.6-0.8,1.5-1.7
													C432.6,55.3,433.3,54.7,433.4,54.7z"/>
											</g>
										</g>
									</g>
								</g>
							</g>
						</g>
					</g>
				</g>
			</g>
			<g>
				<g>
					<g>
						<g>
							<g>
								<g>
									<g>
										<g>
											<g>
												<path class="st1" d="M440.8,62.8c0,0.1-0.8,0.6-1.9,1.3c-1.1,0.7-1.9,1.2-2,1.1c-0.1-0.1,0.7-0.8,1.8-1.4
													C439.8,63.1,440.7,62.7,440.8,62.8z"/>
											</g>
										</g>
									</g>
								</g>
							</g>
						</g>
					</g>
				</g>
			</g>
			<g>
				<g>
					<g>
						<g>
							<g>
								<g>
									<g>
										<g>
											<g>
												<path class="st1" d="M445.1,74.7c0,0.1-1.4,0.2-3.2,0.2c-1.7,0-3.2-0.1-3.2-0.2s1.4-0.2,3.2-0.2
													C443.7,74.5,445.1,74.6,445.1,74.7z"/>
											</g>
										</g>
									</g>
								</g>
							</g>
						</g>
					</g>
				</g>
			</g>
			<g>
				<g>
					<g>
						<g>
							<g>
								<g>
									<g>
										<g>
											<g>
												<path class="st1" d="M401.2,74.3c0,0.1-1.3,0.2-3,0.2s-3-0.1-3-0.2s1.3-0.2,3-0.2S401.2,74.2,401.2,74.3z"/>
											</g>
										</g>
									</g>
								</g>
							</g>
						</g>
					</g>
				</g>
			</g>
			<g>
				<g>
					<g>
						<g>
							<g>
								<g>
									<g>
										<g>
											<g>
												<path class="st1" d="M404.3,83.1c0.1,0.1-0.9,1-2.3,2s-2.4,1.8-2.5,1.8c-0.1-0.1,1-1,2.3-2
													C403.2,83.9,404.3,83.1,404.3,83.1z"/>
											</g>
										</g>
									</g>
								</g>
							</g>
						</g>
					</g>
				</g>
			</g>
			<g>
				<g>
					<g>
						<g>
							<g>
								<g>
									<g>
										<g>
											<g>
												<path class="st1" d="M412,90c0.1,0.1-0.7,1.2-1.5,2.7c-0.9,1.4-1.5,2.7-1.6,2.6c-0.1,0,0.4-1.3,1.3-2.8
													C411,91,411.9,90,412,90z"/>
											</g>
										</g>
									</g>
								</g>
							</g>
						</g>
					</g>
				</g>
			</g>
			<g>
				<g>
					<g>
						<g>
							<g>
								<g>
									<g>
										<g>
											<g>
												<path class="st1" d="M420.8,98.9c-0.1,0-0.2-1.4-0.2-3.2s0.1-3.2,0.2-3.2c0.1,0,0.2,1.4,0.2,3.2
													C421,97.4,420.9,98.9,420.8,98.9z"/>
											</g>
										</g>
									</g>
								</g>
							</g>
						</g>
					</g>
				</g>
			</g>
			<g>
				<g>
					<g>
						<g>
							<g>
								<g>
									<g>
										<g>
											<g>
												<path class="st1" d="M434.5,94.7c0,0.1-1.3-0.6-2.6-1.8c-1.3-1.2-2.2-2.3-2.1-2.3c0.1-0.1,1.1,0.9,2.4,2.1
													C433.4,93.7,434.5,94.6,434.5,94.7z"/>
											</g>
										</g>
									</g>
								</g>
							</g>
						</g>
					</g>
				</g>
			</g>
			<g>
				<g>
					<g>
						<g>
							<g>
								<g>
									<g>
										<g>
											<g>
												<path class="st1" d="M440.9,87.8c-0.1,0.1-1-0.8-2.1-1.8c-1.1-1.1-1.9-2-1.8-2.1s1,0.8,2.1,1.8
													C440.1,86.8,440.9,87.7,440.9,87.8z"/>
											</g>
										</g>
									</g>
								</g>
							</g>
						</g>
					</g>
				</g>
			</g>
			<g>
				<g>
					<g>
						<g>
							<g>
								<g>
									<g>
										<g>
											<g>
												<path class="st1" d="M404,65.8c-0.1,0.1-0.9-0.6-1.8-1.6c-1-1-1.7-1.8-1.6-1.8s0.9,0.6,1.8,1.6
													C403.4,64.9,404.1,65.7,404,65.8z"/>
											</g>
										</g>
									</g>
								</g>
							</g>
						</g>
					</g>
				</g>
			</g>
			<g>
				<g>
					<g>
						<g>
							<g>
								<g>
									<g>
										<g>
											<g>
												<path class="st1" d="M411.9,57.5c-0.1,0.1-0.9-0.6-1.8-1.6c-0.9-0.9-1.6-1.7-1.6-1.8c0.1-0.1,0.9,0.6,1.8,1.6
													C411.3,56.6,412,57.4,411.9,57.5z"/>
											</g>
										</g>
									</g>
								</g>
							</g>
						</g>
					</g>
				</g>
			</g>
		</g>
		<g>
			<g>
				<g>
					<path class="st0" d="M396.4,74.5c0-14.6,11.4-26.5,25.8-27.4c-0.5,0-1.1-0.1-1.6-0.1c-15.2,0-27.4,12.3-27.4,27.4
						s12.3,27.4,27.4,27.4c0.5,0,1.1,0,1.6-0.1C407.8,101,396.4,89.1,396.4,74.5z"/>
				</g>
			</g>
		</g>
	</g>
	<g>
		<g>
			<g>
				<g>
					<rect x="38" y="50" class="st1" width="77.2" height="122.1"/>
				</g>
			</g>
		</g>
		<g>
			<g>
				<g>
					<rect x="40.1" y="52.3" class="st0" width="72.8" height="117.8"/>
				</g>
			</g>
		</g>
		<g>
			<g>
				<g>
					<g>
						<rect x="76.5" y="59.2" class="st4" width="29" height="45.1"/>
					</g>
				</g>
			</g>
			<g>
				<g>
					<g>
						<path class="st1" d="M92.6,63.2c0,0.6-0.5,1.1-1.1,1.1s-1.1-0.5-1.1-1.1s0.5-1.1,1.1-1.1S92.6,62.6,92.6,63.2z"/>
					</g>
				</g>
			</g>
		</g>
		<g>
			<g>
				<g>
					<g>
						<rect x="47.2" y="116.8" class="st4" width="29" height="45.1"/>
					</g>
				</g>
			</g>
			<g>
				<g>
					<g>
						<path class="st1" d="M63.3,120.7c0,0.6-0.5,1.1-1.1,1.1s-1.1-0.5-1.1-1.1c0-0.6,0.5-1.1,1.1-1.1
							C62.8,119.7,63.3,120.2,63.3,120.7z"/>
					</g>
				</g>
			</g>
		</g>
		<g>
			<g>
				<g>
					<g>
						<rect x="46.8" y="59.2" class="st4" width="24.8" height="35.2"/>
					</g>
				</g>
			</g>
			<g>
				<g>
					<g>
						<path class="st1" d="M60.1,62.4c0,0.5-0.4,0.9-0.9,0.9s-0.9-0.4-0.9-0.9s0.4-0.9,0.9-0.9C59.7,61.5,60.1,61.9,60.1,62.4z"/>
					</g>
				</g>
			</g>
		</g>
		<g>
			<g>
				<g>
					<g>
						
							<rect x="80.7" y="118.8" transform="matrix(0.9937 -0.1121 0.1121 0.9937 -13.5574 11.3389)" class="st4" width="26.7" height="14.8"/>
					</g>
				</g>
			</g>
			<g>
				<g>
					<g>
						<path class="st1" d="M94.5,121.7c0,0.5-0.4,0.9-0.9,0.9c-0.5,0-0.9-0.4-0.9-0.9s0.4-0.9,0.9-0.9
							C94,120.7,94.5,121.2,94.5,121.7z"/>
					</g>
				</g>
			</g>
		</g>
		<g>
			<g>
				<g>
					<g>
						<path class="st1" d="M72.4,127c0,0.1-4.6,0.2-10.2,0.2c-5.6,0-10.2-0.1-10.2-0.2s4.6-0.2,10.2-0.2
							C67.8,126.8,72.4,126.9,72.4,127z"/>
					</g>
				</g>
			</g>
		</g>
		<g>
			<g>
				<g>
					<g>
						<path class="st1" d="M72.4,130.3c0,0.1-4.6,0.2-10.2,0.2c-5.6,0-10.2-0.1-10.2-0.2c0-0.1,4.6-0.2,10.2-0.2
							C67.8,130.1,72.4,130.1,72.4,130.3z"/>
					</g>
				</g>
			</g>
		</g>
		<g>
			<g>
				<g>
					<g>
						<path class="st1" d="M72.4,133.5c0,0.1-4.6,0.2-10.2,0.2c-5.6,0-10.2-0.1-10.2-0.2c0-0.1,4.6-0.2,10.2-0.2
							C67.8,133.3,72.4,133.4,72.4,133.5z"/>
					</g>
				</g>
			</g>
		</g>
		<g>
			<g>
				<g>
					<g>
						<path class="st1" d="M72.4,136.7c0,0.1-4.6,0.2-10.2,0.2c-5.6,0-10.2-0.1-10.2-0.2s4.6-0.2,10.2-0.2
							C67.8,136.5,72.4,136.6,72.4,136.7z"/>
					</g>
				</g>
			</g>
		</g>
		<g>
			<g>
				<g>
					<g>
						<path class="st1" d="M72.4,139.9c0,0.1-4.6,0.2-10.2,0.2c-5.6,0-10.2-0.1-10.2-0.2c0-0.1,4.6-0.2,10.2-0.2
							C67.8,139.7,72.4,139.8,72.4,139.9z"/>
					</g>
				</g>
			</g>
		</g>
		<g>
			<g>
				<g>
					<g>
						<path class="st1" d="M72.4,143.2c0,0.1-4.6,0.2-10.2,0.2c-5.6,0-10.2-0.1-10.2-0.2s4.6-0.2,10.2-0.2
							C67.8,142.9,72.4,143,72.4,143.2z"/>
					</g>
				</g>
			</g>
		</g>
		<g>
			<g>
				<g>
					<g>
						<path class="st1" d="M72.4,146.4c0,0.1-4.6,0.2-10.2,0.2c-5.6,0-10.2-0.1-10.2-0.2s4.6-0.2,10.2-0.2
							C67.8,146.2,72.4,146.3,72.4,146.4z"/>
					</g>
				</g>
			</g>
		</g>
		<g>
			<g>
				<g>
					<g>
						<path class="st1" d="M104,123.6c0,0.1-4.5,0.9-10.1,1.6c-5.6,0.8-10.1,1.3-10.1,1.2c0-0.1,4.5-0.9,10.1-1.6
							C99.5,124,104,123.5,104,123.6z"/>
					</g>
				</g>
			</g>
		</g>
		<g>
			<g>
				<g>
					<g>
						<path class="st1" d="M104.4,125.6c0,0.1-4.5,0.9-10.1,1.6c-5.6,0.8-10.1,1.3-10.1,1.2s4.5-0.9,10.1-1.6
							C99.9,126,104.4,125.5,104.4,125.6z"/>
					</g>
				</g>
			</g>
		</g>
		<g>
			<g>
				<g>
					<g>
						<path class="st1" d="M104.8,127.5c0,0.1-4.5,0.9-10.1,1.6c-5.6,0.8-10.1,1.3-10.1,1.2s4.5-0.9,10.1-1.6
							C100.2,127.9,104.8,127.3,104.8,127.5z"/>
					</g>
				</g>
			</g>
		</g>
		<g>
			<g>
				<g>
					<g>
						<path class="st1" d="M103,68.6c0,0.1-5.2,0.2-11.5,0.2c-6.4,0-11.5-0.1-11.5-0.2s5.2-0.2,11.5-0.2
							C97.8,68.4,103,68.5,103,68.6z"/>
					</g>
				</g>
			</g>
		</g>
		<g>
			<g>
				<g>
					<g>
						<path class="st1" d="M103,70.5c0,0.1-5.2,0.2-11.5,0.2c-6.4,0-11.5-0.1-11.5-0.2s5.2-0.2,11.5-0.2
							C97.8,70.3,103,70.4,103,70.5z"/>
					</g>
				</g>
			</g>
		</g>
		<g>
			<g>
				<g>
					<g>
						<path class="st1" d="M103,72.4c0,0.1-5.2,0.2-11.5,0.2c-6.4,0-11.5-0.1-11.5-0.2s5.2-0.2,11.5-0.2
							C97.8,72.2,103,72.3,103,72.4z"/>
					</g>
				</g>
			</g>
		</g>
		<g>
			<g>
				<g>
					<g>
						<path class="st1" d="M103,74.3c0,0.1-5.2,0.2-11.5,0.2c-6.4,0-11.5-0.1-11.5-0.2s5.2-0.2,11.5-0.2
							C97.8,74.1,103,74.2,103,74.3z"/>
					</g>
				</g>
			</g>
		</g>
		<g>
			<g>
				<g>
					<g>
						<path class="st1" d="M103,76.3c0,0.1-5.2,0.2-11.5,0.2c-6.4,0-11.5-0.1-11.5-0.2S85.1,76,91.5,76C97.8,76,103,76.1,103,76.3z"
							/>
					</g>
				</g>
			</g>
		</g>
		<g>
			<g>
				<g>
					<g>
						<path class="st1" d="M103,78.2c0,0.1-5.2,0.2-11.5,0.2c-6.4,0-11.5-0.1-11.5-0.2S85.1,78,91.5,78C97.8,78,103,78.1,103,78.2z"
							/>
					</g>
				</g>
			</g>
		</g>
		<g>
			<g>
				<g>
					<g>
						<path class="st1" d="M103,80.1c0,0.1-5.2,0.2-11.5,0.2c-6.4,0-11.5-0.1-11.5-0.2s5.2-0.2,11.5-0.2C97.8,79.9,103,80,103,80.1z
							"/>
					</g>
				</g>
			</g>
		</g>
		<g>
			<g>
				<g>
					<g>
						<path class="st1" d="M103,85.8c0,0.1-5.2,0.2-11.5,0.2C85.1,86,80,85.9,80,85.8s5.2-0.2,11.5-0.2C97.8,85.6,103,85.7,103,85.8
							z"/>
					</g>
				</g>
			</g>
		</g>
		<g>
			<g>
				<g>
					<g>
						<path class="st1" d="M103.1,87.8c0,0.1-5.2,0.2-11.5,0.2c-6.4,0-11.5-0.1-11.5-0.2s5.2-0.2,11.5-0.2
							C98,87.6,103.1,87.7,103.1,87.8z"/>
					</g>
				</g>
			</g>
		</g>
		<g>
			<g>
				<g>
					<g>
						<path class="st1" d="M103.3,89.8c0,0.1-5.2,0.2-11.5,0.2c-6.4,0-11.5-0.1-11.5-0.2s5.2-0.2,11.5-0.2
							C98.1,89.6,103.3,89.7,103.3,89.8z"/>
					</g>
				</g>
			</g>
		</g>
		<g>
			<g>
				<g>
					<g>
						<path class="st1" d="M103.5,91.9c0,0.1-5.2,0.2-11.5,0.2c-6.4,0-11.5-0.1-11.5-0.2s5.2-0.2,11.5-0.2
							C98.3,91.6,103.5,91.7,103.5,91.9z"/>
					</g>
				</g>
			</g>
		</g>
		<g>
			<g>
				<g>
					<g>
						<path class="st1" d="M103.6,93.9c0,0.1-5.2,0.2-11.5,0.2c-6.4,0-11.5-0.1-11.5-0.2s5.2-0.2,11.5-0.2
							C98.5,93.7,103.6,93.8,103.6,93.9z"/>
					</g>
				</g>
			</g>
		</g>
		<g>
			<g>
				<g>
					<g>
						<path class="st1" d="M103.8,95.9c0,0.1-5.2,0.2-11.5,0.2c-6.4,0-11.5-0.1-11.5-0.2s5.2-0.2,11.5-0.2
							C98.6,95.7,103.8,95.8,103.8,95.9z"/>
					</g>
				</g>
			</g>
		</g>
	</g>
</g>
<g id="Background_Simple" class="st5">
	<path class="st6" d="M77.5,100.7l0.8-3.8c6.7-32,30-58.1,61.1-67c4-1.1,8.1-2,12.2-2.5c29.8-3.9,61.4,8.6,80.8,31.9
		C244,73,252.1,90.6,267.7,99.2c20.3,11.2,45.1,3,66.6-5.4s46.3-16.5,66.6-5.2c12.7,7.1,20.7,20.6,24.8,34.6
		c10.9,37-2.9,78.5-29.4,106.1s-63.9,42.4-101.7,47.8c-52.9,7.5-109.6-3.2-152.8-35.5C98.6,209.3,71.1,154.3,77.5,100.7z"/>
</g>
<g id="Floor">
	<g>
		<path class="st7" d="M480.1,482.3c0,0.1-103,0.3-230.1,0.3c-127.1,0-230.2-0.1-230.2-0.3c0-0.1,103-0.3,230.2-0.3
			C377.1,482.1,480.1,482.2,480.1,482.3z"/>
	</g>
</g>
<g id="Tasks">
	<g>
		<g>
			<g>
				<g>
					<g>
						<g>
							<path class="st1" d="M356.3,376.5H146.1c-5.1,0-9.2-4.1-9.2-9.2v-306c0-5.1,4.1-9.2,9.2-9.2h210.1c5.1,0,9.2,4.1,9.2,9.2v306
								C365.5,372.3,361.4,376.5,356.3,376.5z"/>
						</g>
					</g>
					<g>
						<g>
							<g>
								<path class="st7" d="M356.3,376.5c0,0,0.2,0,0.7,0c0.5,0,1.2-0.1,2.1-0.4c0.9-0.3,1.9-0.8,3-1.6c1.1-0.9,2.1-2.1,2.8-3.8
									c0.3-0.8,0.5-1.8,0.6-2.8c0.1-1,0-2.1,0-3.2c0-2.2,0-4.7,0-7.3c0-5.3,0-11.4,0-18.3c0-27.6,0-67.5-0.1-116.8
									c0-24.7,0-51.7,0-80.7c0-14.5,0-29.5,0-44.9c0-7.7,0-15.6,0-23.5c0-4,0-8,0-12c0-2-0.8-3.9-2-5.4c-1.3-1.5-3-2.6-5-3.1
									c-1-0.2-2-0.2-3-0.2c-1,0-2,0-3.1,0c-2.1,0-4.1,0-6.2,0c-4.1,0-8.3,0-12.5,0c-8.3,0-16.8,0-25.3,0c-17.1,0-34.5,0-52.2,0
									c-35.5,0-72.2,0-109.8,0c-2.3,0-4.6,0.9-6.2,2.5c-1.7,1.6-2.7,3.8-2.8,6.1c0,4.7,0,9.3,0,14c0,9.3,0,18.5,0,27.7
									c0,18.3,0,36.4,0,54.1c0,35.5,0,69.7,0,102.3c0,32.6,0,63.6,0,92.6c0,3.6,0,7.2,0,10.8c0,1.8,0,3.6,0,5.3
									c0.1,1.7,0.7,3.4,1.6,4.8c1,1.4,2.4,2.5,3.9,3.2c0.8,0.3,1.6,0.5,2.5,0.6c0.8,0.1,1.7,0.1,2.6,0.1c3.4,0,6.8,0,10.2,0
									c13.5,0,26.4,0,38.7,0c49.3,0,89.2,0.1,116.8,0.1c13.8,0,24.5,0,31.8,0c3.6,0,6.4,0,8.3,0
									C355.3,376.5,356.3,376.5,356.3,376.5s-1,0-2.8,0c-1.9,0-4.6,0-8.3,0c-7.3,0-18,0-31.8,0c-27.6,0-67.5,0-116.8,0.1
									c-12.3,0-25.3,0-38.7,0c-3.4,0-6.8,0-10.2,0c-0.9,0-1.7,0-2.6-0.1c-0.9-0.1-1.7-0.3-2.6-0.7c-1.6-0.7-3.1-1.8-4.1-3.3
									c-1-1.5-1.6-3.2-1.7-5c0-1.8,0-3.5,0-5.3c0-3.6,0-7.2,0-10.8c0-29,0-60,0-92.6c0-32.6,0-66.8,0-102.3c0-17.7,0-35.8,0-54.1
									c0-9.2,0-18.4,0-27.7c0-4.7,0-9.3,0-14c0.1-2.4,1.2-4.7,2.9-6.4c1.7-1.7,4.1-2.6,6.5-2.6c37.6,0,74.4,0,109.8,0
									c17.7,0,35.2,0,52.2,0c8.5,0,17,0,25.3,0c4.2,0,8.3,0,12.5,0c2.1,0,4.1,0,6.2,0c1,0,2,0,3.1,0c1,0,2.1,0,3.1,0.2
									c2,0.4,3.9,1.6,5.2,3.2c1.3,1.6,2.1,3.6,2.1,5.7c0,4,0,8,0,12c0,7.9,0,15.8,0,23.5c0,15.4,0,30.4,0,44.9c0,29,0,56,0,80.7
									c0,49.3-0.1,89.2-0.1,116.8c0,6.9,0,13,0,18.3c0,2.7,0,5.1,0,7.3c0,1.1,0,2.2,0,3.2c-0.1,1-0.3,2-0.6,2.8
									c-0.7,1.7-1.7,3-2.8,3.8c-1.1,0.9-2.2,1.3-3,1.6c-0.9,0.3-1.6,0.4-2.1,0.4C356.5,376.5,356.3,376.5,356.3,376.5z"/>
							</g>
						</g>
					</g>
				</g>
				<g class="st8">
					<g>
						<polygon points="156.8,369.1 348.7,369.1 346.6,329.2 346.6,308 156.8,337.7 						"/>
					</g>
				</g>
				<g class="st8">
					<g>
						<polygon points="308.9,52.7 313.2,65.6 313.2,71.9 308.3,71.9 						"/>
					</g>
				</g>
				<g>
					<g>
						<g>
							<polygon class="st4" points="147.1,65 147.1,363.1 302.6,363.1 355.3,363.1 355.3,65 							"/>
							<g>
								<g>
									<g>
										<path class="st7" d="M355.3,309.8c0,0,0-0.4,0-1.1c0-0.8,0-1.9,0-3.4c0-3,0-7.4,0-13.2c0-11.6,0-28.5-0.1-49.9
											c0-43,0-104.1-0.1-177.1l0.2,0.2c-61.5,0-132.7,0-208.2,0l0.2-0.2c0,0.1,0,0.2,0,0.3c0,114.6,0,219.2-0.1,297.8l-0.2-0.2
											c47.9,0,86.8,0.1,113.7,0.1c13.4,0,23.9,0,31,0c3.5,0,6.2,0,8.1,0c1.8,0,2.8,0,2.8,0s-0.9,0-2.8,0c-1.8,0-4.5,0-8.1,0
											c-7.1,0-17.5,0-31,0c-26.9,0-65.8,0-113.7,0.1h-0.2v-0.2c0-78.6,0-183.2-0.1-297.8c0-0.1,0-0.2,0-0.3v-0.2h0.2
											c75.5,0,146.7,0,208.2,0h0.2V65c0,72.9-0.1,134.1-0.1,177.1c0,21.5,0,38.4-0.1,49.9c0,5.8,0,10.2,0,13.2
											c0,1.5,0,2.6,0,3.4C355.3,309.4,355.3,309.8,355.3,309.8z"/>
									</g>
								</g>
							</g>
						</g>
					</g>
				</g>
			</g>
			<g>
				<g>
					<g>
						<path class="st7" d="M308.9,74.5H203.5V50.3c0-3.5,2.8-6.3,6.3-6.3h92.7c3.5,0,6.3,2.8,6.3,6.3L308.9,74.5L308.9,74.5z"/>
					</g>
				</g>
				<g>
					<g>
						<polygon class="st7" points="269.6,32.4 242.8,32.4 245.9,55.4 266.1,55.4 						"/>
					</g>
				</g>
				<g>
					<g>
						<g>
							<path class="st9" d="M302.1,43.9c0,0.1-20.6,0.2-45.9,0.2c-25.4,0-45.9-0.1-45.9-0.2s20.6-0.2,45.9-0.2
								C281.6,43.7,302.1,43.8,302.1,43.9z"/>
						</g>
					</g>
				</g>
				<g>
					<g>
						<g>
							<path class="st9" d="M205.9,69.6c-0.1,0-0.2-4.3-0.2-9.7c0-5.3,0.1-9.7,0.2-9.7s0.2,4.3,0.2,9.7
								C206.1,65.2,206,69.6,205.9,69.6z"/>
						</g>
					</g>
				</g>
				<g>
					<g>
						<g>
							<path class="st9" d="M305.5,67.3c-0.1,0-0.2-3.9-0.2-8.8c0-4.8,0.1-8.8,0.2-8.8s0.2,3.9,0.2,8.8
								C305.7,63.3,305.6,67.3,305.5,67.3z"/>
						</g>
					</g>
				</g>
				<g>
					<g>
						<g>
							<path class="st9" d="M300.4,71.3c0,0.1-21.1,0.2-47.1,0.2c-26,0-47.1-0.1-47.1-0.2s21.1-0.2,47.1-0.2
								C279.3,71.1,300.4,71.2,300.4,71.3z"/>
						</g>
					</g>
				</g>
			</g>
		</g>
		<g>
			<g>
				<rect x="214" y="122.2" class="st1" width="115" height="7.1"/>
			</g>
			<g>
				<rect x="214" y="136.7" class="st1" width="52.2" height="7"/>
			</g>
			<g>
				<g>
					<path class="st10" d="M198.4,145.8h-18.9c-2.1,0-3.9-1.7-3.9-3.9v-18.9c0-2.1,1.7-3.9,3.9-3.9h18.9c2.1,0,3.9,1.7,3.9,3.9v18.9
						C202.3,144.1,200.5,145.8,198.4,145.8z"/>
				</g>
				<g>
					<g>
						<polygon class="st4" points="188.6,138.8 181.1,133.1 183.1,130.5 188.1,134.3 195.2,126.2 197.7,128.3 						"/>
					</g>
				</g>
			</g>
		</g>
		<g>
			<rect x="214" y="166" class="st1" width="115" height="7.1"/>
		</g>
		<g>
			<rect x="214" y="180.4" class="st1" width="52.2" height="7"/>
		</g>
		<g>
			<g>
				<path class="st10" d="M198.4,189.5h-18.9c-2.1,0-3.9-1.7-3.9-3.9v-18.9c0-2.1,1.7-3.9,3.9-3.9h18.9c2.1,0,3.9,1.7,3.9,3.9v18.9
					C202.3,187.8,200.5,189.5,198.4,189.5z"/>
			</g>
			<g>
				<g>
					<polygon class="st4" points="188.6,182.6 181.1,176.8 183.1,174.2 188.1,178.1 195.2,169.9 197.7,172.1 					"/>
				</g>
			</g>
		</g>
		<g>
			<rect x="214" y="212.9" class="st1" width="115" height="7.1"/>
		</g>
		<g>
			<rect x="214" y="227.3" class="st1" width="52.2" height="7"/>
		</g>
		<g>
			<rect x="214" y="256.2" class="st1" width="115" height="7.1"/>
		</g>
		<g>
			<rect x="214" y="270.7" class="st1" width="52.2" height="7"/>
		</g>
		<g>
			<g>
				<path class="st10" d="M198.4,236.4h-18.9c-2.1,0-3.9-1.7-3.9-3.9v-18.9c0-2.1,1.7-3.9,3.9-3.9h18.9c2.1,0,3.9,1.7,3.9,3.9v18.9
					C202.3,234.7,200.5,236.4,198.4,236.4z"/>
			</g>
			<g>
				<g>
					<polygon class="st4" points="188.6,229.5 181.1,223.7 183.1,221.1 188.1,225 195.2,216.8 197.7,219 					"/>
				</g>
			</g>
		</g>
		<g>
			<g>
				<path class="st10" d="M198.8,281.5h-19.6c-2.2,0-3.9-1.8-3.9-3.9v-19.6c0-2.2,1.8-3.9,3.9-3.9h19.6c2.2,0,3.9,1.8,3.9,3.9v19.6
					C202.7,279.7,200.9,281.5,198.8,281.5z M179.1,254.9c-1.7,0-3,1.4-3,3v19.6c0,1.7,1.4,3,3,3h19.6c1.7,0,3-1.4,3-3v-19.6
					c0-1.7-1.4-3-3-3L179.1,254.9L179.1,254.9z"/>
			</g>
		</g>
		<g>
			<rect x="214" y="305.8" class="st1" width="115" height="7.1"/>
		</g>
		<g>
			<rect x="214" y="320.2" class="st1" width="52.2" height="7"/>
		</g>
		<g>
			<g>
				<path class="st10" d="M198.8,331h-19.6c-2.2,0-3.9-1.8-3.9-3.9v-19.6c0-2.2,1.8-3.9,3.9-3.9h19.6c2.2,0,3.9,1.8,3.9,3.9v19.6
					C202.7,329.3,200.9,331,198.8,331z M179.1,304.5c-1.7,0-3,1.4-3,3v19.6c0,1.7,1.4,3,3,3h19.6c1.7,0,3-1.4,3-3v-19.6
					c0-1.7-1.4-3-3-3H179.1z"/>
			</g>
		</g>
		<rect x="200.1" y="94.8" class="st10" width="114.6" height="9.8"/>
	</g>
</g>
<g id="Plant">
	<g>
		<g>
			<path class="st7" d="M219.9,458.8c0,0-3.5-23.7-3.2-37.5c0.3-13.8,0-29.3,0-29.3h1.6c0,0-1.1,27.4,0.1,43.9
				c1.2,16.5,4.3,22.9,4.3,22.9L219.9,458.8"/>
			<path class="st9" d="M230.2,365.2c-0.3-0.8-0.7-1.7-1.4-2.1c-1-0.6-2.3-0.4-3.5,0c-4.8,1.7-9.1,10.7-11,15.4l6.4,21.5
				C232.2,389.3,234.1,375.3,230.2,365.2z"/>
			<g>
				<path class="st7" d="M228.4,363.9c0,0,0,0.1-0.1,0.3c-0.1,0.2-0.2,0.5-0.3,0.8c-0.3,0.7-0.7,1.7-1.1,2.9
					c-0.9,2.4-2.1,5.9-3.2,9.7c-1.1,3.8-1.8,7.4-2.3,10c-0.2,1.3-0.4,2.3-0.5,3.1c-0.1,0.3-0.1,0.6-0.1,0.8c0,0.2-0.1,0.3-0.1,0.3
					s0-0.1,0-0.3c0-0.2,0.1-0.5,0.1-0.8c0.1-0.7,0.2-1.8,0.4-3.1c0.4-2.6,1.1-6.1,2.2-10c1.1-3.9,2.3-7.3,3.3-9.7
					c0.5-1.2,0.9-2.2,1.2-2.9c0.1-0.3,0.3-0.6,0.4-0.8C228.3,364,228.3,363.9,228.4,363.9z"/>
			</g>
			<path class="st9" d="M217.8,405.1c-6-3.3-9.5-9.5-9.8-16.3c-0.2-4.8,1.2-9.5,2.9-13.9c0.1-0.4,0.3-0.8,0.7-1
				c0.5-0.3,1.1,0,1.6,0.3c4.3,2.5,7,7.2,8.4,12c0.9,3.2,1.4,6.6,1,9.9C222.1,399.2,220.2,402.8,217.8,405.1"/>
			<g>
				<path class="st7" d="M217.8,405.1c0,0,0-0.1,0-0.3c0-0.2,0-0.5,0-0.8c0-0.7,0-1.8-0.1-3c-0.1-2.6-0.4-6.1-1.1-9.9
					c-0.7-3.9-1.5-7.3-2.1-9.8c-0.3-1.2-0.5-2.2-0.7-3c-0.1-0.3-0.1-0.6-0.2-0.8c0-0.2-0.1-0.3,0-0.3s0,0.1,0.1,0.3
					c0.1,0.2,0.1,0.5,0.2,0.8c0.2,0.7,0.5,1.7,0.8,2.9c0.6,2.5,1.5,5.9,2.1,9.8c0.7,3.9,1,7.4,1,10c0,1.3,0,2.3,0,3
					c0,0.3,0,0.6,0,0.8C217.8,405,217.8,405.1,217.8,405.1z"/>
			</g>
			<g class="st8">
				<path d="M217.8,405.1c-6-3.3-9.5-9.5-9.8-16.3c-0.2-4.8,1.2-9.5,2.9-13.9c0.1-0.4,0.3-0.8,0.7-1c0.5-0.3,1.1,0,1.6,0.3
					c4.3,2.5,7,7.2,8.4,12c0.9,3.2,1.4,6.6,1,9.9C222.1,399.2,220.2,402.8,217.8,405.1"/>
			</g>
			<path class="st9" d="M224.6,441.4c5.9,1.3,10.7,5.4,16.4,7.5c3.8,1.3,8,1.8,11,4.4c-0.7-1.8-2.4-3-4.1-4.1
				c-4.7-2.9-9.7-5.3-14.9-7.1c-2.7-0.9-5.6-1.7-8.3-0.9"/>
			<path class="st9" d="M216,446.7c-7.4-0.1-15.1-6.4-22.5-6.8C201.3,437.4,212.2,439.4,216,446.7"/>
			<path class="st9" d="M218.9,429c3.7-1.3,7.9-1.4,11.8-0.8s7.7,1.9,11.5,3.1c-0.4-2.6-2.4-4.5-4.4-6.2c-1.5-1.3-2.9-2.6-4.6-3.5
				c-1.7-1-3.6-1.6-5.5-1.6c-2.3,0.1-4.6,1.3-6.1,3.1C220,424.9,219.2,426.6,218.9,429"/>
			<path class="st9" d="M203.8,420.8c-4.6-4-11.7-3.6-17.8-3.4c9.4,4.5,19.5,10.6,27.6,17.2C213.8,430.3,209.7,425.8,203.8,420.8z"
				/>
			<g class="st8">
				<path d="M203.8,420.8c-4.6-4-11.7-3.6-17.8-3.4c9.4,4.5,19.5,10.6,27.6,17.2C213.8,430.3,209.7,425.8,203.8,420.8z"/>
			</g>
			<path class="st9" d="M221,415.4c2.3-1.6,4.7-3,7.1-4.1s4.7-2.9,7.1-4.2c3.1-1.7,5.7-4,8.5-6c2.8-2.1,5.9-3.9,9.3-4.5
				c-2.8-0.6-5.7-0.3-8.5,0.5c-2.8,0.8-5.4,1.9-8,3.1c-3.6,1.6-7.3,3.3-10.3,5.9C223.4,408.8,220.7,411.4,221,415.4"/>
			<g>
				<path class="st7" d="M240.8,446.7c0,0-0.1,0-0.2-0.1c-0.2-0.1-0.4-0.2-0.6-0.3c-0.6-0.3-1.4-0.7-2.4-1.2c-0.5-0.3-1-0.5-1.6-0.8
					c-0.6-0.3-1.2-0.6-1.9-0.9c-1.4-0.6-2.9-1.2-4.5-1.6c-1.7-0.4-3.3-0.5-4.7-0.1c-0.7,0.2-1.4,0.3-2,0.6c-0.6,0.2-1.1,0.5-1.6,0.8
					c-0.9,0.6-1.6,1.2-2,1.7c-0.4,0.5-0.6,0.7-0.7,0.7c0,0,0-0.1,0.1-0.2c0.1-0.1,0.2-0.3,0.4-0.6c0.4-0.5,1.1-1.1,2-1.8
					c0.5-0.3,1-0.6,1.6-0.9c0.6-0.3,1.3-0.5,2-0.6c1.5-0.4,3.2-0.3,4.8,0.1c1.7,0.4,3.2,1,4.6,1.6c0.7,0.3,1.3,0.6,1.9,0.9
					c0.6,0.3,1.1,0.6,1.6,0.8c1,0.5,1.8,1,2.3,1.3c0.2,0.1,0.5,0.3,0.6,0.4C240.8,446.6,240.8,446.7,240.8,446.7z"/>
			</g>
			<g>
				<path class="st7" d="M210.5,443c0,0,0.2,0,0.5,0.1c0.3,0.1,0.7,0.3,1.2,0.5c1,0.5,2.3,1.3,3.5,2.5c1.2,1.2,2.1,2.4,2.6,3.4
					c0.3,0.5,0.5,0.9,0.6,1.2c0.1,0.3,0.2,0.4,0.2,0.5c0,0-0.3-0.6-0.9-1.5c-0.6-0.9-1.5-2.2-2.7-3.3c-1.2-1.2-2.5-2-3.4-2.5
					C211.2,443.3,210.5,443.1,210.5,443z"/>
			</g>
			<g>
				<path class="st7" d="M194.2,420.5c0,0,0.1,0,0.3,0.1c0.2,0.1,0.5,0.2,0.9,0.3c0.4,0.1,0.9,0.3,1.4,0.5c0.5,0.2,1.1,0.5,1.8,0.8
					c2.7,1.2,6.2,3.2,9.6,6.1c1.7,1.5,3.2,3,4.5,4.4c1.3,1.5,2.3,2.8,3.2,4c0.8,1.2,1.5,2.2,1.9,2.9c0.2,0.3,0.4,0.6,0.5,0.8
					c0.1,0.2,0.2,0.3,0.2,0.3c0,0-0.1-0.1-0.2-0.3s-0.3-0.4-0.5-0.8c-0.5-0.7-1.1-1.6-2-2.8c-0.9-1.2-1.9-2.5-3.2-4
					c-1.3-1.4-2.8-2.9-4.5-4.4c-3.4-2.9-6.9-4.9-9.5-6.1c-0.7-0.3-1.2-0.6-1.8-0.8c-0.5-0.2-1-0.4-1.4-0.6c-0.4-0.1-0.6-0.3-0.9-0.4
					C194.3,420.5,194.2,420.5,194.2,420.5z"/>
			</g>
			<g>
				<path class="st7" d="M230,424.8c0,0-0.2,0-0.6-0.1c-0.2,0-0.4-0.1-0.7-0.1c-0.3-0.1-0.6-0.1-0.9-0.1c-1.3-0.1-3.3,0-5.1,1
					c-0.9,0.5-1.7,1.1-2.3,1.7c-0.6,0.6-1.1,1.3-1.5,1.8c-0.7,1.1-1,1.9-1,1.9c0,0,0-0.2,0.1-0.6c0.1-0.4,0.3-0.9,0.7-1.5
					c0.4-0.6,0.8-1.3,1.5-1.9c0.6-0.6,1.4-1.3,2.4-1.8c1.9-1,3.9-1.1,5.2-1c0.3,0,0.6,0.1,0.9,0.1c0.2,0.1,0.5,0.1,0.7,0.2
					C229.8,424.8,230,424.8,230,424.8z"/>
			</g>
			<g>
				<path class="st7" d="M237.4,401.9c0,0-0.1,0.1-0.3,0.2c-0.2,0.1-0.5,0.3-0.8,0.4c-0.7,0.4-1.7,1-3,1.7c-1.2,0.7-2.7,1.7-4.3,2.8
					c-1.6,1.1-3.2,2.4-4.8,4c-0.8,0.8-1.5,1.6-1.9,2.5c-0.5,0.9-0.9,1.8-1.4,2.7c-0.9,1.7-1.5,3.3-2,4.7c-0.5,1.4-0.8,2.5-1,3.3
					c-0.2,0.8-0.3,1.2-0.3,1.2c0,0,0-0.1,0-0.3c0-0.2,0.1-0.5,0.2-0.9c0.2-0.8,0.4-1.9,0.9-3.3c0.5-1.4,1.2-3,2-4.7
					c0.4-0.9,0.9-1.8,1.4-2.7c0.5-0.9,1.2-1.8,2-2.6c1.6-1.6,3.2-2.9,4.8-4c1.6-1.1,3.1-2,4.3-2.7c1.3-0.7,2.3-1.3,3-1.6
					c0.3-0.2,0.6-0.3,0.8-0.4C237.3,401.9,237.4,401.9,237.4,401.9z"/>
			</g>
			<g>
				<path class="st7" d="M216.7,424.2c0,0-0.1-0.2-0.1-0.6c-0.1-0.5-0.2-1-0.3-1.7c-0.3-1.4-0.7-3.4-1.4-5.5c-0.7-2.1-1.5-4-2.1-5.3
					c-0.3-0.6-0.5-1.2-0.7-1.6c-0.2-0.4-0.3-0.6-0.2-0.6s0.1,0.2,0.3,0.5s0.5,0.9,0.8,1.5c0.6,1.3,1.5,3.2,2.2,5.3
					c0.7,2.1,1.1,4.1,1.3,5.6c0.1,0.7,0.2,1.3,0.2,1.7C216.7,423.9,216.7,424.2,216.7,424.2z"/>
			</g>
			<path class="st9" d="M216.2,407.4c-0.2-2.8-1.1-5.5-2.4-8c-3.6-6.8-10.3-11.8-17.8-13.3c5.5,8.2,11,16.4,16.5,24.6l2.1,4.4
				C216.1,412.7,216.4,410.2,216.2,407.4z"/>
		</g>
		<g>
			<g>
				<rect x="201.5" y="455.8" class="st10" width="38.3" height="6.8"/>
			</g>
			<g>
				<polygon class="st10" points="204.4,461.3 207.6,482.3 233.1,482.3 237,461.3 				"/>
			</g>
			<g>
				<g>
					<path class="st7" d="M239.8,462.6c0,0.1-8.6,0.1-19.3,0.1c-10.7,0-19.3-0.1-19.3-0.1c0-0.1,8.6-0.1,19.3-0.1
						C231.2,462.5,239.8,462.5,239.8,462.6z"/>
				</g>
			</g>
		</g>
	</g>
</g>
<g id="Speech_Bubble_2">
	<g>
		<g>
			<g>
				<g>
					<g>
						<g>
							<g>
								<path class="st4" d="M381.6,219.6l-2-4.8c1.2-3.8,1.3-7.9,0-12.1c-3-9.7-13.2-15.6-23.1-13.5c-11.5,2.4-18.4,14.2-14.9,25.5
									c3,9.6,12.9,15.5,22.8,13.6c4.9-1,9-3.6,11.8-7.2l0,0L381.6,219.6z"/>
							</g>
							<g>
								<g>
									<path class="st7" d="M381.6,219.6c0,0-0.1,0-0.3,0.1c-0.3,0.1-0.6,0.2-1,0.3c-0.9,0.3-2.3,0.7-4,1.2c0,0-0.1,0-0.1-0.1
										c0,0,0,0,0-0.1l0,0l0.2,0.1c-1.5,2-4,4.3-7.6,5.9c-1.8,0.8-3.9,1.4-6.2,1.6c-2.3,0.2-4.8,0.1-7.2-0.6
										c-2.5-0.7-4.9-1.9-7.2-3.6c-2.2-1.7-4.2-4-5.5-6.7c-1.4-2.7-2.1-5.8-2.2-9c-0.1-3.2,0.7-6.5,2.3-9.4c1.5-3,3.8-5.5,6.5-7.3
										c2.7-1.8,5.7-2.9,8.7-3.3c3-0.4,6-0.1,8.7,0.8c2.7,0.9,5.1,2.2,7.1,3.9c2,1.7,3.5,3.7,4.6,5.7c0.2,0.5,0.5,1,0.7,1.5
										c0.2,0.5,0.4,1,0.6,1.5c0.4,1,0.6,2,0.8,3c0.7,3.9,0.1,7.3-0.7,9.6l0-0.1c0.6,1.6,1.1,2.8,1.5,3.6c0.2,0.4,0.3,0.7,0.4,0.9
										C381.5,219.5,381.6,219.6,381.6,219.6c0,0-0.1-0.1-0.2-0.3c-0.1-0.2-0.2-0.5-0.4-0.9c-0.4-0.8-0.9-2-1.5-3.5c0,0,0,0,0-0.1
										c0.7-2.3,1.3-5.6,0.6-9.5c-0.2-1-0.4-2-0.8-2.9c-0.2-0.5-0.4-1-0.6-1.5c-0.2-0.5-0.5-1-0.7-1.5c-1.1-2-2.6-3.9-4.5-5.6
										c-1.9-1.6-4.3-3-6.9-3.8c-2.6-0.8-5.6-1.2-8.5-0.7c-2.9,0.4-5.9,1.5-8.5,3.3c-2.6,1.8-4.8,4.2-6.3,7.2
										c-1.5,2.9-2.3,6.1-2.2,9.2c0,3.1,0.8,6.1,2.1,8.8c1.3,2.7,3.2,4.9,5.4,6.6c2.2,1.7,4.6,2.9,7,3.6c2.4,0.7,4.9,0.9,7.1,0.6
										c2.2-0.2,4.3-0.8,6.1-1.6c3.6-1.6,6-3.9,7.6-5.8c0,0,0.1,0,0.1,0c0,0,0,0.1,0,0.1l0,0l-0.1-0.1c1.7-0.5,3.1-0.8,4-1.1
										c0.4-0.1,0.8-0.2,1.1-0.3C381.4,219.6,381.6,219.6,381.6,219.6z"/>
								</g>
							</g>
						</g>
					</g>
				</g>
			</g>
		</g>
		<g>
			<g>
				<circle class="st7" cx="353.7" cy="209.2" r="2.2"/>
			</g>
			<g>
				<path class="st7" d="M363.3,209.2c0,1.2-1,2.2-2.2,2.2c-1.2,0-2.2-1-2.2-2.2c0-1.2,1-2.2,2.2-2.2
					C362.3,207.1,363.3,208,363.3,209.2z"/>
			</g>
			<g>
				<circle class="st7" cx="368.2" cy="209.2" r="2.2"/>
			</g>
		</g>
	</g>
</g>
<g id="Speech_Bubble_1">
	<g>
		<g>
			<g>
				<g>
					<g>
						<g>
							<g>
								<g>
									<g>
										<g>
											<g>
												<g>
													<g>
														<g>
															<path class="st4" d="M116.9,178.5l0.9-5.6c-1.7-2.9-2.6-6.4-2.5-10c0.3-10.4,9.1-18.6,19.5-18.3s18.6,9.1,18.3,19.5
																c-0.3,10.4-9.1,18.6-19.5,18.3c-4.4-0.1-8.3-1.8-11.4-4.3l0,0L116.9,178.5z"/>
															<g>
																<path class="st7" d="M116.9,178.5c0,0,0.1,0,0.3,0c0.2,0,0.6,0,1-0.1c0.9-0.1,2.3-0.1,4-0.2c0,0,0.1,0,0.1-0.1
																	c0,0,0,0,0,0l0,0l-0.1,0.1c1.8,1.5,4.6,3.2,8.3,4c0.9,0.2,1.9,0.3,2.9,0.4c0.5,0,1,0,1.6,0c0.3,0,0.5,0,0.8,0
																	c0.3,0,0.5-0.1,0.8-0.1c2.2-0.2,4.4-0.9,6.6-2c2.2-1.1,4.2-2.8,5.9-4.8c1.7-2.1,3-4.6,3.7-7.4
																	c0.7-2.8,0.8-5.8,0.1-8.8c-0.3-1.5-0.9-2.9-1.5-4.3c-0.7-1.4-1.5-2.7-2.6-3.9c-1-1.2-2.2-2.2-3.4-3.2
																	c-1.3-0.9-2.6-1.7-4-2.2c-2.8-1.1-5.8-1.6-8.6-1.3c-2.8,0.2-5.5,1.1-7.8,2.4c-2.3,1.3-4.3,3.1-5.7,5
																	c-3,3.9-4,8.4-3.9,12.1c0.1,3.8,1.3,6.8,2.5,8.9l0-0.1c-0.3,1.8-0.5,3.2-0.7,4.2c-0.1,0.5-0.1,0.8-0.2,1.1
																	C116.9,178.4,116.9,178.5,116.9,178.5c0,0,0-0.1,0.1-0.4c0-0.3,0.1-0.6,0.2-1.1c0.2-1,0.4-2.3,0.7-4.1
																	c0,0,0,0,0-0.1c-1.2-2.1-2.3-5.1-2.4-8.8c-0.1-3.7,1-8.1,3.9-11.9c1.5-1.9,3.4-3.6,5.6-4.9c2.3-1.3,4.9-2.1,7.7-2.4
																	c2.8-0.2,5.7,0.2,8.5,1.3c1.4,0.5,2.7,1.3,3.9,2.1c1.2,0.9,2.4,1.9,3.3,3.1c1,1.2,1.8,2.5,2.6,3.8
																	c0.6,1.4,1.2,2.8,1.5,4.3c0.6,2.9,0.6,5.9-0.1,8.6c-0.7,2.7-2,5.2-3.6,7.3c-1.7,2-3.7,3.6-5.8,4.8
																	c-2.1,1.1-4.4,1.8-6.5,2c-0.3,0-0.5,0.1-0.8,0.1c-0.3,0-0.5,0-0.8,0c-0.5,0-1,0-1.5,0c-1,0-2-0.2-2.9-0.3
																	c-3.7-0.7-6.4-2.4-8.2-3.9c0,0-0.1,0-0.1,0c0,0,0,0.1,0,0.1l0,0l0.1-0.1c-1.7,0.1-3,0.2-3.9,0.3
																	c-0.4,0-0.8,0.1-1,0.1C117,178.5,116.9,178.5,116.9,178.5z"/>
															</g>
														</g>
													</g>
												</g>
											</g>
										</g>
									</g>
								</g>
							</g>
						</g>
					</g>
				</g>
			</g>
		</g>
		<g>
			<g>
				<g>
					<g>
						<g>
							<g>
								<g>
									<g>
										<g>
											<polygon class="st10" points="126.1,164.9 128.2,162.8 132.2,166.4 140.1,158.7 142.1,160.8 131.9,170.4 											"/>
										</g>
									</g>
								</g>
							</g>
						</g>
					</g>
				</g>
			</g>
		</g>
	</g>
</g>
<g id="Character_2">
	<g>
		<g>
			<g>
				<path class="st9" d="M461.4,382.9c0-0.2,0-0.5,0.1-0.7c0.2-4.5-1.6-8.8-3.4-13c-4.7-11.1-9.3-22.9-8-34.9
					c1.8-15.9,13.4-29,17.6-44.3c0.5-1.8,2.1-3,4-3l0,0c2.8,0,4.9,2.7,4,5.4c-4.6,14.4-15.2,26.9-16.9,42c-1.3,12,3.2,23.8,8,34.9
					c1.8,4.1,3.6,8.5,3.4,13c-0.2,4.5-3.1,9.2-7.6,10h-0.4h-8.3h-57.6c-2.3,0-4.2-1.9-4.2-4.2v-0.9c0-2.3,1.9-4.2,4.2-4.2
					L461.4,382.9L461.4,382.9z"/>
			</g>
			<g>
				<path class="st1" d="M474.8,482.3h-96.2c-1.3,0-2.6-0.7-3.4-1.8c-1-1.3-1.2-3.1-0.7-4.6l27.4-83.9l1.4,0.5l-27.4,83.9
					c-0.4,1.1-0.2,2.4,0.5,3.3c0.5,0.8,1.4,1.2,2.2,1.2h96.2c0.8,0,1.6-0.4,2.2-1.1c0.7-0.9,0.9-2.1,0.6-3.2L454,392.4l1.4-0.4
					l23.5,84.1c0.4,1.6,0.1,3.3-0.8,4.5C477.3,481.7,476.1,482.3,474.8,482.3z"/>
			</g>
		</g>
		<g>
			<g>
				<g>
					<path class="st11" d="M339.8,330c0,0,3.5-8.5,7-10.3c3.5-1.8,7.9-3,7.9-3H370l0.2,10c0,0-2.2,2.2-5.3,1.8s-10.7-2.3-10.7-2.3
						l-3.8,0.2l-3.5,4.4c0,0-2.8,0.9-1.8-1.8c1-2.7,1.4-3.8,1.4-3.8s-3.3,5.2-4.6,5.4S339.8,330,339.8,330z"/>
				</g>
				<g>
					<path class="st12" d="M403.5,297.8l-12.3,17.6l-21.2,1.2l-0.3,9.7l16,3.1c8.3,1.6,16.9-0.9,22.9-6.8l0,0l2.3-21.3L403.5,297.8z
						"/>
				</g>
			</g>
			<g>
				<g>
					<g>
						<g>
							<g>
								<g>
									<g>
										<g>
											<g>
												<g>
													<g>
														<g>
															<g>
																<g>
																	<g>
																		<g>
																			<g>
																				<path class="st7" d="M394,444.2l14.3,13.9c0,0-10.3,19.9-7.9,22.7l29.8-28l-21.3-22.7L394,444.2z"/>
																			</g>
																		</g>
																	</g>
																</g>
															</g>
														</g>
													</g>
												</g>
											</g>
										</g>
									</g>
								</g>
							</g>
						</g>
					</g>
					<g>
						<g>
							<g>
								<g>
									<g>
										<g>
											<g>
												<g>
													<g>
														<g>
															<g>
																<g>
																	<g>
																		<g>
																			<g>
																				<g>
																					<path class="st1" d="M416.3,448.2c0.7-0.4,1.7-0.2,2.1,0.5c0.4,0.7,0.1,1.7-0.6,2.1c-0.7,0.4-1.9,0.2-2.2-0.6
																						c-0.3-0.7,0.1-1.9,0.9-2.1"/>
																				</g>
																			</g>
																		</g>
																	</g>
																</g>
															</g>
														</g>
													</g>
												</g>
											</g>
										</g>
									</g>
								</g>
							</g>
						</g>
					</g>
					<g>
						<g>
							<g>
								<g>
									<g>
										<g>
											<g>
												<g>
													<g>
														<g>
															<g>
																<g>
																	<g>
																		<g>
																			<g>
																				<path class="st9" d="M430.1,452.8l-2.2-2.2l-27.7,27.7c0,0-0.8,1.8,0.2,2.5L430.1,452.8z"/>
																			</g>
																		</g>
																	</g>
																</g>
															</g>
														</g>
													</g>
												</g>
											</g>
										</g>
									</g>
								</g>
							</g>
						</g>
					</g>
					<g>
						<g>
							<g>
								<g>
									<g>
										<g>
											<g>
												<g>
													<g>
														<g>
															<g>
																<g>
																	<g>
																		<g>
																			<g>
																				<g>
																					<path class="st4" d="M407.6,458.4c0.1,0.1,0.9-0.5,2.1-0.7c1.1-0.3,2.1,0,2.1-0.2c0.1-0.2-0.9-0.8-2.3-0.5
																						C408.2,457.3,407.5,458.3,407.6,458.4z"/>
																				</g>
																			</g>
																		</g>
																	</g>
																</g>
															</g>
														</g>
													</g>
												</g>
											</g>
										</g>
									</g>
								</g>
							</g>
						</g>
					</g>
					<g>
						<g>
							<g>
								<g>
									<g>
										<g>
											<g>
												<g>
													<g>
														<g>
															<g>
																<g>
																	<g>
																		<g>
																			<g>
																				<g>
																					<path class="st4" d="M405.6,462.6c0.1,0.2,0.9-0.2,2-0.1c1,0.1,1.8,0.6,1.9,0.5c0.2-0.1-0.5-1-1.8-1.1
																						C406.4,461.7,405.5,462.4,405.6,462.6z"/>
																				</g>
																			</g>
																		</g>
																	</g>
																</g>
															</g>
														</g>
													</g>
												</g>
											</g>
										</g>
									</g>
								</g>
							</g>
						</g>
					</g>
					<g>
						<g>
							<g>
								<g>
									<g>
										<g>
											<g>
												<g>
													<g>
														<g>
															<g>
																<g>
																	<g>
																		<g>
																			<g>
																				<g>
																					<path class="st4" d="M407.2,467.8c0.2-0.1-0.3-1-1.4-1.4c-1.1-0.4-2-0.1-2,0.1c0,0.2,0.8,0.2,1.7,0.5
																						C406.5,467.4,407,467.9,407.2,467.8z"/>
																				</g>
																			</g>
																		</g>
																	</g>
																</g>
															</g>
														</g>
													</g>
												</g>
											</g>
										</g>
									</g>
								</g>
							</g>
						</g>
					</g>
					<g>
						<g>
							<g>
								<g>
									<g>
										<g>
											<g>
												<g>
													<g>
														<g>
															<g>
																<g>
																	<g>
																		<g>
																			<g>
																				<g>
																					<path class="st4" d="M404.7,454.9c0.2,0.1,0.7-0.7,1.5-1.5c0.9-0.7,1.7-1.1,1.7-1.3c0-0.2-1.1-0.1-2.1,0.8
																						C404.8,453.8,404.6,454.8,404.7,454.9z"/>
																				</g>
																			</g>
																		</g>
																	</g>
																</g>
															</g>
														</g>
													</g>
												</g>
											</g>
										</g>
									</g>
								</g>
							</g>
						</g>
					</g>
				</g>
			</g>
			<g>
				<path class="st7" d="M395.6,344.8c-2.6,0-66.1,18.5-73,24.8c-6.9,6.3-12,83.6-12,83.6l26.6,9.1c0,0,5.6-37.8,9-50
					c2.7-9.7,2.1-18.8,2.1-18.8l52.7-23L395.6,344.8z"/>
			</g>
			<g>
				<g>
					<path class="st7" d="M397.2,348.9c-1.2,0.5-47.3,20.2-51.7,33.4c-3.5,10.8,0.6,20.2,5.5,27.6c5.6,8.4,46.4,45.6,46.4,45.6
						l23.1-16.5l-39.5-40.8c0,0,20.7-12.8,21.5-12.8s22.3-1.4,29.1-2.2c6.4-0.7,9.9-9.9,9.9-9.9l5.7-26.2l-42.8-9.9L397.2,348.9z"/>
				</g>
				<g>
					<g>
						<path class="st9" d="M397.2,348.9c0,0,0.1-0.3,0.5-0.8c0.3-0.5,0.8-1.3,1.4-2.2c1.2-2,3-4.9,5.3-8.7l0,0l0,0
							c9.5,2.2,24.2,5.6,42.8,9.8l0.1,0l0,0.1c-1.7,7.9-3.6,16.8-5.7,26.3l0,0l0,0c-1,2.3-2.3,4.6-4.1,6.6c-0.9,1-1.9,1.9-3.1,2.5
							c-0.3,0.2-0.6,0.3-0.9,0.4c-0.3,0.1-0.6,0.3-1,0.3c-0.3,0.1-0.7,0.1-1,0.2l-1,0.1c-5.4,0.5-11,0.9-16.7,1.4
							c-2.9,0.2-5.8,0.4-8.7,0.6c-0.7,0-1.5,0.1-2.2,0.1l-0.3,0c-0.1,0-0.1,0-0.1,0c0,0-0.1,0-0.1,0c-0.2,0.1-0.3,0.2-0.5,0.2
							l-1,0.5c-1.3,0.7-2.6,1.5-3.9,2.3c-5.2,3.1-10.5,6.3-15.9,9.7l0-0.3c9.8,10.2,20.2,20.9,30.9,31.9c2.9,3,5.8,6,8.7,9l0.2,0.2
							l-0.2,0.1c-7.9,5.6-15.6,11.1-23.1,16.5l-0.1,0.1l-0.1-0.1c-8.3-7.6-16.2-15-23.7-22.2c-3.8-3.6-7.4-7.1-10.9-10.7
							c-3.5-3.5-6.9-7-10-10.6c-0.4-0.4-0.7-0.9-1.1-1.4c-0.4-0.5-0.7-0.9-1-1.4c-0.6-1-1.2-2-1.8-3c-1.1-2-2.1-4.1-2.9-6.2
							c-0.8-2.1-1.3-4.2-1.6-6.4c-0.3-2.1-0.3-4.3,0-6.4c0.2-2.1,0.7-4.1,1.4-6c0.8-1.9,2.1-3.4,3.4-4.8c2.7-2.8,5.6-5,8.5-7
							c5.8-4,11.3-7.1,16.1-9.7c4.9-2.6,9.1-4.7,12.6-6.3c3.5-1.7,6.2-2.9,8-3.7c0.9-0.4,1.6-0.7,2.1-0.9
							C397,349,397.2,348.9,397.2,348.9s-0.2,0.1-0.7,0.3c-0.5,0.2-1.2,0.5-2.1,0.9c-1.8,0.8-4.5,2.1-8,3.7
							c-3.5,1.7-7.7,3.8-12.6,6.4c-4.8,2.6-10.3,5.7-16.1,9.7c-2.9,2-5.8,4.2-8.5,7c-1.3,1.4-2.6,2.9-3.3,4.7
							c-0.7,1.8-1.2,3.8-1.4,5.9c-0.2,2.1-0.2,4.2,0.1,6.3c0.3,2.1,0.8,4.2,1.6,6.3c0.8,2.1,1.7,4.1,2.9,6.1c0.6,1,1.2,2,1.8,3
							c0.3,0.5,0.7,1,1,1.4c0.4,0.5,0.7,0.9,1.1,1.4c3.1,3.6,6.5,7,10,10.5c3.5,3.5,7.2,7.1,11,10.7c7.5,7.2,15.5,14.6,23.7,22.2
							l-0.2,0c7.5-5.4,15.2-10.9,23.1-16.5l0,0.3c-2.9-3-5.8-5.9-8.7-9c-10.7-11-21-21.7-30.9-31.9l-0.2-0.2l0.2-0.1
							c5.4-3.3,10.7-6.5,15.9-9.6c1.3-0.8,2.6-1.5,3.9-2.3l1-0.5c0.2-0.1,0.3-0.2,0.5-0.3c0.1,0,0.1,0,0.1-0.1c0.1,0,0.2,0,0.2,0
							l0.3,0c0.7,0,1.5-0.1,2.2-0.1c3-0.2,5.9-0.4,8.7-0.6c5.7-0.4,11.3-0.8,16.7-1.3c1.4-0.1,2.6-0.4,3.8-1c1.2-0.6,2.2-1.5,3-2.4
							c1.7-1.9,3-4.2,4-6.5l0,0c2.1-9.5,4-18.4,5.7-26.2l0.1,0.2c-18.5-4.3-33.2-7.7-42.8-9.9l0.1,0c-2.3,3.8-4.1,6.7-5.4,8.7
							c-0.6,1-1.1,1.7-1.4,2.2C397.4,348.6,397.2,348.9,397.2,348.9z"/>
					</g>
				</g>
			</g>
			<g>
				<g>
					<g>
						<g>
							<g>
								<g>
									<g>
										<g>
											<g>
												<g>
													<path class="st7" d="M401.4,222.7c-2.1,0.4-4.4-0.9-5-3c-0.6-2,0.5-4.4,2.4-5.3c-1.4-1.2-1.9-3.4-1.2-5.1
														c0.7-1.7,2.6-2.9,4.5-2.8c-0.1-1.9,0.9-3.7,2.4-4.7c1.5-1,3.6-1.2,5.3-0.4c1.9-1.9,5.2-2.3,7.4-0.8
														c1.8-0.5,3.8,0.3,4.8,1.8s0.8,3.7-0.4,5.1"/>
												</g>
											</g>
										</g>
									</g>
								</g>
							</g>
						</g>
						<g>
							<g>
								<g>
									<g>
										<g>
											<g>
												<path class="st12" d="M418.6,204.8l-0.9,0.1c-9.5,0.8-16.8,8.9-16.7,18.4c0.1,8.9,0.3,18.7,0.7,23.5
													c1,9.8,10.9,10.5,10.9,10.5l0.2,11.9l23.8-2.8l-1.7-43C434.8,213.1,428.8,204.5,418.6,204.8z"/>
											</g>
										</g>
									</g>
								</g>
								<g>
									<g>
										<g>
											<g>
												<g>
													<g>
														<g>
															<g>
																<g>
																	<g>
																		<path class="st11" d="M412.5,257.3c0,0,6.2-0.2,12.5-4.9c0,0-2.5,7.5-12.4,7.5L412.5,257.3z"/>
																	</g>
																</g>
															</g>
														</g>
													</g>
												</g>
											</g>
										</g>
									</g>
								</g>
								<g>
									<g>
										<g>
											<g>
												<g>
													<g>
														<g>
															<g>
																<g>
																	<g>
																		<g>
																			<g>
																				<g>
																					<path class="st7" d="M404.4,232.4c0,0.7,0.7,1.3,1.5,1.3c0.8,0,1.4-0.6,1.3-1.4s-0.7-1.3-1.5-1.3
																						C405,231.1,404.4,231.7,404.4,232.4z"/>
																				</g>
																			</g>
																		</g>
																	</g>
																</g>
															</g>
														</g>
													</g>
												</g>
											</g>
										</g>
									</g>
								</g>
								<g>
									<g>
										<g>
											<g>
												<g>
													<g>
														<g>
															<g>
																<g>
																	<g>
																		<g>
																			<g>
																				<g>
																					<g>
																						<path class="st7" d="M403.4,227.9c0.2,0.2,1.2-0.7,2.7-0.8c1.5-0.2,2.7,0.5,2.8,0.3c0.1-0.1-0.1-0.4-0.6-0.7
																							c-0.5-0.3-1.3-0.6-2.3-0.5c-0.9,0.1-1.7,0.5-2.1,0.9C403.4,227.5,403.3,227.9,403.4,227.9z"/>
																					</g>
																				</g>
																			</g>
																		</g>
																	</g>
																</g>
															</g>
														</g>
													</g>
												</g>
											</g>
										</g>
									</g>
								</g>
								<g>
									<g>
										<g>
											<g>
												<g>
													<g>
														<g>
															<g>
																<g>
																	<g>
																		<g>
																			<g>
																				<g>
																					<path class="st7" d="M418,231.7c0,0.7,0.7,1.3,1.5,1.3c0.8,0,1.4-0.6,1.3-1.4s-0.7-1.3-1.5-1.3
																						C418.5,230.3,417.9,230.9,418,231.7z"/>
																				</g>
																			</g>
																		</g>
																	</g>
																</g>
															</g>
														</g>
													</g>
												</g>
											</g>
										</g>
									</g>
								</g>
								<g>
									<g>
										<g>
											<g>
												<g>
													<g>
														<g>
															<g>
																<g>
																	<g>
																		<g>
																			<g>
																				<g>
																					<g>
																						<path class="st7" d="M418.3,226.9c0.2,0.2,1.2-0.7,2.7-0.8c1.5-0.2,2.7,0.5,2.8,0.3c0.1-0.1-0.1-0.4-0.6-0.7
																							c-0.5-0.3-1.3-0.6-2.3-0.5c-0.9,0.1-1.7,0.5-2.1,0.9C418.3,226.5,418.2,226.8,418.3,226.9z"/>
																					</g>
																				</g>
																			</g>
																		</g>
																	</g>
																</g>
															</g>
														</g>
													</g>
												</g>
											</g>
										</g>
									</g>
								</g>
								<g>
									<g>
										<g>
											<g>
												<g>
													<g>
														<g>
															<g>
																<g>
																	<g>
																		<g>
																			<g>
																				<g>
																					<path class="st7" d="M413.8,238.6c0-0.1-1-0.2-2.5-0.2c-0.4,0-0.8-0.1-0.8-0.3c-0.1-0.3,0-0.7,0.2-1.2
																						c0.3-1,0.6-2,0.9-3c1.2-4.3,2.1-7.9,1.9-7.9c-0.2,0-1.3,3.4-2.5,7.7c-0.3,1.1-0.6,2.1-0.8,3
																						c-0.1,0.5-0.3,1-0.1,1.5c0.1,0.3,0.4,0.5,0.7,0.5c0.3,0.1,0.5,0,0.7,0C412.8,238.8,413.8,238.7,413.8,238.6z"
																						/>
																				</g>
																			</g>
																		</g>
																	</g>
																</g>
															</g>
														</g>
													</g>
												</g>
											</g>
										</g>
									</g>
								</g>
								<g>
									<g>
										<g>
											<g>
												<g>
													<g>
														<g>
															<g>
																<g>
																	<path class="st7" d="M416.4,221.2c0.2,0.4,1.5-0.2,3.1-0.4c1.6-0.2,3,0,3.1-0.5c0-0.2-0.3-0.5-0.9-0.8
																		c-0.6-0.3-1.5-0.4-2.4-0.3c-1,0.1-1.8,0.5-2.2,0.9C416.5,220.7,416.3,221.1,416.4,221.2z"/>
																</g>
															</g>
														</g>
													</g>
												</g>
											</g>
										</g>
									</g>
								</g>
								<g>
									<g>
										<g>
											<g>
												<g>
													<g>
														<g>
															<g>
																<g>
																	<path class="st7" d="M402.8,221.7c0.3,0.3,1.6-0.2,3.1-0.3c1.5-0.2,2.8,0,3-0.4c0.1-0.2-0.1-0.5-0.7-0.8
																		c-0.6-0.3-1.5-0.5-2.5-0.3c-1,0.1-1.9,0.5-2.4,0.9C402.8,221.2,402.6,221.6,402.8,221.7z"/>
																</g>
															</g>
														</g>
													</g>
												</g>
											</g>
										</g>
									</g>
								</g>
								<g>
									<g>
										<g>
											<g>
												<g>
													<g>
														<g>
															<g>
																<path class="st7" d="M401.4,218.7c0,0,2-6.4,4.9-8.1c3.4-2.1,5.3,1.7,8.7,0.5s6.6-3.2,10.3-0.9
																	c4.1,2.6,2.5,4.7,3.1,9.1c2.5,17.6,6.2,22.3,6.4,13.9c0-0.9,2.5-1.9,2.5-5.8c0-5-0.3-11.1-1.7-14.6
																	c-1.2-2.9-3.1-4.8-6.3-6.8c-5.1-3.2-11.8-2.7-16.2-1.8C408.5,205.1,400.3,211.1,401.4,218.7z"/>
															</g>
														</g>
													</g>
												</g>
											</g>
										</g>
									</g>
								</g>
								<g>
									<g>
										<g>
											<g>
												<g>
													<g>
														<g>
															<g>
																<path class="st12" d="M434.1,233c-0.1-1.5,1.1-2.8,2.6-2.8c1.8,0,4,0.9,4.2,4.7c0.4,6.7-6.5,5.7-6.5,5.5
																	C434.5,240.3,434.2,235.8,434.1,233z"/>
															</g>
														</g>
													</g>
												</g>
											</g>
										</g>
									</g>
								</g>
								<g>
									<g>
										<g>
											<g>
												<g>
													<g>
														<g>
															<g>
																<path class="st11" d="M435.8,237.8c0,0,0.1,0.1,0.3,0.2c0.2,0.1,0.5,0.1,0.9,0c0.7-0.3,1.2-1.5,1.2-2.7
																	c0-0.6-0.2-1.2-0.4-1.7c-0.2-0.5-0.6-0.8-0.9-0.9c-0.4-0.1-0.6,0.2-0.7,0.4c-0.1,0.2,0,0.3-0.1,0.3
																	c0,0-0.2-0.1-0.1-0.4c0-0.1,0.1-0.3,0.2-0.4c0.2-0.1,0.4-0.2,0.6-0.2c0.5,0,1,0.5,1.3,1c0.3,0.5,0.5,1.2,0.5,1.9
																	c0,1.4-0.6,2.7-1.5,3c-0.5,0.1-0.9,0-1.1-0.1C435.8,237.9,435.8,237.8,435.8,237.8z"/>
															</g>
														</g>
													</g>
												</g>
											</g>
										</g>
									</g>
								</g>
							</g>
							<g>
								<g>
									<g>
										<g>
											<g>
												<g>
													<g>
														<path class="st7" d="M432.8,220c-0.8,0.7-1.7,1.4-2.7,1.6c-1,0.2-2.3-0.3-2.6-1.3c-0.1-0.5-0.1-1-0.4-1.3
															c-0.4-0.4-1.1-0.2-1.6-0.1c-1.9,0.4-4.4-1.6-5.1-3.4c-0.4,0.8-1.5,1.1-2.3,0.7c-0.8-0.4-1.1-0.7-1.7-1.3
															s-1.5-1.2-2.4-0.9c-0.5,0.1-0.9,0.5-1.4,0.5c-0.9,0-1.4-1-1.6-1.9c-0.2-0.9-0.4-1.9-1.2-2.3c-0.7-0.4-1.6,0-2.4,0.1
															c-0.8,0.2-1.9,0.1-2.1-0.7c-0.1-0.4,0-0.9,0.2-1.2c0.9-1.7,3.1-2.7,5-2.1c0.5-2.3,2.4-4.2,4.7-4.6
															c2.3-0.4,4.8,0.6,6.1,2.5c1.3-1.4,3.3-2.1,5.2-1.9c1.9,0.3,3.6,1.5,4.5,3.2c1.6-0.6,3.5-0.1,4.7,1.1
															c1.2,1.2,1.5,3.2,0.8,4.7c1.3,0.6,2.4,1.7,2.6,3.1c0.1,1.4-1.1,2.9-2.5,2.6c0.6,1,0.3,2.5-0.7,3.2
															c-1,0.7-2.5,0.5-3.3-0.5"/>
													</g>
												</g>
											</g>
										</g>
									</g>
								</g>
							</g>
							<g>
								<g>
									<g>
										<g>
											<g>
												<g>
													<g>
														<g>
															<path class="st9" d="M410.1,208.3c0,0,0,0,0,0.1c0,0.1,0,0.2,0.1,0.4c0.1,0.3,0.3,0.8,0.6,1.3c0.3,0.5,0.9,1,1.6,1.5
																c0.7,0.4,1.7,0.7,2.8,0.5l-0.1-0.1c-0.2,0.6,0,1.3,0.3,1.8c0.3,0.6,0.8,1.1,1.3,1.5c0.3,0.2,0.5,0.5,0.8,0.7
																c0.3,0.2,0.7,0.3,1.1,0.3c0.8,0,1.6-0.3,2.1-1l-0.3,0c0.3,1.3,1.2,2.6,2.4,3.3c0.7,0.4,1.5,0.6,2.3,0.5
																c0.8-0.1,1.5-0.4,2.1-0.7l-0.2-0.1c0.4,0.8,1.1,1.5,1.8,1.9c0.7,0.5,1.6,0.7,2.4,0.4c1.6-0.5,2.5-1.9,2.6-3.1
																l-0.1,0.1c0.8,0.4,1.7,0.3,2.3,0.1c0.7-0.2,1.2-0.5,1.5-0.9c0.4-0.3,0.6-0.7,0.7-0.9c0.1-0.2,0.1-0.4,0.1-0.4
																c0,0-0.2,0.5-0.9,1.2c-0.4,0.3-0.9,0.6-1.5,0.8c-0.6,0.2-1.4,0.2-2.2-0.2l-0.1-0.1l0,0.1c-0.1,1.2-1,2.5-2.5,2.9
																c-0.7,0.2-1.5,0-2.2-0.4c-0.7-0.4-1.3-1.1-1.7-1.8l-0.1-0.1l-0.1,0.1c-0.6,0.3-1.3,0.6-2,0.6
																c-0.7,0.1-1.4-0.1-2.1-0.5c-1.2-0.7-2-1.9-2.3-3.1l-0.1-0.3l-0.2,0.3c-0.4,0.6-1.2,0.9-1.8,0.9c-0.3,0-0.7-0.1-1-0.3
																c-0.3-0.2-0.5-0.4-0.8-0.7c-0.5-0.5-1-0.9-1.3-1.5c-0.3-0.5-0.4-1.1-0.3-1.7l0-0.2l-0.2,0c-1,0.2-2-0.1-2.7-0.5
																c-0.7-0.4-1.3-0.9-1.6-1.4C410.2,209,410.1,208.3,410.1,208.3z"/>
														</g>
													</g>
												</g>
											</g>
										</g>
									</g>
								</g>
							</g>
						</g>
					</g>
				</g>
				<g>
					<g>
						<g>
							<g>
								<g>
									<g>
										<g>
											<g>
												<g>
													<g>
														<g>
															<g>
																<g>
																	<g>
																		<g>
																			<path class="st7" d="M413.9,243.4c0-0.3,1.7-0.1,3.1-1.4c1.4-1.3,1.4-3.1,1.6-3.1c0.1,0,0.3,0.4,0.2,1.2
																				c-0.1,0.7-0.4,1.8-1.3,2.6c-0.8,0.8-1.9,1-2.6,1C414.3,243.8,413.9,243.5,413.9,243.4z"/>
																		</g>
																	</g>
																</g>
															</g>
														</g>
													</g>
												</g>
											</g>
										</g>
									</g>
								</g>
							</g>
						</g>
					</g>
				</g>
			</g>
			<g>
				<g>
					<g>
						<g>
							<g>
								<g>
									<g>
										<g>
											<g>
												<g>
													<g>
														<g>
															<g>
																<g>
																	<g>
																		<g>
																			<g>
																				<path class="st7" d="M316.7,443.2l-3.1,21.5c0,0-24.1,3.7-25.1,7.6l43.8,8.2l6.3-33.3L316.7,443.2z"/>
																			</g>
																		</g>
																	</g>
																</g>
															</g>
														</g>
													</g>
												</g>
											</g>
										</g>
									</g>
								</g>
							</g>
						</g>
					</g>
					<g>
						<g>
							<g>
								<g>
									<g>
										<g>
											<g>
												<g>
													<g>
														<g>
															<g>
																<g>
																	<g>
																		<g>
																			<g>
																				<g>
																					<path class="st1" d="M327.5,465.5c0.8,0.4,1.2,1.4,0.9,2.2s-1.4,1.2-2.2,0.8c-0.8-0.4-1.4-1.6-0.9-2.3
																						s1.7-1.1,2.4-0.6"/>
																				</g>
																			</g>
																		</g>
																	</g>
																</g>
															</g>
														</g>
													</g>
												</g>
											</g>
										</g>
									</g>
								</g>
							</g>
						</g>
					</g>
					<g>
						<g>
							<g>
								<g>
									<g>
										<g>
											<g>
												<g>
													<g>
														<g>
															<g>
																<g>
																	<g>
																		<g>
																			<g>
																				<path class="st9" d="M332.3,480.6l0.5-3.4l-42.2-6.6c0,0-2.1,0.4-2.1,1.8L332.3,480.6z"/>
																			</g>
																		</g>
																	</g>
																</g>
															</g>
														</g>
													</g>
												</g>
											</g>
										</g>
									</g>
								</g>
							</g>
						</g>
					</g>
					<g>
						<g>
							<g>
								<g>
									<g>
										<g>
											<g>
												<g>
													<g>
														<g>
															<g>
																<g>
																	<g>
																		<g>
																			<g>
																				<g>
																					<path class="st4" d="M312.9,464.4c0,0.2,1,0.5,2,1.3c1,0.8,1.3,1.8,1.5,1.8c0.2,0,0.1-1.3-1-2.3
																						C314.3,464.2,312.9,464.2,312.9,464.4z"/>
																				</g>
																			</g>
																		</g>
																	</g>
																</g>
															</g>
														</g>
													</g>
												</g>
											</g>
										</g>
									</g>
								</g>
							</g>
						</g>
					</g>
					<g>
						<g>
							<g>
								<g>
									<g>
										<g>
											<g>
												<g>
													<g>
														<g>
															<g>
																<g>
																	<g>
																		<g>
																			<g>
																				<g>
																					<path class="st4" d="M308,465.4c-0.1,0.2,0.8,0.7,1.3,1.7c0.6,1,0.6,1.9,0.8,2c0.2,0.1,0.6-1.1-0.2-2.3
																						C309.3,465.5,308,465.2,308,465.4z"/>
																				</g>
																			</g>
																		</g>
																	</g>
																</g>
															</g>
														</g>
													</g>
												</g>
											</g>
										</g>
									</g>
								</g>
							</g>
						</g>
					</g>
					<g>
						<g>
							<g>
								<g>
									<g>
										<g>
											<g>
												<g>
													<g>
														<g>
															<g>
																<g>
																	<g>
																		<g>
																			<g>
																				<g>
																					<path class="st4" d="M304.4,470.1c0.2,0.1,0.7-0.9,0.3-2.1c-0.3-1.2-1.3-1.8-1.4-1.7c-0.2,0.1,0.4,0.9,0.7,1.9
																						C304.3,469.2,304.2,470,304.4,470.1z"/>
																				</g>
																			</g>
																		</g>
																	</g>
																</g>
															</g>
														</g>
													</g>
												</g>
											</g>
										</g>
									</g>
								</g>
							</g>
						</g>
					</g>
					<g>
						<g>
							<g>
								<g>
									<g>
										<g>
											<g>
												<g>
													<g>
														<g>
															<g>
																<g>
																	<g>
																		<g>
																			<g>
																				<g>
																					<path class="st4" d="M314.2,459.6c0.1,0.2,1.1,0.1,2.3,0.4c1.2,0.3,2.1,0.8,2.2,0.7c0.2-0.1-0.6-1-2-1.4
																						C315.3,459,314.1,459.4,314.2,459.6z"/>
																				</g>
																			</g>
																		</g>
																	</g>
																</g>
															</g>
														</g>
													</g>
												</g>
											</g>
										</g>
									</g>
								</g>
							</g>
						</g>
					</g>
				</g>
			</g>
			<g>
				<g>
					<path class="st10" d="M411.7,270.7l0.9-4.1l23.9-11.9l2.1,3.3c0,0,9,7.3,12.4,13.6c3.4,6.3-0.6,58.1-1.2,65.7
						c-1.2,15.2-6.8,35.2-6.8,35.2s-7.7-5.3-30.3-14.6s-23.8-13.5-23.8-13.5l13.3-16.9L411.7,270.7z"/>
				</g>
				<g>
					<path class="st10" d="M412,272.1c-0.1,0.8-11,26.7-11,26.7s5.6,3.1,6.4,3.3C408.3,302.3,412,272.1,412,272.1z"/>
				</g>
				<g>
					<g>
						<path class="st7" d="M411,276.3c0.1,0-0.9,6.6-2.1,14.7c-1.3,8.1-2.4,14.7-2.5,14.7s0.9-6.6,2.1-14.7
							C409.7,282.9,410.8,276.3,411,276.3z"/>
					</g>
				</g>
			</g>
			<g>
				<g>
					<g>
						<path class="st12" d="M335,328.3c0,0,6.4-9.5,10.3-11.2c3.8-1.7,8.6-2.6,8.6-2.6l16.2,2.2l-0.3,9.7c0,0-2.5,2.2-5.8,1.5
							c-3.2-0.7-11.3-3.3-11.3-3.3l-4-0.1l-4,4.5c0,0-3.1,0.7-1.8-2.1s1.8-4,1.8-4s-4,5.3-5.3,5.5C338.1,328.7,335,328.3,335,328.3z
							"/>
					</g>
					<g>
						<path class="st12" d="M419.7,290.2l-11.2,26.1l-38.5,0.4l-0.3,9.7c0,0,37.1,13.1,47,10.5s26.3-37.5,26.3-37.5L419.7,290.2z"/>
					</g>
					<g>
						<g>
							<path class="st10" d="M428.8,268.2c-1.1,1-4.5,5-8.2,13.9c-3.7,8.9-8.9,19.3-8.9,19.3l26.5,10.6c0,0,6-13.9,8.9-20.1
								c2.1-4.7,3.6-14,1.7-18.5C446.8,268.9,438.1,259.8,428.8,268.2z"/>
						</g>
						<g>
							<g>
								<path class="st7" d="M428.8,268.2c0,0,0.1-0.1,0.2-0.2c0.2-0.1,0.4-0.4,0.7-0.6c0.7-0.5,1.7-1.3,3.3-1.9
									c1.5-0.6,3.6-1,6-0.4c2.3,0.5,4.7,1.9,6.8,4.1c1,1.1,2,2.3,2.8,3.7c0.7,1.5,1.1,3.2,1.2,4.9c0.2,3.5-0.3,7.2-1.4,11
									c-0.5,1.9-1.4,3.7-2.2,5.6c-0.8,1.9-1.7,3.8-2.5,5.7c-1.7,3.9-3.5,7.9-5.3,12l-0.1,0.2l-0.2-0.1c-0.1,0-0.3-0.1-0.4-0.2
									c-9.4-3.8-18.3-7.3-26.1-10.4l-0.2-0.1l0.1-0.2c2.5-5,4.7-9.6,6.6-13.7c1.9-4.1,3.3-7.9,4.9-10.8c1.5-2.9,3-5.1,4-6.5
									c0.5-0.7,1-1.2,1.3-1.6C428.6,268.3,428.8,268.2,428.8,268.2c0,0,0,0-0.1,0.1c-0.1,0.1-0.2,0.2-0.4,0.4
									c-0.3,0.3-0.7,0.9-1.3,1.6c-1.1,1.4-2.5,3.6-3.9,6.6c-1.5,2.9-2.9,6.7-4.8,10.8c-1.9,4.2-4,8.8-6.5,13.8l-0.1-0.2
									c7.8,3.1,16.7,6.7,26.1,10.4c0.1,0.1,0.3,0.1,0.4,0.2l-0.3,0.1c1.8-4.1,3.6-8.1,5.3-12c0.9-1.9,1.7-3.9,2.5-5.7
									c0.8-1.9,1.7-3.7,2.2-5.5c1-3.7,1.6-7.4,1.4-10.9c-0.1-1.7-0.4-3.4-1.1-4.8c-0.7-1.4-1.7-2.6-2.7-3.7c-2-2.1-4.4-3.5-6.6-4
									c-2.3-0.6-4.3-0.2-5.8,0.4c-1.5,0.6-2.6,1.3-3.3,1.9c-0.3,0.3-0.6,0.5-0.8,0.6C428.9,268.1,428.8,268.2,428.8,268.2z"/>
							</g>
						</g>
					</g>
					<g>
						<g>
							<path class="st11" d="M352,319.4c0,0.1-2-0.1-4.1,1c-2.1,1.1-3.2,2.8-3.3,2.7c0,0,0.2-0.5,0.7-1.1c0.5-0.6,1.3-1.4,2.4-1.9
								c1.1-0.6,2.2-0.8,3-0.8C351.6,319.3,352,319.4,352,319.4z"/>
						</g>
					</g>
				</g>
				<g>
					<g>
						<path class="st11" d="M414.5,302.4c0,0,0,0.1-0.1,0.3c-0.1,0.2-0.2,0.5-0.3,0.8c-0.3,0.7-0.7,1.7-1.2,2.9
							c-1,2.5-2.5,6-4.2,10.1l0,0.1l-0.1,0c-3.5,0-7.5,0.1-11.7,0.1c-7.4,0-14.1,0.1-18.9,0.1c-2.4,0-4.3,0-5.7,0
							c-0.6,0-1.2,0-1.6,0c-0.4,0-0.5,0-0.5,0c0,0,0.2,0,0.5,0c0.4,0,0.9,0,1.6-0.1c1.4,0,3.3-0.1,5.7-0.1
							c4.9-0.1,11.6-0.1,18.9-0.2c4.2,0,8.2-0.1,11.7-0.1l-0.2,0.1c1.8-4.1,3.3-7.5,4.4-10c0.5-1.2,1-2.1,1.3-2.8
							c0.1-0.3,0.3-0.5,0.3-0.7C414.4,302.5,414.5,302.4,414.5,302.4z"/>
					</g>
				</g>
			</g>
		</g>
	</g>
</g>
<g id="Table">
	<g>
		<g>
			<g>
				<rect x="66.6" y="337.2" class="st9" width="7.4" height="144.9"/>
			</g>
			<g>
				<rect x="370.6" y="338.3" class="st9" width="7.4" height="143.9"/>
			</g>
			<g>
				<rect x="48.1" y="335.8" class="st9" width="337.2" height="8.7"/>
			</g>
		</g>
		<g>
			<g>
				<path class="st7" d="M382.1,344.6c0,0.1-39.4,0.2-87.9,0.2c-48.6,0-87.9-0.1-87.9-0.2s39.3-0.2,87.9-0.2
					C342.8,344.4,382.1,344.5,382.1,344.6z"/>
			</g>
		</g>
	</g>
</g>
<g id="Device">
	<path class="st7" d="M285,284.7L285,284.7c0.9-0.2,1.7,0.4,1.9,1.3l9.1,48.4h44.4c0.7,0,1.2,0.5,1.2,1.2l0,0c0,0.7-0.5,1.2-1.2,1.2
		h-47.1v-0.2l-0.2,0l-9.4-50C283.6,285.7,284.2,284.8,285,284.7z"/>
</g>
<g id="Character_1">
	<g>
		<g>
			<path class="st7" d="M62.6,171.8c4.2-6.2,10.3-10.1,17.8-10.9c4.2-0.4,6,0.3,9.2,0.8c3.1,0.5,6,1.9,8,4.3
				c2.4,2.9,4.5,6.1,5.3,9.8c0.8,3.8,0.8,7.5,0.3,10.7c-0.5,3.8-2.6,9.8-4.6,13.1l-6.4,1.4c-5.4,0.7-10.8,1.3-16.2,0.6
				c-5.4-0.8-10.7-3.1-13.9-7.5C57.7,188.1,58.4,178,62.6,171.8z"/>
			<path class="st13" d="M71.3,171l12.5-6.3l3.4,0.1c7.6-0.7,13.7,7.3,14.3,13.5c0.7,6.9,1.2,15.3,0.6,20.4c-1.3,10.4-9.9,12-9.9,12
				s1.4,12.1,1.8,15.5l-20.8-6.4l-5-45.1C68.1,172.9,69.4,171.2,71.3,171z"/>
			<path class="st14" d="M86.6,197.7c0-0.5,0.3-1,0.6-1.4c0.7-0.7,1.8-0.9,2.7-0.4c0.9,0.5,1.4,1.6,1.4,2.7l0,0
				c-0.4,0.7-1.1,1.2-1.8,1.3c-0.1,0-0.2,0-0.4,0c-0.6,0-1.2-0.1-1.7-0.5C86.9,199,86.6,198.3,86.6,197.7z"/>
			<path class="st7" d="M99.6,187.5c0,0.7-0.5,1.3-1.2,1.4c-0.7,0.1-1.4-0.4-1.4-1.1c0-0.7,0.5-1.3,1.2-1.4
				C98.9,186.3,99.5,186.8,99.6,187.5z"/>
			<path class="st7" d="M99.5,181.9c-0.2,0.2-1.2-0.5-2.6-0.5c-1.4,0-2.4,0.8-2.6,0.6c-0.1-0.1,0.1-0.4,0.5-0.7
				c0.4-0.3,1.2-0.7,2.1-0.7c0.9,0,1.6,0.3,2.1,0.6C99.4,181.5,99.6,181.8,99.5,181.9z"/>
			<path class="st7" d="M91.4,193.8c0-0.1,0.9-0.3,2.3-0.5c0.4-0.1,0.7-0.1,0.8-0.4c0.1-0.3-0.1-0.7-0.3-1.1
				c-0.4-0.9-0.8-1.8-1.2-2.7c-1.6-3.9-2.8-7.1-2.7-7.2c0.2-0.1,1.6,3,3.2,6.9c0.4,1,0.8,1.9,1.1,2.8c0.2,0.4,0.4,0.9,0.2,1.4
				c-0.1,0.3-0.3,0.5-0.6,0.6c-0.2,0.1-0.4,0.1-0.6,0.1C92.3,193.9,91.4,193.9,91.4,193.8z"/>
			<path class="st14" d="M92.2,210.7c0,0-6.9,0.7-14-3.2c0,0,3.9,7,14.2,5.7L92.2,210.7z"/>
			<path class="st7" d="M99.5,177.5c-0.2,0.4-1.3,0.2-2.6,0.3c-1.3,0.1-2.3,0.5-2.6,0.2c-0.1-0.1,0-0.5,0.4-0.9
				c0.4-0.4,1.2-0.7,2-0.8c0.9-0.1,1.7,0.1,2.2,0.4C99.4,177,99.6,177.3,99.5,177.5z"/>
			<path class="st7" d="M84.9,188.6c0,0.7,0.6,1.3,1.4,1.2c0.7,0,1.3-0.6,1.3-1.3s-0.6-1.3-1.4-1.2
				C85.5,187.3,84.9,187.9,84.9,188.6z"/>
			<path class="st7" d="M80.3,183c0.2,0.2,1.1-0.7,2.5-0.8c1.4-0.1,2.5,0.5,2.7,0.4c0.1-0.1-0.1-0.4-0.6-0.7
				c-0.5-0.3-1.3-0.6-2.1-0.5c-0.9,0.1-1.6,0.4-2,0.8C80.3,182.6,80.2,183,80.3,183z"/>
			<path class="st7" d="M82.2,178c0.3,0.3,1.4-0.1,2.7-0.2c1.3-0.1,2.5,0.1,2.7-0.3c0.1-0.2-0.1-0.5-0.6-0.8
				c-0.5-0.3-1.3-0.5-2.2-0.4c-0.9,0.1-1.7,0.4-2.1,0.8C82.2,177.5,82,177.9,82.2,178z"/>
			<path class="st13" d="M71.5,191.9c0-0.8-1-2.6-1.7-2.6c-2-0.2-5.7,0-5.5,5.2c0.2,7,7.2,5.4,7.2,5.2
				C71.4,199.5,71.6,194.5,71.5,191.9z"/>
			<path class="st14" d="M69.4,197.1c0,0-0.1,0.1-0.3,0.2c-0.2,0.1-0.5,0.2-0.9,0c-0.8-0.3-1.4-1.4-1.5-2.7c0-0.6,0.1-1.3,0.3-1.8
				c0.2-0.5,0.5-0.9,0.9-1c0.4-0.1,0.6,0.1,0.7,0.3c0.1,0.2,0.1,0.3,0.1,0.3c0,0,0.1-0.1,0.1-0.4c0-0.1-0.1-0.3-0.3-0.4
				c-0.2-0.1-0.4-0.2-0.7-0.2c-0.5,0.1-1,0.6-1.3,1.1c-0.3,0.6-0.4,1.3-0.4,2c0.1,1.4,0.8,2.7,1.9,3c0.5,0.1,0.9,0,1.1-0.2
				C69.4,197.3,69.4,197.1,69.4,197.1z"/>
			<path class="st7" d="M69.5,189.3l1.9,1.7c11.2-7.4,22.6-27.4,19.7-26.6c0,0-5.5-1.7-11.1-0.2c-5.6,1.5-16.2,5.3-15.4,12
				C65.3,182.9,69.5,189.3,69.5,189.3z"/>
			<path class="st7" d="M66.2,161.1c2.7,1.6,5.2,6.2,4,9.2c0.5,3.1-0.7,6.4-3,8.5c-2.4,2.1-5.8,2.8-8.8,1.9c-2.1-0.6-3.9-2-5-3.9
				c-1.3-2.2-1.6-4.9-1.1-7.5c0.6-3.1,2.3-6.1,4.9-7.8C59.8,159.9,63.4,159.5,66.2,161.1z"/>
			<path class="st9" d="M65.6,189.3c0,0,0.5-0.2,1.3-0.6c0.8-0.4,2-1,3.4-1.8c2.8-1.6,6.6-4,10.1-7.5c3.5-3.4,6-7.3,7.3-10.2
				c0.7-1.5,1.1-2.7,1.3-3.6c0.2-0.9,0.3-1.4,0.3-1.4c-0.1,0-0.5,1.9-1.9,4.8c-1.4,2.9-3.8,6.6-7.3,10c-3.5,3.4-7.2,5.9-9.9,7.5
				c-1.4,0.8-2.5,1.5-3.3,1.9C66,189,65.5,189.3,65.6,189.3z"/>
			<path class="st9" d="M59.4,184c0.1,0,0.1-1.3,0.5-3.4c0.4-2.1,1.2-4.9,2.7-7.7c1.5-2.8,3.4-5.1,5-6.5c1.5-1.5,2.6-2.2,2.5-2.3
				c0,0-0.3,0.1-0.8,0.5c-0.5,0.3-1.2,0.8-2,1.6c-1.6,1.4-3.6,3.7-5.2,6.5c-1.6,2.9-2.4,5.8-2.7,7.9c-0.2,1.1-0.2,1.9-0.2,2.5
				C59.4,183.7,59.4,184,59.4,184z"/>
			<path class="st7" d="M66.9,200.4c0,1.5,1.2,2.6,2.6,2.6s2.6-1.2,2.6-2.6s-1.2-2.6-2.6-2.6S66.9,198.9,66.9,200.4z"/>
			<path class="st7" d="M91.7,198.8c0-0.2-1.7,0-3.1-1.2c-1.4-1.2-1.5-3-1.8-3c-0.1,0-0.3,0.4-0.1,1.2c0.1,0.7,0.5,1.8,1.4,2.5
				c0.9,0.7,1.9,0.9,2.6,0.9C91.4,199.1,91.8,198.9,91.7,198.8z"/>
		</g>
		<g>
			<path class="st7" d="M54.1,288.5c0,0-7.9,27.8-3.2,42.8c2.8,9,42.1,58.8,44,61c1.3,1.5-16.8,48.5-20.1,58.3l20.9,10.1
				c0,0,26.1-55.5,27.7-65.2c2-12.5-27.3-65.9-26.2-66.6l10.6-22L99,284.1c0,0-36.9,0.4-44.5,1L54.1,288.5z"/>
			<path class="st7" d="M99.8,304.8c0,0,50.9,18.1,56.6,21.1c6.3,3.3,11,15,5.8,25s-51,38.4-51,38.4l-11.4-17.4l33.1-26.1L97,337.4
				l-11.7-13.8L99.8,304.8z"/>
			<g>
				<path class="st9" d="M123.4,395.1c-0.1,0,0.2-1.3,0-3.5c-0.2-2.3-1.1-5.5-2.6-9.3c-0.7-1.9-1.6-4-2.5-6.2
					c-0.5-1.1-0.9-2.3-1.4-3.5c-0.5-1.2-1-2.4-1.5-3.6c-2.2-5-4.6-10.4-7.2-16.1c-4.2-9.1-8.1-17.6-11.2-24.3l0-0.1l0-0.1
					c1.3-5.5,2.5-10,3.4-13.1c0.4-1.5,0.8-2.8,1.1-3.6c0.2-0.4,0.3-0.7,0.4-0.9c0.1-0.2,0.2-0.3,0.2-0.3c0,0,0,0.1-0.1,0.3
					c-0.1,0.2-0.2,0.5-0.3,0.9c-0.3,0.8-0.6,2-1,3.6c-0.8,3.1-1.9,7.6-3.2,13.1l0-0.1c3.2,6.7,7.1,15.1,11.3,24.3
					c2.6,5.7,5.1,11.1,7.2,16.1c0.5,1.3,1.1,2.5,1.5,3.7c0.5,1.2,0.9,2.4,1.3,3.5c0.9,2.2,1.7,4.3,2.5,6.2c1.4,3.9,2.3,7.1,2.4,9.4
					C123.8,393.9,123.4,395.1,123.4,395.1z"/>
			</g>
			<path class="st15" d="M100.5,315.3c-0.1,0.4,0,13.4,0,13.4l6.5,11.1l-5.2-1.2l-4.6-9.7L100.5,315.3z"/>
		</g>
		<g>
			<path class="st9" d="M129.4,313.3c-1.5-1.4-5.8-5.5-8.8-8.3c-1.2-1.1-0.4-3,1.2-3.1l34.8-0.7c0.5,0,1,0.2,1.4,0.6l7.3,8.2
				c1,1.1,0.2,2.9-1.3,2.9l-33.3,0.9C130.2,313.8,129.7,313.6,129.4,313.3z"/>
			<path class="st13" d="M119.5,307c0,0,4.1-1.8,8.1-2.2c4-0.4,6.1,1.3,8.2,1.1c2.2-0.2,8.1,0.4,8.1,2c0,1.6-8.2,2.2-8.2,2.2
				l7.2,2.3c0,0,8.2-1,8.4,0c0.1,1-7.4,2-10.8,2.5c-3.5,0.4-23.6,0.7-26.5,0c-2.9-0.7-23.4-13.2-23.4-13.2l9.8-10.1L119.5,307z"/>
		</g>
		<path class="st10" d="M68.9,216.5c0,0-9.5,1.4-12.7,11.7c-2.7,8.6,2.4,43.8,4.6,50.1s25.7,26.8,27.7,25.1s13.5-11.9,13.5-11.9
			l-18.4-21.7c0,0,1-25.8-0.2-30.6C82.2,234.3,74,216,68.9,216.5z"/>
		<path class="st10" d="M57.4,259.4c1.3,12.2-1.3,17.5-1.3,17.5c-2.1,1.6-3.2,4.3-3.4,6.3c-0.1,1.1,0.7,2,1.8,2l44.5-1
			c0,0,6.2,0.6,6.1-5.3c-0.1-6.6,1.7-29.7-0.7-38.8c-0.8-3.1-11-18.4-11-18.4l-21.2-12l-2.2,5.8c0,0-6.7,2.5-9.8,6.4
			c-2.4,3.1-3.3,5.3-4.3,8.6C54,236.7,56.7,252.9,57.4,259.4z"/>
		<g>
			<path class="st13" d="M169.1,239c0,0-0.4-0.3-1.7,0.1c-1.3,0.4-5.2,2.3-6.9,2.8s-5.5,1.9-5.5,1.9s-2.1-0.2-4.8,1.6
				c-2.7,1.8-10.2,6.8-10.2,6.8l2.6,7.3c0,0,2.9-0.5,3.7-0.2s3.3,0.4,5.3-0.2c2-0.6,4.8-1.7,4.8-1.7s2.7,0.2,3.4-0.8
				c0.7-1-0.1-2.7-0.1-2.7l0,0c0,0,2.6-2.4,1.5-3.8c-1.1-1.4-2.6-2.9-2.6-2.9s7.8-4.2,9.3-5.3C169.6,240.8,169.9,239.9,169.1,239z"
				/>
			<polygon class="st13" points="140,252.2 115.6,260.4 105.8,265.4 119.6,272.8 142.6,259.5 			"/>
			<g>
				<path class="st14" d="M154.8,246.1c0.1,0,0.7,2.9-0.3,6.3c0,0.1-0.1,0.3-0.1,0.4l-0.2-0.3c1.6,0.3,3.1,0.6,4.1,0.8
					c1.1,0.2,1.6,0.7,1.6,0.7c0,0.1-0.6-0.3-1.6-0.4c-1-0.1-2.5-0.4-4.1-0.6l-0.3-0.1l0.1-0.3c0-0.1,0.1-0.2,0.1-0.4
					C154.9,249,154.7,246.1,154.8,246.1z"/>
			</g>
			<g>
				<path class="st14" d="M154.7,249.6c0,0,0.2,0,0.5,0.2c0.3,0.2,0.6,0.6,0.8,1.1l-0.3-0.2c0.4-0.1,0.9-0.1,1.4-0.1
					c1.8,0,3.2,0.5,3.1,0.6c0,0.1-1.4-0.2-3.1-0.1c-0.5,0-0.9,0-1.3,0.1l-0.2,0l0-0.2C155.4,250.1,154.6,249.7,154.7,249.6z"/>
			</g>
			<g>
				<path class="st14" d="M158.4,247.7c0.1,0.1-0.6,0.7-1.2,1.5c-0.6,0.8-0.9,1.6-1.1,1.6c-0.1,0,0-1,0.6-1.9
					C157.4,248,158.3,247.6,158.4,247.7z"/>
			</g>
		</g>
		<path class="st10" d="M92.9,216.2l2.4,6.6c2.7,2.5,9.3,9.6,10.6,14.5c1.6,6.4,9.1,22.5,9.1,22.5s16.9-7.2,18-6s7.1,15,5.1,17.9
			c-1.9,2.9-19.2,10.5-26.1,8.8c-7-1.7-13.6-11.8-13.6-11.8L92.9,216.2z"/>
		<g>
			<path class="st7" d="M104,237.4c0,0,0.2,0.5,0.6,1.5c0.2,0.5,0.4,1.1,0.5,1.8c0.2,0.7,0.4,1.5,0.5,2.4c0.3,1.8,0.5,4,0.6,6.4
				c0,2.4,0,5.1-0.2,7.9c-0.4,5.6-0.8,10.6-0.7,14.3c0,0.9,0,1.7,0.1,2.5c0,0.7,0.1,1.4,0.1,1.9c0.1,1,0.1,1.6,0.1,1.6
				s-0.1-0.6-0.3-1.6c-0.1-0.5-0.2-1.1-0.2-1.9c0-0.7-0.1-1.6-0.1-2.5c-0.1-3.7,0.2-8.8,0.6-14.3c0.2-2.8,0.3-5.5,0.3-7.9
				c-0.1-2.4-0.2-4.6-0.5-6.4C104.6,239.6,103.9,237.4,104,237.4z"/>
		</g>
		<g>
			<path class="st7" d="M114.7,269.3c-0.1,0-0.2-2.2-0.2-4.9c0-2.7,0.2-4.9,0.3-4.9c0.1,0,0.2,2.2,0.2,4.9
				C115,267.1,114.9,269.3,114.7,269.3z"/>
		</g>
		<g>
			<path class="st7" d="M83.3,236.2c0,0,0,0.2,0,0.6c0,0.4,0,1,0,1.7c0,1.5,0,3.6,0.1,6.2c0.1,5.2,0.3,12.5,0.1,20.5
				c0,2,0.2,3.9,1,5.6c0.9,1.6,2.2,2.9,3.3,4.2c2.3,2.6,4.3,5,6.1,6.9c1.7,1.9,3.1,3.5,4.1,4.7c0.4,0.5,0.8,1,1.1,1.3
				c0.2,0.3,0.4,0.5,0.4,0.5c0,0-0.2-0.1-0.4-0.4c-0.3-0.3-0.7-0.7-1.2-1.2c-1-1.1-2.5-2.7-4.2-4.6c-1.8-2-3.9-4.3-6.2-6.9
				c-1.1-1.3-2.5-2.6-3.4-4.3c-0.9-1.7-1.1-3.8-1.1-5.8c0.2-8,0-15.3,0-20.5c0-2.6,0-4.8,0.1-6.2c0-0.7,0.1-1.3,0.1-1.7
				C83.2,236.4,83.3,236.2,83.3,236.2z"/>
		</g>
		<g>
			<path class="st7" d="M68,216.5c0,0.1-1,0.3-2.7,1.3c-1.7,0.9-4,2.5-6,5.3c-1,1.4-1.9,3-2.6,4.9c-0.3,0.9-0.6,1.9-0.7,3
				c-0.1,1-0.2,2.2-0.3,3.3c-0.1,2.3-0.1,4.6,0,7.1c0.2,2.4,0.5,5,0.8,7.6c0.5,5.2,1.1,10.1,1.5,14.7c0.5,4.5,0.8,8.6,1.8,11.9
				c0.9,3.3,2.3,5.7,3.5,7.2c0.6,0.8,1.1,1.3,1.5,1.6c0.4,0.4,0.6,0.5,0.5,0.5c0,0-0.1,0-0.2-0.1c-0.1-0.1-0.3-0.2-0.4-0.4
				c-0.4-0.3-0.9-0.9-1.5-1.6c-1.2-1.5-2.7-3.9-3.6-7.2c-1-3.3-1.4-7.4-1.9-11.9c-0.5-4.5-1-9.5-1.6-14.7c-0.3-2.6-0.6-5.1-0.8-7.6
				c-0.1-2.5-0.1-4.9,0-7.1c0.1-1.1,0.2-2.2,0.3-3.3c0.2-1.1,0.4-2.1,0.8-3.1c0.7-1.9,1.6-3.6,2.7-5c2.1-2.8,4.5-4.4,6.2-5.2
				c0.9-0.4,1.6-0.7,2-0.9C67.8,216.6,68,216.5,68,216.5z"/>
		</g>
		<g>
			<path class="st7" d="M93.2,223c0,0-0.4-0.2-1-0.6c-0.7-0.5-1.6-1.1-2.7-1.8l0.3-0.1c0,1.4,0,3,0,4.8l0,0.4l-0.3-0.2
				c-1.7-0.9-3.6-1.8-5.6-2.8c-3.8-1.9-7.3-3.7-9.8-5c-1.2-0.6-2.1-1.2-2.9-1.6c-0.7-0.4-1.1-0.6-1-0.6c0,0,0.4,0.1,1.1,0.5
				c0.8,0.4,1.8,0.9,3,1.4c2.5,1.2,6,3,9.8,4.9c2,1,3.9,2,5.6,2.9l-0.3,0.2c0.1-1.8,0.1-3.4,0.2-4.8l0-0.4l0.3,0.2
				c1,0.8,1.9,1.4,2.6,2C92.9,222.7,93.2,223,93.2,223z"/>
		</g>
		<g>
			<g>
				<g>
					<g>
						<g>
							<g>
								<g>
									<g>
										<g>
											<g>
												<g>
													<g>
														<g>
															<g>
																<g>
																	<g>
																		<g>
																			<path class="st7" d="M101.1,445.3l-8.2,17.2c0,0,15.8,14.5,14.6,17.8L71.5,465l11.6-27.4L101.1,445.3z"/>
																		</g>
																	</g>
																</g>
															</g>
														</g>
													</g>
												</g>
											</g>
										</g>
									</g>
								</g>
							</g>
						</g>
					</g>
				</g>
				<g>
					<g>
						<g>
							<g>
								<g>
									<g>
										<g>
											<g>
												<g>
													<g>
														<g>
															<g>
																<g>
																	<g>
																		<g>
																			<g>
																				<path class="st1" d="M82.4,456.3c-0.8-0.1-1.6,0.4-1.7,1.1s0.5,1.5,1.2,1.7c0.8,0.1,1.8-0.5,1.8-1.2
																					c0-0.7-0.7-1.7-1.5-1.6"/>
																			</g>
																		</g>
																	</g>
																</g>
															</g>
														</g>
													</g>
												</g>
											</g>
										</g>
									</g>
								</g>
							</g>
						</g>
					</g>
				</g>
				<g>
					<g>
						<g>
							<g>
								<g>
									<g>
										<g>
											<g>
												<g>
													<g>
														<g>
															<g>
																<g>
																	<g>
																		<g>
																			<path class="st9" d="M71.5,465l1.3-2.7l34,15.7c0,0,1.3,1.3,0.7,2.3L71.5,465z"/>
																		</g>
																	</g>
																</g>
															</g>
														</g>
													</g>
												</g>
											</g>
										</g>
									</g>
								</g>
							</g>
						</g>
					</g>
				</g>
				<g>
					<g>
						<g>
							<g>
								<g>
									<g>
										<g>
											<g>
												<g>
													<g>
														<g>
															<g>
																<g>
																	<g>
																		<g>
																			<g>
																				<path class="st4" d="M93.5,462.6c-0.1,0.2-1-0.1-2.1,0c-1.1,0.1-1.9,0.7-2,0.5c-0.1-0.1,0.5-1,1.9-1.2
																					C92.7,461.8,93.6,462.5,93.5,462.6z"/>
																			</g>
																		</g>
																	</g>
																</g>
															</g>
														</g>
													</g>
												</g>
											</g>
										</g>
									</g>
								</g>
							</g>
						</g>
					</g>
				</g>
				<g>
					<g>
						<g>
							<g>
								<g>
									<g>
										<g>
											<g>
												<g>
													<g>
														<g>
															<g>
																<g>
																	<g>
																		<g>
																			<g>
																				<path class="st4" d="M96.7,465.7c0,0.2-0.9,0.1-1.8,0.6c-0.9,0.4-1.4,1.1-1.6,1c-0.2,0,0.1-1.1,1.3-1.6
																					C95.7,465.2,96.7,465.5,96.7,465.7z"/>
																			</g>
																		</g>
																	</g>
																</g>
															</g>
														</g>
													</g>
												</g>
											</g>
										</g>
									</g>
								</g>
							</g>
						</g>
					</g>
				</g>
				<g>
					<g>
						<g>
							<g>
								<g>
									<g>
										<g>
											<g>
												<g>
													<g>
														<g>
															<g>
																<g>
																	<g>
																		<g>
																			<g>
																				<path class="st4" d="M97,470.9c-0.2,0-0.1-1,0.8-1.7c0.8-0.7,1.8-0.7,1.8-0.6c0,0.2-0.7,0.4-1.4,1
																					C97.5,470.2,97.1,470.9,97,470.9z"/>
																			</g>
																		</g>
																	</g>
																</g>
															</g>
														</g>
													</g>
												</g>
											</g>
										</g>
									</g>
								</g>
							</g>
						</g>
					</g>
				</g>
			</g>
		</g>
	</g>
</g>
</svg>
