<?xml version="1.0" encoding="utf-8"?>
<!-- Generator: Adobe Illustrator 23.0.2, SVG Export Plug-In . SVG Version: 6.00 Build 0)  -->
<svg version="1.1" id="katman_1" xmlns="http://www.w3.org/2000/svg" xmlns:xlink="http://www.w3.org/1999/xlink" x="0px" y="0px"
	 viewBox="0 0 1122 1122" style="enable-background:new 0 0 1122 1122;" xml:space="preserve">
<style type="text/css">
	.st0{fill:#780B00;}
	.st1{fill:#AE4536;}
	.st2{fill:#E6A670;}
</style>
<g id="Object">
	<g>
		<g>
			<path class="st0" d="M561,807c-83,0-159.9-41.5-205.6-110.9c-3-4.6-1.8-10.8,2.9-13.9s10.8-1.8,13.9,2.9
				C414.1,748.9,484.7,787,561,787c53.8,0,106-19.2,146.8-54.2c40.4-34.6,67.4-82.3,76.1-134.4c0.9-5.4,6.1-9.1,11.5-8.2
				c5.4,0.9,9.1,6.1,8.2,11.5c-9.5,56.8-38.9,108.7-82.8,146.3C676.3,786.1,619.6,807,561,807z"/>
		</g>
		<g>
			<path class="st0" d="M343.2,480c-1.3,0-2.6-0.3-3.9-0.8c-5.1-2.1-7.5-8-5.4-13.1c18.5-44.2,49.3-81.9,89.1-108.9
				c40.8-27.7,88.5-42.3,138-42.3c60.8,0,119.3,22.4,164.5,63c4.1,3.7,4.4,10,0.7,14.1c-3.7,4.1-10,4.4-14.1,0.7
				C670.6,355.6,616.9,335,561,335c-45.5,0-89.3,13.4-126.7,38.8c-36.6,24.8-64.9,59.4-81.9,100C350.8,477.7,347.1,480,343.2,480z"
				/>
		</g>
		<g>
			<g>
				<path class="st1" d="M421.9,507.5c-2.4-3.2-5.7-5.9-9.8-8.1c-4.2-2.2-9-4-14.6-5.3c-5.6-1.3-11.6-2.2-18.1-2.5
					c-6.5-0.4-13.2-0.2-20.2,0.4c-7,0.6-14,1.7-20.9,3.3c-6,1.4-11.8,3.1-17.4,5.2c-5.6,2.1-11,4.6-16,7.5c-5.1,2.9-9.7,6.1-14,9.7
					c-4.2,3.6-7.9,7.7-11,12.1c-3.1,4.5-5.5,9.3-7.1,14.5c-1.7,5.2-2.5,10.9-2.5,16.9c0,6.3,1.4,9.1,4.1,8.4c2-0.5,4.5-2.9,7.6-7.3
					s6.6-10.7,10.6-19c1.9-3.1,4.8-6.2,8.6-9.2c3.8-3,8.1-5.7,12.9-8.2c4.9-2.5,10.1-4.7,15.8-6.6c4.1-1.4,9.9-3,17.3-4.7
					c4.6-1.1,9.1-1.9,13.6-2.5c4.5-0.6,8.8-1,12.8-1.1c4.1-0.1,7.8,0.1,11.3,0.5c3.4,0.4,6.4,1.2,9,2.3c2.6,1.1,4.5,2.5,6,4.2
					c1.4,1.8,2.2,3.9,2.2,6.4c0,3.8-0.9,7.6-2.6,11.3c-1.8,3.7-4.4,7.2-7.7,10.5c-3.3,3.3-7.4,6.2-12.1,8.7s-10.1,4.5-16,5.9
					c-2.5,0.6-4.9,1-7,1.3c-2.2,0.3-4.6,0.7-7.2,1.3c-2,0.5-3.5,1-4.7,1.5c-1.1,0.6-2,1.2-2.6,2c-0.6,0.8-0.9,1.6-1.1,2.6
					s-0.2,2.1-0.2,3.4c0,2.8,0.7,4.8,2.1,6.3c1.4,1.4,3.1,2.5,5.3,3.1c2.2,0.7,4.7,1.1,7.5,1.2c2.8,0.1,5.7,0.2,8.6,0.3
					c2.9,0.1,5.8,0.3,8.6,0.7c2.8,0.3,5.3,1.1,7.5,2.2c2.2,1.1,4,2.8,5.3,4.9c1.4,2.1,2.1,5,2.1,8.7c0,6.8-1.1,12.7-3.3,17.6
					c-2.3,4.9-5.3,9.2-9.1,12.9c-3.8,3.7-8.1,6.8-13,9.2s-10,4.2-15.2,5.5c-4.3,1-8.6,1.5-12.9,1.6c-4.3,0.1-8.3,0-12.1-0.4
					c-0.5-0.3-0.9-0.8-1.1-1.5c-0.3-0.7-0.5-1.6-0.6-2.5s-0.2-1.8-0.2-2.7c0-0.9,0-1.6,0-2.1c0-3.1,0-6.4,0.1-9.9
					c0.1-3.4,0.2-6.9,0.3-10.4c0.2-3.5,0.3-7.1,0.5-10.7c0.2-3.7,0.4-7,0.7-10c0.5-5.3,1.1-10.8,1.9-16.5c0.8-5.7,1.7-10.5,2.7-14.4
					c1-3.9,2.5-8.5,4.5-13.8c2-5.2,4.3-10.1,7.1-14.7c-3-4.4-6.8-6.1-11.3-5.1c-3.6,0.8-7.5,3.3-11.8,7.3
					c-4.9,8.6-8.7,17.2-11.4,25.7c-2.7,8.5-4.7,18.3-6.3,29.4c-1.5,11.1-2.5,22.1-3,33.1c-0.5,11-0.6,21.7-0.6,32.1
					c0,2.1,0.7,3.3,2,3.8c1.3,0.5,2.9,0.8,4.6,0.8c3.9,0.4,8,0.7,12.4,0.8c4.4,0.1,8.8,0.1,13.3-0.1c4.5-0.2,9-0.6,13.4-1.1
					c4.4-0.5,8.6-1.3,12.6-2.2c6.3-1.5,12.1-3.5,17.4-6.1c5.3-2.6,10-5.6,14.2-8.9c4.2-3.3,7.8-7,10.9-10.9s5.7-8,7.8-12.1
					c2.1-4.1,3.6-8.3,4.6-12.5c1-4.2,1.5-8.2,1.5-12.1c0-4.9-0.8-9.5-2.4-13.8c-1.6-4.4-3.9-7.9-7-10.6c-3.1-2.7-6.9-4.5-11.5-5.4
					c-4.6-1-9.9-0.7-15.9,0.7c9.6-2.4,17.8-5.6,24.6-9.6c6.8-4,12.4-8.4,16.8-13.2c4.4-4.8,7.6-9.7,9.6-14.8c2-5.1,3-10.1,3-14.9
					C425.5,514.2,424.3,510.6,421.9,507.5z"/>
			</g>
			<g>
				<path class="st1" d="M445.8,524.8c2.6,2,6.6,2.4,12,1.1c3.1-0.7,5.8-1.8,8-3.3c2.2-1.5,4.1-3.2,5.5-5.1c1.5-1.9,2.5-3.9,3.2-6.1
					c0.7-2.2,1-4.3,1-6.4c0-2.3-0.4-4.2-1.3-5.7c-0.8-1.5-2-2.6-3.4-3.3c-1.4-0.7-3.1-1.1-5-1.1c-1.9-0.1-3.9,0.2-6.1,0.7
					c-3.4,0.8-6.3,2-8.6,3.6c-2.3,1.6-4.1,3.4-5.5,5.3c-1.4,1.9-2.4,3.8-3,5.8c-0.6,2-0.9,3.7-0.9,5.1
					C441.8,519.6,443.2,522.8,445.8,524.8z"/>
			</g>
			<g>
				<path class="st1" d="M839.8,497.9c-2.4,2.9-5.3,6-8.7,9.3s-7.1,6.6-10.9,9.7c-3.9,3.1-7.8,5.8-11.9,8.2c-4.1,2.4-7.9,4-11.6,4.9
					c-1.2,0.3-2.3,0.4-3.3,0.4c-1,0-2-0.2-2.9-0.6c-0.9-0.4-1.8-1-2.7-1.9c-0.9-0.9-1.8-2-2.7-3.5c5.3-2.7,10.3-5.9,14.9-9.5
					c4.6-3.7,8.5-7.5,11.8-11.6c3.3-4.1,6.2-8.8,8.6-14s3.7-9.7,3.7-13.5c0-3.5-0.7-6.6-1.9-9.1c-1.2-2.6-3-4.6-5.2-6.1
					c-2.2-1.5-4.8-2.5-7.7-2.9c-3-0.4-6.2-0.3-9.6,0.5c-4.2,1-8,2.6-11.5,4.9s-6.5,5-9.3,8.2c-2.8,3.2-5.2,6.7-7.2,10.5
					c-2,3.8-3.8,7.7-5.1,11.7s-2.7,8.5-3.9,13.5c-1.3,5-1.9,9.3-1.8,12.7c0,2.5,0.2,4.9,0.5,7.3c0.2,1.3,0.4,2.5,0.7,3.7
					c-0.3-1.2-0.5-2.4-0.7-3.7c-0.7,0.7-1.5,1.3-2.2,2c-1.7,1.5-3.4,3-5.3,4.5c-1.8,1.5-3.6,2.9-5.3,4.1s-3.3,2.3-4.9,3.1
					c-1.5,0.8-2.9,1.4-4.1,1.7c-0.5,0.1-1-0.1-1.6-0.7c-0.6-0.6-1.1-1.4-1.6-2.5c-0.5-1.1-0.9-2.4-1.3-3.8c-0.3-1.4-0.5-3-0.5-4.6
					l0-1.3c0.2-1.3,0.4-2.6,0.7-4c0.3-1.4,0.6-2.7,0.9-3.9c0.3-1.2,0.6-2.4,0.9-3.5c0.3-1.1,0.7-2,1-2.7c2.8-6.3,5.8-12.7,9.2-19.4
					c3.3-6.7,6.6-13.4,9.9-20.2c3.3-6.8,6.4-13.7,9.5-20.6c3-6.9,5.7-13.6,8-20.3c2.3-6.7,4.1-13.2,5.4-19.6
					c1.3-6.4,2-12.5,1.9-18.4c0-2.4-0.2-4.6-0.7-6.8c-0.4-2.2-1.2-4-2.3-5.6c-1.1-1.6-2.5-2.7-4.4-3.3c-1.9-0.7-4.2-0.7-7,0
					c-3.9,0.9-7.7,2.9-11.5,6c-3.8,3.1-7.4,7.1-10.8,11.8c-3.4,4.8-6.7,10.2-9.9,16.2s-6,12.4-8.7,19.2c-2.7,6.7-5.3,15.5-7.9,26.2
					c-2.6,10.7-3.9,15.9-3.9,16.1c0,0.3-0.8,5.3-2.6,15.8c-1.7,10.6-2.5,18.9-2.5,24.9c0,3.6,0.2,7.1,0.5,10.5
					c-1.6,2.3-3.4,4.7-5.4,7.2c-3.2,4.1-6.6,7.9-10.2,11.6c-3.6,3.6-7.1,6.7-10.7,9.4c-3.5,2.7-6.8,4.3-9.7,5
					c-3,0.7-5.4,0.6-7.4-0.3c-1.9-0.9-3.5-2.2-4.7-3.9c-1.2-1.7-2-3.8-2.4-6.1c-0.4-2.3-0.6-4.6-0.6-6.8c0-1.5,0-3.3,0.1-5.6
					s0.4-4.6,0.9-7.1c0.5-2.5,1.4-5.7,2.6-9.6c1.2-3.8,2.4-6.9,3.7-9.1c1.2-2.2,2.7-4.2,4.5-5.8c1.8-1.6,3.9-2.7,6.4-3.3
					c1-0.2,1.7,0.1,2,1s0.5,2.1,0.5,3.6c0.1,1.7,0,2.8-0.1,3.4c-0.9,3.8-1.4,6.2-1.6,7.3c-0.5,2-0.1,4,1.5,6.1
					c0.9,1.3,2.9,1.6,6,0.9c2.1-0.5,3.9-1.4,5.5-2.8s3.3-3.6,5-6.8c1.7-3.2,2.9-5.8,3.4-8c0.6-2.2,0.9-4.3,0.9-6.4c0-3-0.7-5.7-2-8
					s-3.1-4.2-5.3-5.6c-2.3-1.4-5-2.3-8.2-2.6c-3.2-0.3-6.6-0.1-10.3,0.8c-4.1,1-7.9,2.6-11.4,4.9c-3.4,2.3-6.6,5.1-9.4,8.3
					c-2.8,3.2-5.2,6.8-7.3,10.7c-2.1,3.9-3.9,7.9-5.3,12c-1.4,4.1-2.7,8.8-3.9,14.1c-1.2,5.3-1.8,9.7-1.8,13.3c0,1.4,0.1,2.7,0.2,4
					c0.3,3.5,1,6.8,2.1,9.9c-1.1-3.1-1.8-6.4-2.1-9.9c-1.6,2.5-3.1,4.7-4.5,6.8c-3.2,4.7-6.2,8.6-8.8,11.8c-2.6,3.2-5,5.8-7.2,7.9
					c-2.1,2-4.2,3.8-6,5.3c1.5-10.9,3.1-21.2,4.6-30.7c0.7-4,1.5-9.4,2.6-16c1.1-6.6,1.9-11.8,2.5-15.5c0.6-3.7,1.1-7,1.6-9.8
					c0.5-2.9,0.8-5.2,1.1-6.9c0.2-0.8,0.3-1.5,0.3-2c0-1.8-0.7-3-2-3.5c-1.3-0.5-2.9-0.6-4.8-0.1c-1.6,0.4-3.3,1-5.1,2
					c-1.8,1-3.5,2.2-5.1,3.7c-1.7,1.5-3.1,3.2-4.3,5.1c-1.3,2-2.1,4-2.5,6.2l-7.2,36.4c-0.2,2.1-0.7,4.7-1.6,7.9
					c-0.8,3.2-1.9,6.3-3.2,9.4s-2.9,5.9-4.7,8.3c-1.8,2.4-3.9,3.9-6.1,4.4c-1.4,0.3-2.6,0.2-3.5-0.3c-0.9-0.5-1.7-1.3-2.2-2.3
					c-0.6-1-1-2.3-1.2-3.7c-0.2-1.4-0.3-2.9-0.4-4.5c0-3,0.3-6.5,1-10.5c0.7-4,1.7-9.4,2.9-16.2s2.2-12.3,2.9-16.4
					c0.7-4.1,1.6-7.7,2.7-10.8c0.4-1,0.6-1.9,0.7-2.8c0.1-0.8,0.2-1.6,0.2-2.3c0-2.3-0.8-3.8-2.3-4.5c-1.5-0.7-3.4-0.9-5.5-0.4
					c-2.5,0.6-5.1,1.9-7.7,4c-2.6,2.1-4.6,4.7-6,7.8c-1.9,4.3-3.5,8.6-5,12.7c-1.5,4.1-2.7,9.6-3.7,16.5c-1,6.8-1.9,12.6-2.6,17.2
					c-0.1,0.4-0.1,0.7-0.2,1.1c-0.9,1.2-1.9,2.5-3,3.8c-3.2,4.1-6.6,7.9-10.2,11.6c-3.6,3.6-7.1,6.7-10.7,9.4
					c-3.5,2.7-6.8,4.3-9.7,5c-3,0.7-5.4,0.6-7.4-0.3c-1.9-0.9-3.5-2.2-4.7-3.9c-1.2-1.7-2-3.8-2.4-6.1c-0.4-2.3-0.6-4.6-0.6-6.8
					c0-1.5,0-3.3,0.1-5.6s0.4-4.6,0.9-7.1c0.5-2.5,1.4-5.7,2.6-9.6c1.2-3.8,2.4-6.9,3.7-9.1c1.2-2.2,2.7-4.2,4.5-5.8
					s3.9-2.7,6.4-3.3c1-0.2,1.7,0.1,2,1c0.3,0.9,0.5,2.1,0.5,3.6c0.1,1.7,0,2.8-0.1,3.4c-0.9,3.8-1.4,6.2-1.6,7.3
					c-0.5,2-0.1,4,1.5,6.1c0.9,1.3,2.9,1.6,6,0.9c2.1-0.5,3.9-1.4,5.5-2.8c1.6-1.4,3.3-3.6,5-6.8c1.7-3.2,2.9-5.8,3.4-8
					c0.6-2.2,0.9-4.3,0.9-6.4c0-3-0.7-5.7-2-8c-1.3-2.3-3.1-4.2-5.3-5.6c-2.3-1.4-5-2.3-8.2-2.6c-3.2-0.3-6.6-0.1-10.3,0.8
					c-4.1,1-7.9,2.6-11.4,4.9c-3.4,2.3-6.6,5.1-9.4,8.3c-2.8,3.2-5.2,6.8-7.3,10.7c-2.1,3.9-3.9,7.9-5.3,12
					c-1.4,4.1-2.7,8.8-3.9,14.1c-1.2,5.3-1.8,9.7-1.8,13.3c0,2.8,0.3,5.5,0.7,8c0.1,0.3,0.1,0.7,0.2,1c-0.1-0.3-0.1-0.7-0.2-1
					c-1.7,1.9-3.5,3.8-5.3,5.6c-2.7,2.8-5.5,5.3-8.2,7.5c-2.7,2.2-5.1,3.5-7.3,4c-1.9,0.4-3.2-0.1-3.8-1.6c-0.6-1.5-0.9-3.6-1-6.4
					c0-2.8,0.4-6.1,1.3-9.8c0.9-3.7,1.6-7.4,2.1-11s1.6-8.2,3.2-13.5c1.5-5.4,2.7-9.7,3.5-13.1c0.8-3.4,1.5-6.4,2.1-9
					c0.6-2.6,0.9-4.6,0.9-6c0-1.6-0.5-2.8-1.4-3.5c-0.9-0.8-2.6-0.8-5.2-0.2c-1.4,0.3-2.9,0.9-4.7,1.6c-1.7,0.7-3.4,1.7-5,2.7
					c-1.6,1.1-3,2.3-4.3,3.8c-1.4,1.6-2.2,3.2-2.5,4.8c-0.5,2.4-1.9,7.5-4.2,15.4c-2.4,9.7-4.1,15.9-4.9,18.7
					c-0.5,1.4-1.6,7.7-3.3,18.9c-0.8,5.4-1.2,10.1-1.2,13.9c0,2.8,0.3,5.3,0.9,7.5c0.6,2.2,1.6,3.9,2.9,5.2c1.4,1.3,3.1,2.1,5.3,2.5
					s4.9,0.2,8.1-0.5c3.6-0.8,7.3-2.3,11.3-4.6c4-2.2,7.8-4.7,11.6-7.6c3.8-2.8,7.3-5.8,10.6-8.9c1.3-1.2,2.5-2.4,3.6-3.5
					c-0.4-0.5-0.7-1.1-1.1-1.6c0.3,0.6,0.7,1.1,1.1,1.6c0.9,1.3,1.9,2.5,3,3.6c2.9,2.9,6.5,4.8,10.9,6c4.3,1.1,9.3,1,15-0.3
					c3.2-0.7,6.4-2,9.6-3.7c3.1-1.8,6.2-3.8,9.1-6.1c2.9-2.3,5.7-4.8,8.3-7.5c2.7-2.7,5.1-5.5,7.4-8.2c0.9-1.1,1.8-2.2,2.7-3.3
					c0.3,1.8,0.8,3.4,1.5,4.9c1.3,3,3,5.3,5.2,7.1c2.2,1.8,4.6,2.9,7.4,3.5c2.8,0.6,5.7,0.5,8.6-0.2c3.4-0.8,6.9-2.5,10.4-5.1
					s7-5.8,10.3-9.5l-2,11.7c-3.8,4.3-7.2,8.3-9.9,11.9c-2.8,3.6-6.3,8.4-10.6,14.2c-2.1,2.8-4.2,5.9-6.1,9.3c-2,3.4-3.4,6-4.3,7.8
					c-0.9,1.8-2.5,5-4.7,9.6c-4,8.2-5.7,15.6-5.2,22c0.3,3.4,1.1,6.2,2.5,8.5c1.4,2.2,3.2,3.8,5.5,4.8c2.2,1,4.7,1.5,7.3,1.6
					c2.7,0.1,5.6-0.2,8.7-0.9c3.9-0.9,7.4-2.3,10.6-4.3c3.2-2,6-4.3,8.3-6.8c2.3-2.5,4.4-5.5,6.2-8.7c1.9-3.3,3.4-6.5,4.5-9.6
					c1.1-3.2,2.1-6.5,3-10.2c0.8-3.6,1.4-6.8,1.7-9.6c0.3-2.8,0.7-5.7,1-8.7c0.1-1.3,0.3-3.1,0.6-5.4c0.8-8.2,1.4-13.8,2-16.9
					c0.6-3.1,1.7-5.4,3.4-6.9c6.9-6.2,10.9-10,12.1-11.3c4-4.2,6.3-6.5,6.7-6.9c1.3-1.3,3.5-3.7,6.6-7.2c1.7-2,3.4-4.1,5-6.2l0,0
					c0.9,1.3,1.9,2.4,3,3.5c2.9,2.9,6.5,4.8,10.9,6c4.3,1.1,9.3,1,15-0.3c3.2-0.7,6.4-2,9.6-3.7c3.2-1.8,6.2-3.8,9.1-6.1
					c2.9-2.3,5.7-4.8,8.3-7.5c2.7-2.7,5.1-5.5,7.4-8.2c2.9-3.5,5.6-7.1,8.3-11c1,3.7,2.2,7,3.7,9.9c2.1,4.4,4.6,7.7,7.5,9.9
					s5.9,3,9.2,2.2c2.1-0.5,4.5-1.3,6.9-2.4c2.5-1.1,5-2.5,7.6-4c2.6-1.5,5.2-3.2,7.7-5c2.6-1.8,5-3.6,7.4-5.4
					c1.8-1.4,3.6-2.8,5.5-4.3c-0.9-1-1.8-2.2-2.5-3.4c0.8,1.2,1.6,2.3,2.5,3.4c0.3,0.3,0.6,0.7,0.9,1c2.9,3,6.5,5,10.8,6.2
					c4.3,1.2,9.3,1.1,15.1-0.3c3.7-0.9,7.3-2.1,10.9-3.8c3.6-1.7,7-3.6,10.4-5.8c3.3-2.2,6.5-4.6,9.5-7.1c3-2.6,5.9-5.1,8.5-7.6
					c6-5.9,11.8-12.3,17.1-19.4L839.8,497.9z M586.3,629.3c-0.4,3.2-0.7,5.9-0.9,8.2c-0.3,2.3-0.6,4.4-1.2,6.3
					c-1,3.6-1.8,6.4-2.4,8.6c-0.6,2.2-1.4,4.4-2.2,6.6c-0.8,2.3-1.6,4-2.3,5.4c-0.7,1.3-1.6,2.6-2.6,3.8c-1,1.2-2,2.1-3.2,2.7
					c-1.2,0.6-2.5,1.1-4,1.5c-4,0.9-5.1-1.8-3.1-8.2c2.4-7.6,5.7-15.3,9.8-23.1c4.1-7.8,8.4-13.7,12.6-17.8
					C586.9,624.1,586.6,626.1,586.3,629.3z M733,491.7c0.3-6.4,1.2-14,2.8-22.8c1.6-8.8,2.4-12.9,2.4-13.2c0.1-0.2,1.3-4.8,4-14.5
					c2.6-9.7,4.9-16.7,6.9-21.2c1.9-4.5,3.8-8.1,5.8-10.9c1.9-2.8,3.7-4.4,5.4-4.8c0.5-0.1,0.7,0.5,0.8,1.7c0.1,1.3,0.1,2.8,0.2,4.6
					c-0.5,5.8-1.8,12.2-3.8,19.3c-2,7.1-4.4,14.2-7.1,21.5c-2.7,7.3-5.6,14.4-8.7,21.3C738.7,479.8,735.8,486.1,733,491.7z
					 M762.9,534.1c-0.1-0.4-0.3-0.9-0.4-1.3C762.6,533.2,762.7,533.7,762.9,534.1c0.3,1,0.7,1.9,1.1,2.9
					C763.6,536,763.2,535.1,762.9,534.1z M782.9,504.8c0.1-1.9,0.7-4.4,1.7-7.6c1-3.1,1.9-5.8,2.6-7.9c0.8-2.1,1.8-4.1,3-6
					c1.3-1.8,2.8-3.5,4.7-4.9c1.9-1.4,4.1-2.4,6.8-3c1.5-0.3,2.7,0.2,3.8,1.8c1,1.5,1.5,3.6,1.6,6.4c0,1.9-1,4.6-3.2,8.1
					c-2.1,3.5-4.3,6.3-6.6,8.6c-2.2,2.3-4.7,4.3-7.3,6c-2.6,1.7-5,2.8-7.2,3.4C782.7,508.4,782.7,506.8,782.9,504.8z"/>
			</g>
		</g>
		<g>
			<path class="st2" d="M561,835.6c-2.8,0-5-2.2-5-5s2.2-5,5-5c64,0,125.7-23.1,173.9-65.1c47.7-41.6,78.9-98.8,88-161.1
				c0.4-2.7,2.9-4.6,5.7-4.2c2.7,0.4,4.6,2.9,4.2,5.7c-9.4,64.7-41.8,124-91.3,167.2C691.5,811.6,627.4,835.6,561,835.6z"/>
		</g>
		<g>
			<path class="st2" d="M307.1,475c-0.6,0-1.1-0.1-1.7-0.3c-2.6-0.9-4-3.8-3-6.4c18.9-52.8,53.1-98,98.9-130.7
				c46.8-33.5,102-51.2,159.7-51.2c2.8,0,5,2.2,5,5s-2.2,5-5,5c-55.6,0-108.8,17.1-153.9,49.3c-44.1,31.6-77.1,75.2-95.3,126
				C311.1,473.7,309.2,475,307.1,475z"/>
		</g>
		<g>
			<g>
				<path class="st1" d="M650.5,627.2c-1.2-0.4-2.8-0.7-4.8-0.8c-1.9-0.1-3.2-0.3-4-0.8c-0.8-0.4-1.2-1.2-1.2-2.4
					c0-1.4,0.4-2.5,1.3-3.5c0.9-1,2.1-1.7,3.6-2c2.5-0.6,4.9-0.1,7,1.6l1.4-4.2c-1-0.9-2.2-1.5-3.7-1.7c-1.5-0.3-3.1-0.2-4.7,0.2
					c-1.8,0.4-3.4,1.2-4.8,2.3c-1.4,1.1-2.4,2.4-3.2,3.9c-0.7,1.5-1.1,3.2-1.1,4.9c0,2.4,0.7,4.1,2.1,5.1c1.4,1,3.5,1.5,6.5,1.6
					c1.9,0.1,3.3,0.3,4.1,0.7c0.8,0.4,1.3,1.2,1.3,2.3c0,1.3-0.4,2.4-1.3,3.3c-0.9,0.9-2.1,1.6-3.8,2c-1.5,0.3-2.8,0.4-4.1,0.2
					c-1.3-0.2-2.5-0.7-3.6-1.6l-1.4,4.2c1.1,0.9,2.5,1.4,4,1.7c1.6,0.3,3.3,0.2,5.1-0.3c1.9-0.4,3.6-1.2,5-2.2
					c1.4-1,2.5-2.3,3.2-3.8c0.7-1.5,1.1-3.1,1.1-4.9c0-1.6-0.3-2.9-1-3.8C652.6,628.3,651.7,627.6,650.5,627.2z"/>
			</g>
			<g>
				<polygon class="st1" points="681.1,605.6 681.2,617.9 669.1,620.7 669,608.4 664.8,609.3 665,638.9 669.2,637.9 669.1,625.1 
					681.2,622.3 681.3,635.1 685.5,634.2 685.3,604.6 				"/>
			</g>
			<g>
				<path class="st1" d="M713.5,599.5c-1.7-0.8-3.7-1-6-0.4c-2.3,0.5-4.3,1.6-6,3.2c-1.7,1.6-3,3.7-3.9,6.2
					c-0.9,2.5-1.3,5.3-1.3,8.4c0,3.1,0.5,5.7,1.4,7.8c0.9,2.1,2.2,3.5,3.9,4.4s3.7,1,6,0.5c2.3-0.5,4.3-1.6,6-3.2
					c1.7-1.6,3-3.7,3.8-6.2c0.9-2.5,1.3-5.3,1.3-8.4c0-3.1-0.5-5.7-1.4-7.7C716.5,601.8,715.2,600.4,713.5,599.5z M712.8,621.1
					c-1.2,2.2-2.9,3.5-5.1,4c-2.2,0.5-3.9,0-5.1-1.7c-1.2-1.6-1.9-4.2-1.9-7.7c0-3.5,0.6-6.3,1.8-8.5c1.2-2.1,2.9-3.5,5.1-4
					c2.2-0.5,3.9,0,5.1,1.6c1.2,1.6,1.9,4.1,1.9,7.6C714.6,616.1,714,619,712.8,621.1z"/>
			</g>
			<g>
				<path class="st1" d="M745.9,592.9c-1.4-1.2-3.4-1.5-5.9-0.9l-10.2,2.4l0.2,29.6l4.3-1l-0.1-12.3l6-1.4c2.5-0.6,4.5-1.8,5.9-3.7
					c1.4-1.9,2.1-4.2,2.1-6.8C748.1,596,747.3,594.1,745.9,592.9z M742.9,603.2c-0.8,0.9-1.9,1.6-3.4,1.9l-5.5,1.3l-0.1-8.9l5.5-1.3
					c1.5-0.3,2.6-0.2,3.4,0.4c0.8,0.6,1.1,1.6,1.1,3.1C744,601.1,743.7,602.3,742.9,603.2z"/>
			</g>
		</g>
	</g>
</g>
</svg>
