<?xml version="1.0" encoding="utf-8"?>
<!-- Generator: Adobe Illustrator 23.0.2, SVG Export Plug-In . SVG Version: 6.00 Build 0)  -->
<svg version="1.1" id="Layer_1" xmlns="http://www.w3.org/2000/svg" xmlns:xlink="http://www.w3.org/1999/xlink" x="0px" y="0px"
	 viewBox="0 0 4000 4000" style="enable-background:new 0 0 4000 4000;" xml:space="preserve">
<style type="text/css">
	.st0{fill-rule:evenodd;clip-rule:evenodd;}
</style>
<g>
	<polygon class="st0" points="2000,662 1753.8,816 1921.8,1021.4 1822.7,1758.7 2000,2661.1 2177.3,1758.7 2078.2,1021.4 
		2246.2,816 	"/>
	<polygon class="st0" points="1593.8,1042.4 981.3,984.6 1512.5,1392.4 1290.6,1644 2000,2833 	"/>
	<polygon class="st0" points="2406.2,1042.4 3018.7,984.6 2487.5,1392.4 2709.4,1644 2000,2833 	"/>
	<path class="st0" d="M3116.8,2948.1v244.7h-59.6v-146.7l-54.7,146.7h-48.1l-55.1-147.1v147.1h-59.6v-244.7h70.4l68.7,169.4
		l68-169.4L3116.8,2948.1L3116.8,2948.1z M2652.5,2948.1v146.4c0,14.6,3.6,25.9,10.8,33.8c7.2,7.9,17.8,11.8,31.7,11.8
		s24.6-3.9,32.1-11.8c7.4-7.9,11.2-19.2,11.2-33.8v-146.4h59.6v146c0,21.8-4.6,40.3-13.9,55.4c-9.3,15.1-21.8,26.5-37.5,34.2
		c-15.7,7.7-33.2,11.5-52.5,11.5c-19.3,0-36.5-3.8-51.8-11.3c-15.2-7.5-27.2-18.9-36.1-34.2c-8.8-15.2-13.2-33.8-13.2-55.6v-146
		L2652.5,2948.1L2652.5,2948.1z M2468.1,3195.3c-17.9,0-33.9-2.9-48.1-8.7c-14.2-5.8-25.5-14.4-34-25.8c-8.5-11.4-13-25.1-13.4-41.1
		h63.4c0.9,9.1,4.1,16,9.4,20.7c5.3,4.8,12.3,7.1,20.9,7.1c8.8,0,15.8-2,20.9-6.1c5.1-4.1,7.7-9.7,7.7-16.9c0-6-2-11-6.1-15
		c-4.1-4-9.1-7.2-15-9.8c-5.9-2.6-14.4-5.5-25.3-8.7c-15.8-4.9-28.7-9.8-38.7-14.6c-10-4.9-18.6-12.1-25.8-21.6
		c-7.2-9.5-10.8-22-10.8-37.3c0-22.8,8.3-40.6,24.8-53.5c16.5-12.9,38-19.3,64.5-19.3c27,0,48.7,6.4,65.2,19.3
		c16.5,12.9,25.3,30.8,26.5,53.9h-64.5c-0.5-7.9-3.4-14.1-8.7-18.6c-5.3-4.5-12.2-6.8-20.6-6.8c-7.2,0-13,1.9-17.4,5.8
		c-4.4,3.8-6.6,9.3-6.6,16.6c0,7.9,3.7,14.1,11.1,18.5c7.4,4.4,19.1,9.2,34.9,14.3c15.8,5.3,28.6,10.5,38.5,15.3
		c9.9,4.9,18.4,12,25.6,21.3c7.2,9.3,10.8,21.3,10.8,35.9c0,13.9-3.5,26.6-10.6,38c-7.1,11.4-17.4,20.4-30.8,27.2
		C2502.4,3191.9,2486.5,3195.3,2468.1,3195.3z M2254.1,3057.6c11.4,0,19.9-2.7,25.4-8c5.6-5.3,8.4-12.9,8.4-22.7
		c0-9.8-2.8-17.3-8.4-22.7c-5.6-5.3-14.1-8-25.4-8h-32.4v61.3L2254.1,3057.6L2254.1,3057.6z M2348.6,3026.9
		c0,14.2-3.3,27.1-9.8,38.9c-6.5,11.7-16.5,21.2-30,28.4c-13.5,7.2-30.2,10.8-50.2,10.8h-36.9v87.8h-59.6v-244.7h96.6
		c19.5,0,36,3.4,49.5,10.1c13.5,6.7,23.6,16,30.3,27.9C2345.2,2998,2348.6,3011.6,2348.6,3026.9z M2118.8,2948.1v244.7h-59.6v-244.7
		H2118.8z M2016.4,2948.1v244.7h-59.6v-146.7l-54.7,146.7H1854l-55.1-147.1v147.1h-59.6v-244.7h70.4l68.7,169.4l68-169.4
		L2016.4,2948.1L2016.4,2948.1z M1610.3,2995.9v49.5h79.8v46h-79.8v53.7h90.3v47.7h-149.9v-244.7h149.9v47.8L1610.3,2995.9
		L1610.3,2995.9z M1383,3058.3h36.9c10.9,0,19.1-2.7,24.6-8s8.2-12.9,8.2-22.7c0-9.3-2.7-16.6-8.2-22c-5.5-5.3-13.7-8-24.6-8H1383
		V3058.3z M1448.2,3192.8l-50.9-92.4H1383v92.4h-59.6v-244.7h100c19.3,0,35.7,3.4,49.3,10.1c13.6,6.7,23.8,16,30.5,27.7
		c6.7,11.7,10.1,24.8,10.1,39.2c0,16.3-4.6,30.8-13.8,43.6c-9.2,12.8-22.7,21.8-40.6,27.2l56.5,96.9L1448.2,3192.8L1448.2,3192.8z
		 M1165.2,3140.9c19.5,0,35.1-6.5,46.9-19.5c11.7-13,17.6-30.2,17.6-51.6c0-21.6-5.9-38.9-17.6-51.8c-11.7-12.9-27.4-19.3-46.9-19.3
		c-19.8,0-35.5,6.4-47.2,19.2c-11.7,12.8-17.6,30.1-17.6,51.9c0,21.6,5.9,38.9,17.6,51.8C1129.7,3134.4,1145.4,3140.9,1165.2,3140.9
		z M1165.2,3195.3c-23,0-44.1-5.3-63.3-16s-34.4-25.6-45.7-44.8c-11.3-19.2-16.9-40.7-16.9-64.7c0-23.9,5.6-45.4,16.9-64.5
		c11.3-19.1,26.5-33.9,45.7-44.6c19.2-10.7,40.3-16,63.3-16s44.1,5.3,63.3,16c19.2,10.7,34.3,25.6,45.3,44.6
		c11,19.1,16.6,40.6,16.6,64.5c0,23.9-5.6,45.5-16.7,64.7c-11.2,19.2-26.3,34.1-45.3,44.8
		C1209.2,3189.9,1188.2,3195.3,1165.2,3195.3z M2692,3245.9h-11.1v90h14.5v-63.5l51.1,63.5h10.9v-90H2743v64.1L2692,3245.9z
		 M2572.6,3303.9h-38.1l19-42.8L2572.6,3303.9z M2586.5,3335.9h15.3l-40.4-90h-15.7l-40.4,90h15.3l8.5-18.9h48.7L2586.5,3335.9z
		 M2430.2,3257.3c-9.2-9.1-20.3-13.6-33.3-13.6c-14.8,0-26.3,4.6-34.7,13.8c-8.4,9.2-12.6,20.6-12.6,34.3c0,6.2,0.9,11.9,2.8,17.3
		c1.9,5.4,4.7,10.2,8.4,14.5c3.7,4.3,8.6,7.8,14.9,10.3c6.2,2.5,13.3,3.8,21.3,3.8c14.1,0,25.9-5.2,35.4-15.7v-36.9h-38.5v12.9h25.1
		v18.3c-6.3,5.3-13.7,8-22,8c-11,0-19.3-3.1-24.8-9.4s-8.4-13.9-8.4-23c-0.1-9.9,2.9-18.1,8.9-24.8c6-6.7,14.1-10,24.3-10
		c4.3,0,8.6,0.8,13.1,2.5c4.4,1.7,8.2,4.1,11.2,7.1L2430.2,3257.3z M2193.6,3291.5c0-10.1,2.8-18.3,8.4-24.7
		c5.6-6.3,13.5-9.5,23.6-9.5c6.9,0.1,12.9,1.9,17.8,5.3c4.9,3.5,8.4,7.7,10.5,12.7c2.1,5,3.1,10.4,3.1,16.2c0,9.4-2.7,17.3-8,23.6
		c-5.3,6.3-13.2,9.5-23.8,9.5c-5.3,0-10.1-1-14.2-2.9c-4.2-1.9-7.5-4.5-10-7.7c-2.5-3.2-4.4-6.7-5.6-10.5
		C2194.3,3299.6,2193.7,3295.7,2193.6,3291.5z M2225.6,3244.2c-13.6,0-24.7,4.4-33.3,13.3c-8.7,8.9-13,20.2-13,33.9
		c0,6.1,1,11.9,2.9,17.3c1.9,5.4,4.7,10.4,8.4,14.7c3.6,4.4,8.5,7.9,14.5,10.5c6,2.6,12.8,3.9,20.3,3.9c7.5,0,14.3-1.3,20.3-3.8
		c6-2.5,10.8-6,14.5-10.4c3.6-4.4,6.4-9.3,8.4-14.9c1.9-5.5,2.9-11.4,2.9-17.6c0-13-4-24.1-12-33.3
		C2251.4,3248.9,2240.2,3244.3,2225.6,3244.2z M2044.9,3245.9v90h61.9v-13.4h-47.5v-76.7H2044.9z M1958.1,3258.5
		c-6.3-10.1-17.5-15.2-33.6-15.2c-4.3,0-8.4,0.5-12.3,1.5c-3.9,1-7.6,2.5-11.1,4.4c-3.4,2-6.2,4.7-8.2,8.1
		c-2.1,3.4-3.1,7.4-3.1,11.8c0,3.7,0.7,7,2,9.8c1.3,2.9,3,5.2,5,7c2,1.8,4.7,3.3,7.9,4.6c3.3,1.3,6.4,2.3,9.3,3
		c3,0.7,6.5,1.3,10.6,1.8c7.2,0.9,12.8,2.5,16.9,4.7c4.1,2.2,6.1,5.6,6.1,10.1c0,3.5-1.2,6.4-3.5,8.8c-2.4,2.4-5.2,4-8.4,4.8
		c-3.3,0.9-6.9,1.3-10.8,1.3c-12.9,0-22.2-4.9-28-14.8l-10.8,7.2c7.4,13.6,20.3,20.5,38.7,20.5c6.7,0,12.7-0.9,18.1-2.6
		c5.4-1.8,9.9-4.8,13.6-9.1c3.7-4.3,5.6-9.6,5.6-16.1c0-4.8-1-8.9-2.9-12.4c-1.9-3.5-4.7-6.2-8.4-8.2c-3.7-2-7.4-3.5-11.2-4.6
		c-3.8-1-8.3-1.9-13.6-2.7c-7.1-1-12.5-2.4-16.3-4.2c-3.7-1.8-5.6-4.7-5.6-8.6c0-4.2,1.9-7.5,5.8-10c3.9-2.4,8.9-3.7,15.1-3.7
		c4.7,0.1,9.1,1,13.1,2.8c4,1.8,7.1,4.2,9.2,7.3L1958.1,3258.5z M1775.9,3259c5.6,0,9.8,1.6,12.7,5c2.9,3.3,4.4,7.2,4.4,11.6
		c0,4.5-1.5,8.4-4.4,11.4c-2.9,3.1-7.2,4.6-12.9,4.6h-27.4V3259L1775.9,3259L1775.9,3259z M1810.2,3333.3l-26.9-30
		c8.3-1.2,14.5-4.4,18.5-9.6c4-5.2,6-11.3,6-18.5c0-8.1-2.8-15-8.4-20.8c-5.6-5.8-13.4-8.7-23.3-8.7c-4.6,0-11.6,0-21-0.1
		c-9.3,0-16.3-0.1-21-0.1v90.2h14.4v-31.1h19l27.4,31.1h16.9L1810.2,3333.3z M1631.6,3246v52.6c0,8.4-2.3,14.9-6.9,19.5
		c-4.6,4.6-10.6,6.7-18,6.2c-6.9-0.3-12.4-2.6-16.6-7.1c-4.2-4.5-6.3-10.7-6.3-18.7V3246h-14.3v52.6c0,12.2,3.5,21.7,10.6,28.4
		c7.1,6.8,15.9,10.3,26.6,10.5c11.4,0.4,20.8-2.8,28.2-9.6c7.4-6.8,11.1-16.6,11.1-29.4V3246L1631.6,3246L1631.6,3246z
		 M1409.1,3291.5c0-10.1,2.8-18.3,8.4-24.7c5.6-6.3,13.5-9.5,23.6-9.5c6.9,0.1,12.9,1.9,17.8,5.3c4.9,3.5,8.4,7.7,10.6,12.7
		c2.1,5,3.1,10.4,3.1,16.2c0,9.4-2.7,17.3-8,23.6c-5.3,6.3-13.2,9.5-23.8,9.5c-5.3,0-10.1-1-14.2-2.9c-4.2-1.9-7.5-4.5-10-7.7
		c-2.5-3.2-4.3-6.7-5.6-10.5C1409.9,3299.6,1409.2,3295.7,1409.1,3291.5z M1441.1,3244.2c-13.6,0-24.7,4.4-33.3,13.3
		c-8.7,8.9-13,20.2-13,33.9c0,6.1,1,11.9,2.9,17.3c1.9,5.4,4.7,10.4,8.4,14.7c3.6,4.4,8.5,7.9,14.5,10.5c6,2.6,12.8,3.9,20.3,3.9
		c7.5,0,14.3-1.3,20.3-3.8c6-2.5,10.8-6,14.5-10.4c3.6-4.4,6.4-9.3,8.4-14.9c1.9-5.5,2.9-11.4,2.9-17.6c0-13-4-24.1-12-33.3
		C1467,3248.9,1455.7,3244.3,1441.1,3244.2z M1259.7,3245.9h-17.1v0.6l34.7,52.5v36.9h14.4V3299l35.8-52.5v-0.6h-17.4l-25.6,39.7
		L1259.7,3245.9z M942.8,3146.8h78.1v46H883.2v-244.7h59.6L942.8,3146.8L942.8,3146.8z"/>
</g>
</svg>
