<?xml version="1.0" encoding="utf-8"?>
<!-- Generator: Adobe Illustrator 27.5.0, SVG Export Plug-In . SVG Version: 6.00 Build 0)  -->
<svg version="1.1" id="Layer_1" xmlns="http://www.w3.org/2000/svg" xmlns:xlink="http://www.w3.org/1999/xlink" x="0px" y="0px"
	 viewBox="0 0 1300 1300" style="enable-background:new 0 0 1300 1300;" xml:space="preserve">
<g id="XMLID_4_">
	<g id="XMLID_1_">
		<path id="XMLID_6_" style="fill:#004E9A;" d="M856.771,518.097c0-127.541-103.39-230.937-230.931-230.937
			c-127.539,0-230.936,103.396-230.936,230.937c0,127.534,103.397,230.931,230.936,230.931c34.18,0,66.589-7.484,95.775-20.804
			c-21.446,7.867-44.619,12.17-68.792,12.17c-36.503,0-70.713-9.804-100.154-26.912c168.469-58.235,196.444-130.464,196.444-130.464
			c-64.327,76.776-181.041,108.949-216.392,117.214c-46.776-35.281-77.533-90.659-79.438-153.297
			C650.138,505.606,707.199,378.38,707.199,378.38C645.21,477.569,519.601,513.135,453.77,525.3
			c7.889-103.043,93.996-184.19,199.054-184.19c110.252,0,199.638,89.379,199.638,199.644c0,12.553-1.213,24.814-3.431,36.718
			C854.066,558.526,856.771,538.628,856.771,518.097z"/>
		
			<linearGradient id="XMLID_00000047761489741834758500000011639151206075411344_" gradientUnits="userSpaceOnUse" x1="329.5717" y1="479.4684" x2="850.6141" y2="479.4684">
			<stop  offset="0" style="stop-color:#FAA61A"/>
			<stop  offset="0.5969" style="stop-color:#F37021"/>
			<stop  offset="1" style="stop-color:#E11B22"/>
		</linearGradient>
		<path id="XMLID_2_" style="fill:url(#XMLID_00000047761489741834758500000011639151206075411344_);" d="M329.572,664.272
			c0,0,419.953-58.045,521.042-369.608C850.614,294.664,805.993,627.694,329.572,664.272z"/>
	</g>
	<g id="XMLID_21_">
		<path id="XMLID_22_" style="fill:#004E9A;" d="M106.868,861.162v-0.285c0-28.441,22.152-51.737,52.451-51.737
			c18.007,0,28.869,4.859,39.302,13.721l-13.863,16.721c-7.718-6.43-14.577-10.147-26.154-10.147
			c-16.007,0-28.727,14.149-28.727,31.156v0.287c0,18.293,12.577,31.728,30.298,31.728c8.003,0,15.149-2.001,20.723-6.003V872.31
			h-22.152v-19.007h43.446v43.446c-10.29,8.718-24.438,15.864-42.732,15.864C128.305,912.612,106.868,890.747,106.868,861.162z"/>
		<path id="XMLID_24_" style="fill:#004E9A;" d="M223.34,810.856h22.01v80.034h49.878v20.008H223.34V810.856z"/>
		<path id="XMLID_26_" style="fill:#004E9A;" d="M301.656,861.162v-0.285c0-28.441,22.438-51.737,53.308-51.737
			c30.87,0,53.022,23.011,53.022,51.45v0.287c0,28.441-22.438,51.735-53.309,51.735
			C323.808,912.612,301.656,889.603,301.656,861.162z M384.976,861.162v-0.285c0-17.15-12.576-31.442-30.298-31.442
			c-17.721,0-30.012,14.006-30.012,31.156v0.287c0,17.15,12.577,31.442,30.298,31.442S384.976,878.313,384.976,861.162z"/>
		<path id="XMLID_29_" style="fill:#004E9A;" d="M427.559,810.856h46.448c11.434,0,20.437,3.144,26.154,8.86
			c4.573,4.574,6.86,10.147,6.86,17.008v0.285c0,11.291-6.003,17.58-13.148,21.582c11.576,4.429,18.722,11.148,18.722,24.582v0.285
			c0,18.293-14.863,27.44-37.445,27.44h-47.591V810.856z M469.291,851.302c9.718,0,15.864-3.145,15.864-10.576v-0.287
			c0-6.574-5.145-10.289-14.435-10.289h-21.724v21.152H469.291z M475.151,891.604c9.719,0,15.578-3.43,15.578-10.861v-0.287
			c0-6.717-5.003-10.861-16.293-10.861h-25.439v22.009H475.151z"/>
		<path id="XMLID_33_" style="fill:#004E9A;" d="M565.04,810.141h20.293l42.875,100.757h-23.01l-9.147-22.438h-42.303l-9.147,22.438
			h-22.438L565.04,810.141z M588.192,869.023l-13.291-32.443l-13.291,32.443H588.192z"/>
		<path id="XMLID_36_" style="fill:#004E9A;" d="M643.639,810.856h22.01v80.034h49.878v20.008h-71.888V810.856z"/>
		<path id="XMLID_38_" style="fill:#F37021;" d="M774.972,810.856h22.009v80.034h49.879v20.008h-71.888V810.856z"/>
		<path id="XMLID_40_" style="fill:#F37021;" d="M853.286,861.162v-0.285c0-28.441,22.439-51.737,53.309-51.737
			c30.869,0,53.021,23.011,53.021,51.45v0.287c0,28.441-22.438,51.735-53.308,51.735
			C875.438,912.612,853.286,889.603,853.286,861.162z M936.607,861.162v-0.285c0-17.15-12.577-31.442-30.298-31.442
			s-30.013,14.006-30.013,31.156v0.287c0,17.15,12.577,31.442,30.3,31.442C924.317,892.319,936.607,878.313,936.607,861.162z"/>
		<path id="XMLID_43_" style="fill:#F37021;" d="M974.76,861.162v-0.285c0-28.441,22.152-51.737,52.451-51.737
			c18.008,0,28.869,4.859,39.303,13.721l-13.864,16.721c-7.716-6.43-14.577-10.147-26.153-10.147
			c-16.007,0-28.727,14.149-28.727,31.156v0.287c0,18.293,12.577,31.728,30.3,31.728c8.003,0,15.149-2.001,20.722-6.003V872.31
			h-22.151v-19.007h43.446v43.446c-10.289,8.718-24.439,15.864-42.732,15.864C996.198,912.612,974.76,890.747,974.76,861.162z"/>
		<path id="XMLID_45_" style="fill:#F37021;" d="M1086.801,861.162v-0.285c0-28.441,22.439-51.737,53.309-51.737
			c30.869,0,53.021,23.011,53.021,51.45v0.287c0,28.441-22.438,51.735-53.308,51.735
			C1108.954,912.612,1086.801,889.603,1086.801,861.162z M1170.122,861.162v-0.285c0-17.15-12.577-31.442-30.298-31.442
			c-17.721,0-30.013,14.006-30.013,31.156v0.287c0,17.15,12.577,31.442,30.3,31.442
			C1157.832,892.319,1170.122,878.313,1170.122,861.162z"/>
	</g>
	<g id="XMLID_3_">
		<path id="XMLID_5_" style="fill:#58B6E7;" d="M353.707,957.832h-20.113v-2.503h43.054v2.503h-20.194v54.039h-2.747V957.832z"/>
		<path id="XMLID_8_" style="fill:#58B6E7;" d="M450.882,954.925h2.585l26.818,56.946h-2.988l-7.674-16.478h-34.976l-7.754,16.478
			h-2.827L450.882,954.925z M468.411,992.888l-16.316-34.733l-16.236,34.733H468.411z"/>
		<path id="XMLID_11_" style="fill:#58B6E7;" d="M534.407,983.761V983.6c0-15.185,10.905-29.241,27.948-29.241
			c8.885,0,14.377,2.666,20.032,7.351l-1.778,2.101c-4.927-4.12-10.097-6.947-18.416-6.947c-15.024,0-24.96,12.762-24.96,26.655
			v0.162c0,14.62,9.451,26.737,25.364,26.737c7.916,0,14.782-3.474,19.305-7.269v-17.367h-20.113v-2.666h22.779v21.082
			c-5.25,4.766-12.924,8.643-22.052,8.643C544.746,1012.84,534.407,999.594,534.407,983.761z"/>
		<path id="XMLID_13_" style="fill:#58B6E7;" d="M648.465,955.329h2.746v54.038h34.088v2.505h-36.834V955.329z"/>
		<path id="XMLID_15_" style="fill:#58B6E7;" d="M745.803,955.329h2.747v56.542h-2.747V955.329z"/>
		<path id="XMLID_17_" style="fill:#58B6E7;" d="M814.383,955.329h2.505l41.357,51.858v-51.858h2.665v56.542h-2.181l-41.679-52.261
			v52.261h-2.666V955.329z"/>
		<path id="XMLID_19_" style="fill:#58B6E7;" d="M926.18,955.329h39.823v2.503h-37.076v24.314h33.522v2.505h-33.522v24.716h37.48
			v2.505H926.18V955.329z"/>
	</g>
</g>
</svg>
