<?xml version="1.0" encoding="utf-8"?>
<!-- Generator: Adobe Illustrator 23.0.2, SVG Export Plug-In . SVG Version: 6.00 Build 0)  -->
<svg version="1.1" id="katman_1" xmlns="http://www.w3.org/2000/svg" xmlns:xlink="http://www.w3.org/1999/xlink" x="0px" y="0px"
	 viewBox="0 0 500 500" style="enable-background:new 0 0 500 500;" xml:space="preserve">
<style type="text/css">
	.st0{fill:#FF2424;}
	.st1{fill:#991A5A;}
	.st2{fill:#434A5B;}
	.st3{fill:#3B4051;}
	.st4{font-family:'ArialMT';}
	.st5{font-size:41.7059px;}
	.st6{fill:#2C2E33;}
	.st7{font-size:12.9752px;}
	.st8{letter-spacing:1;}
</style>
<g id="OBJECTS">
	<g>
		<g>
			<polygon class="st0" points="175.2,305.7 241.4,181 257.4,211.1 207.2,305.7 			"/>
		</g>
		<path class="st0" d="M273.5,180.9c11.2-21.7,33.7-35.9,58.8-35.9c17.7,0,35,7.3,47.4,20l4.7,4.8l14-26.2l-2.8-2.6
			c-17.4-15.6-39.8-24.3-63.2-24.3c-17.9,0-35.4,5.1-50.5,14.7c-9,5.7-16.8,12.8-23.4,21L273.5,180.9z"/>
		<polygon class="st1" points="214.9,230.9 230.9,200.8 246.9,230.9 230.9,261.1 		"/>
		<path class="st2" d="M332.3,305.7c-31.3,0-60.9-15.9-78.4-41.8c0,0-5.8-9.7-6.8-11.9l-43-81l-71.6,134.7h-32l103.5-195l71.1,133.9
			c11.9,20.3,33.7,32.8,57.1,32.8c18.3,0,35.9-7.7,48.4-21.1l4.7-5l14.1,26.4l-2.7,2.6C379.1,296.7,356.3,305.7,332.3,305.7z"/>
	</g>
</g>
<g id="TEXTS">
	<g>
		<g>
			<text transform="matrix(1 0 0 1 144.4436 351.6808)" class="st3 st4 st5">name</text>
			<text transform="matrix(1 0 0 1 251.4596 351.6808)" class="st0 st4 st5">logo</text>
			<text transform="matrix(1 0 0 1 174.0441 368.9407)" class="st6 st4 st7 st8">tagline goes here</text>
		</g>
	</g>
</g>
</svg>
