<?xml version="1.0" encoding="utf-8"?>
<!-- Generator: Adobe Illustrator 23.0.2, SVG Export Plug-In . SVG Version: 6.00 Build 0)  -->
<svg version="1.1" id="katman_1" xmlns="http://www.w3.org/2000/svg" xmlns:xlink="http://www.w3.org/1999/xlink" x="0px" y="0px"
	 viewBox="0 0 750 500" style="enable-background:new 0 0 750 500;" xml:space="preserve">
<style type="text/css">
	.st0{fill:#E6E6E6;}
	.st1{fill:#F0F0F0;}
	.st2{fill:#FFFFFF;}
	.st3{fill:#EBEBEB;}
	.st4{fill:#E0E0E0;}
	.st5{fill:#F5F5F5;}
	.st6{display:none;}
	.st7{display:inline;}
	.st8{fill:#407BFF;}
	.st9{opacity:0.9;fill:#FFFFFF;enable-background:new    ;}
	.st10{fill:#339999;}
	.st11{fill:#263238;}
	.st12{opacity:0.2;enable-background:new    ;}
	.st13{fill:none;stroke:#339999;stroke-width:0.5;stroke-linecap:round;stroke-linejoin:round;stroke-miterlimit:10;}
	.st14{fill:#EEC1BB;}
	
		.st15{opacity:0.2;fill:none;stroke:#000000;stroke-width:0.5;stroke-linecap:round;stroke-linejoin:round;stroke-miterlimit:10;enable-background:new    ;}
	.st16{fill:#D4827D;}
	.st17{fill:none;stroke:#263238;stroke-width:0.5;stroke-linecap:round;stroke-linejoin:round;stroke-miterlimit:10;}
	.st18{opacity:0.3;}
	.st19{fill:none;stroke:#407BFF;stroke-width:0.5;stroke-linecap:round;stroke-linejoin:round;stroke-miterlimit:10;}
	.st20{opacity:0.3;enable-background:new    ;}
	.st21{fill:#DC5753;}
	.st22{opacity:0.5;fill:#FFFFFF;enable-background:new    ;}
	.st23{opacity:0.8;fill:#FFFFFF;enable-background:new    ;}
	.st24{opacity:0.4;enable-background:new    ;}
	.st25{opacity:0.4;}
	.st26{fill:#E9B376;}
	.st27{opacity:0.7;fill:#FFFFFF;enable-background:new    ;}
	.st28{opacity:0.3;fill:#FFFFFF;enable-background:new    ;}
	.st29{fill:#D58745;}
	.st30{fill:none;stroke:#263238;stroke-width:0.75;stroke-linecap:round;stroke-linejoin:round;stroke-miterlimit:10;}
	.st31{fill:#B97964;}
	.st32{fill:#A24E3F;}
	.st33{opacity:0.5;}
</style>
<g id="Background_complete">
	<g>
		<rect x="567.8" y="65.2" class="st0" width="56.8" height="107"/>
		<rect x="555.1" y="65.2" class="st1" width="66.7" height="107"/>
		<rect x="565.2" y="74.7" class="st2" width="46.4" height="88"/>
		<rect x="580" y="100.9" class="st3" width="18" height="34.2"/>
	</g>
	<g>
		<rect x="123.8" y="65.2" class="st0" width="56.8" height="107"/>
		<rect x="111.1" y="65.2" class="st1" width="66.7" height="107"/>
		<rect x="121.2" y="74.7" class="st2" width="46.4" height="88"/>
		<rect x="135.9" y="100.9" class="st3" width="18" height="34.2"/>
	</g>
	<g>
		<g>
			<g>
				<g>
					<g>
						<g>
							<path class="st4" d="M673.7,322.3H493c-3.2,0-5.9-2.6-5.9-5.9V53.2c0-3.2,2.6-5.9,5.9-5.9h180.7c3.2,0,5.9,2.6,5.9,5.9v263.3
								C679.6,319.7,677,322.3,673.7,322.3z M493,47.6c-3.1,0-5.6,2.5-5.6,5.6v263.3c0,3.1,2.5,5.6,5.6,5.6h180.7
								c3.1,0,5.6-2.5,5.6-5.6V53.2c0-3.1-2.5-5.6-5.6-5.6H493z"/>
						</g>
					</g>
					<g>
						<g>
							<path class="st4" d="M465.3,322.3H284.6c-3.2,0-5.9-2.6-5.9-5.9V53.2c0-3.2,2.6-5.9,5.9-5.9h180.7c3.2,0,5.9,2.6,5.9,5.9
								v263.3C471.2,319.7,468.5,322.3,465.3,322.3z M284.6,47.6c-3.1,0-5.6,2.5-5.6,5.6v263.3c0,3.1,2.5,5.6,5.6,5.6h180.7
								c3.1,0,5.6-2.5,5.6-5.6V53.2c0-3.1-2.5-5.6-5.6-5.6H284.6z"/>
						</g>
					</g>
				</g>
				<g>
					<g>
						<g>
							<path class="st4" d="M257,322.3H76.3c-3.2,0-5.9-2.6-5.9-5.9V53.2c0-3.2,2.6-5.9,5.9-5.9H257c3.2,0,5.9,2.6,5.9,5.9v263.3
								C262.9,319.7,260.2,322.3,257,322.3z M76.3,47.6c-3.1,0-5.6,2.5-5.6,5.6v263.3c0,3.1,2.5,5.6,5.6,5.6H257
								c3.1,0,5.6-2.5,5.6-5.6V53.2c0-3.1-2.5-5.6-5.6-5.6H76.3z"/>
						</g>
					</g>
				</g>
			</g>
			<g>
				<g>
					<rect y="383.4" class="st4" width="750" height="0.1"/>
				</g>
			</g>
		</g>
		<g>
			<rect x="653.6" y="412.8" class="st3" width="55.7" height="0.4"/>
			<rect x="495" y="417.3" class="st3" width="14.6" height="0.4"/>
			<rect x="40.6" y="400" class="st3" width="72.7" height="0.4"/>
			<rect x="128.3" y="400" class="st3" width="10.7" height="0.4"/>
			<rect x="173.6" y="407.1" class="st3" width="157.6" height="0.4"/>
		</g>
	</g>
	<path class="st3" d="M238.5,111.2c-2.5,3.8-4.2,8-5.1,12.3l-6.9,0.6l0,13.3l6.9,0.6c0.9,4.3,2.6,8.5,5.1,12.3l-4.4,5.3l9.4,9.4
		l5.3-4.4c3.8,2.5,8,4.2,12.3,5.1l0.6,6.9l13.3,0l0.6-6.9c4.3-0.9,8.5-2.6,12.3-5.1l5.3,4.4l9.4-9.4l-4.4-5.3
		c2.5-3.8,4.2-8,5.1-12.3l6.9-0.6l0-13.3l-6.9-0.6c-0.9-4.3-2.6-8.5-5.1-12.3l4.4-5.3l-9.4-9.4l-5.3,4.4c-3.8-2.5-8-4.2-12.3-5.1
		l-0.6-6.9l-13.3,0l-0.6,6.9c-4.3,0.9-8.5,2.6-12.3,5.1l-5.3-4.4l-9.4,9.4L238.5,111.2z M281.3,118.1c7.1,7.1,7.1,18.5,0,25.5
		c-7.1,7.1-18.5,7.1-25.5,0c-7.1-7.1-7.1-18.5,0-25.5C262.8,111.1,274.2,111.1,281.3,118.1z"/>
	<path class="st3" d="M264.5,272.2c-1.3,1.9-2.1,4-2.5,6.2l-3.4,0.3v6.7l3.4,0.3c0.4,2.2,1.3,4.3,2.5,6.2l-2.2,2.7l4.7,4.7l2.7-2.2
		c1.9,1.3,4,2.1,6.2,2.5l0.3,3.4h6.7l0.3-3.4c2.2-0.4,4.3-1.3,6.2-2.5l2.7,2.2l4.7-4.7l-2.2-2.7c1.3-1.9,2.1-4,2.5-6.2l3.4-0.3v-6.7
		l-3.4-0.3c-0.4-2.2-1.3-4.3-2.5-6.2l2.2-2.7l-4.7-4.7l-2.7,2.2c-1.9-1.3-4-2.1-6.2-2.5l-0.3-3.4h-6.7l-0.3,3.4
		c-2.2,0.4-4.3,1.3-6.2,2.5l-2.7-2.2l-4.7,4.7L264.5,272.2z M285.9,275.6c3.5,3.5,3.5,9.2,0,12.8c-3.5,3.5-9.2,3.5-12.8,0
		c-3.5-3.5-3.5-9.2,0-12.8C276.6,272.1,282.4,272.1,285.9,275.6z"/>
	<path class="st3" d="M74.5,202.6c-2,3-3.3,6.3-4,9.7l-5.4,0.5v10.5l5.4,0.5c0.7,3.4,2,6.7,4,9.7l-3.5,4.2l7.4,7.4l4.2-3.5
		c3,2,6.3,3.3,9.7,4l0.5,5.4l10.5,0l0.5-5.4c3.4-0.7,6.7-2,9.7-4l4.2,3.5l7.4-7.4l-3.5-4.2c2-3,3.3-6.3,4-9.7l5.4-0.5l0-10.5
		l-5.4-0.5c-0.7-3.4-2-6.7-4-9.7l3.5-4.2l-7.4-7.4l-4.2,3.5c-3-2-6.3-3.3-9.7-4l-0.5-5.4H92.9l-0.5,5.4c-3.4,0.7-6.7,2-9.7,4
		l-4.2-3.5l-7.4,7.4L74.5,202.6z M108.2,208c5.6,5.6,5.6,14.6,0,20.2c-5.6,5.6-14.6,5.6-20.2,0s-5.6-14.6,0-20.2
		C93.6,202.4,102.7,202.4,108.2,208z"/>
	<path class="st3" d="M646.9,181c-0.9,1.4-1.5,3-1.9,4.6l-2.5,0.2v4.9l2.5,0.2c0.3,1.6,1,3.1,1.9,4.6l-1.6,2l3.5,3.5l2-1.6
		c1.4,0.9,3,1.5,4.6,1.9l0.2,2.5h4.9l0.2-2.5c1.6-0.3,3.1-1,4.6-1.9l2,1.6l3.5-3.5l-1.6-2c0.9-1.4,1.5-3,1.9-4.6l2.5-0.2v-4.9
		l-2.5-0.2c-0.3-1.6-1-3.1-1.9-4.6l1.6-2l-3.5-3.5l-2,1.6c-1.4-0.9-3-1.5-4.6-1.9l-0.2-2.5h-4.9l-0.2,2.5c-1.6,0.3-3.1,1-4.6,1.9
		l-2-1.6l-3.5,3.5L646.9,181z M662.7,183.6c2.6,2.6,2.6,6.8,0,9.4c-2.6,2.6-6.8,2.6-9.4,0c-2.6-2.6-2.6-6.8,0-9.4
		C655.9,181,660.1,181,662.7,183.6z"/>
	<path class="st5" d="M458.9,119.4c-0.9,1.4-1.5,3-1.9,4.6l-2.5,0.2v4.9l2.5,0.2c0.3,1.6,1,3.1,1.9,4.6l-1.6,2l3.5,3.5l2-1.6
		c1.4,0.9,3,1.5,4.6,1.9l0.2,2.5h4.9l0.2-2.5c1.6-0.3,3.1-1,4.6-1.9l2,1.6l3.5-3.5l-1.6-2c0.9-1.4,1.5-3,1.9-4.6l2.5-0.2v-4.9
		L483,124c-0.3-1.6-1-3.1-1.9-4.6l1.6-2l-3.5-3.5l-2,1.6c-1.4-0.9-3-1.5-4.6-1.9l-0.2-2.5h-4.9l-0.2,2.5c-1.6,0.3-3.1,1-4.6,1.9
		l-2-1.6l-3.5,3.5L458.9,119.4z M474.7,121.9c2.6,2.6,2.6,6.8,0,9.4s-6.8,2.6-9.4,0c-2.6-2.6-2.6-6.8,0-9.4
		C467.9,119.3,472.1,119.3,474.7,121.9z"/>
	<path class="st5" d="M129.1,260.9c-0.9,1.4-1.5,3-1.9,4.6l-2.5,0.2v4.9l2.5,0.2c0.3,1.6,1,3.1,1.9,4.6l-1.6,2l3.5,3.5l2-1.6
		c1.4,0.9,3,1.5,4.6,1.9l0.2,2.5h4.9l0.2-2.5c1.6-0.3,3.1-1,4.6-1.9l2,1.6l3.5-3.5l-1.6-2c0.9-1.4,1.5-3,1.9-4.6l2.5-0.2v-4.9
		l-2.5-0.2c-0.3-1.6-1-3.1-1.9-4.6l1.6-2l-3.5-3.5l-2,1.6c-1.4-0.9-3-1.5-4.6-1.9l-0.2-2.5h-4.9l-0.2,2.5c-1.6,0.3-3.1,1-4.6,1.9
		l-2-1.6l-3.5,3.5L129.1,260.9z M144.9,263.4c2.6,2.6,2.6,6.8,0,9.4c-2.6,2.6-6.8,2.6-9.4,0c-2.6-2.6-2.6-6.8,0-9.4
		C138,260.8,142.3,260.8,144.9,263.4z"/>
	<path class="st3" d="M575,200.9c-1.6,2.4-2.7,5.1-3.2,7.8l-4.4,0.4v8.5l4.4,0.4c0.6,2.7,1.6,5.4,3.2,7.8l-2.8,3.4l6,6l3.4-2.8
		c2.4,1.6,5.1,2.7,7.8,3.2l0.4,4.4l8.5,0l0.4-4.4c2.7-0.6,5.4-1.6,7.8-3.2l3.4,2.8l6-6l-2.8-3.4c1.6-2.4,2.7-5.1,3.2-7.8l4.4-0.4
		l0-8.5l-4.4-0.4c-0.6-2.7-1.6-5.4-3.2-7.8l2.8-3.4l-6-6l-3.4,2.8c-2.4-1.6-5.1-2.7-7.8-3.2l-0.4-4.4h-8.5l-0.4,4.4
		c-2.7,0.6-5.4,1.6-7.8,3.2l-3.4-2.8l-6,6L575,200.9z M602.2,205.3c4.5,4.5,4.5,11.7,0,16.2c-4.5,4.5-11.7,4.5-16.2,0
		c-4.5-4.5-4.5-11.7,0-16.2C590.4,200.8,597.7,200.8,602.2,205.3z"/>
	<path class="st3" d="M406.6,248.4c-1.6,2.4-2.7,5.1-3.3,7.9l-4.4,0.4v8.5l4.4,0.4c0.6,2.8,1.7,5.5,3.3,7.9l-2.8,3.4l6,6l3.4-2.8
		c2.4,1.6,5.1,2.7,7.9,3.3l0.4,4.4l8.5,0l0.4-4.4c2.8-0.6,5.5-1.7,7.9-3.3l3.4,2.8l6-6l-2.8-3.4c1.6-2.4,2.7-5.1,3.3-7.9l4.4-0.4
		l0-8.5l-4.4-0.4c-0.6-2.8-1.7-5.4-3.3-7.9l2.8-3.4l-6-6l-3.4,2.8c-2.4-1.6-5.1-2.7-7.9-3.3l-0.4-4.4h-8.5l-0.4,4.4
		c-2.8,0.6-5.5,1.7-7.9,3.3l-3.4-2.8l-6,6L406.6,248.4z M434,252.8c4.5,4.5,4.5,11.8,0,16.3s-11.8,4.5-16.3,0s-4.5-11.8,0-16.3
		C422.2,248.3,429.5,248.3,434,252.8z"/>
	<path class="st3" d="M431.7,328.9c-2.7,4.1-4.5,8.6-5.5,13.2l-7.4,0.7l0,14.3l7.4,0.7c1,4.6,2.8,9.1,5.5,13.2l-4.7,5.7l10.1,10.1
		l5.7-4.7c4.1,2.7,8.6,4.5,13.2,5.5l0.7,7.4l14.3,0l0.7-7.4c4.6-1,9.1-2.8,13.2-5.5l5.7,4.7l10.1-10.1l-4.7-5.7
		c2.7-4.1,4.5-8.6,5.5-13.2l7.4-0.7l0-14.3l-7.4-0.7c-1-4.6-2.8-9.1-5.5-13.2l4.7-5.7L490.7,313l-5.7,4.7c-4.1-2.7-8.6-4.5-13.2-5.5
		l-0.7-7.4l-14.3,0l-0.7,7.4c-4.6,1-9.1,2.8-13.2,5.5l-5.7-4.7l-10.1,10.1L431.7,328.9z M477.6,336.3c7.6,7.6,7.6,19.9,0,27.4
		c-7.6,7.6-19.9,7.6-27.4,0s-7.6-19.9,0-27.4C457.7,328.7,470,328.7,477.6,336.3z"/>
</g>
<g id="Background_simple" class="st6">
	<g class="st7">
		<path class="st8" d="M275.6,61.9c-32.3,3-63.5,9.3-91.1,19.2c-32.6,11.7-65.8,29.8-56,53.6c18.1,43.9,105.2,44.7,87.8,74.2
			c-19.7,33.4-6.5,72.6,81.8,83.5c167.7,20.7,370.5-100.4,313.6-167C576.3,84,447.2,46.2,275.6,61.9z"/>
		<path class="st9" d="M275.6,61.9c-32.3,3-63.5,9.3-91.1,19.2c-32.6,11.7-65.8,29.8-56,53.6c18.1,43.9,105.2,44.7,87.8,74.2
			c-19.7,33.4-6.5,72.6,81.8,83.5c167.7,20.7,370.5-100.4,313.6-167C576.3,84,447.2,46.2,275.6,61.9z"/>
	</g>
</g>
<g id="Shadow">
	<g>
		<g>
			<path class="st5" d="M700.5,448.4c0,3.4-141.3,6.1-315.5,6.1s-315.5-2.7-315.5-6.1s141.3-6.1,315.5-6.1S700.5,445,700.5,448.4z"
				/>
		</g>
	</g>
</g>
<g id="Plant">
	<g>
		<g>
			<g>
				<path class="st10" d="M117.1,274.2c-18.2,21.3-23.6,52.9-13.3,79c11.4-10.1,19.4-25.6,19.9-39.1
					C124.1,300.5,120.6,287.2,117.1,274.2z"/>
			</g>
			<g>
				<path class="st10" d="M113.9,355.7c-6.2,9.5-9.1,21-8.3,32.3c9.9-3.4,18.5-14.6,23.8-23.6s8.1-19.2,10.8-29.3
					C129.5,338.8,120.1,346.2,113.9,355.7z"/>
			</g>
			<g>
				<g>
					<path class="st11" d="M111.6,311.4c-7.3,26.3-11.1,53.6-11,81c0,7.8,0.3,15.5,0.9,23.3c0,0.5,0.8,0.5,0.8,0
						c-2.1-27.3-0.6-54.8,4.7-81.6c1.5-7.5,3.3-15,5.3-22.5C112.5,311.1,111.8,310.9,111.6,311.4L111.6,311.4z"/>
				</g>
			</g>
			<g>
				<g>
					<path class="st11" d="M101.7,396.9c7.5-17.8,17.3-34.5,28.7-50.1c0.3-0.4-0.4-0.8-0.6-0.4c-8.9,12.2-16.9,25.1-23.5,38.7
						c-1.9,3.8-3.6,7.7-5.2,11.6C100.8,397.1,101.5,397.3,101.7,396.9L101.7,396.9z"/>
				</g>
			</g>
			<g>
				<path class="st10" d="M91.1,370.4c5.2,7.9,7.6,17.5,6.9,26.9c-8.2-2.9-15.5-12.1-19.8-19.7c-4.3-7.5-6.8-16-9-24.4
					C78.1,356.4,85.9,362.5,91.1,370.4z"/>
			</g>
			<g>
				<g>
					<path class="st11" d="M101.5,403.6c-6.1-14.6-14.3-28.1-23.6-40.9c-0.3-0.4-0.9,0-0.6,0.4c9.3,12.7,17.4,26.2,23.5,40.8
						C101,404.3,101.7,404.1,101.5,403.6L101.5,403.6z"/>
				</g>
			</g>
			<g>
				<g>
					<path class="st11" d="M101.8,408.5c11.6-11.9,23.4-23.6,35-35.6c0.3-0.3-0.2-0.9-0.5-0.5c-11.6,11.9-23.4,23.6-35,35.6
						C100.9,408.3,101.4,408.8,101.8,408.5L101.8,408.5z"/>
				</g>
			</g>
			<g>
				<path class="st10" d="M137.3,367.4c-10.1,9.7-19.2,20.3-27.4,31.7h1.8c7.7-0.4,15.1-4.1,19.9-10.1
					C136.5,383.1,138.6,375,137.3,367.4z"/>
			</g>
			<g>
				<g>
					<g>
						<path class="st11" d="M89.6,344.3c4.3,7.1,8.4,14.3,12.2,21.6c0.2,0.4,0.9,0,0.6-0.4c-3.8-7.4-7.9-14.6-12.2-21.6
							C90,343.5,89.4,343.9,89.6,344.3L89.6,344.3z"/>
					</g>
				</g>
				<g>
					<path class="st10" d="M79.2,308.6c-1.6,7.4-3.3,17.1-3.3,24.8c0,7.7,2.3,15.3,6.7,20.4s13.2,7.4,16.8,4.5L79.2,308.6z"/>
				</g>
			</g>
		</g>
		<rect x="79" y="411.9" class="st11" width="44" height="8.1"/>
		<polygon class="st11" points="115.8,449.1 88.5,449.1 83.6,418.2 119.7,418.2 		"/>
		<polygon class="st12" points="83.9,420.2 119.5,420.2 119,423.7 84.4,423.7 		"/>
	</g>
</g>
<g id="Speech_Bubble_2">
	<g>
		<g>
			<g>
				<path class="st10" d="M635.2,235.8c11.1-6.4,25.3-2.5,31.6,8.6c6.4,11.1,2.5,25.3-8.6,31.6c-8.6,4.9-19,3.7-26.2-2.2l-6.9,1.1
					l1.6-7.2c-0.1-0.1-0.1-0.2-0.2-0.3C620.2,256.3,624.1,242.2,635.2,235.8z"/>
			</g>
			<path class="st13" d="M639.3,230.7c-7.4,1.4-13.9,6.8-16.7,13.8"/>
			<path class="st13" d="M621.4,247.8c-0.5,1-0.8,2.2-0.8,3.3"/>
		</g>
		<g>
			<polygon class="st2" points="644,264.7 634.2,255.8 637.3,252.4 643.9,258.3 654.7,247.7 658,251 			"/>
		</g>
	</g>
</g>
<g id="Speech_Bubble_1">
	<g>
		<g>
			<g>
				<g>
					<path class="st10" d="M396.6,87.9c11.7-6.8,26.6-2.8,33.4,8.9c6.8,11.7,2.8,26.6-8.9,33.4c-9,5.2-20,4-27.6-2.1l-7.2,1.2
						l1.7-7.6c-0.1-0.1-0.2-0.2-0.2-0.3C380.9,109.6,384.9,94.7,396.6,87.9z"/>
				</g>
				<path class="st13" d="M430,91.1c-4.7-6.4-12.9-10.1-20.8-9.5"/>
				<path class="st13" d="M405.6,82c-1.2,0-2.4,0.2-3.5,0.7"/>
			</g>
		</g>
		<g>
			<rect x="396.6" y="105.5" class="st2" width="22.8" height="5.7"/>
			<polygon class="st2" points="417.3,114.3 417.3,102.8 423,108.6 			"/>
		</g>
	</g>
</g>
<g id="Character_3">
	<g>
		<g>
			<path class="st14" d="M546.1,233c0,0-0.6,10.5-5.7,28.8c-3.2,11.3-7.1,22.5-11.7,33.3c-2.6,6.1-5.5,12.7-8.8,19.5
				c-1.5,3.1-3.1,6.3-4.8,9.5c-2,55.5-33.1,112-33.1,112c-1.7,0.9-7.8-0.1-7.7-1.8c4.6-7.3,13.7-78.5,19.6-112.3
				c0.4-4.6,0.9-9.4,1.5-14.6c1.7-13.6,4.3-28.5,6.7-41.5c3.9-20.5,7.6-36.6,7.6-36.6l10.3,1L546.1,233z"/>
			<path class="st11" d="M481.6,448.3h-1.8l-0.5-2.2l-5.9,2.7h-15c0,0-2.4-2.4,4.8-4.3c0.3-0.1,0.7-0.2,1-0.4
				c3.8-1.8,9.2-7.8,9.2-7.8h8.2c0.3,0.4,0.5,0.8,0.7,1.2C483.2,439.2,484.7,443.1,481.6,448.3z"/>
			<path class="st14" d="M482.3,437.4L482.3,437.4c-1.1-1.2-6,4.1-9.7,5.9c-3.2,1.6-6.9,2.3-8.5,0.7c3.8-1.8,10.6-10.2,10.6-10.2
				l5.8,0.6C480.5,434.4,481.9,436.6,482.3,437.4z"/>
		</g>
		<g>
			<path class="st14" d="M558.3,309.9L558.3,309.9c-0.8,6-1.9,12.4-3.2,19.2c11.1,37.2-11.8,109.7-11.8,109.7c-3.9,0.8-7.3,0.3-9-1
				c4.3-21.9,1.2-78.7-2.1-112.6c-0.3-3.1-0.7-6.5-1.1-10.1c-0.7-6.1-1.5-12.9-2.4-19.9c-1.5-11.7-3.1-24-4.6-34.8
				c-1.8-13.2-3.4-24.3-4.3-29.9c-0.3-2.5-0.5-3.8-0.5-3.8l32.1,3.5c0,0,8.2,9.2,9.4,37.8C561.3,282,560.4,296,558.3,309.9z"/>
			<path class="st11" d="M544.2,448.3h-1.8l-0.5-2.2l-5.9,2.7h-15c0,0-2.4-2.4,4.8-4.3c0.3-0.1,0.7-0.2,1-0.4
				c3.8-1.8,9.2-7.8,9.2-7.8h8.2c0.2,0.4,0.5,0.8,0.7,1.2C545.8,439.2,547.3,443.1,544.2,448.3z"/>
			<path class="st14" d="M544.9,437.4L544.9,437.4c-1.1-1.2-6,4.1-9.7,5.9c-3.2,1.6-6.9,2.3-8.5,0.7c3.8-1.8,9.8-9.6,9.8-9.6h6.6
				C543.1,434.4,544.5,436.6,544.9,437.4z"/>
		</g>
		<g>
			<g>
				<path class="st11" d="M566.8,152.3c-1.7-1.4-4.3-0.9-6.6-1.1c-3.4-0.4-6.2-2.9-7.7-5.7c-1.5-2.8-1.9-6-2.4-9.1
					c-0.5-3.1-1.2-6.2-3.1-8.9c-1.9-2.6-6.4-5.9-9.8-3.9l-4.4,6.9c2.7,8.1,4.8,16.2,6.5,24.5c0.7,3.7,1.5,7.6,4.2,10.5
					c2.6,2.8,6.8,4.2,10.9,4.5c2.1,0.1,4.2,0,6.1-0.8c1.9-0.8,3.5-2.2,3.9-4.1c0.4-1.8-0.6-3.9-2.5-4.6c1.9-0.8,3.8-1.6,5-3.1
					C568,155.9,568.3,153.6,566.8,152.3z"/>
			</g>
			<g>
				<path class="st11" d="M503.3,118.1c-5.1,4.9-5.7,10.7-4.9,14.7c1.7,5.3,4.3,8.8,6.7,13.8l8.6-34.3
					C510.4,113.6,508.8,113.2,503.3,118.1z"/>
				<path class="st11" d="M518.5,112.1c9.9,0.2,19.8,8.5,20.6,16.5c0.8,8-7.1,18.4-8.6,19l-4.7,1.7c0,0,5.2-12,3-15.1
					c-2.1-3.2-3.7-3.2-3.7-3.2L518.5,112.1z"/>
				<path class="st11" d="M510.1,114c5.1-3.6,11.2-1.6,14.8,0c4.1,2.3,6.9,6.3,7.9,10.9c0.8,4.3,1.7,9.5-0.5,12.3
					c-1.2,1.6-3.1,2.6-5,2.7l-24.9-15.8C504.1,120.2,506.8,116.7,510.1,114z"/>
				<g>
					<path class="st14" d="M520.2,172.5c1.9,1.4,3.3,0.6,5.4-0.7c12.2-7.1,7.2-12.6,7.2-12.6c-3-2.4-3.7-5.9-3.8-11.4
						c0-0.2,0-0.3-0.1-0.5c-0.1-0.7-0.5-1.3-1-1.8c-1.4-1.4-3.6-1.4-5,0c0,0,0,0,0,0l-5.5,2.7l0,0c0,0.1,0,0.2,0,0.3
						c0.5,2.9,1,5.1,1.3,6.9c0,0.2,0.1,0.4,0.1,0.6l0,0c0,0.2,0.1,0.4,0.1,0.7c0.3,2.4-3.1,6.7-4.7,7.9
						C513.2,165.2,513.6,167.8,520.2,172.5z"/>
					<path class="st12" d="M517.3,148L517.3,148c0,0.1,0,0.2,0,0.3c0.5,2.9,1,5.1,1.3,6.9c0,0.2,0.1,0.4,0.1,0.6l0,0
						c0,0.2,0,0.5,0,0.7l0,0c4.2-2,7.7-5.3,10-9.3l0,0c-0.1-0.7-0.5-1.3-1-1.8c-1.4-1.4-3.6-1.4-5-0.1L517.3,148z"/>
					<path class="st14" d="M529.7,126.8c1.6,10,2.5,14.2-1.3,20.5c-5.7,9.4-18,9.4-22.5,0.2c-4-8.4-6-23.3,2.6-29.6
						C517.1,111.5,528.1,116.7,529.7,126.8z"/>
					<path class="st14" d="M535.7,134.5c-0.6,2.3-2.2,4.1-3.8,5c-2.4,1.4-4.9-2.5-4.7-5.3c0.2-2.6,2.3-4.8,5-5
						C534.8,129,536.4,131.8,535.7,134.5z"/>
					<path class="st15" d="M530,135.5c-0.2-1,0-2,0.5-2.8c0.5-0.8,1.4-1.4,2.4-1.6"/>
					<g>
						<g>
							<path class="st11" d="M517.5,133.4c0.2,1.1-0.1,2.1-0.7,2.3c-0.6,0.2-1.4-0.5-1.6-1.6s0.1-2.1,0.7-2.3
								C516.5,131.7,517.3,132.4,517.5,133.4z"/>
							<path class="st11" d="M507.8,136c0.2,1-0.1,2-0.8,2.2c-0.6,0.2-1.3-0.5-1.6-1.5s0.1-2,0.8-2.2
								C506.8,134.3,507.5,135,507.8,136z"/>
							<path class="st11" d="M518.6,129.2c-0.1,0-0.3,0-0.4,0c-1.9-1-3.5,0-3.5,0c-0.2,0.1-0.5,0.1-0.7-0.2c-0.1-0.2,0-0.6,0.2-0.7
								c0.1-0.1,2.1-1.3,4.4,0c0.2,0.1,0.3,0.4,0.2,0.7C518.8,129.1,518.7,129.2,518.6,129.2z"/>
							<path class="st11" d="M503.1,132c-0.1,0-0.2-0.1-0.3-0.2c-0.1-0.2-0.1-0.5,0.1-0.7c1.9-1.9,3.8-1.4,3.9-1.3
								c0.2,0.1,0.4,0.3,0.3,0.6c-0.1,0.3-0.3,0.4-0.6,0.4c-0.1,0-1.6-0.4-3.1,1.1C503.4,131.9,503.3,132,503.1,132z"/>
							<path class="st16" d="M510.3,134.8c0,0-0.5,4.1-1.7,6.9c-0.2,0.5,0.2,1,0.7,1.1c1.3,0.1,2.7-0.7,2.7-0.7L510.3,134.8z"/>
						</g>
						<path class="st11" d="M516.3,131.8l-2.4,0.1C513.9,131.9,515.6,133.2,516.3,131.8z"/>
						<path class="st11" d="M506.4,134.5l-2.4,0.1C504,134.6,505.7,135.9,506.4,134.5z"/>
					</g>
				</g>
				<path class="st11" d="M526.7,129.8c0,0-6.9-5.5-8.1-11c0,0-21.2-0.8-16.1,16.4c0,0-7.2-14.4,9-19.9
					c16.2-5.5,23.6,15.6,17.4,24.6C528.9,139.8,531,133.3,526.7,129.8z"/>
				<path class="st11" d="M504.3,118.9c-1.8,2.5-2.8,5.5-2.8,8.6c0.4,2.2,3.6,3.2,3.6,3.2l2.7-5.4l0.8,4.2c5.8-1.7,8.6-5.5,9.8-10.4
					l-4.4-5.3C514.2,113.8,506,116.8,504.3,118.9z"/>
			</g>
			<path class="st17" d="M516.1,143.9c0.7,0.1,1.4-0.1,1.9-0.6c0.5-0.5,0.7-1.2,0.6-1.8"/>
			<path class="st12" d="M535.8,140.7c0,0,7.5-9.3,1.6-17.2c0,0,4.3,3,3.5,8.1C540.3,135.6,538.6,138.9,535.8,140.7z"/>
		</g>
		<path class="st12" d="M558.3,309.9L558.3,309.9c-8.8,3-18,4.7-27.2,5.1c-0.7-6.1-1.5-12.9-2.4-19.9c-2.6,6.1-5.5,12.7-8.8,19.5
			c-8.6-0.8-16.9-3.2-24.6-7.1c1.7-13.6,4.3-28.5,6.7-41.5c3.4-2,7.1-3.5,10.9-4.4c3.7-0.9,7.4-1.3,11.1-1.4
			c5.5,0,10.9,0.5,16.3,1.5c7,1.3,13.8,3.3,20.4,6C561.2,282,560.4,296,558.3,309.9z"/>
		<path class="st11" d="M509,226.6h42.7l1.2,5.5c0,0,15.7,21.7,7.7,75.8c0,0-34.3,4-66.7-3c0,0,7.3-55.6,14.8-73.8L509,226.6z"/>
		<g>
			<path class="st10" d="M549.5,209.9l3,22.7l-46.8-1.9c-0.1-4.9,4.2-17.8,3.7-21.4c-1.4-4.4-8.6-11-10.5-16.3
				c-2-7.3,2.2-27.5,3.5-28.1c1.7-0.8,3.7-0.7,5-1.3c5-1.2,16.3-5.2,21.3-5.8c1-0.1,2-0.3,2.9-0.4c0,0,19.1-0.9,20,6.9
				C551.8,164.7,547.2,185.2,549.5,209.9z"/>
			<polygon class="st12" points="549.1,205 548.7,198.8 541.6,179.5 547.2,202.2 529.6,208.4 			"/>
			<path class="st12" d="M528.7,225.3c0.6-0.1,6.2-6.1,6.2-6.1l15.9,0.6L550,214c0.5-0.4-18.6,0.5-18.6,0.5l-2.7,5.9L528.7,225.3
				L528.7,225.3z"/>
			<path class="st10" d="M544.5,159.2c0.8,0.1,4.1-1.8,10.2,5.9c6,7.7,12.7,37.1,13.1,41.4c0.5,5.5-3.2,8.1-6.8,8.7
				c-10.9,1.8-30.9,2.2-30.9,2.2v-9.2l20-4.5c0,0-11.4-27.3-9.6-34.4C542.3,162.3,544.5,159.2,544.5,159.2z"/>
		</g>
		<path class="st14" d="M535.5,157.4c-1.4,7.9-7.3,14-15.1,16c-2.7,0.7-5.7-0.8-7.9-2.6c-2.2-1.8-3.6-4.4-4.1-7.1
			C517.9,159.9,526.4,156.8,535.5,157.4z"/>
		<path class="st12" d="M550.1,203.7c0,0,3.3-0.2,4.6,1.6c0,0-0.8-3.4-5.1-2.7L550.1,203.7z"/>
	</g>
	<g>
		<g>
			<path class="st10" d="M523.6,263V160H420.7v41.2c1.9,0.7,8,1.2,9.8,0.5c3.2-1.2,1.1-5,4.3-6.4c4.6-2.2,10.4,0.9,12.8,5.4
				c1.9,3.5,2.2,5.3,2.1,8.3c0.2,3-0.2,4.8-2.1,8.3c-2.4,4.5-8.2,7.6-12.8,5.4c-3.1-1.5-0.6-5.1-3.8-6.3c-1.9-0.7-8.4-0.3-10.2,0.4
				V263h46c0.1,1-0.1,2-0.4,3c-1.2,3.2-4.7,5.2-6.1,8.3c-2.2,4.6,0.9,10.4,5.4,12.8c3.5,1.9,5.3,2.2,8.3,2.1c3,0.2,4.8-0.2,8.3-2.1
				c4.5-2.4,7.6-8.2,5.4-12.8c-1.5-3.1-4.9-5.1-6.1-8.3c-0.4-1-0.5-2-0.4-3L523.6,263L523.6,263z"/>
		</g>
		<g>
			<g>
				<path class="st10" d="M528.7,263V160H425.8v41.2c1.9,0.7,3.9,0.9,5.8,0.2c3.2-1.2,5.2-4.7,8.3-6.1c4.6-2.2,10.4,0.9,12.8,5.4
					c1.9,3.5,2.2,5.3,2.1,8.3c0.2,3-0.2,4.8-2.1,8.3c-2.4,4.5-8.2,7.6-12.8,5.4c-3.1-1.5-5.1-4.9-8.3-6.1c-1.9-0.7-3.9-0.5-5.8,0.2
					V263h46c0.1,1-0.1,2-0.4,3c-1.2,3.2-4.7,5.2-6.1,8.3c-2.2,4.6,0.9,10.4,5.4,12.8c3.5,1.9,5.3,2.2,8.3,2.1c3,0.2,4.8-0.2,8.3-2.1
					c4.5-2.4,7.6-8.2,5.4-12.8c-1.5-3.1-4.9-5.1-6.1-8.3c-0.4-1-0.5-2-0.4-3L528.7,263L528.7,263z"/>
			</g>
			<g class="st18">
				<path class="st2" d="M528.7,263V160H425.8v41.2c1.9,0.7,3.9,0.9,5.8,0.2c3.2-1.2,5.2-4.7,8.3-6.1c4.6-2.2,10.4,0.9,12.8,5.4
					c1.9,3.5,2.2,5.3,2.1,8.3c0.2,3-0.2,4.8-2.1,8.3c-2.4,4.5-8.2,7.6-12.8,5.4c-3.1-1.5-5.1-4.9-8.3-6.1c-1.9-0.7-3.9-0.5-5.8,0.2
					V263h46c0.1,1-0.1,2-0.4,3c-1.2,3.2-4.7,5.2-6.1,8.3c-2.2,4.6,0.9,10.4,5.4,12.8c3.5,1.9,5.3,2.2,8.3,2.1c3,0.2,4.8-0.2,8.3-2.1
					c4.5-2.4,7.6-8.2,5.4-12.8c-1.5-3.1-4.9-5.1-6.1-8.3c-0.4-1-0.5-2-0.4-3L528.7,263L528.7,263z"/>
			</g>
			<g>
				<g>
					<g>
						<path class="st14" d="M528.7,210.1c0,0-6.9,1.7-7.7,3.4c-0.8,1.6,1.8,1.5,1.8,1.5s-2.8,0.3-2.8,1.5c0,1.4,2.6,1.3,2.6,1.3
							s-2.3,0.3-2.2,1.4c0,1.1,3.1,1.2,3.1,1.2s-1.6,0.5-1.1,1.3c0.5,0.7,6.9,1,8.8-0.2c1.9-1.2,1.9-9.5,1.5-11.3
							c-0.4-1.8-1.7-2.8-4-5.5L528.7,210.1L528.7,210.1z"/>
					</g>
					<g>
						<path class="st12" d="M522.9,215.1C522.9,215.1,522.9,215.1,522.9,215.1l4.9-0.8c0.1,0,0.1-0.1,0.1-0.2s-0.1-0.1-0.1-0.1
							l-4.9,0.8c-0.1,0-0.1,0.1-0.1,0.2C522.8,215,522.8,215.1,522.9,215.1z"/>
					</g>
					<g>
						<path class="st12" d="M522.8,217.9C522.8,217.9,522.8,217.9,522.8,217.9l4.7-0.4c0.1,0,0.1-0.1,0.1-0.1c0-0.1-0.1-0.1-0.1-0.1
							l-4.7,0.4c-0.1,0-0.1,0.1-0.1,0.1C522.7,217.8,522.8,217.9,522.8,217.9z"/>
					</g>
					<g>
						<path class="st12" d="M523.7,220.5l3.5-0.2c0.1,0,0.1-0.1,0.1-0.1c0-0.1-0.1-0.1-0.1-0.1l-3.5,0.2c-0.1,0-0.1,0.1-0.1,0.1
							C523.6,220.4,523.6,220.5,523.7,220.5z"/>
					</g>
				</g>
			</g>
		</g>
		<g>
			<g>
				<g>
					<path class="st14" d="M449.8,207.3c0,0,7.4,2.1,8.2,3.7c0.8,1.6-1.8,1.5-1.8,1.5s2.8,0.3,2.8,1.5c0,1.4-2.6,1.3-2.6,1.3
						s2.3,0.3,2.2,1.4c0,1.1-3.1,1.2-3.1,1.2s1.6,0.5,1.1,1.3c-0.5,0.7-6.9,1-8.8-0.2c-1.9-1.2-1.9-9.5-1.5-11.3
						c0.4-1.8,0.5-1.5,2.8-4.2l0.4,1.5c0.1,0.4,0.2,0.8,0.2,1.3L449.8,207.3z"/>
				</g>
				<g>
					<path class="st12" d="M456.1,212.7C456.1,212.7,456.1,212.7,456.1,212.7l-4.9-0.8c-0.1,0-0.1-0.1-0.1-0.2
						c0-0.1,0.1-0.1,0.1-0.1l4.9,0.8c0.1,0,0.1,0.1,0.1,0.2C456.2,212.6,456.2,212.7,456.1,212.7z"/>
				</g>
				<g>
					<path class="st12" d="M456.2,215.5C456.2,215.5,456.2,215.5,456.2,215.5l-4.7-0.4c-0.1,0-0.1-0.1-0.1-0.1
						c0-0.1,0.1-0.1,0.1-0.1l4.7,0.4c0.1,0,0.1,0.1,0.1,0.1C456.3,215.4,456.2,215.5,456.2,215.5z"/>
				</g>
				<g>
					<path class="st12" d="M455.3,218.1l-3.5-0.2c-0.1,0-0.1-0.1-0.1-0.1c0-0.1,0.1-0.1,0.1-0.1l3.5,0.2c0.1,0,0.1,0.1,0.1,0.1
						C455.4,218,455.4,218.1,455.3,218.1z"/>
				</g>
			</g>
		</g>
	</g>
</g>
<g id="Character_2">
	<g>
		<g>
			<polygon class="st14" points="298.2,436.8 308.4,437.8 315.9,411.9 300.4,410.2 			"/>
			<g>
				<path class="st11" d="M309.9,433.2h-3.6c-0.8,0-1.6,0.4-2.1,1.1c-2.1,2.9-3.7,1.8-6-0.9c-1.5-0.2-1.8,1.5-2,1.9l-2.7,9.9
					c-0.2,0.8,0.2,1.7,1.1,1.9c0.1,0,0.3,0.1,0.5,0.1c4.4,0,6.5,0,12,0h16.9c4.6,0,5.5-4.6,3.7-5.1c-8.5-1.9-14.5-4.4-17.2-6.9
					C309.9,434.9,310.4,434.6,309.9,433.2z"/>
				<path class="st8" d="M317.8,436.1c0.4-0.3,0.6-0.7,0.6-1.2c0-0.3-0.1-0.5-0.3-0.6c-1.1-0.8-5.7,1.3-6.2,1.6
					c-0.1,0-0.1,0.1-0.1,0.1c0,0.1,0,0.2,0.1,0.3c1.1,0.3,2.3,0.4,3.4,0.4C316.2,436.7,317,436.5,317.8,436.1z M317.8,434.6
					c0.1,0.1,0.1,0.2,0.1,0.3c0,0.3-0.2,0.7-0.5,0.9c-1,0.8-3.5,0.4-4.9,0.2C314.5,435.1,317.2,434.1,317.8,434.6z"/>
				<path class="st8" d="M312,436.2c1.4-0.6,4.2-2.8,4.1-4c0-0.3-0.2-0.5-0.8-0.6c-2.5-0.3-3.6,4.2-3.6,4.4c0,0.1,0,0.2,0.1,0.2
					c0,0,0.1,0,0.1,0L312,436.2z M315.2,432c0.5,0,0.5,0.2,0.5,0.3c0.1,0.7-2,2.6-3.4,3.4c0.3-1,1.2-3.7,2.8-3.7L315.2,432z"/>
				<path class="st19" d="M312.4,436.1c-1.3,0.2-2.4,0.9-3.1,2"/>
				<path class="st19" d="M314.7,437.8c-1.3,0.2-2.4,0.9-3.1,2"/>
				<path class="st19" d="M317.5,439.2c-1.3,0.2-2.4,0.9-3.1,2"/>
			</g>
			<polygon class="st20" points="312,425.6 311,428.7 299,426.9 299.2,424.3 			"/>
		</g>
		<g>
			<polygon class="st14" points="357.6,436.8 367.8,437.8 375.4,411.9 359.8,410.2 			"/>
			<g>
				<path class="st11" d="M369.3,433.2h-3.6c-0.8,0-1.6,0.4-2.1,1.1c-2.1,2.9-3.7,1.8-6-0.9c-1.5-0.2-1.8,1.5-2,1.9l-2.7,9.9
					c-0.2,0.8,0.2,1.7,1.1,1.9c0.1,0,0.3,0.1,0.5,0.1c4.4,0,6.5,0,12,0h16.9c4.6,0,5.5-4.6,3.7-5.1c-8.5-1.9-14.5-4.4-17.2-6.9
					C369.3,434.9,369.8,434.6,369.3,433.2z"/>
				<path class="st8" d="M377.2,436.1c0.4-0.3,0.6-0.7,0.6-1.2c0-0.3-0.1-0.5-0.3-0.6c-1.1-0.8-5.7,1.3-6.2,1.6
					c-0.1,0-0.1,0.1-0.1,0.1c0,0.1,0,0.2,0.1,0.3c1.1,0.3,2.3,0.4,3.4,0.4C375.6,436.7,376.5,436.5,377.2,436.1z M377.3,434.6
					c0.1,0.1,0.1,0.2,0.1,0.3c0,0.3-0.2,0.7-0.5,0.9c-1,0.8-3.5,0.4-4.9,0.2C373.9,435.1,376.6,434.1,377.3,434.6z"/>
				<path class="st8" d="M371.5,436.2c1.4-0.6,4.2-2.8,4.1-4c0-0.3-0.2-0.5-0.8-0.6c-2.5-0.3-3.6,4.2-3.6,4.4c0,0.1,0,0.2,0.1,0.2
					c0,0,0.1,0,0.1,0L371.5,436.2z M374.7,432c0.5,0,0.5,0.2,0.5,0.3c0.1,0.7-2,2.6-3.4,3.4c0.3-1,1.2-3.7,2.8-3.7L374.7,432z"/>
				<path class="st19" d="M371.8,436.1c-1.3,0.2-2.4,0.9-3.1,2"/>
				<path class="st19" d="M374.1,437.8c-1.3,0.2-2.4,0.9-3.1,2"/>
				<path class="st19" d="M376.9,439.2c-1.3,0.2-2.4,0.9-3.1,2"/>
			</g>
			<polygon class="st20" points="371.4,425.6 370.5,428.7 358.5,426.9 358.7,424.3 			"/>
		</g>
		<g>
			<g>
				<g>
					<g>
						<g>
							<path class="st10" d="M379.5,241.9c0,0,8.5,37.4,12.5,69.9c1.2,9.9,1.5,23.2-0.7,33l-16.3,81.1l-20.5-2.1
								c3.2-35,7.7-78.1,9-96.5c-4.5-21.5-14.1-47.5-23.6-73.4L379.5,241.9z"/>
						</g>
					</g>
				</g>
				<g class="st12">
					<g>
						<g>
							<path d="M379.5,241.9c0,0,8.5,37.4,12.5,69.9c1.2,9.9,1.5,23.2-0.7,33l-16.3,81.1l-20.5-2.1c3.2-35,7.7-78.1,9-96.5
								c-4.5-21.5-14.1-47.5-23.6-73.4L379.5,241.9z"/>
						</g>
					</g>
				</g>
				<path class="st10" d="M312,333.9c0.5-2,1.2-6.1,2.1-11.6c0,0-0.1,0-0.1,0c0.7-7.2,1.9-40.4,4.2-61.6c1.7-13.5,5.2-22.6,8.7-27.1
					c0.2-0.2,0.3-0.4,0.5-0.6c0.6-0.7,0.9-1.1,0.9-1.1c0.7,0.2,1.3,0.3,2,0.5c0.2,0.1,0.5,0.1,0.7,0.2c24.5,5.1,46.1-1.3,46.1-1.3
					c2.3,5.6,3.9,17.5,5.6,29.8c-2.6,2.8-13.8,6.5-26.8,8.9l-3.7,16.7c-1.9,10.3-4.4,20.5-6.5,29.6l-2.2,10
					c-0.1,0.7-0.3,1.3-0.4,1.9c-1.1,5.7-27.8,98.3-27.8,98.3l-17.4-1C297.9,425.4,305.7,361.3,312,333.9z"/>
				<path class="st12" d="M312,333.9c0.5-2,1.2-6.1,2.1-11.6c0,0-0.1,0-0.1,0c0.7-7.2,1.9-40.4,4.2-61.6c1.7-13.5,5.2-22.6,8.7-27.1
					c0.2-0.2,0.3-0.4,0.5-0.6c0.6-0.7,0.9-1.1,0.9-1.1c0.7,0.2,1.3,0.3,2,0.5c0.2,0.1,0.5,0.1,0.7,0.2c24.5,5.1,46.1-1.3,46.1-1.3
					c2.3,5.6,3.9,17.5,5.6,29.8c-2.6,2.8-13.8,6.5-26.8,8.9l-3.7,16.7c-1.9,10.3-4.4,20.5-6.5,29.6l-2.2,10
					c-0.1,0.7-0.3,1.3-0.4,1.9c-1.1,5.7-27.8,98.3-27.8,98.3l-17.4-1C297.9,425.4,305.7,361.3,312,333.9z"/>
			</g>
			<path class="st12" d="M352,288.1c-0.1,0.3,8-28.8,8-28.8s6.8,26.1-3.5,42.4L352,288.1z"/>
		</g>
		<g>
			<path class="st14" d="M334.8,156.4c0,0,4.1,3.1,9.3,7.7c1.1,0.9,2.3,1.8,3.6,2.4c3.4,1.8,6.6,2.9,7.4,1.2
				c0.2-0.4,0.3-0.8,0.4-1.2c0.7-2.8,0.4-6.7-1.8-8.5c-2.5-2-3.8-3.7-3.3-6.5c0.2-1.5,0.8-3.1,1.5-4.7l-2-2.3l-10.4-10.5
				C339.7,141.1,340.3,152.6,334.8,156.4z"/>
			<path class="st12" d="M350.3,152.2c-2.9-1.7-6-4.7-5.6-8c0.2-1.4,0.5-2.8,0.8-3.6l5.8,7.7C350.9,149.5,350.7,150.3,350.3,152.2z"
				/>
			<path class="st14" d="M336.5,122.8c1,10.7,1.2,15.3,6.7,20.9c8.3,8.5,21.1,5.6,23.3-5c2-9.6,0-25.5-10.5-30
				C345.7,104.2,335.5,112.1,336.5,122.8z"/>
			<path class="st11" d="M349.9,126.2c0.1,1,0.7,1.8,1.4,1.8c0.7,0,1.2-0.8,1.2-1.8c-0.1-1-0.7-1.8-1.4-1.8
				C350.3,124.3,349.8,125.1,349.9,126.2z"/>
			<path class="st11" d="M361,126c0.1,1,0.7,1.8,1.4,1.8c0.7,0,1.2-0.8,1.2-1.7c-0.1-1-0.7-1.8-1.4-1.8
				C361.4,124.2,360.9,125,361,126z"/>
			<path class="st11" d="M348.2,122.3c0.1,0,0.3,0,0.4-0.1c1.7-1.5,3.5-1,3.5-1c0.3,0.1,0.6-0.1,0.6-0.4c0.1-0.3-0.1-0.6-0.4-0.7
				c-0.1,0-2.4-0.7-4.5,1.2c-0.2,0.2-0.2,0.5,0,0.7C347.9,122.2,348,122.3,348.2,122.3z"/>
			<path class="st11" d="M364.4,121.8c0.1,0,0.3,0,0.4-0.1c0.2-0.1,0.3-0.5,0.1-0.7c-1.6-2.5-4-2.7-4.1-2.7c-0.3,0-0.5,0.2-0.5,0.5
				c0,0.3,0.2,0.5,0.5,0.6c0.1,0,1.9,0.2,3.2,2.2C364.1,121.7,364.3,121.7,364.4,121.8z"/>
			<path class="st11" d="M341.1,129.5c0,0,3.3-5,1.9-14.7c-0.2-1.6,0.8-3.2,2.4-3.5c4.6-0.9,10.8-6.7,18.3,4.9
				c0,0-3.6-13.9-24.7-8.3c-18.7,5-5.9,20.9-4,22.5C337.1,132,341.1,129.5,341.1,129.5z"/>
			<path class="st14" d="M333.3,131.5c1.3,2.2,3.3,3.6,5.2,4.1c2.8,0.7,4.3-3.9,3.3-6.7c-0.9-2.6-3.7-4.3-6.4-3.7
				C332.7,125.7,331.8,129,333.3,131.5z"/>
			<g>
				<path class="st11" d="M358.3,136.5c-0.9,1.3-1.9,3.9-1.9,3.9c-0.3-0.1-0.5-0.1-0.8-0.2c-3.4-0.8-4.7-2.3-5.2-3.7
					c-0.2-0.8-0.2-1.5-0.1-2.1c0.1-0.7,0.4-1.2,0.4-1.2c1.6,1.5,4.7,2.5,6.4,3C357.8,136.4,358.3,136.5,358.3,136.5z"/>
				<path class="st2" d="M357.1,136.2l-0.6,1.1c-3.2-0.8-5.4-1.7-6.1-2.9c0.1-0.7,0.4-1.2,0.4-1.2
					C352.3,134.7,355.4,135.7,357.1,136.2z"/>
				<path class="st21" d="M355.6,140.2c-3.4-0.8-4.7-2.3-5.2-3.7c1.2,0.3,2.5,0.8,3.6,1.6C354.9,138.8,355.3,139.5,355.6,140.2z"/>
			</g>
			<path class="st16" d="M358.1,125.7c0,0,1.7,4,3.6,6.5c0.3,0.4,0.1,1.1-0.4,1.3c-1.3,0.5-2.9,0-2.9,0L358.1,125.7z"/>
			<path class="st11" d="M350.8,124.3l2.5-0.6C353.3,123.8,351.9,125.6,350.8,124.3z"/>
			<path class="st11" d="M361.9,124.3l2.5-0.6C364.3,123.7,363,125.5,361.9,124.3z"/>
			<g>
				<path class="st11" d="M365.7,120.7c0,0,6.5-7.7,2.2-14c-1.6-2.4-4.6-2.7-7.3-3.9c-6.1-2.7-11-3.2-18.8,4.4
					c-8.1,7.9-9.5,10.6-0.6,20.3c0,0-1-1.3,2.3-4.2c3.3-2.9,6.9-5.5,5.2-8.3c0,0,2.7,1.1,2.9,3.7l4.8-1.3c0,0-0.2-1.9-1.5-3.7
					c0,0,2.5,1.5,3.3,3.6l4.2,0.8c0,0-0.6-3.8-1.8-5.2C360.6,112.8,364.4,116.8,365.7,120.7z"/>
			</g>
		</g>
		<path class="st15" d="M339.6,131.2c-0.1-1-0.6-2-1.3-2.7c-0.7-0.7-1.7-1.1-2.7-1.2"/>
		<g>
			<g>
				<path class="st11" d="M390.6,220.1c-0.6-0.5-1.2-1-1.7-1.5c-0.5-0.5-0.8-1.1-0.7-1.1c0-0.1-0.1-0.1-0.1-0.2l-0.2-0.4l-0.5-1.2
					c-0.3-0.9-0.6-1.8-0.9-2.8c-0.6-1.9-1.2-3.9-1.8-5.8c-1.2-4-2.3-8-3.4-12.1l-2.1-8.5c-0.3-1.4-0.8-3.4-1.4-5.7l0,0l0,0
					c-1.7-6.2-4.5-14.5-8.2-17.8c-5.7-4.4-9.4,1-11.7,6.6c-2.3,5.4,3.3,20.1,3.3,20.1l6.8-0.5c0.9,3.1,1.8,6.3,2.6,9.4
					c1.2,4.2,2.5,8.2,3.9,12.3c0.7,2,1.4,4.1,2.2,6.2c0.5,1,0.9,2.1,1.4,3.2c0.2,0.5,0.5,1.1,0.8,1.7l0.5,1c0.2,0.4,0.5,0.8,0.7,1.1
					c1,1.3,2.2,2.3,3.6,3.1c1.1,0.6,2.2,1.1,3.4,1.4c2.1,0.6,4.3,0.9,6.5,0.8l1.2-5.9C393.5,222.3,391.9,221.2,390.6,220.1z"/>
				<path class="st22" d="M390.6,220.1c-0.6-0.5-1.2-1-1.7-1.5c-0.5-0.5-0.8-1.1-0.7-1.1c0-0.1-0.1-0.1-0.1-0.2l-0.2-0.4l-0.5-1.2
					c-0.3-0.9-0.6-1.8-0.9-2.8c-0.6-1.9-1.2-3.9-1.8-5.8c-1.2-4-2.3-8-3.4-12.1l-2.1-8.5c-0.3-1.4-0.8-3.4-1.4-5.7l0,0l0,0
					c-1.7-6.2-4.5-14.5-8.2-17.8c-5.7-4.4-9.4,1-11.7,6.6c-2.3,5.4,3.3,20.1,3.3,20.1l6.8-0.5c0.9,3.1,1.8,6.3,2.6,9.4
					c1.2,4.2,2.5,8.2,3.9,12.3c0.7,2,1.4,4.1,2.2,6.2c0.5,1,0.9,2.1,1.4,3.2c0.2,0.5,0.5,1.1,0.8,1.7l0.5,1c0.2,0.4,0.5,0.8,0.7,1.1
					c1,1.3,2.2,2.3,3.6,3.1c1.1,0.6,2.2,1.1,3.4,1.4c2.1,0.6,4.3,0.9,6.5,0.8l1.2-5.9C393.5,222.3,391.9,221.2,390.6,220.1z"/>
				<g class="st18">
					<path d="M370.9,172.6c1.1,2,1.5,3.1,2.3,5.3s1.5,14.5-2.6,18.1v-8.5C370.7,182.3,370.8,177.8,370.9,172.6z"/>
				</g>
				<path class="st11" d="M320.2,188l-6.4-21.8c4-6,24-10.7,24-10.7l10.2,3.6l2.9-2.9c0,0,5.1,1.1,9.4,2.5c5.8,1.9,8.9,3.4,10.3,6.6
					c0,0,2.4,7.1,1,21.8c-0.4,4,0.1,25,1.2,31.9l6.8,21.6c-24.1,18.7-57.7,1.2-57.7,1.2c1.1-3.3,4.7-13.5,5.2-16.7
					c-0.4-4.1,0.1-10.5-1.6-17.7C325.1,206.1,320.8,189.4,320.2,188z"/>
				<path class="st22" d="M320.2,188l-6.4-21.8c4-6,24-10.7,24-10.7l10.2,3.6l2.9-2.9c0,0,5.1,1.1,9.4,2.5c5.8,1.9,8.9,3.4,10.3,6.6
					c0,0,2.4,7.1,1,21.8c-0.4,4,0.1,25,1.2,31.9l6.8,21.6c-24.1,18.7-57.7,1.2-57.7,1.2c1.1-3.3,4.7-13.5,5.2-16.7
					c-0.4-4.1,0.1-10.5-1.6-17.7C325.1,206.1,320.8,189.4,320.2,188z"/>
			</g>
			<path class="st10" d="M393.3,211.5c0.7-9.1,7.7-16.4,16.8-17.5l-1.8,3.1l3.5-2.1l-16.2,20.3L393.3,211.5z"/>
			<path class="st23" d="M393.3,211.5c0.7-9.1,7.7-16.4,16.8-17.5l-1.8,3.1l3.5-2.1l-16.2,20.3L393.3,211.5z"/>
			<path class="st10" d="M368,194.8l5.6-0.2l26.6,9l-24.2,37l-23.8-6c-1.4-0.4-2.2-1.8-1.8-3.1c0.1-0.2,0.1-0.4,0.2-0.6l9.6-17.4
				c0.2-0.3,0.2-0.8,0-1.1l-1.3-2.3c-0.3-0.5-0.3-1.1,0-1.5l6.5-12.1C365.8,195.5,366.9,194.9,368,194.8z"/>
			<polygon class="st10" points="400.1,203.7 415.3,194 390.4,230.9 375.9,240.7 			"/>
			<polygon class="st12" points="400.1,203.7 415.3,194 390.4,230.9 375.9,240.7 			"/>
			<g>
				<g>
					<path class="st14" d="M397.1,220.9c0,0-5.9-1.5-7.2-0.5s0.5,2,0.5,2s-2-0.9-2.6,0.1c-0.7,1.2,1.1,2.2,1.1,2.2s-1.7-0.7-2.2,0.2
						c-0.5,0.9,1.5,2.2,1.5,2.2s-1.3-0.2-1.4,0.6c0,0.8,4.1,3.6,6,3.5c1.9-0.2,5.9-6.9,6.5-8.5c0.6-1.6,0.6-2.9-0.6-4L397.1,220.9
						L397.1,220.9z"/>
				</g>
				<g>
					<path class="st12" d="M390.4,222.4C390.4,222.4,390.4,222.4,390.4,222.4l3.6,1.4c0,0,0.1,0,0.1-0.1c0-0.1,0-0.1,0-0.2l-3.6-1.4
						c0,0-0.1,0-0.1,0.1C390.3,222.3,390.3,222.4,390.4,222.4z"/>
				</g>
				<g>
					<path class="st12" d="M389,224.7C389,224.7,389,224.7,389,224.7l3.3,1.7c0,0,0.1,0,0.1-0.1c0-0.1,0-0.1,0-0.2l-3.3-1.7
						c0,0-0.1,0-0.1,0.1C388.9,224.6,388.9,224.7,389,224.7z"/>
				</g>
				<g>
					<path class="st12" d="M388.3,227.2l2.4,1.3c0,0,0.1,0,0.1-0.1c0-0.1,0-0.1,0-0.2l-2.4-1.3c0,0-0.1,0-0.1,0.1
						C388.3,227.1,388.3,227.1,388.3,227.2z"/>
				</g>
			</g>
			<polygon class="st11" points="354.8,157.2 350.3,152.9 348.1,159.2 338.2,151.3 333.2,156.8 345.6,165.4 348.1,160 354.8,165 			
				"/>
			<path class="st20" d="M354.8,157.2c0.3,0.5,0,7.8,0,7.8l-6.7-5l-2.5,5.5l-11.9-8.2l12.2,10.6l2.2-6.4l7.5,6.4L354.8,157.2z"/>
			<path class="st20" d="M361.1,190.9L327,223.8v-6.5c0,0,30.7-28.1,31.1-28.2C358.5,189.1,361.1,190.9,361.1,190.9z"/>
			<polygon class="st20" points="329.1,193.5 325.4,178.3 324.6,196 			"/>
		</g>
		<path class="st10" d="M335.2,135.3c0,1.1,0.9,2.1,2,2.1s2-0.9,2-2.1s-0.9-2.1-2-2.1C336.1,133.2,335.2,134.1,335.2,135.3z"/>
		<g>
			<g>
				<path class="st11" d="M313.8,166.2c0,0-4.6,4.5-6.2,19.8c-1.1,11-3.9,34.7,4.6,37.8c8.5,3,45.8-32.6,45.8-32.6l-6-10.4
					L324.7,196c0,0,2.8-25.1-2-27.4C317.8,166.3,313.8,166.2,313.8,166.2z"/>
				<path class="st22" d="M313.8,166.2c0,0-4.6,4.5-6.2,19.8c-1.1,11-3.9,34.7,4.6,37.8c8.5,3,45.8-32.6,45.8-32.6l-6-10.4
					L324.7,196c0,0,2.8-25.1-2-27.4C317.8,166.3,313.8,166.2,313.8,166.2z"/>
			</g>
			<g>
				<path class="st14" d="M354.4,180.1c0,0,3.6-7.2,5.3-7.5c1.7-0.3,3.1,0.3,3.1,0.3s11.6-6.8,12.4-5c0.4,1-2.2,3.1-7.7,6.3
					c0,0,3.2,1.2,1.9,3c0,0,2.3,1.1,1.1,3.4c0,0,1.1,2.1-0.3,3.4s-7.7,4.9-11.4,5.5c-3.7,0.5-5.9-6.6-5.9-6.6L354.4,180.1z"/>
			</g>
		</g>
	</g>
</g>
<g id="Puzzle">
	<g>
		<path class="st10" d="M393.6,385.8c3.1,1.5,5.1,4.9,8.3,6.1c1.8,0.7,3.8,0.5,5.7-0.2v-46.3h-44.3c-0.1-1,0.1-2,0.4-3
			c1.2-3.2,4.7-5.2,6.1-8.3c2.2-4.6-0.9-10.4-5.4-12.8c-3.5-1.9-5.3-2.2-8.3-2.1c-3-0.2-4.8,0.2-8.3,2.1c-4.5,2.4-7.6,8.2-5.4,12.8
			c1.5,3.1,4.9,5.1,6.1,8.3c0.4,1,0.5,2,0.4,3h-44.3v103h103v-41.2c-1.8-0.7-3.9-0.8-5.7-0.2c-3.2,1.2-5.2,4.6-8.3,6.1
			c-4.2,2-10.4-0.9-12.8-5.4c-1.9-3.5-2.2-5.3-2.1-8.3c-0.2-3,0.2-4.8,2.1-8.3C383.2,386.7,389,383.6,393.6,385.8z"/>
		<path class="st24" d="M393.6,385.8c3.1,1.5,5.1,4.9,8.3,6.1c1.8,0.7,3.8,0.5,5.7-0.2v-46.3h-44.3c-0.1-1,0.1-2,0.4-3
			c1.2-3.2,4.7-5.2,6.1-8.3c2.2-4.6-0.9-10.4-5.4-12.8c-3.5-1.9-5.3-2.2-8.3-2.1c-3-0.2-4.8,0.2-8.3,2.1c-4.5,2.4-7.6,8.2-5.4,12.8
			c1.5,3.1,4.9,5.1,6.1,8.3c0.4,1,0.5,2,0.4,3h-44.3v103h103v-41.2c-1.8-0.7-3.9-0.8-5.7-0.2c-3.2,1.2-5.2,4.6-8.3,6.1
			c-4.2,2-10.4-0.9-12.8-5.4c-1.9-3.5-2.2-5.3-2.1-8.3c-0.2-3,0.2-4.8,2.1-8.3C383.2,386.7,389,383.6,393.6,385.8z"/>
		<path class="st10" d="M398.7,385.8c3.1,1.5,5.1,4.9,8.3,6.1c1.8,0.7,3.8,0.5,5.7-0.2v-46.3h-44.3c-0.1-1,0.1-2,0.4-3
			c1.2-3.2,4.7-5.2,6.1-8.3c2.2-4.6-0.9-10.4-5.4-12.8c-3.5-1.9-5.3-2.2-8.3-2.1c-3-0.2-4.8,0.2-8.3,2.1c-4.5,2.4-7.6,8.2-5.4,12.8
			c1.5,3.1,4.9,5.1,6.1,8.3c0.4,1,0.5,2,0.4,3h-44.3v103h103v-41.2c-1.8-0.7-3.9-0.8-5.7-0.2c-3.2,1.2-5.2,4.6-8.3,6.1
			c-4.2,2-10.4-0.9-12.8-5.4c-1.9-3.5-2.2-5.3-2.1-8.3c-0.2-3,0.2-4.8,2.1-8.3C388.3,386.7,394.1,383.6,398.7,385.8z"/>
	</g>
	<path class="st24" d="M395.6,414c0,0,3.6,6.4,9.7,5.9c6.1-0.5,7.4-3.2,7.4-3.2l-0.1-8.8l-13.7,5.2C398,413.8,396.8,414.1,395.6,414
		z"/>
</g>
<g id="Character_4">
	<g>
		<g>
			<g>
				<path class="st10" d="M522.4,359.6l35.2-13.5l20.3-19.7c0.6-0.7,6.5-10.8,6.5-10.8l10,21.4c0,0-24.8,24.9-33.9,27.8
					c-7.3,2.3-33.3,8.7-33.3,8.7L522.4,359.6z"/>
			</g>
			<path class="st24" d="M544,369.2c0,0,4.2-16.6,13.7-20.1c9.5-3.5,21.8,2,21.4,2.2c-0.4,0.2-10.6,9.8-11,9.9
				c-0.3,0.1-13.3,4.7-20.1,6.9L544,369.2z"/>
		</g>
		<g>
			<g>
				<g>
					<path class="st11" d="M480.1,346c-0.1,1,0.1,2,0.4,3c1.2,3.2,4.7,5.2,6.1,8.3c2.2,4.6-0.9,10.4-5.4,12.8
						c-3.5,1.9-5.3,2.2-8.3,2.1c-3,0.2-4.8-0.2-8.3-2.1c-4.5-2.4-7.6-8.2-5.4-12.8c1.5-3.1,4.9-5.1,6.1-8.3c0.4-1,0.5-2,0.4-3h-45.9
						v46.3c-1.9,0.7-3.9,0.9-5.8,0.2c-3.2-1.2-5.2-4.7-8.3-6.1c-4.6-2.2-10.4,0.9-12.8,5.4c-1.9,3.5-2.2,5.3-2.1,8.3
						c-0.2,3,0.2,4.8,2.1,8.3c2.4,4.5,8.2,7.6,12.8,5.4c3.1-1.5,5.1-4.9,8.3-6.1c1.9-0.7,3.9-0.5,5.8,0.2V449l102.7,0.5v-103
						L480.1,346z"/>
				</g>
				<g class="st25">
					<path d="M480.1,346c-0.1,1,0.1,2,0.4,3c1.2,3.2,4.7,5.2,6.1,8.3c2.2,4.6-0.9,10.4-5.4,12.8c-3.5,1.9-5.3,2.2-8.3,2.1
						c-3,0.2-4.8-0.2-8.3-2.1c-4.5-2.4-7.6-8.2-5.4-12.8c1.5-3.1,4.9-5.1,6.1-8.3c0.4-1,0.5-2,0.4-3h-45.9v46.3
						c-1.9,0.7-3.9,0.9-5.8,0.2c-3.2-1.2-5.2-4.7-8.3-6.1c-4.6-2.2-10.4,0.9-12.8,5.4c-1.9,3.5-2.2,5.3-2.1,8.3
						c-0.2,3,0.2,4.8,2.1,8.3c2.4,4.5,8.2,7.6,12.8,5.4c3.1-1.5,5.1-4.9,8.3-6.1c1.9-0.7,3.9-0.5,5.8,0.2V449l102.7,0.5v-103
						L480.1,346z"/>
				</g>
			</g>
			<g>
				<path class="st11" d="M484.6,346c-0.1,1,0.1,2,0.4,3c1.2,3.2,4.7,5.2,6.1,8.3c2.2,4.6-0.9,10.4-5.4,12.8
					c-3.5,1.9-5.3,2.2-8.3,2.1c-3,0.2-4.8-0.2-8.3-2.1c-4.5-2.4-7.6-8.2-5.4-12.8c1.5-3.1,4.9-5.1,6.1-8.3c0.4-1,0.5-2,0.4-3h-45.9
					v46.3c-1.9,0.7-3.9,0.9-5.8,0.2c-3.2-1.2-5.2-4.7-8.3-6.1c-4.6-2.2-10.4,0.9-12.8,5.4c-1.9,3.5-2.2,5.3-2.1,8.3
					c-0.2,3,0.2,4.8,2.1,8.3c2.4,4.5,8.2,7.6,12.8,5.4c3.1-1.5,5.1-4.9,8.3-6.1c1.9-0.7,3.9-0.5,5.8,0.2V449l102.7,0.5v-103
					L484.6,346z"/>
			</g>
		</g>
		<g>
			<g>
				<path class="st26" d="M557,415.4l16.2-1c-2.6,14.2-5.2,23.5-4.1,30.8l-6.5,4.4l-6-5.9C556.5,443.6,555.3,432,557,415.4z"/>
				<g>
					<g>
						<g>
							<g>
								<path class="st10" d="M555.5,433.7l5.9,0.1c2.8,4.9,4.8,3.8,7.8,0.3c1.7-0.2,2.1,1.8,2.3,2.3l3.1,11.6c0.3,1-0.3,2-1.3,2.2
									c-0.2,0-0.4,0.1-0.5,0.1c-5.2-0.1-7.6-0.1-14.1-0.2l-19.7-0.2c-5.4-0.1-6.4-5.5-4.2-6c10-2.1,17.1-4.9,20.2-7.8
									C555.4,435.6,554.9,435.2,555.5,433.7z"/>
								<path class="st17" d="M552.5,436.9c1.5,0.2,2.8,1.1,3.6,2.4"/>
								<path class="st17" d="M549.8,438.9c1.5,0.2,2.8,1.1,3.6,2.4"/>
								<path class="st17" d="M546.5,440.5c1.5,0.2,2.8,1.1,3.6,2.4"/>
							</g>
						</g>
					</g>
					<path class="st27" d="M573.2,450.2c-0.2,0-0.4,0.1-0.5,0.1c-5.2-0.1-7.6-0.1-14.1-0.2l-19.7-0.2c-2.9,0-4.5-1.6-5.1-3.2
						c0.8,0,40,0.8,40.5,0.6l0.2,0.9C574.7,449.1,574.1,450,573.2,450.2z"/>
				</g>
			</g>
			<path class="st11" d="M618.8,372.6c0,0-44.1-22.8-52.7-23.4s-16.8,4-18.4,21.8c-1.6,17.8,1.6,63.5,1.6,63.5l23.8,0.4l2.9-53
				c0,0,36.8,26.9,37.9,26.6c1.1-0.3,15.5-0.9,15.5-0.9L618.8,372.6z"/>
			<path class="st28" d="M618.8,372.6c0,0-44.1-22.8-52.7-23.4s-16.8,4-18.4,21.8c-1.6,17.8,1.6,63.5,1.6,63.5l23.8,0.4l2.9-53
				c0,0,36.8,26.9,37.9,26.6c1.1-0.3,15.5-0.9,15.5-0.9L618.8,372.6z"/>
			<path class="st24" d="M574.7,406.7c0,0-19.4,6.8-19.6,22.8c-0.2,16,16.9,13,16.9,13L574.7,406.7z"/>
		</g>
		<g>
			<g>
				<path class="st26" d="M635.7,448.4l-4.4-15.9c15.3-1.7,25.5,2.1,32.6-1.2l6.4,5.3l-4.2,7.9C666.1,444.6,654.8,448.4,635.7,448.4
					z"/>
				<g>
					<g>
						<g>
							<g>
								<path class="st10" d="M656.2,448.6l-1.7-6c4.2-4.4,2.4-6-2.1-8.1c-0.7-1.7,1.2-2.7,1.7-3l10.9-6.6c0.9-0.6,2.1-0.3,2.7,0.6
									c0.1,0.2,0.2,0.3,0.2,0.5c1.5,5.3,2.2,7.8,4.1,14.4l5.7,20.2c1.6,5.5-3.7,8.2-4.8,6.1c-5.1-9.6-10.2-15.9-14-18.2
									C658.2,448,658,448.7,656.2,448.6z"/>
								<path class="st17" d="M660.4,450.6c-0.2-1.6,0.3-3.2,1.3-4.4"/>
								<path class="st17" d="M663.2,452.8c-0.2-1.6,0.3-3.2,1.3-4.4"/>
								<path class="st17" d="M665.9,455.7c-0.2-1.6,0.3-3.2,1.3-4.4"/>
							</g>
						</g>
					</g>
					<path class="st27" d="M667.7,425.5c0.1,0.2,0.2,0.3,0.2,0.5c1.5,5.3,2.2,7.8,4.1,14.4l5.7,20.2c0.8,3-0.3,5.1-1.7,6.1
						c-0.2-0.8-11.3-41-11.6-41.5l0.8-0.5C666.1,424.4,667.2,424.6,667.7,425.5z"/>
				</g>
			</g>
			<path class="st11" d="M667.2,381.3l1.9,9.6c0,0,4.9,19.1-2,28.6c-6.6,9.2-16.3,10.8-16.3,10.8l2,18.4l-2,1.2c0,0-12.7,0-38.7-1.2
				c-24.7-1.1-45.9-2.3-50.3-10c-4.4-7.7-5.4-11.4,1.8-20.5c6.5-8.3,55.7-20.4,57.4-20.9l-0.7-4.2l-0.8-3L667.2,381.3z"/>
			<path class="st28" d="M667.2,381.3l1.9,9.6c0,0,4.9,19.1-2,28.6c-6.6,9.2-16.3,10.8-16.3,10.8l2,18.4l-2,1.2c0,0-12.7,0-38.7-1.2
				c-24.7-1.1-45.9-2.3-50.3-10c-4.4-7.7-5.4-11.4,1.8-20.5c6.5-8.3,55.7-20.4,57.4-20.9l-0.7-4.2l-0.8-3L667.2,381.3z"/>
			<path class="st24" d="M650.8,430.3c-1.5,0.4-55-1.3-55-1.3s15.8,2.7,27.5,3.7C635,433.7,650.8,430.3,650.8,430.3z"/>
			<path class="st24" d="M621.1,397.4l30.8-5.4C651.9,392,629.7,391.6,621.1,397.4z"/>
		</g>
		<g>
			<g>
				<g>
					<g>
						<g>
							<path class="st26" d="M542.6,375.6c0,0-2.6-4-6.4-4.7c-3.8-0.8-6.7-2.4-9.6-2.8c-2.9-0.4-0.3,2.6,1.4,3.8
								c1.7,1.3,3.6,2.7,2.5,3.9c-1.2,1.1-14.7,4.6-16.1,6.3c-1.4,1.7,0.9,1.9,0.9,1.9s-3.3,0.9-3.2,2.3c0,0.4,0.6,1.2,2.1,1
								c3.5-0.4,10.8-1.7,10.8-1.7c-0.4,0.1-9.3,2.3-10.6,2.8c-1.7,0.7-2.1,1.8-1.7,2.8c0.6,1.4,11.7-1,12.2-0.8c0,0-6.4,1.1-7,3
								c-0.6,1.8,3.5,1.3,7,0.2c3.2-1,9.8-2.2,13-3.6c3.9-1.7,6.2-3.7,6.3-7.7C544.2,378.3,542.6,375.6,542.6,375.6z"/>
						</g>
					</g>
				</g>
			</g>
			<polygon class="st26" points="538.3,375.5 548.2,371.5 551.6,382.2 540,386.3 			"/>
		</g>
		<g>
			<g>
				<g>
					<g>
						<g>
							<path class="st26" d="M609.9,301.7c0,0-2.7-6.1-2.1-18c0,0-0.7-0.1-0.7-0.1c0.1-1.7,0.2-3.2,0.4-4.6c0,0,0-0.1,0-0.1
								L594.4,292c1.2,3.5,1.6,10.7,1.5,13.8c0,0-0.7,5.8,6.4,4.3C607.6,309,609.9,301.7,609.9,301.7z"/>
							<path class="st12" d="M595.4,297.1l8.3-4.1c-0.1,2.9-1.8,6.8-7.9,8.5C595.8,301.5,595.7,298.3,595.4,297.1z"/>
						</g>
						<g>
							<path class="st26" d="M605.8,271.4c1.3,10,2.2,15.6-1.8,21.5c-6,9-18.8,6.9-23-2.5c-3.8-8.5-5.3-23.3,3.6-29
								C593.4,255.7,604.5,261.4,605.8,271.4z"/>
							<path class="st11" d="M602,257.3c-4.6-5.4-13.2-0.7-16.5,2.8c-0.5,0.5,8.3,3,7.8,2.9l2.8,2.3c0.4-0.2,1.1,3.3,1.7,6.2
								c0.6,2.7,1.9,5.2,3.8,7.3c1.6,1.7,3.7,3.8,6.1,5.4c3.1-2.3,2.2-8.4,2.6-12.1C610.9,266.6,610.8,256.1,602,257.3z"/>
							<path class="st26" d="M611.3,278.8c-0.3,2.7-1.8,5-3.6,6.3c-2.7,2-4.4-1-4.7-4.1c-0.3-2.8-0.1-6.4,3-7.2
								C609.2,273,611.6,275.7,611.3,278.8z"/>
							<path class="st11" d="M592.3,276.9c0.2,1-0.2,1.9-0.8,2c-0.7,0.1-1.4-0.6-1.5-1.6s0.2-1.9,0.8-2
								C591.4,275.2,592.1,275.9,592.3,276.9z"/>
							<path class="st11" d="M582.4,279c0.2,1-0.2,1.9-0.8,2c-0.7,0.1-1.4-0.6-1.5-1.6c-0.2-1,0.2-1.9,0.8-2
								C581.5,277.3,582.2,278,582.4,279z"/>
							<path class="st29" d="M585.5,277.8c0,0-2.2,5.6-2.9,7.9c1.6,1,3.9-0.1,3.9-0.1L585.5,277.8z"/>
							<path class="st11" d="M593.8,271.7c-0.1,0.1-0.3,0.1-0.5,0c-1.9-1-3.5-0.1-3.5-0.1c-0.2,0.1-0.5,0-0.7-0.2
								c-0.1-0.2-0.1-0.5,0.2-0.7c0.1,0,2-1.1,4.4,0.1c0.2,0.1,0.3,0.4,0.2,0.6C594,271.6,593.9,271.6,593.8,271.7z"/>
							<path class="st30" d="M590.6,288.2c1.6-0.3,2.7-1.4,3.8-2.8"/>
						</g>
						<path class="st15" d="M608.5,276.5c-0.5-0.5-1.4-0.6-2-0.3s-1.1,0.9-1.4,1.6c-0.4,0.8-0.5,1.7-0.5,2.5"/>
					</g>
					<path class="st11" d="M577.3,275.6c-0.1,0-0.2,0-0.3-0.1c-0.2-0.2-0.3-0.5-0.1-0.7c1.5-2.2,3.7-2.1,3.8-2.1
						c0.3,0,0.5,0.2,0.5,0.5c0,0.3-0.2,0.5-0.5,0.5c-0.1,0-1.8,0-3,1.7C577.6,275.5,577.4,275.6,577.3,275.6z"/>
				</g>
			</g>
			<path class="st11" d="M602,257.3c0,0-6.1-7.6-16.7-5.1c-8.5,2-13,8.3-13.1,14.2c-0.1,2.6,0.5,4.5,1.2,5.8c0.5,1,2,0.9,2.3-0.2
				c0.1-0.3,0.2-0.6,0.3-0.9c0,0.1,0.1,0.1,0.1,0.2c0.6,1,2.3,0.7,2.3-0.6c0-0.4,0.1-0.8,0.1-1.1c0,0,0,0,0,0c0.6,0.9,2,0.6,2.2-0.4
				c1-4.6,6.7-8.1,11.8-6.1l3.7,2.2C600.4,263,602,257.3,602,257.3z"/>
		</g>
		<polygon class="st24" points="617.9,390.5 617.3,394.4 600.1,399.6 604.1,402.1 621.1,397.4 621.8,389.8 		"/>
		<g>
			<g>
				<path class="st10" d="M630.8,302.9c-7.7-5-21.3-2.6-21.3-2.6l-25,15.2l17.1,40.1c0,0,7.1,17.1,11,28.4c1,2.8,2.8,6.7,5.7,6.4
					l47.4-8.6c2.3-0.4,3.8-2.7,3.2-5C664.2,360.3,637.7,307.3,630.8,302.9z"/>
				<path class="st24" d="M635.2,325.2c0,0-7.6,14.3-20.9,26.8c-5.4,5-9.1,12.3-9.1,12.3l-3.3-8.5L635.2,325.2z"/>
			</g>
			<g>
				<path class="st10" d="M611.7,314.2l-32.3,40.3l-38,17.2l3.8,15.7c0,0,30.8-8.3,43.1-16s32.8-29.3,32.8-29.3s17.8-14.3,16.9-25.8
					C637.2,304.8,620.3,302.1,611.7,314.2z"/>
			</g>
			<path class="st10" d="M594.2,309.6c0,0,1.2-6.2,1.8-5.9c0.6,0.2,6.4,3.7,6.4,3.7l6.5-9.7l3.9,2.6l-8.9,18.5L594.2,309.6z"/>
			<polygon class="st24" points="591.3,335.4 583.9,325.2 589.9,341.2 592.8,338.1 613.4,312.1 			"/>
			<path class="st24" d="M594.2,309.6c0.3,0.1,5.7,3.7,5.4,3.8c-0.3,0.1,2.3-4.3,2.3-4.3l5.7,2.2l4.7-11.3l-4.6,13l-5.4-2.6
				l-2.6,4.8L594.2,309.6z"/>
		</g>
	</g>
</g>
<g id="Character_1">
	<g>
		<g>
			<g>
				<g>
					<path class="st11" d="M225.7,232.9c0.1-1-0.1-2-0.4-3c-1.2-3.2-4.7-5.2-6.1-8.3c-2.2-4.6,0.9-10.4,5.4-12.8
						c3.5-1.9,5.3-2.2,8.3-2.1c3-0.2,4.8,0.2,8.3,2.1c4.5,2.4,7.6,8.2,5.4,12.8c-1.5,3.1-4.9,5.1-6.1,8.3c-0.4,1-0.5,2-0.4,3H286
						v-46.3c1.9-0.7,3.9-0.9,5.8-0.2c3.2,1.2,5.2,4.7,8.3,6.1c4.6,2.2,10.4-0.9,12.8-5.4c1.9-3.5,2.2-5.3,2.1-8.3
						c0.2-3-0.2-4.8-2.1-8.3c-2.4-4.5-8.2-7.6-12.8-5.4c-3.1,1.5-5.1,4.9-8.3,6.1c-1.9,0.7-3.9,0.5-5.8-0.2v-41.2l-102.7-0.5v103
						L225.7,232.9z"/>
				</g>
				<g class="st25">
					<path d="M225.7,232.9c0.1-1-0.1-2-0.4-3c-1.2-3.2-4.7-5.2-6.1-8.3c-2.2-4.6,0.9-10.4,5.4-12.8c3.5-1.9,5.3-2.2,8.3-2.1
						c3-0.2,4.8,0.2,8.3,2.1c4.5,2.4,7.6,8.2,5.4,12.8c-1.5,3.1-4.9,5.1-6.1,8.3c-0.4,1-0.5,2-0.4,3H286v-46.3
						c1.9-0.7,3.9-0.9,5.8-0.2c3.2,1.2,5.2,4.7,8.3,6.1c4.6,2.2,10.4-0.9,12.8-5.4c1.9-3.5,2.2-5.3,2.1-8.3c0.2-3-0.2-4.8-2.1-8.3
						c-2.4-4.5-8.2-7.6-12.8-5.4c-3.1,1.5-5.1,4.9-8.3,6.1c-1.9,0.7-3.9,0.5-5.8-0.2v-41.2l-102.7-0.5v103L225.7,232.9z"/>
				</g>
			</g>
			<g>
				<path class="st11" d="M228.8,232.9c0.1-1-0.1-2-0.4-3c-1.2-3.2-4.7-5.2-6.1-8.3c-2.2-4.6,0.9-10.4,5.4-12.8
					c3.5-1.9,5.3-2.2,8.3-2.1c3-0.2,4.8,0.2,8.3,2.1c4.5,2.4,7.6,8.2,5.4,12.8c-1.5,3.1-4.9,5.1-6.1,8.3c-0.4,1-0.5,2-0.4,3h45.9
					v-46.3c1.9-0.7,3.9-0.9,5.8-0.2c3.2,1.2,5.2,4.7,8.3,6.1c4.6,2.2,10.4-0.9,12.8-5.4c1.9-3.5,2.2-5.3,2.1-8.3
					c0.2-3-0.2-4.8-2.1-8.3c-2.4-4.5-8.2-7.6-12.8-5.4c-3.1,1.5-5.1,4.9-8.3,6.1c-1.9,0.7-3.9,0.5-5.8-0.2v-41.2l-102.7-0.5v103
					L228.8,232.9z"/>
			</g>
		</g>
		<g>
			<path class="st31" d="M160.6,177.8c0,0-7.5,26.6-2.7,31.2c4.8,4.6,21.6,1.5,20.7,1.2c-0.9-0.3,4.3-32.3,4.6-31.1
				C183.6,180.2,160.6,177.8,160.6,177.8z"/>
			<g>
				<g>
					<g>
						<g>
							<g>
								<path class="st31" d="M169.9,417.6l0,23l10.7,0.8l3.8-21.6C179.4,416.3,174.6,415.5,169.9,417.6z"/>
							</g>
						</g>
					</g>
				</g>
				<g>
					<g>
						<g>
							<g>
								<g>
									<path class="st11" d="M169.8,438.3c-1.1,3-1.1,15.5-1.1,15.5l22.7,0c1.3-4.5-0.7-7.6-3.4-8c-1.1-0.2-2.5-1.4-3.4-2.5
										c0-0.1-1.4-7.1-2.3-7.4c0,0-0.6-0.7-1.1,0c-0.5,0.7-0.9,3.1-0.9,3.1C176.7,434.2,173.2,434.8,169.8,438.3z"/>
								</g>
							</g>
						</g>
					</g>
				</g>
				<g>
					<g>
						<g>
							<g>
								<path class="st2" d="M169.5,441.9c2.6-1,5.3-0.6,7.5,1.1c0.4,0.3,0.8-0.4,0.4-0.7c-2.4-1.8-5.4-2.2-8.1-1.1
									C168.9,441.3,169.1,442.1,169.5,441.9L169.5,441.9z"/>
							</g>
						</g>
					</g>
				</g>
				<g>
					<g>
						<g>
							<path class="st2" d="M191.3,452C191.3,452,191.3,452,191.3,452l-22.3,0c-0.2,0-0.4-0.2-0.4-0.4c0-0.2,0.2-0.4,0.4-0.4l0,0
								l22.3,0c0.2,0,0.4,0.2,0.4,0.4C191.6,451.8,191.5,452,191.3,452z"/>
						</g>
					</g>
				</g>
			</g>
			<g>
				<g>
					<g>
						<g>
							<g>
								<path class="st31" d="M216.1,414.6l0,26l10.3,0.8l5.1-24.3C227.3,413.8,222.5,412.2,216.1,414.6z"/>
							</g>
						</g>
					</g>
				</g>
				<g>
					<g>
						<g>
							<g>
								<g>
									<path class="st11" d="M215.6,438.3c-1.1,3-1.1,15.5-1.1,15.5l26.1,0c1.3-4.5-1.5-7.2-4.1-7.6c-1.1-0.2-5.1-1.8-6.1-3
										c0-0.1-1.4-7.1-2.3-7.4c0,0-0.6-0.7-1.1,0c-0.5,0.7-0.9,3.1-0.9,3.1C222.5,434.2,219,434.9,215.6,438.3z"/>
								</g>
							</g>
						</g>
					</g>
				</g>
				<g>
					<g>
						<g>
							<g>
								<path class="st2" d="M215.3,442c2.6-1,5.3-0.6,7.5,1.1c0.4,0.3,0.8-0.4,0.4-0.7c-2.4-1.8-5.4-2.2-8.1-1.1
									C214.6,441.4,214.8,442.1,215.3,442L215.3,442z"/>
							</g>
						</g>
					</g>
				</g>
				<g>
					<g>
						<g>
							<path class="st2" d="M240.5,452L240.5,452l-25.8,0c-0.2,0-0.4-0.2-0.4-0.4c0-0.2,0.2-0.4,0.4-0.4l0,0l25.8,0
								c0.2,0,0.4,0.2,0.4,0.4C240.9,451.9,240.7,452,240.5,452z"/>
						</g>
					</g>
				</g>
			</g>
			<g>
				<g>
					<g>
						<g>
							<g>
								<path class="st11" d="M165.5,429l22.8,1.2c5.1-16.6,10.2-76,10.7-93.9c0.6-21.3,8.3-74.8,1.5-86
									c-6.8-11.1-37.3-2.3-37.3-2.3s3.8,65.2,2.3,85.9C164.1,352.1,162.1,405,165.5,429z"/>
							</g>
						</g>
					</g>
				</g>
				<g>
					<polygon class="st10" points="190.7,424.2 189.2,431.8 164.5,431 163.6,423.7 					"/>
				</g>
				<g>
					<g>
						<g>
							<g>
								<path class="st11" d="M211,429l22.6,1.2c2.8-18.4,13.8-85.2,12.9-98c-1.1-15.6-14.2-83.3-19.1-88.6s-40.5,8.3-40.5,8.3
									s14.6,58.2,26.2,83.4C215.5,340.6,209.1,406.7,211,429z"/>
							</g>
						</g>
					</g>
				</g>
				<g>
					<polygon class="st10" points="236.2,424.8 235,431.8 209.9,430.2 209.4,422.8 					"/>
				</g>
				<polygon class="st20" points="201.2,303.3 194.5,281.1 182.8,277.3 192,284.4 199.4,324.9 				"/>
			</g>
			<g>
				<g>
					<path class="st11" d="M213.9,106.8c0,1,0.4,1.7,1,1.8c0.6,0.1,1.2-0.7,1.2-1.7s-0.4-1.7-1-1.8C214.5,105,214,105.9,213.9,106.8
						z"/>
					<path class="st32" d="M214.3,106.7c0.3,3.1,1.1,6.1,2.3,9c-1.5,0.6-3.2,0.4-4.6-0.4L214.3,106.7z"/>
					<path class="st11" d="M212.1,103.7c-0.1,0-0.2,0-0.4-0.1c-0.2-0.2-0.2-0.6,0-0.8c0,0,0,0,0,0c1.1-1.4,2.8-2.2,4.6-2
						c0.3,0,0.5,0.3,0.5,0.6c0,0,0,0,0,0l0,0c-0.1,0.3-0.3,0.5-0.6,0.5l0,0c-1.4-0.1-2.8,0.6-3.6,1.7
						C212.5,103.7,212.3,103.8,212.1,103.7z"/>
				</g>
				<g>
					<path class="st31" d="M214.3,119.5c-0.1,0.5-0.3,1-0.5,1.5c-1,2.8-2.9,5.3-5.4,7c-0.6,0.4-1.3,0.8-2,1.2
						c-5.4,2.8-12,1.8-16.2-2.5c-5.4-5.4-5.3-11.6-5.9-22.1c-0.2-2.3,0.2-4.5,1.1-6.6c3.1-7.4,11.7-10.8,19.2-7.8c0,0,0,0,0,0
						C215.1,94.4,216.6,110,214.3,119.5z"/>
					<path class="st12" d="M208.4,128c-0.6,0.4-1.3,0.8-2,1.2c-3.6,1.9-8,2.1-11.7,0.5c0.5-1.3,1.1-2.5,1.9-3.6
						C200.7,125.7,204.8,126.3,208.4,128z"/>
					<path class="st31" d="M186.9,141.7c5.3,4.7,18.2,3,18.2,3s8.1-2.2,6.4-4.7c-4.7-0.8-7.1-3-8-5.8c-0.5-1.7-0.7-3.5-0.5-5.3
						c0.1-1,0.2-2,0.4-3l-16-11.6C189.5,122,192,136.1,186.9,141.7z"/>
					<path class="st11" d="M208.4,109.9l2.3,0.8l-1.1-4.6c0,0,3.4-5.1,0-9.5c0,0,9.3-2.8,4.1-7.6c-2-1.8-4.4,0-10.8-2.8
						c-3.5-1.5-14.4-1.6-15,2.8c0,0-7.9,0-8.7,13.2c-0.5,7.8,2.6,15.5,8.3,20.8c0,0,9.5,2.2,14.2-1.5
						C206.3,117.8,208.4,109.9,208.4,109.9z"/>
					<path class="st31" d="M202.3,110.7c0.4,2,1.7,3.7,3.6,4.7c2.2,0.9,3.6-2.1,3.3-5.3c-0.3-2.8-1.8-6.8-4.1-6.2
						C202.7,104.4,201.6,107.8,202.3,110.7z"/>
				</g>
			</g>
			<g>
				<path class="st10" d="M170.6,139.2c0,0-3.7,1.1-5.6,1.8c-3.9,1.4-6.4,5.7-7.8,9.9c-3.4,10.3-8.9,34.6-8.9,34.6l20,4.2l10.7-22.9
					L170.6,139.2z"/>
				<path class="st22" d="M170.6,139.2c0,0-5.3,1-8.2,3.3c-2.1,1.8-3.8,4.3-5.2,8.4c-3.4,10.3-8.9,34.6-8.9,34.6l20,4.2l10.7-22.9
					L170.6,139.2z"/>
				<g>
					<path class="st10" d="M219,140.4c-5.9-0.6-24-4.7-48.4-1.2l-5.7,90.1c0,0-0.7,13.8-2.9,25.6c24.8,10.6,54,7.6,70.6-1.3
						c-0.2,0.4-0.7-9.5-1.6-23.9c-1.5-25.4-3.9-64.9-7.1-87.8C223.8,141.3,219.6,140.4,219,140.4z"/>
				</g>
				<g class="st33">
					<path class="st2" d="M219,140.4c-5.9-0.6-24-4.7-48.4-1.2l-5.7,90.1c0,0-0.7,13.8-2.9,25.6c24.8,10.6,54,7.6,70.6-1.3
						c-0.2,0.4-0.7-9.5-1.6-23.9c-1.5-25.4-3.9-64.9-7.1-87.8C223.8,141.3,219.6,140.4,219,140.4z"/>
				</g>
				<g>
					<path class="st10" d="M186.6,138.2c0.7-2.1,1.7-3.6,2.9-4.4l13.6,1l6.4,4.2L186.6,138.2z"/>
					<path class="st22" d="M186.6,138.2c0.7-2.1,1.7-3.6,2.9-4.4l13.6,1l6.4,4.2L186.6,138.2z"/>
				</g>
				<path class="st12" d="M218.3,168.4c2.2,10.1,5.3,30,11.2,37l-1.4-20.1L218.3,168.4z"/>
				<polygon class="st12" points="167,189.5 167.6,163.4 162.1,188.2 				"/>
			</g>
			<g>
				<path class="st31" d="M228.7,176.4c-0.8,0.3,13.9,33.3,19.9,33.6s34.1-12.5,34.1-12.5l-6.3-7.5l-21.2,1.2l-10.8-23L228.7,176.4z
					"/>
				<g>
					<path class="st10" d="M221.3,141.5c-7.6,5-11.4,16.4,9,51.6l22.1-13.5c-4.5-8.2-9.2-14.2-14.4-26.1
						C227.4,138.2,221.3,141.5,221.3,141.5z"/>
					<path class="st22" d="M221.3,141.5c-7.6,5-11.4,16.4,9,51.6l22.1-13.5c-4.5-8.2-9.2-14.2-14.4-26.1
						C227.4,138.2,221.3,141.5,221.3,141.5z"/>
				</g>
				<path class="st31" d="M292.6,189.8c0-1.9-0.6-4-1.6-4.1c-1-0.1-6.6,0-6.6,0l0,0c0-1.6,2.9-3.3,2-4.3c-1.2-1.4-8.4,4.5-8.9,5.7
					c-0.9,2.4-1.3,3-1.3,3l3.8,8.7c0,0,7,4.6,8.7,3s1.5-3.4,1.5-3.4s1.6-2.3,1.5-3.7C291.4,193.2,292.6,191.8,292.6,189.8z"/>
			</g>
		</g>
	</g>
</g>
</svg>
